<?xml version="1.0" standalone="no"?>
<!DOCTYPE svg PUBLIC "-//W3C//DTD SVG 1.1//EN" "http://www.w3.org/Graphics/SVG/1.1/DTD/svg11.dtd" >
<svg xmlns="http://www.w3.org/2000/svg" xmlns:xlink="http://www.w3.org/1999/xlink" version="1.1">
<metadata>
Created by FontForge 20161003 at Tue Aug 15 14:03:51 2017
 By www-data
(c)2013 Optimo.
</metadata>
<defs>
<font id="Plain-Bold" horiz-adv-x="604" >
  <font-face 
    font-family="Plain Bold"
    font-weight="700"
    font-stretch="normal"
    units-per-em="1000"
    panose-1="2 11 0 4 2 2 2 2 2 4"
    ascent="803"
    descent="-197"
    x-height="525"
    cap-height="715"
    bbox="-60 -272 1303 1077"
    underline-thickness="50"
    underline-position="-100"
    stemh="137"
    stemv="156"
    unicode-range="U+000D-FB02"
  />
<missing-glyph horiz-adv-x="644" 
d="M50 240v49l309 309c11 -6 19 -13 26 -23zM50 142v49l347 347v-15c0 -45 -57 -74 -92 -108c-16 -15 -28 -34 -36 -54zM104 0h-49l261 261h49l-93 -93h-23v-23zM321 168l273 273v-49l-224 -224h-49zM398 0h-49l33 33h2v2l210 210v-49zM50 338v49l148 148l39 -2
c0 36 26 75 75 75h8zM384 133l210 210v-49l-210 -210v49zM50 44v49l206 206v-38h11zM50 583l196 196h49l-44 -44c-71 -19 -127 -75 -147 -147l-54 -54v49zM537 482l57 57v-49l-216 -216v7c0 42 28 52 70 85c21 17 74 46 89 116zM50 681l98 98h49l-147 -147v49zM496 0h-49
l147 147v-49zM459 698l81 81h49l-104 -104c-8 8 -17 16 -26 23zM50 436v49l56 56l46 -3zM506 647l88 88v-49l-70 -70c-5 11 -11 21 -18 31zM202 0h-49l96 96v-49zM536 579l58 58v-49l-52 -52c0 15 -3 29 -6 43zM395 732l47 47h49l-62 -62c-11 6 -22 11 -34 15zM307 742
l37 37h49l-38 -38c-9 1 -19 2 -28 2c-8 0 -20 -1 -20 -1zM300 0h-49l33 33h49zM594 49v-49h-49zM50 779h49l-49 -49v49z" />
    <glyph glyph-name="fi" unicode="fi" horiz-adv-x="628" 
d="M93 525v25c0 114 73 176 193 176c23 0 41 -3 52 -5v-115c-5 1 -15 2 -25 2c-43 0 -64 -22 -64 -67v-16h89v-113h-89v-412h-156v412h-70v113h70zM410 587v128h156v-128h-156zM566 0h-156v525h156v-525z" />
    <glyph glyph-name="fl" unicode="fl" horiz-adv-x="631" 
d="M93 525v25c0 114 73 176 193 176c23 0 41 -3 52 -5v-115c-5 1 -15 2 -25 2c-43 0 -64 -22 -64 -67v-16h89v-113h-89v-412h-156v412h-70v113h70zM566 0h-156v715h156v-715z" />
    <glyph glyph-name=".notdef" horiz-adv-x="644" 
d="M50 240v49l309 309c11 -6 19 -13 26 -23zM50 142v49l347 347v-15c0 -45 -57 -74 -92 -108c-16 -15 -28 -34 -36 -54zM104 0h-49l261 261h49l-93 -93h-23v-23zM321 168l273 273v-49l-224 -224h-49zM398 0h-49l33 33h2v2l210 210v-49zM50 338v49l148 148l39 -2
c0 36 26 75 75 75h8zM384 133l210 210v-49l-210 -210v49zM50 44v49l206 206v-38h11zM50 583l196 196h49l-44 -44c-71 -19 -127 -75 -147 -147l-54 -54v49zM537 482l57 57v-49l-216 -216v7c0 42 28 52 70 85c21 17 74 46 89 116zM50 681l98 98h49l-147 -147v49zM496 0h-49
l147 147v-49zM459 698l81 81h49l-104 -104c-8 8 -17 16 -26 23zM50 436v49l56 56l46 -3zM506 647l88 88v-49l-70 -70c-5 11 -11 21 -18 31zM202 0h-49l96 96v-49zM536 579l58 58v-49l-52 -52c0 15 -3 29 -6 43zM395 732l47 47h49l-62 -62c-11 6 -22 11 -34 15zM307 742
l37 37h49l-38 -38c-9 1 -19 2 -28 2c-8 0 -20 -1 -20 -1zM300 0h-49l33 33h49zM594 49v-49h-49zM50 779h49l-49 -49v49z" />
    <glyph glyph-name="NULL" horiz-adv-x="0" 
 />
    <glyph glyph-name="NULL" horiz-adv-x="0" 
 />
    <glyph glyph-name="CR" unicode="&#xd;" horiz-adv-x="0" 
 />
    <glyph glyph-name="space" unicode=" " horiz-adv-x="231" 
 />
    <glyph glyph-name="exclam" unicode="!" horiz-adv-x="327" 
d="M98 208c-5 125 -16 241 -16 399v108h163v-108c0 -158 -11 -274 -16 -399h-131zM244 148v-148h-163v148h163z" />
    <glyph glyph-name="quotedbl" unicode="&#x22;" horiz-adv-x="462" 
d="M66 451c-1 16 -12 221 -13 264h150c-1 -43 -12 -248 -13 -264h-124zM272 451c-1 16 -12 221 -13 264h150c-1 -43 -12 -248 -13 -264h-124z" />
    <glyph glyph-name="numbersign" unicode="#" 
d="M184 0h-99l44 216h-94l20 93h93l22 104h-95l20 93h94l43 209h99l-43 -209h94l43 209h99l-43 -209h88l-20 -93h-87l-22 -104h89l-20 -93h-88l-44 -216h-99l44 216h-94zM269 413l-22 -104h94l22 104h-94z" />
    <glyph glyph-name="dollar" unicode="$" 
d="M14 225h168c10 -63 52 -96 126 -96c66 0 110 32 110 81c0 48 -36 61 -113 82l-49 14c-158 44 -222 100 -222 210c0 102 74 179 191 202v119h153v-118c114 -21 187 -92 193 -204h-164c-10 53 -45 83 -109 83c-58 0 -92 -29 -92 -70c1 -47 33 -62 88 -78l55 -15
c162 -46 238 -93 238 -217c0 -113 -82 -191 -209 -213v-134h-153v134c-128 22 -206 102 -211 220z" />
    <glyph glyph-name="percent" unicode="%" horiz-adv-x="894" 
d="M202 323c-111 0 -171 78 -171 202c0 122 59 201 170 201s170 -80 170 -202c0 -124 -58 -201 -169 -201zM136 523c0 -67 14 -115 65 -115s64 47 64 115c0 72 -12 118 -64 118s-65 -48 -65 -118zM263 0l275 715h93l-275 -715h-93zM694 -15c-111 0 -171 78 -171 202
c0 122 59 201 170 201s170 -80 170 -202c0 -124 -58 -201 -169 -201zM628 185c0 -67 14 -115 65 -115s64 47 64 115c0 72 -12 118 -64 118s-65 -48 -65 -118z" />
    <glyph glyph-name="ampersand" unicode="&#x26;" horiz-adv-x="700" 
d="M581 -15c0 0 -54 56 -77 83c-49 -51 -120 -82 -204 -82c-163 0 -255 88 -255 217c0 96 61 162 149 205c-39 37 -73 88 -73 149c0 98 82 173 203 173c118 0 201 -64 201 -164c0 -75 -52 -138 -130 -181c31 -32 65 -72 98 -108c16 32 32 73 41 116l147 -9
c-19 -84 -53 -159 -88 -207l96 -98zM275 311c-45 -27 -77 -60 -77 -109c0 -58 47 -95 106 -95c48 0 82 24 107 57c-17 16 -30 32 -136 147zM313 464l16 11c32 21 58 47 58 84s-26 62 -64 62c-37 0 -62 -25 -62 -62c0 -34 22 -66 52 -95z" />
    <glyph glyph-name="quotesingle" unicode="'" horiz-adv-x="256" 
d="M66 451c-1 16 -12 221 -13 264h150c-1 -43 -12 -248 -13 -264h-124z" />
    <glyph glyph-name="parenleft" unicode="(" horiz-adv-x="339" 
d="M33 299c0 215 108 392 267 460v-139c-86 -83 -128 -188 -128 -319s42 -237 128 -319v-139c-160 68 -267 241 -267 456z" />
    <glyph glyph-name="parenright" unicode=")" horiz-adv-x="339" 
d="M306 299c0 -215 -107 -388 -267 -456v139c86 82 128 188 128 319s-42 236 -128 319v139c159 -68 267 -245 267 -460z" />
    <glyph glyph-name="asterisk" unicode="*" horiz-adv-x="428" 
d="M154 715h120l-20 -114l103 54l37 -115l-113 -17l82 -80l-98 -71l-51 103l-51 -103l-98 71l82 80l-113 17l37 115l102 -54z" />
    <glyph glyph-name="plus" unicode="+" 
d="M47 269v130h188v190h134v-190h188v-130h-188v-190h-134v190h-188z" />
    <glyph glyph-name="comma" unicode="," horiz-adv-x="288" 
d="M243 166l-93 -255h-137l72 255h158z" />
    <glyph glyph-name="hyphen" unicode="-" horiz-adv-x="417" 
d="M57 230v135h303v-135h-303z" />
    <glyph glyph-name="period" unicode="." horiz-adv-x="277" 
d="M57 0v166h163v-166h-163z" />
    <glyph glyph-name="slash" unicode="/" horiz-adv-x="478" 
d="M22 -105l290 820h144l-288 -820h-146z" />
    <glyph glyph-name="zero" unicode="0" horiz-adv-x="638" 
d="M319 115c84 0 109 73 109 236c0 168 -24 251 -109 251s-109 -83 -109 -251c0 -163 25 -236 109 -236zM319 732c223 0 276 -173 276 -377c0 -222 -56 -370 -276 -370s-276 148 -276 370c0 204 53 377 276 377z" />
    <glyph glyph-name="one" unicode="1" horiz-adv-x="448" 
d="M197 478h-175v113h16c95 0 157 46 179 124h140v-715h-160v478z" />
    <glyph glyph-name="two" unicode="2" horiz-adv-x="616" 
d="M571 0h-530v129c90 70 126 98 238 189c90 73 119 128 119 185s-35 89 -92 89c-69 0 -99 -48 -99 -114h-160c1 156 97 254 261 254c161 0 259 -85 259 -218c0 -107 -69 -193 -165 -266c-73 -56 -110 -79 -158 -119c22 1 36 1 59 1h268v-130z" />
    <glyph glyph-name="three" unicode="3" horiz-adv-x="618" 
d="M30 217h162c5 -66 44 -103 111 -103c73 0 109 41 109 100c0 72 -53 100 -144 100h-13v127c84 0 131 26 131 89c0 45 -34 74 -85 74c-49 0 -87 -27 -88 -85h-155c3 128 97 213 249 213c146 0 242 -79 242 -194c0 -87 -45 -126 -114 -150v-2c66 -21 144 -68 144 -182
c0 -132 -105 -220 -276 -220c-165 0 -269 85 -273 233z" />
    <glyph glyph-name="four" unicode="4" horiz-adv-x="646" 
d="M613 269v-130h-101v-139h-155v139h-334v124l304 452h185v-446h101zM169 268c27 1 49 1 88 1h100v169c0 42 2 83 3 124h-2c-26 -46 -47 -82 -75 -124l-54 -82c-22 -34 -60 -88 -60 -88z" />
    <glyph glyph-name="five" unicode="5" horiz-adv-x="611" 
d="M33 207h171c8 -53 43 -91 104 -91c67 0 107 47 107 118c0 67 -40 115 -105 115c-49 0 -78 -26 -96 -58l-159 26l44 398h429v-132h-302c-6 -49 -12 -95 -20 -147h1c33 25 77 43 139 43c135 0 233 -92 233 -238c0 -157 -109 -254 -273 -254c-157 0 -263 90 -273 220z" />
    <glyph glyph-name="six" unicode="6" horiz-adv-x="629" 
d="M578 546l-166 1c-12 36 -33 63 -87 63c-73 0 -114 -77 -114 -188c20 20 71 52 152 52c125 0 227 -81 227 -237c0 -144 -99 -250 -271 -250c-177 0 -277 124 -277 341c0 253 88 408 291 408c151 0 226 -91 245 -190zM320 347c-61 0 -107 -44 -107 -114s46 -115 108 -115
s107 44 107 113c0 72 -46 116 -108 116z" />
    <glyph glyph-name="seven" unicode="7" horiz-adv-x="545" 
d="M281 0h-176c66 205 160 407 263 581c-1 0 -1 1 -1 1c-44 -2 -74 -1 -120 -1h-223v134h507v-128c-83 -140 -167 -333 -250 -587z" />
    <glyph glyph-name="eight" unicode="8" horiz-adv-x="621" 
d="M311 -16c-166 0 -273 83 -273 214c0 89 47 149 146 183v2c-76 26 -118 80 -118 158c0 108 97 191 243 191c149 0 246 -83 246 -191c0 -78 -42 -132 -118 -158v-2c95 -34 146 -94 146 -183c0 -131 -107 -214 -272 -214zM310 315c-66 0 -111 -42 -111 -103
c0 -57 43 -100 111 -100c66 0 109 42 109 100c0 61 -44 103 -109 103zM311 606c-58 0 -94 -37 -94 -84s37 -84 94 -84s93 37 93 84s-36 84 -93 84z" />
    <glyph glyph-name="nine" unicode="9" horiz-adv-x="629" 
d="M48 170l169 -1c12 -36 33 -63 87 -63c73 0 113 72 113 186c-20 -20 -72 -52 -151 -52c-125 0 -226 83 -226 239c0 141 100 249 270 249c177 0 277 -123 277 -346c0 -253 -87 -403 -292 -403c-151 0 -228 92 -247 191zM309 370c61 0 107 44 107 114s-46 115 -108 115
s-107 -44 -107 -113c0 -72 46 -116 108 -116z" />
    <glyph glyph-name="colon" unicode=":" horiz-adv-x="277" 
d="M57 0v166h163v-166h-163zM57 324v166h163v-166h-163z" />
    <glyph glyph-name="semicolon" unicode=";" horiz-adv-x="301" 
d="M81 324v166h163v-166h-163zM246 166l-93 -255h-137l72 255h158z" />
    <glyph glyph-name="less" unicode="&#x3c;" 
d="M505 625v-150l-291 -137v-3l291 -138v-152l-435 230v118z" />
    <glyph glyph-name="equal" unicode="=" 
d="M53 363v134h498v-134h-498zM53 175v134h498v-134h-498z" />
    <glyph glyph-name="greater" unicode="&#x3e;" 
d="M99 475v150l435 -232v-118l-435 -230v152l291 138v3z" />
    <glyph glyph-name="question" unicode="?" horiz-adv-x="559" 
d="M188 494h-157c2 144 94 234 252 234c157 0 243 -89 243 -201c0 -74 -35 -131 -97 -181l-9 -7c-56 -46 -77 -67 -77 -131h-142c0 95 17 132 79 187l38 35c27 24 46 54 46 94c0 44 -32 78 -85 78c-62 0 -92 -40 -91 -108zM355 148v-148h-163v148h163z" />
    <glyph glyph-name="at" unicode="@" horiz-adv-x="815" 
d="M536 538h92l-44 -241c-5 -26 -7 -37 -7 -45c0 -14 8 -22 23 -22c52 0 100 81 100 176c0 143 -107 248 -270 248c-177 0 -302 -132 -302 -302c0 -175 126 -299 309 -299c88 0 154 23 216 62l48 -53c-72 -53 -160 -87 -267 -87c-238 0 -396 159 -396 377
c0 212 168 379 391 379c201 0 352 -134 352 -313c0 -151 -89 -267 -204 -267c-43 0 -71 24 -81 45c-23 -24 -64 -49 -119 -49c-95 0 -160 68 -160 175c0 119 80 227 198 227c54 0 93 -25 115 -59zM425 459c-69 0 -109 -66 -109 -136c0 -53 28 -90 80 -90
c70 0 109 67 109 139c0 54 -28 87 -80 87z" />
    <glyph glyph-name="A" unicode="A" horiz-adv-x="720" 
d="M-10 0c63 172 170 453 274 715h197l267 -715h-172c-21 57 -42 111 -63 169h-270l-64 -169h-169zM267 299h181c-37 117 -64 193 -90 280h-2c-25 -89 -58 -186 -89 -280z" />
    <glyph glyph-name="B" unicode="B" horiz-adv-x="652" 
d="M74 0v715h189c33 0 64 0 94 -1c150 -5 234 -64 234 -183c0 -84 -55 -136 -131 -154c78 -10 156 -59 156 -173c0 -125 -79 -179 -189 -197c-31 -5 -69 -7 -107 -7h-246zM235 305v-174h59c96 0 158 14 158 89c0 65 -53 85 -130 85h-87zM235 584v-157h62c89 0 133 18 133 82
c0 61 -46 75 -121 75h-74z" />
    <glyph glyph-name="C" unicode="C" horiz-adv-x="763" 
d="M557 224h183c-46 -150 -169 -237 -343 -237c-217 0 -362 139 -362 370c0 226 147 371 364 371c173 0 298 -92 343 -245l-179 -1c-30 69 -86 109 -165 109c-120 0 -192 -91 -192 -235c0 -138 72 -228 192 -228c75 0 127 36 159 96z" />
    <glyph glyph-name="D" unicode="D" horiz-adv-x="739" 
d="M74 0v715h178c33 0 68 0 103 -1c212 -8 348 -135 348 -354c0 -123 -56 -252 -145 -300c-81 -56 -176 -60 -308 -60h-176zM238 577v-438h56c42 0 78 4 107 13c84 25 129 90 129 207c0 110 -46 178 -129 205c-27 9 -59 13 -97 13h-66z" />
    <glyph glyph-name="E" unicode="E" horiz-adv-x="591" 
d="M236 292v-152h312v-140h-474v715h470v-140h-308v-145h283v-138h-283z" />
    <glyph glyph-name="F" unicode="F" horiz-adv-x="573" 
d="M238 0h-164v715h462v-140h-298v-145h277v-138h-277v-292z" />
    <glyph glyph-name="G" unicode="G" horiz-adv-x="791" 
d="M402 728c173 0 295 -92 340 -245l-179 -1c-30 69 -83 109 -164 109c-121 0 -193 -94 -193 -231c0 -142 73 -235 197 -235c110 0 160 62 177 137c-32 -1 -59 -1 -92 -1h-128v133h382v-394h-153v38c0 16 1 30 1 40h-1c-40 -50 -118 -91 -221 -91c-197 0 -333 150 -333 371
s144 370 367 370z" />
    <glyph glyph-name="H" unicode="H" horiz-adv-x="736" 
d="M238 0h-164v715h164v-276h260v276h164v-715h-164v298h-260v-298z" />
    <glyph glyph-name="I" unicode="I" horiz-adv-x="312" 
d="M238 0h-164v715h164v-715z" />
    <glyph glyph-name="J" unicode="J" horiz-adv-x="538" 
d="M241 -15c-155 0 -225 78 -225 206h160c3 -32 14 -63 61 -63c59 0 68 44 68 141v446h165v-448c0 -180 -56 -282 -229 -282z" />
    <glyph glyph-name="K" unicode="K" horiz-adv-x="663" 
d="M238 0h-164v715h164v-317h2c68 106 145 207 224 317h197c-88 -112 -176 -221 -264 -332l281 -383h-202c-72 106 -173 250 -236 355h-2v-355z" />
    <glyph glyph-name="L" unicode="L" horiz-adv-x="559" 
d="M74 715h164v-574h300v-141h-464v715z" />
    <glyph glyph-name="M" unicode="M" horiz-adv-x="959" 
d="M74 0v715h263l88 -300c19 -66 39 -139 58 -214h1c15 53 35 117 65 222l83 292h253v-715h-154v334c0 86 2 162 4 237h-2c-12 -48 -33 -121 -56 -198l-110 -373h-171l-109 365c-30 101 -50 179 -56 206h-2c3 -75 3 -133 3 -231v-340h-158z" />
    <glyph glyph-name="N" unicode="N" horiz-adv-x="767" 
d="M693 715v-715h-209l-155 300c-49 95 -89 177 -105 219h-1c2 -58 2 -153 2 -227v-292h-151v715h212l182 -358c36 -71 60 -130 76 -165h1c-2 59 -3 130 -3 207v316h151z" />
    <glyph glyph-name="O" unicode="O" horiz-adv-x="797" 
d="M398 728c217 0 364 -145 364 -371c0 -231 -145 -370 -365 -370c-217 0 -362 139 -362 370c0 226 147 371 363 371zM398 128c119 0 191 90 191 228c0 144 -72 235 -191 235c-120 0 -192 -91 -192 -235c0 -138 72 -228 192 -228z" />
    <glyph glyph-name="P" unicode="P" horiz-adv-x="637" 
d="M74 0v715h214c28 0 52 0 76 -1c157 -5 247 -90 247 -228c0 -76 -28 -141 -81 -181c-56 -43 -130 -50 -232 -50h-60v-255h-164zM238 576v-187h83c79 0 125 29 125 94c0 63 -39 93 -128 93h-80z" />
    <glyph glyph-name="Q" unicode="Q" horiz-adv-x="797" 
d="M397 728c217 0 365 -145 365 -371c0 -115 -36 -207 -99 -270l131 -137h-195l-59 60c-43 -15 -91 -23 -143 -23c-217 0 -362 139 -362 370c0 226 146 371 362 371zM304 252l199 3l47 -49c25 38 39 89 39 150c0 144 -72 235 -191 235c-120 0 -192 -91 -192 -235
c0 -138 72 -228 192 -228c9 0 17 0 25 1z" />
    <glyph glyph-name="R" unicode="R" horiz-adv-x="648" 
d="M237 258v-258h-163v715h264c84 0 143 -9 193 -44c52 -38 81 -98 81 -167c0 -125 -76 -191 -158 -218l179 -286h-184l-151 258h-61zM237 576v-187h92c77 0 123 31 123 94c0 68 -48 93 -134 93h-81z" />
    <glyph glyph-name="S" unicode="S" horiz-adv-x="631" 
d="M27 217h168c10 -64 52 -98 126 -98c66 0 110 33 110 83c0 49 -37 61 -114 83l-49 14c-158 45 -221 103 -221 215c0 127 107 214 270 214c156 0 260 -77 267 -215h-164c-10 54 -44 85 -109 85c-60 0 -93 -30 -93 -72c1 -48 34 -63 89 -79l55 -16c162 -46 238 -94 238 -221
c0 -137 -115 -223 -286 -223c-172 0 -281 87 -287 230z" />
    <glyph glyph-name="T" unicode="T" horiz-adv-x="586" 
d="M375 0h-164v574h-189v141h542v-141h-189v-574z" />
    <glyph glyph-name="U" unicode="U" horiz-adv-x="708" 
d="M354 128c79 0 123 55 123 166v421h164v-426c0 -90 -19 -154 -56 -203c-48 -64 -126 -98 -231 -98s-183 34 -231 98c-37 49 -56 113 -56 203v426h164v-421c0 -111 44 -166 123 -166z" />
    <glyph glyph-name="V" unicode="V" horiz-adv-x="679" 
d="M239 0c-71 208 -183 543 -239 715h181l113 -383c22 -74 28 -103 47 -181h3c19 73 27 109 50 184l114 380h171c-64 -200 -239 -715 -239 -715h-201z" />
    <glyph glyph-name="W" unicode="W" horiz-adv-x="966" 
d="M950 715c-48 -239 -98 -476 -146 -715h-215l-75 406c-12 63 -16 95 -26 169h-3c-10 -74 -14 -95 -27 -164l-78 -411h-219c-49 239 -96 476 -145 715h166c20 -111 35 -222 55 -334l14 -79c11 -67 13 -86 23 -161h4c14 95 17 112 42 240l65 334h211l59 -318
c20 -106 35 -199 42 -258h4c7 69 13 96 25 163l72 413h152z" />
    <glyph glyph-name="X" unicode="X" horiz-adv-x="667" 
d="M659 715c-73 -112 -158 -237 -229 -345c80 -124 164 -247 245 -370h-195c-41 68 -99 161 -150 243c-56 -86 -99 -156 -154 -243h-184c79 119 167 247 244 365l-228 350h191c36 -64 97 -160 137 -227c42 70 93 148 141 227h182z" />
    <glyph glyph-name="Y" unicode="Y" horiz-adv-x="622" 
d="M629 715l-236 -447v-268h-164v268s-149 287 -233 447h183l137 -295h2c30 71 70 158 135 295h176z" />
    <glyph glyph-name="Z" unicode="Z" horiz-adv-x="597" 
d="M35 0v131l222 304l101 140c-44 -1 -77 -1 -124 -1h-186v141h500v-132c-11 -16 -39 -55 -75 -103l-144 -199c-34 -48 -77 -104 -105 -141c47 1 82 1 130 1h210v-141h-529z" />
    <glyph glyph-name="bracketleft" unicode="[" horiz-adv-x="361" 
d="M329 -15v-98h-246v828h246v-97h-113v-633h113z" />
    <glyph glyph-name="backslash" unicode="\" horiz-adv-x="478" 
d="M166 715l290 -820h-146l-288 820h144z" />
    <glyph glyph-name="bracketright" unicode="]" horiz-adv-x="361" 
d="M32 -113v98h113v633h-113v97h246v-828h-246z" />
    <glyph glyph-name="asciicircum" unicode="^" 
d="M250 684h104c69 -132 134 -263 205 -396h-148c-38 80 -93 191 -107 220h-3c-14 -29 -71 -139 -109 -220h-147c71 133 136 263 205 396z" />
    <glyph glyph-name="underscore" unicode="_" horiz-adv-x="588" 
d="M56 -166v109h476v-109h-476z" />
    <glyph glyph-name="grave" unicode="`" horiz-adv-x="257" 
d="M349 596h-168l-141 119h205z" />
    <glyph glyph-name="a" unicode="a" horiz-adv-x="575" 
d="M530 0h-141c-2 20 -4 39 -3 59c-33 -33 -74 -69 -169 -69c-112 0 -190 57 -190 156c0 128 150 167 299 180c17 1 36 3 46 3c0 72 -24 107 -84 107c-54 0 -82 -28 -87 -75h-150c8 109 92 180 237 180c152 0 231 -57 231 -236v-160c0 -39 1 -106 11 -145zM371 215
c0 6 0 11 1 18l-27 -3c-116 -13 -159 -31 -159 -79c0 -38 32 -61 79 -61c72 0 106 45 106 125z" />
    <glyph glyph-name="b" unicode="b" horiz-adv-x="641" 
d="M209 0h-147v715h156v-138c0 -26 -1 -81 -1 -107c24 30 76 70 161 70c136 0 230 -101 230 -273c0 -167 -94 -280 -237 -280c-89 0 -140 46 -163 83c1 -17 1 -49 1 -70zM325 421c-70 0 -117 -60 -117 -153c0 -95 43 -160 117 -160s118 67 118 157s-44 156 -118 156z" />
    <glyph glyph-name="c" unicode="c" horiz-adv-x="594" 
d="M416 187h153c-24 -121 -117 -203 -261 -203c-169 0 -277 116 -277 278c0 164 112 280 278 280c140 0 235 -73 259 -203h-157c-14 51 -48 80 -100 80c-73 0 -119 -60 -119 -156c0 -102 46 -155 123 -155c45 0 88 24 101 79z" />
    <glyph glyph-name="d" unicode="d" horiz-adv-x="641" 
d="M579 0h-147c0 21 0 53 1 70c-23 -37 -75 -83 -165 -83c-141 0 -235 107 -235 275c0 171 97 278 233 278c87 0 134 -40 158 -70c0 26 -1 81 -1 107v138h156v-715zM316 421c-74 0 -118 -66 -118 -156s44 -157 118 -157s117 65 117 160c0 93 -47 153 -117 153z" />
    <glyph glyph-name="e" unicode="e" 
d="M411 156h159c-32 -102 -123 -172 -264 -172c-167 0 -274 109 -274 280c0 163 113 279 277 279c175 0 269 -119 269 -291c0 -10 -1 -26 -1 -26h-390c6 -78 55 -125 124 -125c47 0 82 19 100 55zM191 323h230c-8 69 -48 109 -113 109c-63 0 -108 -40 -117 -109z" />
    <glyph glyph-name="f" unicode="f" horiz-adv-x="352" 
d="M93 525v25c0 114 73 176 193 176c23 0 41 -3 52 -5v-115c-5 1 -15 2 -25 2c-43 0 -64 -22 -64 -67v-16h89v-113h-89v-412h-156v412h-70v113h70z" />
    <glyph glyph-name="g" unicode="g" horiz-adv-x="643" 
d="M46 -19h164c18 -42 49 -64 100 -64c94 0 127 65 124 185h-2c-26 -44 -85 -80 -166 -80c-140 0 -232 104 -232 258s99 260 234 260c85 0 139 -38 164 -81c-2 21 -2 50 -2 66h151v-443c0 -181 -99 -278 -277 -278c-152 0 -237 70 -258 177zM317 421
c-73 0 -118 -59 -118 -142c0 -80 44 -138 118 -138c67 0 117 53 117 143c0 80 -46 137 -117 137z" />
    <glyph glyph-name="h" unicode="h" horiz-adv-x="616" 
d="M218 0h-156v715h156v-112c0 -38 0 -94 -1 -138c25 39 76 73 155 73c71 0 126 -31 157 -84c26 -46 30 -95 30 -185v-269h-156v254c0 105 -18 162 -86 162s-99 -51 -99 -147v-269z" />
    <glyph glyph-name="i" unicode="i" horiz-adv-x="280" 
d="M62 587v128h156v-128h-156zM218 0h-156v525h156v-525z" />
    <glyph glyph-name="j" unicode="j" horiz-adv-x="280" 
d="M218 525v-524c0 -140 -44 -193 -183 -193c-22 0 -49 2 -70 6v108c8 -1 12 -1 17 -1c59 0 80 26 80 83v521h156zM62 587v128h156v-128h-156z" />
    <glyph glyph-name="k" unicode="k" horiz-adv-x="582" 
d="M218 0h-156v715h156v-423h1c27 37 139 202 159 233h188c-76 -94 -173 -208 -196 -241c40 -58 144 -190 218 -284h-198c-59 93 -159 228 -171 258h-1v-258z" />
    <glyph glyph-name="l" unicode="l" horiz-adv-x="286" 
d="M221 0h-156v715h156v-715z" />
    <glyph glyph-name="m" unicode="m" horiz-adv-x="935" 
d="M548 0h-156v254c0 111 -16 162 -80 162c-66 0 -94 -51 -94 -147v-269h-156v445c0 27 0 53 -1 80h149v-72c22 43 71 85 158 85c74 0 123 -34 152 -88h2c23 40 78 88 172 88c98 0 184 -57 184 -227v-311h-156v254c0 111 -16 162 -80 162c-66 0 -94 -51 -94 -147v-269z" />
    <glyph glyph-name="n" unicode="n" horiz-adv-x="616" 
d="M218 0h-156v445c0 27 0 53 -1 80h149v-72c22 43 75 85 162 85c71 0 126 -31 157 -84c26 -46 30 -95 30 -185v-269h-156v254c0 105 -18 162 -86 162s-99 -51 -99 -147v-269z" />
    <glyph glyph-name="o" unicode="o" horiz-adv-x="628" 
d="M313 543c170 0 284 -115 284 -281c0 -164 -112 -278 -283 -278c-173 0 -283 114 -283 279s113 280 282 280zM312 420c-77 0 -120 -63 -120 -157c0 -97 41 -156 121 -156c79 0 120 59 120 155c0 94 -41 158 -121 158z" />
    <glyph glyph-name="p" unicode="p" horiz-adv-x="641" 
d="M62 525h153c0 -23 -1 -40 -1 -55c24 30 79 70 164 70c136 0 230 -101 230 -273c0 -167 -94 -280 -237 -280c-79 0 -128 33 -154 67c1 -31 1 -67 1 -112v-122h-156v705zM325 421c-70 0 -117 -60 -117 -153c0 -95 43 -160 117 -160s118 67 118 157s-44 156 -118 156z" />
    <glyph glyph-name="q" unicode="q" horiz-adv-x="641" 
d="M425 525h154v-705h-156v138c0 32 1 56 2 98c-25 -35 -74 -69 -155 -69c-143 0 -237 107 -237 274c0 172 97 279 233 279c87 0 135 -39 159 -69v54zM316 421c-74 0 -118 -66 -118 -156s44 -157 118 -157s117 65 117 160c0 93 -47 153 -117 153z" />
    <glyph glyph-name="r" unicode="r" horiz-adv-x="400" 
d="M62 0v430c0 32 0 62 -1 95h145c0 -52 -1 -65 -2 -83h2c26 66 78 96 146 96c13 0 27 -1 32 -2v-142c-13 3 -27 4 -41 4c-115 0 -125 -74 -125 -233v-165h-156z" />
    <glyph glyph-name="s" unicode="s" horiz-adv-x="560" 
d="M24 172h161c10 -51 45 -77 103 -77c48 0 83 19 83 49c0 33 -31 43 -88 57l-67 18c-114 32 -173 68 -173 160c0 98 86 164 236 164c134 0 229 -55 240 -170h-152c-12 38 -42 61 -93 61c-47 0 -73 -18 -73 -45c0 -33 31 -42 107 -61l35 -9c137 -35 189 -73 189 -165
c0 -105 -91 -170 -246 -170c-162 0 -246 60 -262 188z" />
    <glyph glyph-name="t" unicode="t" horiz-adv-x="375" 
d="M94 412h-79v113h79v140h156v-140h95v-113h-95v-179c0 -95 2 -127 62 -127c8 0 18 1 27 3v-115c-15 -3 -35 -6 -62 -6c-128 0 -183 40 -183 186v238z" />
    <glyph glyph-name="u" unicode="u" horiz-adv-x="612" 
d="M394 525h156v-445c0 -27 0 -53 1 -80h-149v72c-22 -43 -71 -85 -158 -85c-71 0 -126 31 -157 84c-26 46 -30 95 -30 185v269h156v-254c0 -105 16 -162 84 -162s97 51 97 147v269z" />
    <glyph glyph-name="v" unicode="v" horiz-adv-x="552" 
d="M188 0l-182 525h165c36 -128 73 -242 106 -370h3c23 102 65 234 105 370h162c-61 -176 -123 -350 -184 -525h-175z" />
    <glyph glyph-name="w" unicode="w" horiz-adv-x="856" 
d="M160 0c-50 172 -98 352 -147 525h160l46 -193c18 -74 22 -114 38 -194h3c15 78 23 119 43 205l41 182h169l44 -185c15 -63 29 -135 43 -204h2c12 58 26 133 42 203l42 186h158c-49 -176 -99 -350 -148 -525h-189l-39 160c-15 62 -31 126 -39 177h-3
c-12 -63 -22 -107 -39 -176l-39 -161h-188z" />
    <glyph glyph-name="x" unicode="x" horiz-adv-x="546" 
d="M2 0l178 272l-163 253h173c21 -43 58 -108 85 -160c24 44 53 106 85 160h165c-47 -77 -113 -177 -160 -252c54 -84 127 -190 181 -273h-174c-47 83 -82 147 -99 180c-27 -54 -71 -129 -101 -180h-170z" />
    <glyph glyph-name="y" unicode="y" horiz-adv-x="550" 
d="M136 -180c0 0 49 150 61 187c-63 170 -135 348 -195 518h166c47 -156 80 -249 109 -354h5c20 86 66 241 99 354h161c-58 -161 -190 -545 -246 -705h-160z" />
    <glyph glyph-name="z" unicode="z" horiz-adv-x="527" 
d="M35 0v114c99 111 229 262 261 296c0 0 0 1 -1 1c-42 -2 -76 -2 -123 -2h-128v116h436v-114c-177 -198 -225 -255 -260 -295v-1c45 1 82 2 133 2h142v-117h-460z" />
    <glyph glyph-name="braceleft" unicode="{" horiz-adv-x="337" 
d="M31 266v69c46 13 65 30 65 109v149c0 95 28 126 140 126c17 0 60 -1 60 -1v-92c-47 -2 -62 -16 -62 -81v-91c0 -108 -14 -127 -73 -152v-2c59 -25 73 -44 73 -152v-95c0 -65 15 -76 62 -78v-92s-43 -1 -60 -1c-112 0 -140 31 -140 126v149c0 79 -19 96 -65 109z" />
    <glyph glyph-name="bar" unicode="|" horiz-adv-x="305" 
d="M84 -62v793h137v-793h-137z" />
    <glyph glyph-name="braceright" unicode="}" horiz-adv-x="337" 
d="M306 335v-69c-46 -13 -65 -30 -65 -109v-149c0 -95 -28 -126 -140 -126c-17 0 -60 1 -60 1v92c47 2 62 13 62 78v95c0 108 14 127 73 152v2c-59 25 -73 44 -73 152v91c0 65 -15 79 -62 81v92s43 1 60 1c112 0 140 -31 140 -126v-149c0 -79 19 -96 65 -109z" />
    <glyph glyph-name="asciitilde" unicode="~" 
d="M477 430l89 -69c-39 -71 -92 -129 -162 -129c-39 0 -72 14 -115 34l-17 8c-28 13 -50 25 -72 25c-27 0 -46 -17 -73 -66l-89 69c39 71 92 129 162 129c39 0 72 -14 115 -34l17 -8c28 -13 50 -25 72 -25c27 0 46 17 73 66z" />
    <glyph glyph-name="uni00A0" unicode="&#xa0;" horiz-adv-x="231" 
 />
    <glyph glyph-name="exclamdown" unicode="&#xa1;" horiz-adv-x="310" 
d="M90 315h132c5 -126 16 -243 16 -402v-109h-164v109c0 159 11 276 16 402zM237 525v-149h-164v149h164z" />
    <glyph glyph-name="cent" unicode="&#xa2;" 
d="M421 187h153c-20 -102 -89 -175 -195 -196v-73h-133v73c-130 26 -210 131 -210 271s82 246 210 274v86h133v-85c104 -20 174 -89 194 -197h-157c-8 27 -21 49 -40 62v-280c21 13 37 34 45 65zM197 263c0 -65 18 -111 52 -135v269c-33 -26 -52 -73 -52 -134z" />
    <glyph glyph-name="sterling" unicode="&#xa3;" 
d="M549 117v-117h-484v109c86 9 119 58 119 114c0 29 -8 59 -21 90h-124v114h77c-8 29 -13 61 -13 91c0 116 82 209 238 209c145 0 225 -76 227 -205h-143c-7 50 -31 88 -88 88c-65 0 -86 -45 -86 -96c0 -28 7 -58 16 -84h165v-117h-122c11 -31 20 -65 20 -98
c0 -32 -9 -69 -31 -99c25 1 85 1 105 1h145z" />
    <glyph glyph-name="currency" unicode="&#xa4;" 
d="M474 79l-53 52c-75 -39 -164 -39 -238 1l-55 -54l-109 110l55 55c-37 74 -38 162 0 235l-55 56l109 110l56 -56c74 38 163 38 236 1l54 54l110 -109l-53 -53c40 -75 40 -166 1 -241l52 -52zM213 269c51 -50 131 -50 181 0c51 50 51 132 1 182s-132 50 -182 0
c-51 -50 -50 -132 0 -182z" />
    <glyph glyph-name="yen" unicode="&#xa5;" 
d="M618 715l-127 -239h62v-113h-121l-39 -74h160v-113h-171v-176h-164v176h-169v113h158c-9 16 -22 42 -39 74h-119v113h61c-43 81 -90 171 -125 239h183l137 -295h2c30 71 70 158 135 295h176z" />
    <glyph glyph-name="brokenbar" unicode="&#xa6;" horiz-adv-x="307" 
d="M85 428v303h137v-303h-137zM85 -62v303h137v-303h-137z" />
    <glyph glyph-name="section" unicode="&#xa7;" 
d="M46 78h159c6 -42 40 -72 97 -72c49 0 83 17 83 49c0 43 -50 55 -131 87l-56 22c-99 39 -164 88 -164 177c0 62 38 102 100 126c0 1 1 1 1 2c-25 17 -62 41 -62 108c0 91 84 152 233 152c133 0 225 -57 231 -164h-150c-9 39 -42 56 -87 56c-47 0 -73 -17 -73 -43
c0 -30 32 -42 98 -68l38 -15c137 -56 206 -96 206 -187c0 -65 -30 -102 -88 -131c40 -30 66 -58 66 -113c0 -100 -98 -168 -248 -168c-151 0 -243 74 -253 182zM378 235c25 4 45 30 45 54c0 41 -37 55 -120 88l-79 31c-23 -6 -44 -24 -44 -50c0 -37 31 -52 102 -82z" />
    <glyph glyph-name="dieresis" unicode="&#xa8;" horiz-adv-x="491" 
d="M125 596v119h124v-119h-124zM321 596v119h123v-119h-123z" />
    <glyph glyph-name="copyright" unicode="&#xa9;" horiz-adv-x="827" 
d="M507 277h114c-28 -91 -103 -144 -208 -144c-132 0 -220 84 -220 224c0 137 90 225 221 225c105 0 181 -56 208 -149h-111c-18 41 -53 62 -99 62c-70 0 -112 -55 -112 -138c0 -80 42 -134 112 -134c44 0 76 17 95 54zM790 360c0 -210 -167 -377 -378 -377
c-208 0 -375 168 -375 377c0 208 166 376 377 376c209 0 376 -168 376 -376zM721 360c0 171 -138 310 -307 310c-172 0 -307 -139 -307 -310c0 -172 135 -312 306 -312c170 0 308 139 308 312z" />
    <glyph glyph-name="ordfeminine" unicode="&#xaa;" horiz-adv-x="469" 
d="M414 179h-108c-1 17 -2 29 -2 40c-24 -25 -52 -48 -122 -48c-85 0 -144 43 -144 118c0 95 112 123 224 133l34 3c-2 52 -20 79 -63 79c-37 0 -58 -22 -62 -55h-115c6 80 66 135 177 135c116 0 177 -45 177 -178v-139c0 -30 1 -58 4 -88zM295 353l-16 -2
c-77 -10 -119 -27 -119 -58c0 -27 24 -44 58 -44c44 0 76 23 77 96v8z" />
    <glyph glyph-name="guillemotleft" unicode="&#xab;" horiz-adv-x="541" 
d="M283 473l-96 -187l96 -188h-144l-102 188l102 187h144zM496 473l-91 -187l91 -188h-142l-102 188l102 187h142z" />
    <glyph glyph-name="logicalnot" unicode="&#xac;" 
d="M41 333v134h505v-330h-145v196h-360z" />
    <glyph glyph-name="uni00AD" unicode="&#xad;" horiz-adv-x="417" 
d="M57 230v135h303v-135h-303z" />
    <glyph glyph-name="registered" unicode="&#xae;" horiz-adv-x="536" 
d="M239 464v-96h-71v271h119c22 0 40 -4 54 -11c25 -13 41 -36 41 -70c0 -47 -26 -71 -56 -83l65 -107h-81l-55 96h-16zM239 581v-60h31c26 0 41 10 41 30c0 22 -16 30 -45 30h-27zM502 501c0 -130 -104 -234 -234 -234c-129 0 -233 104 -233 234c0 129 103 234 234 234
c129 0 233 -105 233 -234zM452 501c0 103 -82 186 -183 186c-103 0 -184 -83 -184 -186s81 -187 183 -187s184 84 184 187z" />
    <glyph glyph-name="macron" unicode="&#xaf;" horiz-adv-x="428" 
d="M80 606v93h273v-93h-273z" />
    <glyph glyph-name="degree" unicode="&#xb0;" horiz-adv-x="403" 
d="M202 400c-94 0 -167 71 -167 164s73 165 167 165s166 -72 166 -165s-72 -164 -166 -164zM131 564c0 -40 31 -70 71 -70s70 30 70 70c0 41 -31 71 -70 71c-40 0 -71 -30 -71 -71z" />
    <glyph glyph-name="plusminus" unicode="&#xb1;" 
d="M51 0v134h498v-134h-498zM47 329v130h188v140h134v-140h188v-130h-188v-140h-134v140h-188z" />
    <glyph glyph-name="twosuperior" unicode="&#xb2;" horiz-adv-x="445" 
d="M390 271h-337v84c54 42 81 62 149 117c54 43 71 77 71 110c0 32 -20 50 -51 50c-39 0 -56 -29 -56 -69h-112c1 100 68 163 171 163s164 -54 164 -137c0 -70 -42 -120 -100 -165c-18 -14 -33 -25 -46 -34c-18 -13 -23 -17 -44 -31h191v-88z" />
    <glyph glyph-name="threesuperior" unicode="&#xb3;" horiz-adv-x="415" 
d="M38 418h105c3 -40 25 -62 62 -62c41 0 61 22 61 56c0 40 -30 56 -82 56h-13v84c51 0 79 13 79 49c0 25 -19 40 -46 40s-48 -15 -48 -51h-104c2 82 62 136 155 136c91 0 151 -49 151 -120c0 -49 -24 -74 -61 -91c39 -15 79 -43 79 -109c0 -81 -65 -136 -171 -136
c-102 0 -165 54 -167 148z" />
    <glyph glyph-name="acute" unicode="&#xb4;" horiz-adv-x="427" 
d="M252 596h-168l104 119h205z" />
    <glyph glyph-name="mu" unicode="&#xb5;" horiz-adv-x="617" 
d="M218 -180h-156v705h156v-254c0 -105 16 -162 84 -162s97 51 97 147v269h156v-445c0 -27 0 -53 1 -80h-149v72c-28 -57 -82 -82 -141 -82c-16 0 -32 1 -48 5v-175z" />
    <glyph glyph-name="paragraph" unicode="&#xb6;" horiz-adv-x="667" 
d="M377 608v-721h-107v389c-128 0 -244 87 -244 221c0 76 32 134 89 174c54 38 112 44 189 44h297v-107h-43v-721h-107v721h-74z" />
    <glyph glyph-name="periodcentered" unicode="&#xb7;" horiz-adv-x="277" 
d="M57 236v166h163v-166h-163z" />
    <glyph glyph-name="cedilla" unicode="&#xb8;" horiz-adv-x="369" 
d="M84 -163l93 114h146l-76 -114h-163z" />
    <glyph glyph-name="onesuperior" unicode="&#xb9;" horiz-adv-x="296" 
d="M134 569h-108v69h10c58 0 96 29 109 77h88v-439h-99v293z" />
    <glyph glyph-name="ordmasculine" unicode="&#xba;" horiz-adv-x="495" 
d="M246 588c129 0 214 -85 214 -211c0 -124 -84 -208 -213 -208c-130 0 -212 84 -212 209s84 210 211 210zM245 495c-55 0 -88 -47 -88 -117c0 -72 31 -116 89 -116s89 44 89 115c0 70 -31 118 -90 118z" />
    <glyph glyph-name="guillemotright" unicode="&#xbb;" horiz-adv-x="541" 
d="M354 286l-96 187h144l102 -187l-102 -188h-144zM136 286l-91 187h142l102 -187l-102 -188h-142z" />
    <glyph glyph-name="onequarter" unicode="&#xbc;" horiz-adv-x="819" 
d="M630 83h-214v76l126 180c26 37 69 101 69 101h118v-276h58v-81h-58v-83h-99v83zM189 0l275 715h93l-275 -715h-93zM138 569h-108v69h10c58 0 96 29 109 77h88v-439h-99v293zM627 164v97c0 23 1 50 2 68l-44 -68l-65 -97h107z" />
    <glyph glyph-name="onehalf" unicode="&#xbd;" horiz-adv-x="844" 
d="M803 0h-337v84c54 42 81 62 149 117c54 43 71 77 71 110c0 32 -20 50 -51 50c-39 0 -56 -29 -56 -69h-112c1 100 68 163 171 163s164 -54 164 -137c0 -70 -42 -120 -100 -165c-18 -14 -33 -25 -46 -34c-18 -13 -23 -17 -44 -31h191v-88zM189 0l275 715h93l-275 -715h-93z
M138 569h-108v69h10c58 0 96 29 109 77h88v-439h-99v293z" />
    <glyph glyph-name="threequarters" unicode="&#xbe;" horiz-adv-x="917" 
d="M729 83h-214v76l126 180c26 37 69 101 69 101h118v-276h58v-81h-58v-83h-99v83zM34 418h105c3 -40 25 -62 62 -62c41 0 61 22 61 56c0 40 -30 56 -82 56h-13v84c51 0 79 13 79 49c0 25 -19 40 -46 40s-48 -15 -48 -51h-104c2 82 62 136 155 136c91 0 151 -49 151 -120
c0 -49 -24 -74 -61 -91c39 -15 79 -43 79 -109c0 -81 -65 -136 -171 -136c-102 0 -165 54 -167 148zM288 0l275 715h93l-275 -715h-93zM726 164v97c0 23 1 50 2 68l-44 -68l-65 -97h107z" />
    <glyph glyph-name="questiondown" unicode="&#xbf;" horiz-adv-x="552" 
d="M367 31h157c-2 -144 -94 -234 -252 -234c-157 0 -243 89 -243 201c0 74 35 131 97 181l9 7c56 46 77 67 77 131h142c0 -95 -17 -132 -79 -187l-38 -35c-27 -24 -46 -54 -46 -94c0 -44 32 -78 85 -78c62 0 92 40 91 108zM200 377v148h163v-148h-163z" />
    <glyph glyph-name="Agrave" unicode="&#xc0;" horiz-adv-x="720" 
d="M-10 0c63 172 170 453 274 715h197l267 -715h-172c-21 57 -42 111 -63 169h-270l-64 -169h-169zM267 299h181c-37 117 -64 193 -90 280h-2c-25 -89 -58 -186 -89 -280zM465 761h-162l-139 115h197z" />
    <glyph glyph-name="Aacute" unicode="&#xc1;" horiz-adv-x="720" 
d="M-10 0c63 172 170 453 274 715h197l267 -715h-172c-21 57 -42 111 -63 169h-270l-64 -169h-169zM267 299h181c-37 117 -64 193 -90 280h-2c-25 -89 -58 -186 -89 -280zM426 761h-162l104 115h197z" />
    <glyph glyph-name="Acircumflex" unicode="&#xc2;" horiz-adv-x="720" 
d="M-10 0c63 172 170 453 274 715h197l267 -715h-172c-21 57 -42 111 -63 169h-270l-64 -169h-169zM267 299h181c-37 117 -64 193 -90 280h-2c-25 -89 -58 -186 -89 -280zM276 876h160l106 -115h-137l-47 51l-48 -51h-137z" />
    <glyph glyph-name="Atilde" unicode="&#xc3;" horiz-adv-x="720" 
d="M-10 0c63 172 170 453 274 715h197l267 -715h-172c-21 57 -42 111 -63 169h-270l-64 -169h-169zM267 299h181c-37 117 -64 193 -90 280h-2c-25 -89 -58 -186 -89 -280zM356 777c-24 12 -35 18 -47 18c-17 0 -26 -10 -28 -31h-84c-1 64 36 122 105 122c28 0 47 -9 69 -20
c26 -13 38 -17 48 -17c18 0 24 10 28 34h81c0 -70 -35 -126 -99 -126c-27 0 -51 9 -73 20z" />
    <glyph glyph-name="Adieresis" unicode="&#xc4;" horiz-adv-x="720" 
d="M-10 0c63 172 170 453 274 715h197l267 -715h-172c-21 57 -42 111 -63 169h-270l-64 -169h-169zM267 299h181c-37 117 -64 193 -90 280h-2c-25 -89 -58 -186 -89 -280zM203 754v119h124v-119h-124zM399 754v119h123v-119h-123z" />
    <glyph glyph-name="Aring" unicode="&#xc5;" horiz-adv-x="720" 
d="M-10 0c63 172 170 453 274 715h197l267 -715h-172c-21 57 -42 111 -63 169h-270l-64 -169h-169zM356 738c-60 0 -107 49 -107 109c0 58 49 107 108 107c60 0 108 -49 108 -107c0 -60 -48 -109 -109 -109zM267 299h181c-37 117 -64 193 -90 280h-2
c-25 -89 -58 -186 -89 -280zM317 847c0 -23 17 -41 39 -41c23 0 40 17 40 41c0 21 -17 39 -40 39c-22 0 -39 -18 -39 -39z" />
    <glyph glyph-name="AE" unicode="&#xc6;" horiz-adv-x="994" 
d="M651 292l3 -152h297v-140h-468l-4 169h-232l-95 -169h-172l413 715h554v-140h-302l3 -145h274v-138h-271zM318 299h157c-2 117 -3 193 -6 280h-2c-44 -89 -97 -186 -149 -280z" />
    <glyph glyph-name="Ccedilla" unicode="&#xc7;" horiz-adv-x="763" 
d="M557 224h183c-46 -150 -169 -237 -343 -237c-217 0 -362 139 -362 370c0 226 147 371 364 371c173 0 298 -92 343 -245l-179 -1c-30 69 -86 109 -165 109c-120 0 -192 -91 -192 -235c0 -138 72 -228 192 -228c75 0 127 36 159 96zM243 -163l93 114h146l-76 -114h-163z
" />
    <glyph glyph-name="Egrave" unicode="&#xc8;" horiz-adv-x="591" 
d="M236 292v-152h312v-140h-474v715h470v-140h-308v-145h283v-138h-283zM416 761h-162l-139 115h197z" />
    <glyph glyph-name="Eacute" unicode="&#xc9;" horiz-adv-x="591" 
d="M236 292v-152h312v-140h-474v715h470v-140h-308v-145h283v-138h-283zM353 761h-162l104 115h197z" />
    <glyph glyph-name="Ecircumflex" unicode="&#xca;" horiz-adv-x="591" 
d="M236 292v-152h312v-140h-474v715h470v-140h-308v-145h283v-138h-283zM231 876h160l106 -115h-137l-47 51l-48 -51h-137z" />
    <glyph glyph-name="Edieresis" unicode="&#xcb;" horiz-adv-x="591" 
d="M236 292v-152h312v-140h-474v715h470v-140h-308v-145h283v-138h-283zM153 754v119h124v-119h-124zM349 754v119h123v-119h-123z" />
    <glyph glyph-name="Igrave" unicode="&#xcc;" horiz-adv-x="312" 
d="M238 0h-164v715h164v-715zM248 761h-162l-139 115h197z" />
    <glyph glyph-name="Iacute" unicode="&#xcd;" horiz-adv-x="312" 
d="M238 0h-164v715h164v-715zM236 761h-162l104 115h197z" />
    <glyph glyph-name="Icircumflex" unicode="&#xce;" horiz-adv-x="312" 
d="M238 0h-164v715h164v-715zM74 876h160l106 -115h-137l-47 51l-48 -51h-137z" />
    <glyph glyph-name="Idieresis" unicode="&#xcf;" horiz-adv-x="312" 
d="M238 0h-164v715h164v-715zM-3 754v119h124v-119h-124zM193 754v119h123v-119h-123z" />
    <glyph glyph-name="Eth" unicode="&#xd0;" horiz-adv-x="745" 
d="M20 294v138h60v283h178c33 0 68 0 103 -1c212 -8 348 -135 348 -354c0 -123 -56 -252 -145 -300c-81 -56 -176 -60 -308 -60h-176v294h-60zM244 577v-145h106v-138h-106v-155h56c42 0 78 4 107 13c84 25 129 90 129 207c0 110 -46 178 -129 205c-27 9 -59 13 -97 13h-66z
" />
    <glyph glyph-name="Ntilde" unicode="&#xd1;" horiz-adv-x="767" 
d="M693 715v-715h-209l-155 300c-49 95 -89 177 -105 219h-1c2 -58 2 -153 2 -227v-292h-151v715h212l182 -358c36 -71 60 -130 76 -165h1c-2 59 -3 130 -3 207v316h151zM392 777c-24 12 -35 18 -47 18c-17 0 -26 -10 -28 -31h-84c-1 64 36 122 105 122c28 0 47 -9 69 -20
c26 -13 38 -17 48 -17c18 0 24 10 28 34h81c0 -70 -35 -126 -99 -126c-27 0 -51 9 -73 20z" />
    <glyph glyph-name="Ograve" unicode="&#xd2;" horiz-adv-x="797" 
d="M398 728c217 0 364 -145 364 -371c0 -231 -145 -370 -365 -370c-217 0 -362 139 -362 370c0 226 147 371 363 371zM398 128c119 0 191 90 191 228c0 144 -72 235 -191 235c-120 0 -192 -91 -192 -235c0 -138 72 -228 192 -228zM505 761h-162l-139 115h197z" />
    <glyph glyph-name="Oacute" unicode="&#xd3;" horiz-adv-x="797" 
d="M398 728c217 0 364 -145 364 -371c0 -231 -145 -370 -365 -370c-217 0 -362 139 -362 370c0 226 147 371 363 371zM398 128c119 0 191 90 191 228c0 144 -72 235 -191 235c-120 0 -192 -91 -192 -235c0 -138 72 -228 192 -228zM458 761h-162l104 115h197z" />
    <glyph glyph-name="Ocircumflex" unicode="&#xd4;" horiz-adv-x="797" 
d="M398 728c217 0 364 -145 364 -371c0 -231 -145 -370 -365 -370c-217 0 -362 139 -362 370c0 226 147 371 363 371zM398 128c119 0 191 90 191 228c0 144 -72 235 -191 235c-120 0 -192 -91 -192 -235c0 -138 72 -228 192 -228zM319 876h160l106 -115h-137l-47 51l-48 -51
h-137z" />
    <glyph glyph-name="Otilde" unicode="&#xd5;" horiz-adv-x="797" 
d="M398 728c217 0 364 -145 364 -371c0 -231 -145 -370 -365 -370c-217 0 -362 139 -362 370c0 226 147 371 363 371zM398 128c119 0 191 90 191 228c0 144 -72 235 -191 235c-120 0 -192 -91 -192 -235c0 -138 72 -228 192 -228zM392 777c-24 12 -35 18 -47 18
c-17 0 -26 -10 -28 -31h-84c-1 64 36 122 105 122c28 0 47 -9 69 -20c26 -13 38 -17 48 -17c18 0 24 10 28 34h81c0 -70 -35 -126 -99 -126c-27 0 -51 9 -73 20z" />
    <glyph glyph-name="Odieresis" unicode="&#xd6;" horiz-adv-x="797" 
d="M398 728c217 0 364 -145 364 -371c0 -231 -145 -370 -365 -370c-217 0 -362 139 -362 370c0 226 147 371 363 371zM398 128c119 0 191 90 191 228c0 144 -72 235 -191 235c-120 0 -192 -91 -192 -235c0 -138 72 -228 192 -228zM236 754v119h124v-119h-124zM432 754v119
h123v-119h-123z" />
    <glyph glyph-name="multiply" unicode="&#xd7;" 
d="M445 556l93 -93l-143 -143l143 -143l-93 -93l-143 143l-143 -143l-93 93l143 143l-143 143l93 93l143 -143z" />
    <glyph glyph-name="Oslash" unicode="&#xd8;" horiz-adv-x="797" 
d="M398 728c36 0 71 -4 103 -12l43 76l142 -77l-41 -73c74 -64 117 -163 117 -285c0 -231 -145 -370 -365 -370c-42 0 -81 5 -117 15l-45 -80l-142 77l46 82c-66 63 -104 157 -104 276c0 226 147 371 363 371zM398 128c119 0 191 90 191 228c0 54 -10 100 -29 137l-206 -361
c14 -3 28 -4 44 -4zM206 356c0 -46 8 -86 22 -119l200 352c-9 1 -20 2 -30 2c-120 0 -192 -91 -192 -235z" />
    <glyph glyph-name="Ugrave" unicode="&#xd9;" horiz-adv-x="708" 
d="M354 128c79 0 123 55 123 166v421h164v-426c0 -90 -19 -154 -56 -203c-48 -64 -126 -98 -231 -98s-183 34 -231 98c-37 49 -56 113 -56 203v426h164v-421c0 -111 44 -166 123 -166zM464 761h-162l-139 115h197z" />
    <glyph glyph-name="Uacute" unicode="&#xda;" horiz-adv-x="708" 
d="M354 128c79 0 123 55 123 166v421h164v-426c0 -90 -19 -154 -56 -203c-48 -64 -126 -98 -231 -98s-183 34 -231 98c-37 49 -56 113 -56 203v426h164v-421c0 -111 44 -166 123 -166zM405 761h-162l104 115h197z" />
    <glyph glyph-name="Ucircumflex" unicode="&#xdb;" horiz-adv-x="708" 
d="M354 128c79 0 123 55 123 166v421h164v-426c0 -90 -19 -154 -56 -203c-48 -64 -126 -98 -231 -98s-183 34 -231 98c-37 49 -56 113 -56 203v426h164v-421c0 -111 44 -166 123 -166zM273 876h160l106 -115h-137l-47 51l-48 -51h-137z" />
    <glyph glyph-name="Udieresis" unicode="&#xdc;" horiz-adv-x="708" 
d="M354 128c79 0 123 55 123 166v421h164v-426c0 -90 -19 -154 -56 -203c-48 -64 -126 -98 -231 -98s-183 34 -231 98c-37 49 -56 113 -56 203v426h164v-421c0 -111 44 -166 123 -166zM195 754v119h124v-119h-124zM391 754v119h123v-119h-123z" />
    <glyph glyph-name="Yacute" unicode="&#xdd;" horiz-adv-x="622" 
d="M629 715l-236 -447v-268h-164v268s-149 287 -233 447h183l137 -295h2c30 71 70 158 135 295h176zM376 761h-162l104 115h197z" />
    <glyph glyph-name="Thorn" unicode="&#xde;" horiz-adv-x="626" 
d="M74 715h164v-121h50c28 0 52 0 76 -1c157 -5 247 -90 247 -228c0 -76 -28 -141 -81 -181c-56 -43 -130 -50 -232 -50h-60v-134h-164v715zM238 455v-187h83c79 0 125 29 125 94c0 63 -39 93 -128 93h-80z" />
    <glyph glyph-name="germandbls" unicode="&#xdf;" horiz-adv-x="600" 
d="M62 0v477c0 90 19 154 69 196c39 32 95 50 169 50c149 0 234 -65 234 -172c0 -86 -47 -130 -116 -146c85 -22 149 -82 149 -190c0 -148 -101 -221 -236 -221c-18 0 -38 1 -64 5v112s13 -2 26 -2c63 0 117 33 117 115c0 107 -88 113 -129 113h-13v115h9
c65 0 100 26 100 82c0 44 -25 73 -78 73c-42 0 -66 -20 -76 -56c-4 -16 -5 -36 -5 -58v-493h-156z" />
    <glyph glyph-name="agrave" unicode="&#xe0;" horiz-adv-x="575" 
d="M530 0h-141c-2 20 -4 39 -3 59c-33 -33 -74 -69 -169 -69c-112 0 -190 57 -190 156c0 128 150 167 299 180c17 1 36 3 46 3c0 72 -24 107 -84 107c-54 0 -82 -28 -87 -75h-150c8 109 92 180 237 180c152 0 231 -57 231 -236v-160c0 -39 1 -106 11 -145zM371 215
c0 6 0 11 1 18l-27 -3c-116 -13 -159 -31 -159 -79c0 -38 32 -61 79 -61c72 0 106 45 106 125zM398 596h-168l-141 119h205z" />
    <glyph glyph-name="aacute" unicode="&#xe1;" horiz-adv-x="575" 
d="M530 0h-141c-2 20 -4 39 -3 59c-33 -33 -74 -69 -169 -69c-112 0 -190 57 -190 156c0 128 150 167 299 180c17 1 36 3 46 3c0 72 -24 107 -84 107c-54 0 -82 -28 -87 -75h-150c8 109 92 180 237 180c152 0 231 -57 231 -236v-160c0 -39 1 -106 11 -145zM371 215
c0 6 0 11 1 18l-27 -3c-116 -13 -159 -31 -159 -79c0 -38 32 -61 79 -61c72 0 106 45 106 125zM346 596h-168l104 119h205z" />
    <glyph glyph-name="acircumflex" unicode="&#xe2;" horiz-adv-x="575" 
d="M530 0h-141c-2 20 -4 39 -3 59c-33 -33 -74 -69 -169 -69c-112 0 -190 57 -190 156c0 128 150 167 299 180c17 1 36 3 46 3c0 72 -24 107 -84 107c-54 0 -82 -28 -87 -75h-150c8 109 92 180 237 180c152 0 231 -57 231 -236v-160c0 -39 1 -106 11 -145zM371 215
c0 6 0 11 1 18l-27 -3c-116 -13 -159 -31 -159 -79c0 -38 32 -61 79 -61c72 0 106 45 106 125zM208 715h159l106 -119h-137l-47 51l-48 -51h-137z" />
    <glyph glyph-name="atilde" unicode="&#xe3;" horiz-adv-x="575" 
d="M530 0h-141c-2 20 -4 39 -3 59c-33 -33 -74 -69 -169 -69c-112 0 -190 57 -190 156c0 128 150 167 299 180c17 1 36 3 46 3c0 72 -24 107 -84 107c-54 0 -82 -28 -87 -75h-150c8 109 92 180 237 180c152 0 231 -57 231 -236v-160c0 -39 1 -106 11 -145zM371 215
c0 6 0 11 1 18l-27 -3c-116 -13 -159 -31 -159 -79c0 -38 32 -61 79 -61c72 0 106 45 106 125zM283 609c-24 12 -35 18 -47 18c-17 0 -26 -10 -28 -31h-84c-1 64 36 122 105 122c28 0 47 -9 69 -20c26 -13 38 -17 48 -17c18 0 24 10 28 34h81c0 -70 -35 -126 -99 -126
c-27 0 -51 9 -73 20z" />
    <glyph glyph-name="adieresis" unicode="&#xe4;" horiz-adv-x="575" 
d="M530 0h-141c-2 20 -4 39 -3 59c-33 -33 -74 -69 -169 -69c-112 0 -190 57 -190 156c0 128 150 167 299 180c17 1 36 3 46 3c0 72 -24 107 -84 107c-54 0 -82 -28 -87 -75h-150c8 109 92 180 237 180c152 0 231 -57 231 -236v-160c0 -39 1 -106 11 -145zM371 215
c0 6 0 11 1 18l-27 -3c-116 -13 -159 -31 -159 -79c0 -38 32 -61 79 -61c72 0 106 45 106 125zM126 596v119h124v-119h-124zM322 596v119h123v-119h-123z" />
    <glyph glyph-name="aring" unicode="&#xe5;" horiz-adv-x="575" 
d="M530 0h-141c-2 20 -4 39 -3 59c-33 -33 -74 -69 -169 -69c-112 0 -190 57 -190 156c0 128 150 167 299 180c17 1 36 3 46 3c0 72 -24 107 -84 107c-54 0 -82 -28 -87 -75h-150c8 109 92 180 237 180c152 0 231 -57 231 -236v-160c0 -39 1 -106 11 -145zM371 215
c0 6 0 11 1 18l-27 -3c-116 -13 -159 -31 -159 -79c0 -38 32 -61 79 -61c72 0 106 45 106 125zM287 568c-60 0 -107 49 -107 109c0 58 49 107 108 107c60 0 108 -49 108 -107c0 -60 -48 -109 -109 -109zM248 677c0 -23 17 -41 39 -41c23 0 40 17 40 41c0 21 -17 39 -40 39
c-22 0 -39 -18 -39 -39z" />
    <glyph glyph-name="ae" unicode="&#xe6;" horiz-adv-x="928" 
d="M736 156h158c-32 -102 -122 -172 -263 -172c-85 0 -155 28 -203 78c-33 -32 -92 -73 -205 -73c-125 0 -196 58 -196 157c0 126 148 163 298 177c17 1 35 3 47 3c-1 75 -26 108 -86 108c-51 0 -80 -29 -85 -73h-151c8 107 88 179 237 179c76 0 134 -17 173 -56
c48 36 108 59 175 59c175 0 267 -119 267 -291c0 -10 -1 -26 -1 -26h-389c6 -78 55 -125 124 -125c47 0 82 19 100 55zM516 323h230c-8 69 -48 109 -113 109c-63 0 -108 -40 -117 -109zM371 233l-26 -3c-118 -14 -158 -33 -158 -78c0 -38 31 -60 78 -60c62 0 104 31 106 129
v12z" />
    <glyph glyph-name="ccedilla" unicode="&#xe7;" horiz-adv-x="594" 
d="M416 187h153c-24 -121 -117 -203 -261 -203c-169 0 -277 116 -277 278c0 164 112 280 278 280c140 0 235 -73 259 -203h-157c-14 51 -48 80 -100 80c-73 0 -119 -60 -119 -156c0 -102 46 -155 123 -155c45 0 88 24 101 79zM145 -163l93 114h146l-76 -114h-163z" />
    <glyph glyph-name="egrave" unicode="&#xe8;" 
d="M411 156h159c-32 -102 -123 -172 -264 -172c-167 0 -274 109 -274 280c0 163 113 279 277 279c175 0 269 -119 269 -291c0 -10 -1 -26 -1 -26h-390c6 -78 55 -125 124 -125c47 0 82 19 100 55zM191 323h230c-8 69 -48 109 -113 109c-63 0 -108 -40 -117 -109zM423 596
h-168l-141 119h205z" />
    <glyph glyph-name="eacute" unicode="&#xe9;" 
d="M411 156h159c-32 -102 -123 -172 -264 -172c-167 0 -274 109 -274 280c0 163 113 279 277 279c175 0 269 -119 269 -291c0 -10 -1 -26 -1 -26h-390c6 -78 55 -125 124 -125c47 0 82 19 100 55zM191 323h230c-8 69 -48 109 -113 109c-63 0 -108 -40 -117 -109zM374 596
h-168l104 119h205z" />
    <glyph glyph-name="ecircumflex" unicode="&#xea;" 
d="M411 156h159c-32 -102 -123 -172 -264 -172c-167 0 -274 109 -274 280c0 163 113 279 277 279c175 0 269 -119 269 -291c0 -10 -1 -26 -1 -26h-390c6 -78 55 -125 124 -125c47 0 82 19 100 55zM191 323h230c-8 69 -48 109 -113 109c-63 0 -108 -40 -117 -109zM231 715
h159l106 -119h-137l-47 51l-48 -51h-137z" />
    <glyph glyph-name="edieresis" unicode="&#xeb;" 
d="M411 156h159c-32 -102 -123 -172 -264 -172c-167 0 -274 109 -274 280c0 163 113 279 277 279c175 0 269 -119 269 -291c0 -10 -1 -26 -1 -26h-390c6 -78 55 -125 124 -125c47 0 82 19 100 55zM191 323h230c-8 69 -48 109 -113 109c-63 0 -108 -40 -117 -109zM151 596
v119h124v-119h-124zM347 596v119h123v-119h-123z" />
    <glyph glyph-name="igrave" unicode="&#xec;" horiz-adv-x="280" 
d="M218 0h-156v525h156v-525zM249 596h-168l-141 119h205z" />
    <glyph glyph-name="iacute" unicode="&#xed;" horiz-adv-x="280" 
d="M218 0h-156v525h156v-525zM217 596h-168l104 119h205z" />
    <glyph glyph-name="icircumflex" unicode="&#xee;" horiz-adv-x="280" 
d="M218 0h-156v525h156v-525zM61 715h159l106 -119h-137l-47 51l-48 -51h-137z" />
    <glyph glyph-name="idieresis" unicode="&#xef;" horiz-adv-x="280" 
d="M218 0h-156v525h156v-525zM-18 596v119h124v-119h-124zM178 596v119h123v-119h-123z" />
    <glyph glyph-name="eth" unicode="&#xf0;" horiz-adv-x="634" 
d="M430 729l71 -72l-73 -25c112 -98 171 -208 171 -354c0 -187 -112 -293 -287 -293c-166 0 -280 109 -280 275c0 182 125 280 258 280c21 0 47 -4 60 -10l3 3c-17 18 -37 36 -59 54l-112 -38l-71 73l88 29c-40 24 -81 46 -118 64h222l34 -18zM313 420
c-77 0 -120 -63 -120 -157c0 -97 41 -156 121 -156c79 0 120 59 120 155c0 94 -41 158 -121 158z" />
    <glyph glyph-name="ntilde" unicode="&#xf1;" horiz-adv-x="616" 
d="M218 0h-156v445c0 27 0 53 -1 80h149v-72c22 43 75 85 162 85c71 0 126 -31 157 -84c26 -46 30 -95 30 -185v-269h-156v254c0 105 -18 162 -86 162s-99 -51 -99 -147v-269zM318 609c-24 12 -35 18 -47 18c-17 0 -26 -10 -28 -31h-84c-1 64 36 122 105 122
c28 0 47 -9 69 -20c26 -13 38 -17 48 -17c18 0 24 10 28 34h81c0 -70 -35 -126 -99 -126c-27 0 -51 9 -73 20z" />
    <glyph glyph-name="ograve" unicode="&#xf2;" horiz-adv-x="628" 
d="M313 543c170 0 284 -115 284 -281c0 -164 -112 -278 -283 -278c-173 0 -283 114 -283 279s113 280 282 280zM312 420c-77 0 -120 -63 -120 -157c0 -97 41 -156 121 -156c79 0 120 59 120 155c0 94 -41 158 -121 158zM422 596h-168l-141 119h205z" />
    <glyph glyph-name="oacute" unicode="&#xf3;" horiz-adv-x="628" 
d="M313 543c170 0 284 -115 284 -281c0 -164 -112 -278 -283 -278c-173 0 -283 114 -283 279s113 280 282 280zM312 420c-77 0 -120 -63 -120 -157c0 -97 41 -156 121 -156c79 0 120 59 120 155c0 94 -41 158 -121 158zM373 596h-168l104 119h205z" />
    <glyph glyph-name="ocircumflex" unicode="&#xf4;" horiz-adv-x="628" 
d="M313 543c170 0 284 -115 284 -281c0 -164 -112 -278 -283 -278c-173 0 -283 114 -283 279s113 280 282 280zM312 420c-77 0 -120 -63 -120 -157c0 -97 41 -156 121 -156c79 0 120 59 120 155c0 94 -41 158 -121 158zM233 715h159l106 -119h-137l-47 51l-48 -51h-137z" />
    <glyph glyph-name="otilde" unicode="&#xf5;" horiz-adv-x="628" 
d="M313 543c170 0 284 -115 284 -281c0 -164 -112 -278 -283 -278c-173 0 -283 114 -283 279s113 280 282 280zM312 420c-77 0 -120 -63 -120 -157c0 -97 41 -156 121 -156c79 0 120 59 120 155c0 94 -41 158 -121 158zM305 609c-24 12 -35 18 -47 18c-17 0 -26 -10 -28 -31
h-84c-1 64 36 122 105 122c28 0 47 -9 69 -20c26 -13 38 -17 48 -17c18 0 24 10 28 34h81c0 -70 -35 -126 -99 -126c-27 0 -51 9 -73 20z" />
    <glyph glyph-name="odieresis" unicode="&#xf6;" horiz-adv-x="628" 
d="M313 543c170 0 284 -115 284 -281c0 -164 -112 -278 -283 -278c-173 0 -283 114 -283 279s113 280 282 280zM312 420c-77 0 -120 -63 -120 -157c0 -97 41 -156 121 -156c79 0 120 59 120 155c0 94 -41 158 -121 158zM152 596v119h124v-119h-124zM348 596v119h123v-119
h-123z" />
    <glyph glyph-name="divide" unicode="&#xf7;" 
d="M53 254v134h498v-134h-498zM226 56v146h152v-146h-152zM226 440v146h152v-146h-152z" />
    <glyph glyph-name="oslash" unicode="&#xf8;" horiz-adv-x="628" 
d="M313 543c25 0 48 -3 71 -8l34 60l123 -62l-34 -58c57 -50 90 -124 90 -213c0 -164 -112 -278 -283 -278c-29 0 -56 3 -81 9l-32 -56l-122 63l33 57c-52 50 -81 121 -81 206c0 165 113 280 282 280zM433 262c0 27 -4 51 -10 72l-130 -226c6 -1 13 -1 20 -1
c79 0 120 59 120 155zM312 420c-77 0 -120 -63 -120 -157c0 -24 2 -45 7 -64l125 220c-4 1 -8 1 -12 1z" />
    <glyph glyph-name="ugrave" unicode="&#xf9;" horiz-adv-x="612" 
d="M394 525h156v-445c0 -27 0 -53 1 -80h-149v72c-22 -43 -71 -85 -158 -85c-71 0 -126 31 -157 84c-26 46 -30 95 -30 185v269h156v-254c0 -105 16 -162 84 -162s97 51 97 147v269zM408 596h-168l-141 119h205z" />
    <glyph glyph-name="uacute" unicode="&#xfa;" horiz-adv-x="612" 
d="M394 525h156v-445c0 -27 0 -53 1 -80h-149v72c-22 -43 -71 -85 -158 -85c-71 0 -126 31 -157 84c-26 46 -30 95 -30 185v269h156v-254c0 -105 16 -162 84 -162s97 51 97 147v269zM355 596h-168l104 119h205z" />
    <glyph glyph-name="ucircumflex" unicode="&#xfb;" horiz-adv-x="612" 
d="M394 525h156v-445c0 -27 0 -53 1 -80h-149v72c-22 -43 -71 -85 -158 -85c-71 0 -126 31 -157 84c-26 46 -30 95 -30 185v269h156v-254c0 -105 16 -162 84 -162s97 51 97 147v269zM224 715h159l106 -119h-137l-47 51l-48 -51h-137z" />
    <glyph glyph-name="udieresis" unicode="&#xfc;" horiz-adv-x="612" 
d="M394 525h156v-445c0 -27 0 -53 1 -80h-149v72c-22 -43 -71 -85 -158 -85c-71 0 -126 31 -157 84c-26 46 -30 95 -30 185v269h156v-254c0 -105 16 -162 84 -162s97 51 97 147v269zM149 596v119h124v-119h-124zM345 596v119h123v-119h-123z" />
    <glyph glyph-name="yacute" unicode="&#xfd;" horiz-adv-x="550" 
d="M136 -180c0 0 49 150 61 187c-63 170 -135 348 -195 518h166c47 -156 80 -249 109 -354h5c20 86 66 241 99 354h161c-58 -161 -190 -545 -246 -705h-160zM338 596h-168l104 119h205z" />
    <glyph glyph-name="thorn" unicode="&#xfe;" horiz-adv-x="641" 
d="M217 472c24 30 77 68 161 68c136 0 230 -101 230 -273c0 -167 -94 -280 -237 -280c-79 0 -128 33 -154 67c1 -31 1 -67 1 -112v-122h-156v895h156v-122c0 -63 -1 -105 -1 -121zM325 421c-70 0 -117 -60 -117 -153c0 -95 43 -160 117 -160s118 67 118 157
s-44 156 -118 156z" />
    <glyph glyph-name="ydieresis" unicode="&#xff;" horiz-adv-x="550" 
d="M136 -180c0 0 49 150 61 187c-63 170 -135 348 -195 518h166c47 -156 80 -249 109 -354h5c20 86 66 241 99 354h161c-58 -161 -190 -545 -246 -705h-160zM123 596v119h124v-119h-124zM319 596v119h123v-119h-123z" />
    <glyph glyph-name="Amacron" unicode="&#x100;" horiz-adv-x="720" 
d="M-10 0c63 172 170 453 274 715h197l267 -715h-172c-21 57 -42 111 -63 169h-270l-64 -169h-169zM267 299h181c-37 117 -64 193 -90 280h-2c-25 -89 -58 -186 -89 -280zM221 765v93h273v-93h-273z" />
    <glyph glyph-name="amacron" unicode="&#x101;" horiz-adv-x="575" 
d="M530 0h-141c-2 20 -4 39 -3 59c-33 -33 -74 -69 -169 -69c-112 0 -190 57 -190 156c0 128 150 167 299 180c17 1 36 3 46 3c0 72 -24 107 -84 107c-54 0 -82 -28 -87 -75h-150c8 109 92 180 237 180c152 0 231 -57 231 -236v-160c0 -39 1 -106 11 -145zM371 215
c0 6 0 11 1 18l-27 -3c-116 -13 -159 -31 -159 -79c0 -38 32 -61 79 -61c72 0 106 45 106 125zM152 606v93h273v-93h-273z" />
    <glyph glyph-name="Abreve" unicode="&#x102;" horiz-adv-x="720" 
d="M-10 0c63 172 170 453 274 715h197l267 -715h-172c-21 57 -42 111 -63 169h-270l-64 -169h-169zM358 745c-84 0 -138 49 -148 131h95c5 -24 22 -41 53 -41s46 19 53 41h94c-10 -82 -64 -131 -147 -131zM267 299h181c-37 117 -64 193 -90 280h-2
c-25 -89 -58 -186 -89 -280z" />
    <glyph glyph-name="abreve" unicode="&#x103;" horiz-adv-x="575" 
d="M530 0h-141c-2 20 -4 39 -3 59c-33 -33 -74 -69 -169 -69c-112 0 -190 57 -190 156c0 128 150 167 299 180c17 1 36 3 46 3c0 72 -24 107 -84 107c-54 0 -82 -28 -87 -75h-150c8 109 92 180 237 180c152 0 231 -57 231 -236v-160c0 -39 1 -106 11 -145zM371 215
c0 6 0 11 1 18l-27 -3c-116 -13 -159 -31 -159 -79c0 -38 32 -61 79 -61c72 0 106 45 106 125zM289 584c-84 0 -138 49 -148 131h95c5 -24 22 -41 53 -41s46 19 53 41h94c-10 -82 -64 -131 -147 -131z" />
    <glyph glyph-name="Aogonek" unicode="&#x104;" horiz-adv-x="720" 
d="M-10 0c63 172 170 453 274 715h197l267 -715h-172c-21 57 -42 111 -63 169h-270l-64 -169h-169zM267 299h181c-37 117 -64 193 -90 280h-2c-25 -89 -58 -186 -89 -280zM697 -49l93 -114h-163l-76 114h146z" />
    <glyph glyph-name="aogonek" unicode="&#x105;" horiz-adv-x="575" 
d="M530 0h-141c-2 20 -4 39 -3 59c-33 -33 -74 -69 -169 -69c-112 0 -190 57 -190 156c0 128 150 167 299 180c17 1 36 3 46 3c0 72 -24 107 -84 107c-54 0 -82 -28 -87 -75h-150c8 109 92 180 237 180c152 0 231 -57 231 -236v-160c0 -39 1 -106 11 -145zM371 215
c0 6 0 11 1 18l-27 -3c-116 -13 -159 -31 -159 -79c0 -38 32 -61 79 -61c72 0 106 45 106 125zM524 -49l93 -114h-163l-76 114h146z" />
    <glyph glyph-name="Cacute" unicode="&#x106;" horiz-adv-x="763" 
d="M557 224h183c-46 -150 -169 -237 -343 -237c-217 0 -362 139 -362 370c0 226 147 371 364 371c173 0 298 -92 343 -245l-179 -1c-30 69 -86 109 -165 109c-120 0 -192 -91 -192 -235c0 -138 72 -228 192 -228c75 0 127 36 159 96zM470 761h-162l104 115h197z" />
    <glyph glyph-name="cacute" unicode="&#x107;" horiz-adv-x="594" 
d="M416 187h153c-24 -121 -117 -203 -261 -203c-169 0 -277 116 -277 278c0 164 112 280 278 280c140 0 235 -73 259 -203h-157c-14 51 -48 80 -100 80c-73 0 -119 -60 -119 -156c0 -102 46 -155 123 -155c45 0 88 24 101 79zM364 596h-168l104 119h205z" />
    <glyph glyph-name="Ccircumflex" unicode="&#x108;" horiz-adv-x="763" 
d="M557 224h183c-46 -150 -169 -237 -343 -237c-217 0 -362 139 -362 370c0 226 147 371 364 371c173 0 298 -92 343 -245l-179 -1c-30 69 -86 109 -165 109c-120 0 -192 -91 -192 -235c0 -138 72 -228 192 -228c75 0 127 36 159 96zM318 876h160l106 -115h-137l-47 51
l-48 -51h-137z" />
    <glyph glyph-name="ccircumflex" unicode="&#x109;" horiz-adv-x="594" 
d="M416 187h153c-24 -121 -117 -203 -261 -203c-169 0 -277 116 -277 278c0 164 112 280 278 280c140 0 235 -73 259 -203h-157c-14 51 -48 80 -100 80c-73 0 -119 -60 -119 -156c0 -102 46 -155 123 -155c45 0 88 24 101 79zM232 715h159l106 -119h-137l-47 51l-48 -51
h-137z" />
    <glyph glyph-name="Cdotaccent" unicode="&#x10a;" horiz-adv-x="763" 
d="M557 224h183c-46 -150 -169 -237 -343 -237c-217 0 -362 139 -362 370c0 226 147 371 364 371c173 0 298 -92 343 -245l-179 -1c-30 69 -86 109 -165 109c-120 0 -192 -91 -192 -235c0 -138 72 -228 192 -228c75 0 127 36 159 96zM339 761v115h122v-115h-122z" />
    <glyph glyph-name="cdotaccent" unicode="&#x10b;" horiz-adv-x="594" 
d="M416 187h153c-24 -121 -117 -203 -261 -203c-169 0 -277 116 -277 278c0 164 112 280 278 280c140 0 235 -73 259 -203h-157c-14 51 -48 80 -100 80c-73 0 -119 -60 -119 -156c0 -102 46 -155 123 -155c45 0 88 24 101 79zM251 596v119h124v-119h-124z" />
    <glyph glyph-name="Ccaron" unicode="&#x10c;" horiz-adv-x="763" 
d="M557 224h183c-46 -150 -169 -237 -343 -237c-217 0 -362 139 -362 370c0 226 147 371 364 371c173 0 298 -92 343 -245l-179 -1c-30 69 -86 109 -165 109c-120 0 -192 -91 -192 -235c0 -138 72 -228 192 -228c75 0 127 36 159 96zM483 761h-160l-103 115h137l48 -51
l47 51h137z" />
    <glyph glyph-name="ccaron" unicode="&#x10d;" horiz-adv-x="594" 
d="M416 187h153c-24 -121 -117 -203 -261 -203c-169 0 -277 116 -277 278c0 164 112 280 278 280c140 0 235 -73 259 -203h-157c-14 51 -48 80 -100 80c-73 0 -119 -60 -119 -156c0 -102 46 -155 123 -155c45 0 88 24 101 79zM391 596h-159l-104 119h137l48 -51l47 51h137z
" />
    <glyph glyph-name="Dcaron" unicode="&#x10e;" horiz-adv-x="739" 
d="M74 0v715h178c33 0 68 0 103 -1c212 -8 348 -135 348 -354c0 -123 -56 -252 -145 -300c-81 -56 -176 -60 -308 -60h-176zM238 577v-438h56c42 0 78 4 107 13c84 25 129 90 129 207c0 110 -46 178 -129 205c-27 9 -59 13 -97 13h-66zM423 761h-160l-103 115h137l48 -51
l47 51h137z" />
    <glyph glyph-name="dcaron" unicode="&#x10f;" horiz-adv-x="755" 
d="M579 0h-147c0 21 0 53 1 70c-23 -37 -75 -83 -165 -83c-141 0 -235 107 -235 275c0 171 97 278 233 278c87 0 134 -40 158 -70c0 26 -1 81 -1 107v138h156v-715zM316 421c-74 0 -118 -66 -118 -156s44 -157 118 -157s117 65 117 160c0 93 -47 153 -117 153zM841 715
l-93 -255h-134l72 255h155z" />
    <glyph glyph-name="Dcroat" unicode="&#x110;" horiz-adv-x="745" 
d="M20 294v138h60v283h178c33 0 68 0 103 -1c212 -8 348 -135 348 -354c0 -123 -56 -252 -145 -300c-81 -56 -176 -60 -308 -60h-176v294h-60zM244 577v-145h106v-138h-106v-155h56c42 0 78 4 107 13c84 25 129 90 129 207c0 110 -46 178 -129 205c-27 9 -59 13 -97 13h-66z
" />
    <glyph glyph-name="dcroat" unicode="&#x111;" horiz-adv-x="641" 
d="M372 563v108h51v44h156v-44h47v-108h-47v-563h-147c0 21 0 53 1 70c-23 -37 -75 -83 -165 -83c-141 0 -235 107 -235 275c0 171 97 278 233 278c87 0 134 -40 158 -70c0 22 -1 64 -1 93h-51zM316 421c-74 0 -118 -66 -118 -156s44 -157 118 -157s117 65 117 160
c0 93 -47 153 -117 153z" />
    <glyph glyph-name="Emacron" unicode="&#x112;" horiz-adv-x="591" 
d="M236 292v-152h312v-140h-474v715h470v-140h-308v-145h283v-138h-283zM174 765v93h273v-93h-273z" />
    <glyph glyph-name="emacron" unicode="&#x113;" 
d="M411 156h159c-32 -102 -123 -172 -264 -172c-167 0 -274 109 -274 280c0 163 113 279 277 279c175 0 269 -119 269 -291c0 -10 -1 -26 -1 -26h-390c6 -78 55 -125 124 -125c47 0 82 19 100 55zM191 323h230c-8 69 -48 109 -113 109c-63 0 -108 -40 -117 -109zM174 606v93
h273v-93h-273z" />
    <glyph glyph-name="Ebreve" unicode="&#x114;" horiz-adv-x="591" 
d="M236 292v-152h312v-140h-474v715h470v-140h-308v-145h283v-138h-283zM313 745c-84 0 -138 49 -148 131h95c5 -24 22 -41 53 -41s46 19 53 41h94c-10 -82 -64 -131 -147 -131z" />
    <glyph glyph-name="ebreve" unicode="&#x115;" 
d="M411 156h159c-32 -102 -123 -172 -264 -172c-167 0 -274 109 -274 280c0 163 113 279 277 279c175 0 269 -119 269 -291c0 -10 -1 -26 -1 -26h-390c6 -78 55 -125 124 -125c47 0 82 19 100 55zM191 323h230c-8 69 -48 109 -113 109c-63 0 -108 -40 -117 -109zM313 584
c-84 0 -138 49 -148 131h95c5 -24 22 -41 53 -41s46 19 53 41h94c-10 -82 -64 -131 -147 -131z" />
    <glyph glyph-name="Edotaccent" unicode="&#x116;" horiz-adv-x="591" 
d="M236 292v-152h312v-140h-474v715h470v-140h-308v-145h283v-138h-283zM255 761v115h122v-115h-122z" />
    <glyph glyph-name="edotaccent" unicode="&#x117;" 
d="M411 156h159c-32 -102 -123 -172 -264 -172c-167 0 -274 109 -274 280c0 163 113 279 277 279c175 0 269 -119 269 -291c0 -10 -1 -26 -1 -26h-390c6 -78 55 -125 124 -125c47 0 82 19 100 55zM191 323h230c-8 69 -48 109 -113 109c-63 0 -108 -40 -117 -109zM247 596
v119h124v-119h-124z" />
    <glyph glyph-name="Eogonek" unicode="&#x118;" horiz-adv-x="591" 
d="M236 292v-152h312v-140h-474v715h470v-140h-308v-145h283v-138h-283zM374 -49l93 -114h-163l-76 114h146z" />
    <glyph glyph-name="eogonek" unicode="&#x119;" 
d="M411 156h159c-32 -102 -123 -172 -264 -172c-167 0 -274 109 -274 280c0 163 113 279 277 279c175 0 269 -119 269 -291c0 -10 -1 -26 -1 -26h-390c6 -78 55 -125 124 -125c47 0 82 19 100 55zM191 323h230c-8 69 -48 109 -113 109c-63 0 -108 -40 -117 -109zM358 -49
l93 -114h-163l-76 114h146z" />
    <glyph glyph-name="Ecaron" unicode="&#x11a;" horiz-adv-x="591" 
d="M236 292v-152h312v-140h-474v715h470v-140h-308v-145h283v-138h-283zM392 761h-160l-103 115h137l48 -51l47 51h137z" />
    <glyph glyph-name="ecaron" unicode="&#x11b;" 
d="M411 156h159c-32 -102 -123 -172 -264 -172c-167 0 -274 109 -274 280c0 163 113 279 277 279c175 0 269 -119 269 -291c0 -10 -1 -26 -1 -26h-390c6 -78 55 -125 124 -125c47 0 82 19 100 55zM191 323h230c-8 69 -48 109 -113 109c-63 0 -108 -40 -117 -109zM388 596
h-159l-104 119h137l48 -51l47 51h137z" />
    <glyph glyph-name="Gcircumflex" unicode="&#x11c;" horiz-adv-x="791" 
d="M402 728c173 0 295 -92 340 -245l-179 -1c-30 69 -83 109 -164 109c-121 0 -193 -94 -193 -231c0 -142 73 -235 197 -235c110 0 160 62 177 137c-32 -1 -59 -1 -92 -1h-128v133h382v-394h-153v38c0 16 1 30 1 40h-1c-40 -50 -118 -91 -221 -91c-197 0 -333 150 -333 371
s144 370 367 370zM322 876h160l106 -115h-137l-47 51l-48 -51h-137z" />
    <glyph glyph-name="gcircumflex" unicode="&#x11d;" horiz-adv-x="643" 
d="M46 -19h164c18 -42 49 -64 100 -64c94 0 127 65 124 185h-2c-26 -44 -85 -80 -166 -80c-140 0 -232 104 -232 258s99 260 234 260c85 0 139 -38 164 -81c-2 21 -2 50 -2 66h151v-443c0 -181 -99 -278 -277 -278c-152 0 -237 70 -258 177zM317 421
c-73 0 -118 -59 -118 -142c0 -80 44 -138 118 -138c67 0 117 53 117 143c0 80 -46 137 -117 137zM247 715h159l106 -119h-137l-47 51l-48 -51h-137z" />
    <glyph glyph-name="Gbreve" unicode="&#x11e;" horiz-adv-x="791" 
d="M402 728c173 0 295 -92 340 -245l-179 -1c-30 69 -83 109 -164 109c-121 0 -193 -94 -193 -231c0 -142 73 -235 197 -235c110 0 160 62 177 137c-32 -1 -59 -1 -92 -1h-128v133h382v-394h-153v38c0 16 1 30 1 40h-1c-40 -50 -118 -91 -221 -91c-197 0 -333 150 -333 371
s144 370 367 370zM406 745c-84 0 -138 49 -148 131h95c5 -24 22 -41 53 -41s46 19 53 41h94c-10 -82 -64 -131 -147 -131z" />
    <glyph glyph-name="gbreve" unicode="&#x11f;" horiz-adv-x="643" 
d="M46 -19h164c18 -42 49 -64 100 -64c94 0 127 65 124 185h-2c-26 -44 -85 -80 -166 -80c-140 0 -232 104 -232 258s99 260 234 260c85 0 139 -38 164 -81c-2 21 -2 50 -2 66h151v-443c0 -181 -99 -278 -277 -278c-152 0 -237 70 -258 177zM317 421
c-73 0 -118 -59 -118 -142c0 -80 44 -138 118 -138c67 0 117 53 117 143c0 80 -46 137 -117 137zM323 584c-84 0 -138 49 -148 131h95c5 -24 22 -41 53 -41s46 19 53 41h94c-10 -82 -64 -131 -147 -131z" />
    <glyph glyph-name="Gdotaccent" unicode="&#x120;" horiz-adv-x="791" 
d="M402 728c173 0 295 -92 340 -245l-179 -1c-30 69 -83 109 -164 109c-121 0 -193 -94 -193 -231c0 -142 73 -235 197 -235c110 0 160 62 177 137c-32 -1 -59 -1 -92 -1h-128v133h382v-394h-153v38c0 16 1 30 1 40h-1c-40 -50 -118 -91 -221 -91c-197 0 -333 150 -333 371
s144 370 367 370zM340 761v115h122v-115h-122z" />
    <glyph glyph-name="gdotaccent" unicode="&#x121;" horiz-adv-x="643" 
d="M46 -19h164c18 -42 49 -64 100 -64c94 0 127 65 124 185h-2c-26 -44 -85 -80 -166 -80c-140 0 -232 104 -232 258s99 260 234 260c85 0 139 -38 164 -81c-2 21 -2 50 -2 66h151v-443c0 -181 -99 -278 -277 -278c-152 0 -237 70 -258 177zM317 421
c-73 0 -118 -59 -118 -142c0 -80 44 -138 118 -138c67 0 117 53 117 143c0 80 -46 137 -117 137zM258 596v119h124v-119h-124z" />
    <glyph glyph-name="Gcommaaccent" unicode="&#x122;" horiz-adv-x="791" 
d="M402 728c173 0 295 -92 340 -245l-179 -1c-30 69 -83 109 -164 109c-121 0 -193 -94 -193 -231c0 -142 73 -235 197 -235c110 0 160 62 177 137c-32 -1 -59 -1 -92 -1h-128v133h382v-394h-153v38c0 16 1 30 1 40h-1c-40 -50 -118 -91 -221 -91c-197 0 -333 150 -333 371
s144 370 367 370zM274 -163l93 114h146l-76 -114h-163z" />
    <glyph glyph-name="gcommaaccent" unicode="&#x123;" horiz-adv-x="643" 
d="M46 -19h164c18 -42 49 -64 100 -64c94 0 127 65 124 185h-2c-26 -44 -85 -80 -166 -80c-140 0 -232 104 -232 258s99 260 234 260c85 0 139 -38 164 -81c-2 21 -2 50 -2 66h151v-443c0 -181 -99 -278 -277 -278c-152 0 -237 70 -258 177zM317 421
c-73 0 -118 -59 -118 -142c0 -80 44 -138 118 -138c67 0 117 53 117 143c0 80 -46 137 -117 137zM474 715l-93 -114h-146l76 114h163z" />
    <glyph glyph-name="Hcircumflex" unicode="&#x124;" horiz-adv-x="736" 
d="M238 0h-164v715h164v-276h260v276h164v-715h-164v298h-260v-298zM284 876h160l106 -115h-137l-47 51l-48 -51h-137z" />
    <glyph glyph-name="hcircumflex" unicode="&#x125;" horiz-adv-x="616" 
d="M218 0h-156v715h156v-112c0 -38 0 -94 -1 -138c25 39 76 73 155 73c71 0 126 -31 157 -84c26 -46 30 -95 30 -185v-269h-156v254c0 105 -18 162 -86 162s-99 -51 -99 -147v-269zM60 876h160l106 -115h-137l-47 51l-48 -51h-137z" />
    <glyph glyph-name="Hbar" unicode="&#x126;" horiz-adv-x="736" 
d="M238 0h-164v715h164v-68h260v68h164v-715h-164v298h-260v-298zM238 439h260v67h-260v-67z" />
    <glyph glyph-name="hbar" unicode="&#x127;" horiz-adv-x="616" 
d="M15 563v108h47v44h156v-44h51v-108h-51c0 -33 -1 -67 -1 -98c25 39 76 73 155 73c71 0 126 -31 157 -84c26 -46 30 -95 30 -185v-269h-156v254c0 105 -18 162 -86 162s-99 -51 -99 -147v-269h-156v563h-47z" />
    <glyph glyph-name="Itilde" unicode="&#x128;" horiz-adv-x="312" 
d="M239 0h-164v715h164v-715zM151 777c-24 12 -35 18 -47 18c-17 0 -26 -10 -28 -31h-84c-1 64 36 122 105 122c28 0 47 -9 69 -20c26 -13 38 -17 48 -17c18 0 24 10 28 34h81c0 -70 -35 -126 -99 -126c-27 0 -51 9 -73 20z" />
    <glyph glyph-name="itilde" unicode="&#x129;" horiz-adv-x="280" 
d="M219 0h-156v525h156v-525zM135 609c-24 12 -35 18 -47 18c-17 0 -26 -10 -28 -31h-84c-1 64 36 122 105 122c28 0 47 -9 69 -20c26 -13 38 -17 48 -17c18 0 24 10 28 34h81c0 -70 -35 -126 -99 -126c-27 0 -51 9 -73 20z" />
    <glyph glyph-name="Imacron" unicode="&#x12a;" horiz-adv-x="312" 
d="M238 0h-164v715h164v-715zM21 765v93h273v-93h-273z" />
    <glyph glyph-name="imacron" unicode="&#x12b;" horiz-adv-x="280" 
d="M218 0h-156v525h156v-525zM-7 606v93h273v-93h-273z" />
    <glyph glyph-name="Ibreve" unicode="&#x12c;" horiz-adv-x="312" 
d="M238 0h-164v715h164v-715zM158 745c-84 0 -138 49 -148 131h95c5 -24 22 -41 53 -41s46 19 53 41h94c-10 -82 -64 -131 -147 -131z" />
    <glyph glyph-name="ibreve" unicode="&#x12d;" horiz-adv-x="280" 
d="M218 0h-156v525h156v-525zM141 584c-84 0 -138 49 -148 131h95c5 -24 22 -41 53 -41s46 19 53 41h94c-10 -82 -64 -131 -147 -131z" />
    <glyph glyph-name="Iogonek" unicode="&#x12e;" horiz-adv-x="312" 
d="M238 0h-164v715h164v-715zM226 -49l93 -114h-163l-76 114h146z" />
    <glyph glyph-name="iogonek" unicode="&#x12f;" horiz-adv-x="280" 
d="M62 587v128h156v-128h-156zM218 0h-156v525h156v-525zM209 -49l93 -114h-163l-76 114h146z" />
    <glyph glyph-name="Idotaccent" unicode="&#x130;" horiz-adv-x="312" 
d="M238 0h-164v715h164v-715zM95 761v115h122v-115h-122z" />
    <glyph glyph-name="dotlessi" unicode="&#x131;" horiz-adv-x="280" 
d="M218 0h-156v525h156v-525z" />
    <glyph glyph-name="IJ" unicode="&#x132;" horiz-adv-x="850" 
d="M238 0h-164v715h164v-715zM553 -15c-155 0 -225 78 -225 206h160c3 -32 14 -63 61 -63c59 0 68 44 68 141v446h165v-448c0 -180 -56 -282 -229 -282z" />
    <glyph glyph-name="ij" unicode="&#x133;" horiz-adv-x="560" 
d="M62 587v128h156v-128h-156zM218 0h-156v525h156v-525zM498 525v-524c0 -140 -44 -193 -183 -193c-22 0 -49 2 -70 6v108c8 -1 12 -1 17 -1c59 0 80 26 80 83v521h156zM342 587v128h156v-128h-156z" />
    <glyph glyph-name="Jcircumflex" unicode="&#x134;" horiz-adv-x="538" 
d="M241 -15c-155 0 -225 78 -225 206h160c3 -32 14 -63 61 -63c59 0 68 44 68 141v446h165v-448c0 -180 -56 -282 -229 -282zM305 876h160l106 -115h-137l-47 51l-48 -51h-137z" />
    <glyph glyph-name="jcircumflex" unicode="&#x135;" horiz-adv-x="280" 
d="M218 525v-524c0 -140 -44 -193 -183 -193c-22 0 -49 2 -70 6v108c8 -1 12 -1 17 -1c59 0 80 26 80 83v521h156zM60 715h159l106 -119h-137l-47 51l-48 -51h-137z" />
    <glyph glyph-name="Kcommaaccent" unicode="&#x136;" horiz-adv-x="663" 
d="M238 0h-164v715h164v-317h2c68 106 145 207 224 317h197c-88 -112 -176 -221 -264 -332l281 -383h-202c-72 106 -173 250 -236 355h-2v-355zM222 -163l93 114h146l-76 -114h-163z" />
    <glyph glyph-name="kcommaaccent" unicode="&#x137;" horiz-adv-x="582" 
d="M218 0h-156v715h156v-423h1c27 37 139 202 159 233h188c-76 -94 -173 -208 -196 -241c40 -58 144 -190 218 -284h-198c-59 93 -159 228 -171 258h-1v-258zM164 -163l93 114h146l-76 -114h-163z" />
    <glyph glyph-name="kgreenlandic" unicode="&#x138;" horiz-adv-x="582" 
d="M62 525h156v-233h1c27 37 139 202 159 233h188c-76 -94 -173 -208 -196 -241c40 -58 144 -190 218 -284h-198c-59 93 -159 228 -171 258h-1v-258h-156v525z" />
    <glyph glyph-name="Lacute" unicode="&#x139;" horiz-adv-x="559" 
d="M74 715h164v-574h300v-141h-464v715zM245 761h-162l104 115h197z" />
    <glyph glyph-name="lacute" unicode="&#x13a;" horiz-adv-x="286" 
d="M221 0h-156v715h156v-715zM224 761h-162l104 115h197z" />
    <glyph glyph-name="Lcommaaccent" unicode="&#x13b;" horiz-adv-x="559" 
d="M74 715h164v-574h300v-141h-464v715zM172 -163l93 114h146l-76 -114h-163z" />
    <glyph glyph-name="lcommaaccent" unicode="&#x13c;" horiz-adv-x="286" 
d="M221 0h-156v715h156v-715zM-5 -163l93 114h146l-76 -114h-163z" />
    <glyph glyph-name="Lcaron" unicode="&#x13d;" horiz-adv-x="561" 
d="M74 715h164v-574h300v-141h-464v715zM528 715l-93 -255h-134l72 255h155z" />
    <glyph glyph-name="lcaron" unicode="&#x13e;" horiz-adv-x="395" 
d="M221 0h-156v715h156v-715zM481 715l-93 -255h-134l72 255h155z" />
    <glyph glyph-name="Ldot" unicode="&#x13f;" horiz-adv-x="560" 
d="M74 715h164v-574h300v-141h-464v715zM318 322v166h163v-166h-163z" />
    <glyph glyph-name="ldot" unicode="&#x140;" horiz-adv-x="441" 
d="M221 0h-156v715h156v-715zM282 236v166h163v-166h-163z" />
    <glyph glyph-name="Lslash" unicode="&#x141;" horiz-adv-x="571" 
d="M86 715h164v-226l105 68v-134l-105 -68v-214h300v-141h-464v248l-76 -49v134l76 49v333z" />
    <glyph glyph-name="lslash" unicode="&#x142;" horiz-adv-x="325" 
d="M235 0h-156v276l-62 -40v134l62 40v305h156v-204l67 44v-134l-67 -44v-377z" />
    <glyph glyph-name="Nacute" unicode="&#x143;" horiz-adv-x="767" 
d="M693 715v-715h-209l-155 300c-49 95 -89 177 -105 219h-1c2 -58 2 -153 2 -227v-292h-151v715h212l182 -358c36 -71 60 -130 76 -165h1c-2 59 -3 130 -3 207v316h151zM438 761h-162l104 115h197z" />
    <glyph glyph-name="nacute" unicode="&#x144;" horiz-adv-x="616" 
d="M218 0h-156v445c0 27 0 53 -1 80h149v-72c22 43 75 85 162 85c71 0 126 -31 157 -84c26 -46 30 -95 30 -185v-269h-156v254c0 105 -18 162 -86 162s-99 -51 -99 -147v-269zM388 596h-168l104 119h205z" />
    <glyph glyph-name="Ncommaaccent" unicode="&#x145;" horiz-adv-x="767" 
d="M693 715v-715h-209l-155 300c-49 95 -89 177 -105 219h-1c2 -58 2 -153 2 -227v-292h-151v715h212l182 -358c36 -71 60 -130 76 -165h1c-2 59 -3 130 -3 207v316h151zM234 -163l93 114h146l-76 -114h-163z" />
    <glyph glyph-name="ncommaaccent" unicode="&#x146;" horiz-adv-x="616" 
d="M218 0h-156v445c0 27 0 53 -1 80h149v-72c22 43 75 85 162 85c71 0 126 -31 157 -84c26 -46 30 -95 30 -185v-269h-156v254c0 105 -18 162 -86 162s-99 -51 -99 -147v-269zM164 -163l93 114h146l-76 -114h-163z" />
    <glyph glyph-name="Ncaron" unicode="&#x147;" horiz-adv-x="767" 
d="M693 715v-715h-209l-155 300c-49 95 -89 177 -105 219h-1c2 -58 2 -153 2 -227v-292h-151v715h212l182 -358c36 -71 60 -130 76 -165h1c-2 59 -3 130 -3 207v316h151zM472 761h-160l-103 115h137l48 -51l47 51h137z" />
    <glyph glyph-name="ncaron" unicode="&#x148;" horiz-adv-x="616" 
d="M218 0h-156v445c0 27 0 53 -1 80h149v-72c22 43 75 85 162 85c71 0 126 -31 157 -84c26 -46 30 -95 30 -185v-269h-156v254c0 105 -18 162 -86 162s-99 -51 -99 -147v-269zM401 596h-159l-104 119h137l48 -51l47 51h137z" />
    <glyph glyph-name="napostrophe" unicode="&#x149;" horiz-adv-x="742" 
d="M344 0h-156v445c0 27 0 53 -1 80h149v-72c22 43 75 85 162 85c71 0 126 -31 157 -84c26 -46 30 -95 30 -185v-269h-156v254c0 105 -18 162 -86 162s-99 -51 -99 -147v-269zM214 715l-93 -255h-134l72 255h155z" />
    <glyph glyph-name="Eng" unicode="&#x14a;" horiz-adv-x="767" 
d="M693 715v-625c0 -180 -61 -282 -234 -282c-139 0 -211 76 -220 192h159c5 -29 20 -58 67 -58c37 0 60 19 66 58h-47l-155 300c-49 95 -89 177 -105 219h-1c2 -58 2 -153 2 -227v-292h-151v715h212l182 -358c36 -71 60 -130 76 -165h1c-2 59 -3 130 -3 207v316h151z" />
    <glyph glyph-name="eng" unicode="&#x14b;" horiz-adv-x="616" 
d="M403 4v250c0 105 -18 162 -86 162s-99 -51 -99 -147v-269h-156v445c0 27 0 53 -1 80h149v-72c22 43 75 85 162 85c71 0 126 -31 157 -84c26 -46 30 -95 30 -185v-269c0 -139 -45 -192 -183 -192c-22 0 -49 2 -70 6v108c8 -1 12 -1 17 -1c59 0 80 26 80 83z" />
    <glyph glyph-name="Omacron" unicode="&#x14c;" horiz-adv-x="797" 
d="M398 728c217 0 364 -145 364 -371c0 -231 -145 -370 -365 -370c-217 0 -362 139 -362 370c0 226 147 371 363 371zM398 128c119 0 191 90 191 228c0 144 -72 235 -191 235c-120 0 -192 -91 -192 -235c0 -138 72 -228 192 -228zM264 765v93h273v-93h-273z" />
    <glyph glyph-name="omacron" unicode="&#x14d;" horiz-adv-x="628" 
d="M313 543c170 0 284 -115 284 -281c0 -164 -112 -278 -283 -278c-173 0 -283 114 -283 279s113 280 282 280zM312 420c-77 0 -120 -63 -120 -157c0 -97 41 -156 121 -156c79 0 120 59 120 155c0 94 -41 158 -121 158zM175 606v93h273v-93h-273z" />
    <glyph glyph-name="Obreve" unicode="&#x14e;" horiz-adv-x="797" 
d="M398 728c217 0 364 -145 364 -371c0 -231 -145 -370 -365 -370c-217 0 -362 139 -362 370c0 226 147 371 363 371zM398 128c119 0 191 90 191 228c0 144 -72 235 -191 235c-120 0 -192 -91 -192 -235c0 -138 72 -228 192 -228zM398 745c-84 0 -138 49 -148 131h95
c5 -24 22 -41 53 -41s46 19 53 41h94c-10 -82 -64 -131 -147 -131z" />
    <glyph glyph-name="obreve" unicode="&#x14f;" horiz-adv-x="628" 
d="M313 543c170 0 284 -115 284 -281c0 -164 -112 -278 -283 -278c-173 0 -283 114 -283 279s113 280 282 280zM312 420c-77 0 -120 -63 -120 -157c0 -97 41 -156 121 -156c79 0 120 59 120 155c0 94 -41 158 -121 158zM316 584c-84 0 -138 49 -148 131h95
c5 -24 22 -41 53 -41s46 19 53 41h94c-10 -82 -64 -131 -147 -131z" />
    <glyph glyph-name="Ohungarumlaut" unicode="&#x150;" horiz-adv-x="797" 
d="M398 728c217 0 364 -145 364 -371c0 -231 -145 -370 -365 -370c-217 0 -362 139 -362 370c0 226 147 371 363 371zM398 128c119 0 191 90 191 228c0 144 -72 235 -191 235c-120 0 -192 -91 -192 -235c0 -138 72 -228 192 -228zM332 761h-155l105 115h190zM581 761h-155
l105 115h190z" />
    <glyph glyph-name="ohungarumlaut" unicode="&#x151;" horiz-adv-x="628" 
d="M313 543c170 0 284 -115 284 -281c0 -164 -112 -278 -283 -278c-173 0 -283 114 -283 279s113 280 282 280zM312 420c-77 0 -120 -63 -120 -157c0 -97 41 -156 121 -156c79 0 120 59 120 155c0 94 -41 158 -121 158zM247 596h-155l107 119h190zM496 596h-155l107 119h190
z" />
    <glyph glyph-name="OE" unicode="&#x152;" horiz-adv-x="1094" 
d="M737 292v-152h314v-140h-472v37c-49 -31 -112 -51 -191 -51c-225 0 -353 156 -353 370c0 215 136 371 353 371c79 0 142 -20 191 -52v40h468v-140h-310v-145h285v-138h-285zM396 128c119 0 189 90 189 228c0 144 -70 235 -189 235c-120 0 -190 -91 -190 -235
c0 -138 70 -228 190 -228z" />
    <glyph glyph-name="oe" unicode="&#x153;" horiz-adv-x="983" 
d="M790 156h159c-32 -102 -121 -172 -262 -172c-77 0 -140 25 -186 67c-48 -42 -110 -67 -188 -67c-173 0 -281 114 -281 279s111 280 280 280c79 0 143 -27 191 -71c47 44 111 71 187 71c175 0 267 -119 267 -291c0 -10 -1 -26 -1 -26h-386c6 -78 53 -125 122 -125
c47 0 80 19 98 55zM311 420c-77 0 -118 -63 -118 -157c0 -97 39 -156 119 -156c79 0 118 59 118 155c0 94 -39 158 -119 158zM574 323h226c-8 69 -46 109 -111 109c-63 0 -106 -40 -115 -109z" />
    <glyph glyph-name="Racute" unicode="&#x154;" horiz-adv-x="648" 
d="M237 258v-258h-163v715h264c84 0 143 -9 193 -44c52 -38 81 -98 81 -167c0 -125 -76 -191 -158 -218l179 -286h-184l-151 258h-61zM237 576v-187h92c77 0 123 31 123 94c0 68 -48 93 -134 93h-81zM365 761h-162l104 115h197z" />
    <glyph glyph-name="racute" unicode="&#x155;" horiz-adv-x="400" 
d="M62 0v430c0 32 0 62 -1 95h145c0 -52 -1 -65 -2 -83h2c26 66 78 96 146 96c13 0 27 -1 32 -2v-142c-13 3 -27 4 -41 4c-115 0 -125 -74 -125 -233v-165h-156zM222 596h-168l104 119h205z" />
    <glyph glyph-name="Rcommaaccent" unicode="&#x156;" horiz-adv-x="648" 
d="M237 258v-258h-163v715h264c84 0 143 -9 193 -44c52 -38 81 -98 81 -167c0 -125 -76 -191 -158 -218l179 -286h-184l-151 258h-61zM237 576v-187h92c77 0 123 31 123 94c0 68 -48 93 -134 93h-81zM173 -163l93 114h146l-76 -114h-163z" />
    <glyph glyph-name="rcommaaccent" unicode="&#x157;" horiz-adv-x="400" 
d="M62 0v430c0 32 0 62 -1 95h145c0 -52 -1 -65 -2 -83h2c26 66 78 96 146 96c13 0 27 -1 32 -2v-142c-13 3 -27 4 -41 4c-115 0 -125 -74 -125 -233v-165h-156zM-6 -163l93 114h146l-76 -114h-163z" />
    <glyph glyph-name="Rcaron" unicode="&#x158;" horiz-adv-x="648" 
d="M237 258v-258h-163v715h264c84 0 143 -9 193 -44c52 -38 81 -98 81 -167c0 -125 -76 -191 -158 -218l179 -286h-184l-151 258h-61zM237 576v-187h92c77 0 123 31 123 94c0 68 -48 93 -134 93h-81zM396 761h-160l-103 115h137l48 -51l47 51h137z" />
    <glyph glyph-name="rcaron" unicode="&#x159;" horiz-adv-x="400" 
d="M62 0v430c0 32 0 62 -1 95h145c0 -52 -1 -65 -2 -83h2c26 66 78 96 146 96c13 0 27 -1 32 -2v-142c-13 3 -27 4 -41 4c-115 0 -125 -74 -125 -233v-165h-156zM260 596h-159l-104 119h137l48 -51l47 51h137z" />
    <glyph glyph-name="Sacute" unicode="&#x15a;" horiz-adv-x="631" 
d="M27 217h168c10 -64 52 -98 126 -98c66 0 110 33 110 83c0 49 -37 61 -114 83l-49 14c-158 45 -221 103 -221 215c0 127 107 214 270 214c156 0 260 -77 267 -215h-164c-10 54 -44 85 -109 85c-60 0 -93 -30 -93 -72c1 -48 34 -63 89 -79l55 -16c162 -46 238 -94 238 -221
c0 -137 -115 -223 -286 -223c-172 0 -281 87 -287 230zM375 761h-162l104 115h197z" />
    <glyph glyph-name="sacute" unicode="&#x15b;" horiz-adv-x="560" 
d="M24 172h161c10 -51 45 -77 103 -77c48 0 83 19 83 49c0 33 -31 43 -88 57l-67 18c-114 32 -173 68 -173 160c0 98 86 164 236 164c134 0 229 -55 240 -170h-152c-12 38 -42 61 -93 61c-47 0 -73 -18 -73 -45c0 -33 31 -42 107 -61l35 -9c137 -35 189 -73 189 -165
c0 -105 -91 -170 -246 -170c-162 0 -246 60 -262 188zM333 596h-168l104 119h205z" />
    <glyph glyph-name="Scircumflex" unicode="&#x15c;" horiz-adv-x="631" 
d="M27 217h168c10 -64 52 -98 126 -98c66 0 110 33 110 83c0 49 -37 61 -114 83l-49 14c-158 45 -221 103 -221 215c0 127 107 214 270 214c156 0 260 -77 267 -215h-164c-10 54 -44 85 -109 85c-60 0 -93 -30 -93 -72c1 -48 34 -63 89 -79l55 -16c162 -46 238 -94 238 -221
c0 -137 -115 -223 -286 -223c-172 0 -281 87 -287 230zM237 876h160l106 -115h-137l-47 51l-48 -51h-137z" />
    <glyph glyph-name="scircumflex" unicode="&#x15d;" horiz-adv-x="560" 
d="M24 172h161c10 -51 45 -77 103 -77c48 0 83 19 83 49c0 33 -31 43 -88 57l-67 18c-114 32 -173 68 -173 160c0 98 86 164 236 164c134 0 229 -55 240 -170h-152c-12 38 -42 61 -93 61c-47 0 -73 -18 -73 -45c0 -33 31 -42 107 -61l35 -9c137 -35 189 -73 189 -165
c0 -105 -91 -170 -246 -170c-162 0 -246 60 -262 188zM201 715h159l106 -119h-137l-47 51l-48 -51h-137z" />
    <glyph glyph-name="Scedilla" unicode="&#x15e;" horiz-adv-x="631" 
d="M27 217h168c10 -64 52 -98 126 -98c66 0 110 33 110 83c0 49 -37 61 -114 83l-49 14c-158 45 -221 103 -221 215c0 127 107 214 270 214c156 0 260 -77 267 -215h-164c-10 54 -44 85 -109 85c-60 0 -93 -30 -93 -72c1 -48 34 -63 89 -79l55 -16c162 -46 238 -94 238 -221
c0 -137 -115 -223 -286 -223c-172 0 -281 87 -287 230zM161 -163l93 114h146l-76 -114h-163z" />
    <glyph glyph-name="scedilla" unicode="&#x15f;" horiz-adv-x="560" 
d="M24 172h161c10 -51 45 -77 103 -77c48 0 83 19 83 49c0 33 -31 43 -88 57l-67 18c-114 32 -173 68 -173 160c0 98 86 164 236 164c134 0 229 -55 240 -170h-152c-12 38 -42 61 -93 61c-47 0 -73 -18 -73 -45c0 -33 31 -42 107 -61l35 -9c137 -35 189 -73 189 -165
c0 -105 -91 -170 -246 -170c-162 0 -246 60 -262 188zM131 -163l93 114h146l-76 -114h-163z" />
    <glyph glyph-name="Scaron" unicode="&#x160;" horiz-adv-x="631" 
d="M27 217h168c10 -64 52 -98 126 -98c66 0 110 33 110 83c0 49 -37 61 -114 83l-49 14c-158 45 -221 103 -221 215c0 127 107 214 270 214c156 0 260 -77 267 -215h-164c-10 54 -44 85 -109 85c-60 0 -93 -30 -93 -72c1 -48 34 -63 89 -79l55 -16c162 -46 238 -94 238 -221
c0 -137 -115 -223 -286 -223c-172 0 -281 87 -287 230zM399 761h-160l-103 115h137l48 -51l47 51h137z" />
    <glyph glyph-name="scaron" unicode="&#x161;" horiz-adv-x="560" 
d="M24 172h161c10 -51 45 -77 103 -77c48 0 83 19 83 49c0 33 -31 43 -88 57l-67 18c-114 32 -173 68 -173 160c0 98 86 164 236 164c134 0 229 -55 240 -170h-152c-12 38 -42 61 -93 61c-47 0 -73 -18 -73 -45c0 -33 31 -42 107 -61l35 -9c137 -35 189 -73 189 -165
c0 -105 -91 -170 -246 -170c-162 0 -246 60 -262 188zM360 596h-159l-104 119h137l48 -51l47 51h137z" />
    <glyph glyph-name="uni0162" unicode="&#x162;" horiz-adv-x="586" 
d="M138 -163l93 114h146l-76 -114h-163zM375 0h-164v574h-189v141h542v-141h-189v-574z" />
    <glyph glyph-name="uni0163" unicode="&#x163;" horiz-adv-x="375" 
d="M71 -163l93 114h146l-76 -114h-163zM94 412h-79v113h79v140h156v-140h95v-113h-95v-179c0 -95 2 -127 62 -127c8 0 18 1 27 3v-115c-15 -3 -35 -6 -62 -6c-128 0 -183 40 -183 186v238z" />
    <glyph glyph-name="Tcaron" unicode="&#x164;" horiz-adv-x="586" 
d="M375 0h-164v574h-189v141h542v-141h-189v-574zM372 761h-160l-103 115h137l48 -51l47 51h137z" />
    <glyph glyph-name="tcaron" unicode="&#x165;" horiz-adv-x="496" 
d="M94 412h-79v113h79v140h156v-140h95v-113h-95v-179c0 -95 2 -127 62 -127c8 0 18 1 27 3v-115c-15 -3 -35 -6 -62 -6c-128 0 -183 40 -183 186v238zM600 715l-93 -255h-134l72 255h155z" />
    <glyph glyph-name="Tbar" unicode="&#x166;" horiz-adv-x="600" 
d="M78 294v138h140v142h-189v141h542v-141h-189v-142h143v-138h-143v-294h-164v294h-140z" />
    <glyph glyph-name="tbar" unicode="&#x167;" horiz-adv-x="378" 
d="M97 412h-79v113h79v140h156v-140h95v-113h-95v-66h95v-108h-95v-5c0 -95 2 -127 62 -127c8 0 18 1 27 3v-115c-15 -3 -35 -6 -62 -6c-128 0 -183 40 -183 186v64h-79v108h79v66z" />
    <glyph glyph-name="Utilde" unicode="&#x168;" horiz-adv-x="708" 
d="M354 128c79 0 123 55 123 166v421h164v-426c0 -90 -19 -154 -56 -203c-48 -64 -126 -98 -231 -98s-183 34 -231 98c-37 49 -56 113 -56 203v426h164v-421c0 -111 44 -166 123 -166zM357 777c-24 12 -35 18 -47 18c-17 0 -26 -10 -28 -31h-84c-1 64 36 122 105 122
c28 0 47 -9 69 -20c26 -13 38 -17 48 -17c18 0 24 10 28 34h81c0 -70 -35 -126 -99 -126c-27 0 -51 9 -73 20z" />
    <glyph glyph-name="utilde" unicode="&#x169;" horiz-adv-x="612" 
d="M394 525h156v-445c0 -27 0 -53 1 -80h-149v72c-22 -43 -71 -85 -158 -85c-71 0 -126 31 -157 84c-26 46 -30 95 -30 185v269h156v-254c0 -105 16 -162 84 -162s97 51 97 147v269zM302 609c-24 12 -35 18 -47 18c-17 0 -26 -10 -28 -31h-84c-1 64 36 122 105 122
c28 0 47 -9 69 -20c26 -13 38 -17 48 -17c18 0 24 10 28 34h81c0 -70 -35 -126 -99 -126c-27 0 -51 9 -73 20z" />
    <glyph glyph-name="Umacron" unicode="&#x16a;" horiz-adv-x="708" 
d="M354 128c79 0 123 55 123 166v421h164v-426c0 -90 -19 -154 -56 -203c-48 -64 -126 -98 -231 -98s-183 34 -231 98c-37 49 -56 113 -56 203v426h164v-421c0 -111 44 -166 123 -166zM220 765v93h273v-93h-273z" />
    <glyph glyph-name="umacron" unicode="&#x16b;" horiz-adv-x="612" 
d="M394 525h156v-445c0 -27 0 -53 1 -80h-149v72c-22 -43 -71 -85 -158 -85c-71 0 -126 31 -157 84c-26 46 -30 95 -30 185v269h156v-254c0 -105 16 -162 84 -162s97 51 97 147v269zM171 606v93h273v-93h-273z" />
    <glyph glyph-name="Ubreve" unicode="&#x16c;" horiz-adv-x="708" 
d="M354 128c79 0 123 55 123 166v421h164v-426c0 -90 -19 -154 -56 -203c-48 -64 -126 -98 -231 -98s-183 34 -231 98c-37 49 -56 113 -56 203v426h164v-421c0 -111 44 -166 123 -166zM358 745c-84 0 -138 49 -148 131h95c5 -24 22 -41 53 -41s46 19 53 41h94
c-10 -82 -64 -131 -147 -131z" />
    <glyph glyph-name="ubreve" unicode="&#x16d;" horiz-adv-x="612" 
d="M394 525h156v-445c0 -27 0 -53 1 -80h-149v72c-22 -43 -71 -85 -158 -85c-71 0 -126 31 -157 84c-26 46 -30 95 -30 185v269h156v-254c0 -105 16 -162 84 -162s97 51 97 147v269zM313 584c-84 0 -138 49 -148 131h95c5 -24 22 -41 53 -41s46 19 53 41h94
c-10 -82 -64 -131 -147 -131z" />
    <glyph glyph-name="Uring" unicode="&#x16e;" horiz-adv-x="708" 
d="M354 128c79 0 123 55 123 166v421h164v-426c0 -90 -19 -154 -56 -203c-48 -64 -126 -98 -231 -98s-183 34 -231 98c-37 49 -56 113 -56 203v426h164v-421c0 -111 44 -166 123 -166zM356 738c-60 0 -107 49 -107 109c0 58 49 107 108 107c60 0 108 -49 108 -107
c0 -60 -48 -109 -109 -109zM317 847c0 -23 17 -41 39 -41c23 0 40 17 40 41c0 21 -17 39 -40 39c-22 0 -39 -18 -39 -39z" />
    <glyph glyph-name="uring" unicode="&#x16f;" horiz-adv-x="612" 
d="M394 525h156v-445c0 -27 0 -53 1 -80h-149v72c-22 -43 -71 -85 -158 -85c-71 0 -126 31 -157 84c-26 46 -30 95 -30 185v269h156v-254c0 -105 16 -162 84 -162s97 51 97 147v269zM311 568c-60 0 -107 49 -107 109c0 58 49 107 108 107c60 0 108 -49 108 -107
c0 -60 -48 -109 -109 -109zM272 677c0 -23 17 -41 39 -41c23 0 40 17 40 41c0 21 -17 39 -40 39c-22 0 -39 -18 -39 -39z" />
    <glyph glyph-name="Uhungarumlaut" unicode="&#x170;" horiz-adv-x="708" 
d="M354 128c79 0 123 55 123 166v421h164v-426c0 -90 -19 -154 -56 -203c-48 -64 -126 -98 -231 -98s-183 34 -231 98c-37 49 -56 113 -56 203v426h164v-421c0 -111 44 -166 123 -166zM290 761h-155l105 115h190zM539 761h-155l105 115h190z" />
    <glyph glyph-name="uhungarumlaut" unicode="&#x171;" horiz-adv-x="612" 
d="M394 525h156v-445c0 -27 0 -53 1 -80h-149v72c-22 -43 -71 -85 -158 -85c-71 0 -126 31 -157 84c-26 46 -30 95 -30 185v269h156v-254c0 -105 16 -162 84 -162s97 51 97 147v269zM240 596h-155l107 119h190zM489 596h-155l107 119h190z" />
    <glyph glyph-name="Uogonek" unicode="&#x172;" horiz-adv-x="708" 
d="M354 128c79 0 123 55 123 166v421h164v-426c0 -90 -19 -154 -56 -203c-48 -64 -126 -98 -231 -98s-183 34 -231 98c-37 49 -56 113 -56 203v426h164v-421c0 -111 44 -166 123 -166zM404 -49l93 -114h-163l-76 114h146z" />
    <glyph glyph-name="uogonek" unicode="&#x173;" horiz-adv-x="612" 
d="M394 525h156v-445c0 -27 0 -53 1 -80h-149v72c-22 -43 -71 -85 -158 -85c-71 0 -126 31 -157 84c-26 46 -30 95 -30 185v269h156v-254c0 -105 16 -162 84 -162s97 51 97 147v269zM350 -49l93 -114h-163l-76 114h146z" />
    <glyph glyph-name="Wcircumflex" unicode="&#x174;" horiz-adv-x="966" 
d="M950 715c-48 -239 -98 -476 -146 -715h-215l-75 406c-12 63 -16 95 -26 169h-3c-10 -74 -14 -95 -27 -164l-78 -411h-219c-49 239 -96 476 -145 715h166c20 -111 35 -222 55 -334l14 -79c11 -67 13 -86 23 -161h4c14 95 17 112 42 240l65 334h211l59 -318
c20 -106 35 -199 42 -258h4c7 69 13 96 25 163l72 413h152zM406 876h160l106 -115h-137l-47 51l-48 -51h-137z" />
    <glyph glyph-name="wcircumflex" unicode="&#x175;" horiz-adv-x="856" 
d="M160 0c-50 172 -98 352 -147 525h160l46 -193c18 -74 22 -114 38 -194h3c15 78 23 119 43 205l41 182h169l44 -185c15 -63 29 -135 43 -204h2c12 58 26 133 42 203l42 186h158c-49 -176 -99 -350 -148 -525h-189l-39 160c-15 62 -31 126 -39 177h-3
c-12 -63 -22 -107 -39 -176l-39 -161h-188zM349 715h159l106 -119h-137l-47 51l-48 -51h-137z" />
    <glyph glyph-name="Ycircumflex" unicode="&#x176;" horiz-adv-x="622" 
d="M629 715l-236 -447v-268h-164v268s-149 287 -233 447h183l137 -295h2c30 71 70 158 135 295h176zM236 876h160l106 -115h-137l-47 51l-48 -51h-137z" />
    <glyph glyph-name="ycircumflex" unicode="&#x177;" horiz-adv-x="550" 
d="M136 -180c0 0 49 150 61 187c-63 170 -135 348 -195 518h166c47 -156 80 -249 109 -354h5c20 86 66 241 99 354h161c-58 -161 -190 -545 -246 -705h-160zM202 715h159l106 -119h-137l-47 51l-48 -51h-137z" />
    <glyph glyph-name="Ydieresis" unicode="&#x178;" horiz-adv-x="622" 
d="M629 715l-236 -447v-268h-164v268s-149 287 -233 447h183l137 -295h2c30 71 70 158 135 295h176zM152 754v119h124v-119h-124zM348 754v119h123v-119h-123z" />
    <glyph glyph-name="Zacute" unicode="&#x179;" horiz-adv-x="597" 
d="M35 0v131l222 304l101 140c-44 -1 -77 -1 -124 -1h-186v141h500v-132c-11 -16 -39 -55 -75 -103l-144 -199c-34 -48 -77 -104 -105 -141c47 1 82 1 130 1h210v-141h-529zM360 761h-162l104 115h197z" />
    <glyph glyph-name="zacute" unicode="&#x17a;" horiz-adv-x="527" 
d="M35 0v114c99 111 229 262 261 296c0 0 0 1 -1 1c-42 -2 -76 -2 -123 -2h-128v116h436v-114c-177 -198 -225 -255 -260 -295v-1c45 1 82 2 133 2h142v-117h-460zM326 596h-168l104 119h205z" />
    <glyph glyph-name="Zdotaccent" unicode="&#x17b;" horiz-adv-x="597" 
d="M35 0v131l222 304l101 140c-44 -1 -77 -1 -124 -1h-186v141h500v-132c-11 -16 -39 -55 -75 -103l-144 -199c-34 -48 -77 -104 -105 -141c47 1 82 1 130 1h210v-141h-529zM236 761v115h122v-115h-122z" />
    <glyph glyph-name="zdotaccent" unicode="&#x17c;" horiz-adv-x="527" 
d="M35 0v114c99 111 229 262 261 296c0 0 0 1 -1 1c-42 -2 -76 -2 -123 -2h-128v116h436v-114c-177 -198 -225 -255 -260 -295v-1c45 1 82 2 133 2h142v-117h-460zM201 596v119h124v-119h-124z" />
    <glyph glyph-name="Zcaron" unicode="&#x17d;" horiz-adv-x="597" 
d="M35 0v131l222 304l101 140c-44 -1 -77 -1 -124 -1h-186v141h500v-132c-11 -16 -39 -55 -75 -103l-144 -199c-34 -48 -77 -104 -105 -141c47 1 82 1 130 1h210v-141h-529zM388 761h-160l-103 115h137l48 -51l47 51h137z" />
    <glyph glyph-name="zcaron" unicode="&#x17e;" horiz-adv-x="527" 
d="M35 0v114c99 111 229 262 261 296c0 0 0 1 -1 1c-42 -2 -76 -2 -123 -2h-128v116h436v-114c-177 -198 -225 -255 -260 -295v-1c45 1 82 2 133 2h142v-117h-460zM347 596h-159l-104 119h137l48 -51l47 51h137z" />
    <glyph glyph-name="uni0186" unicode="&#x186;" horiz-adv-x="763" 
d="M23 224h183c32 -60 84 -96 159 -96c120 0 192 90 192 228c0 144 -72 235 -192 235c-79 0 -135 -40 -165 -109l-179 1c45 153 170 245 343 245c217 0 364 -145 364 -371c0 -231 -145 -370 -362 -370c-174 0 -297 87 -343 237z" />
    <glyph glyph-name="uni018F" unicode="&#x18f;" horiz-adv-x="779" 
d="M27 404h545c-11 118 -81 186 -190 186c-85 0 -132 -42 -158 -88l-180 5c43 120 163 221 341 221c219 0 359 -152 359 -370c0 -213 -130 -371 -364 -371c-243 0 -355 170 -355 376c0 14 1 26 2 41zM211 288c2 -99 61 -167 171 -167s174 84 184 167h-355z" />
    <glyph glyph-name="uni0190" unicode="&#x190;" horiz-adv-x="601" 
d="M422 217h162c-4 -148 -108 -233 -273 -233c-171 0 -276 88 -276 220c0 114 78 161 144 182v2c-69 24 -114 63 -114 150c0 115 96 194 242 194c152 0 246 -85 249 -213h-155c-1 58 -39 85 -88 85c-51 0 -85 -29 -85 -74c0 -63 47 -89 131 -89v-127h-13
c-91 0 -144 -28 -144 -100c0 -59 36 -100 109 -100c67 0 106 37 111 103z" />
    <glyph glyph-name="florin" unicode="&#x192;" horiz-adv-x="473" 
d="M44 359l18 124h106l1 4c21 153 83 240 222 240c24 0 49 -2 66 -6l-16 -134c-9 3 -22 7 -38 7c-50 0 -68 -37 -79 -111h106l-18 -124h-105l-38 -274c-26 -190 -76 -264 -219 -264c-24 0 -57 3 -83 12l14 122c20 -7 36 -8 48 -8c59 0 74 55 85 137l37 275h-107z" />
    <glyph glyph-name="uni019D" unicode="&#x19d;" horiz-adv-x="767" 
d="M74 715h212l182 -358c36 -71 60 -130 76 -165h1c-2 59 -3 130 -3 207v316h151v-715h-209l-155 300c-49 95 -89 177 -105 219h-1c2 -58 2 -153 2 -227v-291c0 -140 -44 -193 -183 -193c-22 0 -44 2 -65 6v108c8 -1 12 -1 17 -1c59 0 80 26 80 83v711z" />
    <glyph glyph-name="uni019F" unicode="&#x19f;" horiz-adv-x="797" 
d="M398 728c217 0 364 -145 364 -371c0 -231 -145 -370 -365 -370c-217 0 -362 139 -362 370c0 226 147 371 363 371zM398 128c99 0 166 63 185 164h-371c19 -101 85 -164 186 -164zM398 591c-98 0 -163 -60 -185 -160h368c-21 100 -87 160 -183 160z" />
    <glyph glyph-name="Ohorn" unicode="&#x1a0;" horiz-adv-x="797" 
d="M398 728c217 0 364 -145 364 -371c0 -231 -145 -370 -365 -370c-217 0 -362 139 -362 370c0 226 147 371 363 371zM398 128c119 0 191 90 191 228c0 144 -72 235 -191 235c-120 0 -192 -91 -192 -235c0 -138 72 -228 192 -228zM775 906l-85 -191h-130l55 191h160z" />
    <glyph glyph-name="ohorn" unicode="&#x1a1;" horiz-adv-x="630" 
d="M313 543c170 0 284 -115 284 -281c0 -164 -112 -278 -283 -278c-173 0 -283 114 -283 279s113 280 282 280zM312 420c-77 0 -120 -63 -120 -157c0 -97 41 -156 121 -156c79 0 120 59 120 155c0 94 -41 158 -121 158zM669 715l-85 -191h-130l55 191h160z" />
    <glyph glyph-name="Uhorn" unicode="&#x1af;" horiz-adv-x="708" 
d="M637 906l-85 -191h89v-426c0 -90 -19 -154 -56 -203c-48 -64 -126 -98 -231 -98s-183 34 -231 98c-37 49 -56 113 -56 203v426h164v-421c0 -111 44 -166 123 -166s123 55 123 166v421h-55l55 191h160z" />
    <glyph glyph-name="uhorn" unicode="&#x1b0;" horiz-adv-x="612" 
d="M563 715l-85 -190h72v-445c0 -27 0 -53 1 -80h-149v72c-22 -43 -71 -85 -158 -85c-71 0 -126 31 -157 84c-26 46 -30 95 -30 185v269h156v-254c0 -105 16 -162 84 -162s97 51 97 147v268h-46l55 191h160z" />
    <glyph glyph-name="uni01C4" unicode="&#x1c4;" horiz-adv-x="1336" 
d="M74 0v715h178c33 0 68 0 103 -1c212 -8 348 -135 348 -354c0 -123 -56 -252 -145 -300c-81 -56 -176 -60 -308 -60h-176zM774 0v131l222 304l101 140c-44 -1 -77 -1 -124 -1h-186v141h500v-132c-11 -16 -39 -55 -75 -103l-144 -199c-34 -48 -77 -104 -105 -141
c47 1 82 1 130 1h210v-141h-529zM238 577v-438h56c42 0 78 4 107 13c84 25 129 90 129 207c0 110 -46 178 -129 205c-27 9 -59 13 -97 13h-66zM1127 761h-160l-103 115h137l48 -51l47 51h137z" />
    <glyph glyph-name="uni01C5" unicode="&#x1c5;" horiz-adv-x="1266" 
d="M74 0v715h178c33 0 68 0 103 -1c212 -8 348 -135 348 -354c0 -123 -56 -252 -145 -300c-81 -56 -176 -60 -308 -60h-176zM238 577v-438h56c42 0 78 4 107 13c84 25 129 90 129 207c0 110 -46 178 -129 205c-27 9 -59 13 -97 13h-66zM774 0v114c99 111 229 262 261 296
c0 0 0 1 -1 1c-42 -2 -76 -2 -123 -2h-128v116h436v-114c-177 -198 -225 -255 -260 -295v-1c45 1 82 2 133 2h142v-117h-460zM1086 596h-159l-104 119h137l48 -51l47 51h137z" />
    <glyph glyph-name="uni01C6" unicode="&#x1c6;" horiz-adv-x="1168" 
d="M579 0h-147c0 21 0 53 1 70c-23 -37 -75 -83 -165 -83c-141 0 -235 107 -235 275c0 171 97 278 233 278c87 0 134 -40 158 -70c0 26 -1 81 -1 107v138h156v-715zM316 421c-74 0 -118 -66 -118 -156s44 -157 118 -157s117 65 117 160c0 93 -47 153 -117 153zM676 0v114
c99 111 229 262 261 296c0 0 0 1 -1 1c-42 -2 -76 -2 -123 -2h-128v116h436v-114c-177 -198 -225 -255 -260 -295v-1c45 1 82 2 133 2h142v-117h-460zM988 596h-159l-104 119h137l48 -51l47 51h137z" />
    <glyph glyph-name="uni01C7" unicode="&#x1c7;" horiz-adv-x="1097" 
d="M74 715h164v-574h300v-141h-464v715zM800 -15c-155 0 -225 78 -225 206h160c3 -32 14 -63 61 -63c59 0 68 44 68 141v446h165v-448c0 -180 -56 -282 -229 -282z" />
    <glyph glyph-name="uni01C8" unicode="&#x1c8;" horiz-adv-x="839" 
d="M74 715h164v-574h300v-141h-464v715zM777 525v-524c0 -140 -44 -193 -183 -193c-22 0 -49 2 -70 6v108c8 -1 12 -1 17 -1c59 0 80 26 80 83v521h156zM621 587v128h156v-128h-156z" />
    <glyph glyph-name="uni01C9" unicode="&#x1c9;" horiz-adv-x="566" 
d="M221 0h-156v715h156v-715zM504 525v-524c0 -140 -44 -193 -183 -193c-22 0 -49 2 -70 6v108c8 -1 12 -1 17 -1c59 0 80 26 80 83v521h156zM348 587v128h156v-128h-156z" />
    <glyph glyph-name="uni01CA" unicode="&#x1ca;" horiz-adv-x="1305" 
d="M693 715v-715h-209l-155 300c-49 95 -89 177 -105 219h-1c2 -58 2 -153 2 -227v-292h-151v715h212l182 -358c36 -71 60 -130 76 -165h1c-2 59 -3 130 -3 207v316h151zM1008 -15c-155 0 -225 78 -225 206h160c3 -32 14 -63 61 -63c59 0 68 44 68 141v446h165v-448
c0 -180 -56 -282 -229 -282z" />
    <glyph glyph-name="uni01CB" unicode="&#x1cb;" horiz-adv-x="1047" 
d="M693 715v-715h-209l-155 300c-49 95 -89 177 -105 219h-1c2 -58 2 -153 2 -227v-292h-151v715h212l182 -358c36 -71 60 -130 76 -165h1c-2 59 -3 130 -3 207v316h151zM985 525v-524c0 -140 -44 -193 -183 -193c-22 0 -49 2 -70 6v108c8 -1 12 -1 17 -1c59 0 80 26 80 83
v521h156zM829 587v128h156v-128h-156z" />
    <glyph glyph-name="uni01CC" unicode="&#x1cc;" horiz-adv-x="896" 
d="M218 0h-156v445c0 27 0 53 -1 80h149v-72c22 43 75 85 162 85c71 0 126 -31 157 -84c26 -46 30 -95 30 -185v-269h-156v254c0 105 -18 162 -86 162s-99 -51 -99 -147v-269zM834 525v-524c0 -140 -44 -193 -183 -193c-22 0 -49 2 -70 6v108c8 -1 12 -1 17 -1
c59 0 80 26 80 83v521h156zM678 587v128h156v-128h-156z" />
    <glyph glyph-name="uni01F1" unicode="&#x1f1;" horiz-adv-x="1325" 
d="M74 0v715h178c33 0 68 0 103 -1c212 -8 348 -135 348 -354c0 -123 -56 -252 -145 -300c-81 -56 -176 -60 -308 -60h-176zM763 0v131l222 304l101 140c-44 -1 -77 -1 -124 -1h-186v141h500v-132c-11 -16 -39 -55 -75 -103l-144 -199c-34 -48 -77 -104 -105 -141
c47 1 82 1 130 1h210v-141h-529zM238 577v-438h56c42 0 78 4 107 13c84 25 129 90 129 207c0 110 -46 178 -129 205c-27 9 -59 13 -97 13h-66z" />
    <glyph glyph-name="uni01F2" unicode="&#x1f2;" horiz-adv-x="1266" 
d="M74 0v715h178c33 0 68 0 103 -1c212 -8 348 -135 348 -354c0 -123 -56 -252 -145 -300c-81 -56 -176 -60 -308 -60h-176zM238 577v-438h56c42 0 78 4 107 13c84 25 129 90 129 207c0 110 -46 178 -129 205c-27 9 -59 13 -97 13h-66zM774 0v114c99 111 229 262 261 296
c0 0 0 1 -1 1c-42 -2 -76 -2 -123 -2h-128v116h436v-114c-177 -198 -225 -255 -260 -295v-1c45 1 82 2 133 2h142v-117h-460z" />
    <glyph glyph-name="uni01F3" unicode="&#x1f3;" horiz-adv-x="1168" 
d="M579 0h-147c0 21 0 53 1 70c-23 -37 -75 -83 -165 -83c-141 0 -235 107 -235 275c0 171 97 278 233 278c87 0 134 -40 158 -70c0 26 -1 81 -1 107v138h156v-715zM316 421c-74 0 -118 -66 -118 -156s44 -157 118 -157s117 65 117 160c0 93 -47 153 -117 153zM676 0v114
c99 111 229 262 261 296c0 0 0 1 -1 1c-42 -2 -76 -2 -123 -2h-128v116h436v-114c-177 -198 -225 -255 -260 -295v-1c45 1 82 2 133 2h142v-117h-460z" />
    <glyph glyph-name="Aringacute" unicode="&#x1fa;" horiz-adv-x="720" 
d="M-10 0c63 172 170 453 274 715h197l267 -715h-172c-21 57 -42 111 -63 169h-270l-64 -169h-169zM267 299h181c-37 117 -64 193 -90 280h-2c-25 -89 -58 -186 -89 -280zM356 730c-60 0 -107 49 -107 109c0 58 49 107 108 107c60 0 108 -49 108 -107
c0 -60 -48 -109 -109 -109zM317 839c0 -23 17 -41 39 -41c23 0 40 17 40 41c0 21 -17 39 -40 39c-22 0 -39 -18 -39 -39zM423 962h-162l104 115h197z" />
    <glyph glyph-name="aringacute" unicode="&#x1fb;" horiz-adv-x="575" 
d="M530 0h-141c-2 20 -4 39 -3 59c-33 -33 -74 -69 -169 -69c-112 0 -190 57 -190 156c0 128 150 167 299 180c17 1 36 3 46 3c0 72 -24 107 -84 107c-54 0 -82 -28 -87 -75h-150c8 109 92 180 237 180c152 0 231 -57 231 -236v-160c0 -39 1 -106 11 -145zM371 215
c0 6 0 11 1 18l-27 -3c-116 -13 -159 -31 -159 -79c0 -38 32 -61 79 -61c72 0 106 45 106 125zM295 555c-60 0 -107 49 -107 109c0 58 49 107 108 107c60 0 108 -49 108 -107c0 -60 -48 -109 -109 -109zM256 664c0 -23 17 -41 39 -41c23 0 40 17 40 41c0 21 -17 39 -40 39
c-22 0 -39 -18 -39 -39zM351 783h-168l104 119h205z" />
    <glyph glyph-name="AEacute" unicode="&#x1fc;" horiz-adv-x="994" 
d="M651 292l3 -152h297v-140h-468l-4 169h-232l-95 -169h-172l413 715h554v-140h-302l3 -145h274v-138h-271zM318 299h157c-2 117 -3 193 -6 280h-2c-44 -89 -97 -186 -149 -280zM685 761h-162l104 115h197z" />
    <glyph glyph-name="aeacute" unicode="&#x1fd;" horiz-adv-x="928" 
d="M736 156h158c-32 -102 -122 -172 -263 -172c-85 0 -155 28 -203 78c-33 -32 -92 -73 -205 -73c-125 0 -196 58 -196 157c0 126 148 163 298 177c17 1 35 3 47 3c-1 75 -26 108 -86 108c-51 0 -80 -29 -85 -73h-151c8 107 88 179 237 179c76 0 134 -17 173 -56
c48 36 108 59 175 59c175 0 267 -119 267 -291c0 -10 -1 -26 -1 -26h-389c6 -78 55 -125 124 -125c47 0 82 19 100 55zM516 323h230c-8 69 -48 109 -113 109c-63 0 -108 -40 -117 -109zM371 233l-26 -3c-118 -14 -158 -33 -158 -78c0 -38 31 -60 78 -60c62 0 104 31 106 129
v12zM524 596h-168l104 119h205z" />
    <glyph glyph-name="Oslashacute" unicode="&#x1fe;" horiz-adv-x="797" 
d="M398 728c36 0 71 -4 103 -12l43 76l142 -77l-41 -73c74 -64 117 -163 117 -285c0 -231 -145 -370 -365 -370c-42 0 -81 5 -117 15l-45 -80l-142 77l46 82c-66 63 -104 157 -104 276c0 226 147 371 363 371zM398 128c119 0 191 90 191 228c0 54 -10 100 -29 137l-206 -361
c14 -3 28 -4 44 -4zM206 356c0 -46 8 -86 22 -119l200 352c-9 1 -20 2 -30 2c-120 0 -192 -91 -192 -235zM478 761h-162l104 115h197z" />
    <glyph glyph-name="oslashacute" unicode="&#x1ff;" horiz-adv-x="628" 
d="M379 596h-168l104 119h205zM313 543c25 0 48 -3 71 -8l34 60l123 -62l-34 -58c57 -50 90 -124 90 -213c0 -164 -112 -278 -283 -278c-29 0 -56 3 -81 9l-32 -56l-122 63l33 57c-52 50 -81 121 -81 206c0 165 113 280 282 280zM433 262c0 27 -4 51 -10 72l-130 -226
c6 -1 13 -1 20 -1c79 0 120 59 120 155zM312 420c-77 0 -120 -63 -120 -157c0 -24 2 -45 7 -64l125 220c-4 1 -8 1 -12 1z" />
    <glyph glyph-name="uni0218" unicode="&#x218;" horiz-adv-x="631" 
d="M166 -163l93 114h146l-76 -114h-163zM27 217h168c10 -64 52 -98 126 -98c66 0 110 33 110 83c0 49 -37 61 -114 83l-49 14c-158 45 -221 103 -221 215c0 127 107 214 270 214c156 0 260 -77 267 -215h-164c-10 54 -44 85 -109 85c-60 0 -93 -30 -93 -72
c1 -48 34 -63 89 -79l55 -16c162 -46 238 -94 238 -221c0 -137 -115 -223 -286 -223c-172 0 -281 87 -287 230z" />
    <glyph glyph-name="uni0219" unicode="&#x219;" horiz-adv-x="560" 
d="M125 -163l93 114h146l-76 -114h-163zM24 172h161c10 -51 45 -77 103 -77c48 0 83 19 83 49c0 33 -31 43 -88 57l-67 18c-114 32 -173 68 -173 160c0 98 86 164 236 164c134 0 229 -55 240 -170h-152c-12 38 -42 61 -93 61c-47 0 -73 -18 -73 -45c0 -33 31 -42 107 -61
l35 -9c137 -35 189 -73 189 -165c0 -105 -91 -170 -246 -170c-162 0 -246 60 -262 188z" />
    <glyph glyph-name="uni021A" unicode="&#x21a;" horiz-adv-x="586" 
d="M138 -163l93 114h146l-76 -114h-163zM375 0h-164v574h-189v141h542v-141h-189v-574z" />
    <glyph glyph-name="uni021B" unicode="&#x21b;" horiz-adv-x="375" 
d="M71 -163l93 114h146l-76 -114h-163zM94 412h-79v113h79v140h156v-140h95v-113h-95v-179c0 -95 2 -127 62 -127c8 0 18 1 27 3v-115c-15 -3 -35 -6 -62 -6c-128 0 -183 40 -183 186v238z" />
    <glyph glyph-name="uni021D" unicode="&#x21d;" horiz-adv-x="584" 
d="M14 28h162c5 -66 44 -103 111 -103c73 0 109 41 109 100c0 72 -53 100 -144 100h-13v127c84 0 131 26 131 89c0 45 -34 74 -85 74c-49 0 -87 -27 -88 -85h-155c3 128 97 213 249 213c146 0 242 -79 242 -194c0 -87 -45 -126 -114 -150v-2c66 -21 144 -68 144 -182
c0 -132 -105 -220 -276 -220c-165 0 -269 85 -273 233z" />
    <glyph glyph-name="uni0226" unicode="&#x226;" horiz-adv-x="720" 
d="M-10 0c63 172 170 453 274 715h197l267 -715h-172c-21 57 -42 111 -63 169h-270l-64 -169h-169zM267 299h181c-37 117 -64 193 -90 280h-2c-25 -89 -58 -186 -89 -280zM299 761v115h122v-115h-122z" />
    <glyph glyph-name="uni0227" unicode="&#x227;" horiz-adv-x="575" 
d="M530 0h-141c-2 20 -4 39 -3 59c-33 -33 -74 -69 -169 -69c-112 0 -190 57 -190 156c0 128 150 167 299 180c17 1 36 3 46 3c0 72 -24 107 -84 107c-54 0 -82 -28 -87 -75h-150c8 109 92 180 237 180c152 0 231 -57 231 -236v-160c0 -39 1 -106 11 -145zM371 215
c0 6 0 11 1 18l-27 -3c-116 -13 -159 -31 -159 -79c0 -38 32 -61 79 -61c72 0 106 45 106 125zM229 596v119h124v-119h-124z" />
    <glyph glyph-name="uni0232" unicode="&#x232;" horiz-adv-x="622" 
d="M629 715l-236 -447v-268h-164v268s-149 287 -233 447h183l137 -295h2c30 71 70 158 135 295h176zM181 765v93h273v-93h-273z" />
    <glyph glyph-name="uni0233" unicode="&#x233;" horiz-adv-x="550" 
d="M136 -180c0 0 49 150 61 187c-63 170 -135 348 -195 518h166c47 -156 80 -249 109 -354h5c20 86 66 241 99 354h161c-58 -161 -190 -545 -246 -705h-160zM146 606v93h273v-93h-273z" />
    <glyph glyph-name="dotlessj" unicode="&#x237;" horiz-adv-x="280" 
d="M218 525v-524c0 -140 -44 -193 -183 -193c-22 0 -49 2 -70 6v108c8 -1 12 -1 17 -1c59 0 80 26 80 83v521h156z" />
    <glyph glyph-name="uni0254" unicode="&#x254;" horiz-adv-x="594" 
d="M178 339h-153c24 121 117 203 261 203c169 0 277 -116 277 -278c0 -164 -112 -280 -278 -280c-140 0 -235 73 -259 203h157c14 -51 48 -80 100 -80c73 0 119 60 119 156c0 102 -46 155 -123 155c-45 0 -88 -24 -101 -79z" />
    <glyph glyph-name="uni0259" unicode="&#x259;" 
d="M193 369h-159c32 102 123 172 264 172c167 0 274 -109 274 -280c0 -163 -113 -279 -277 -279c-175 0 -269 119 -269 291c0 10 1 26 1 26h390c-6 78 -55 125 -124 125c-47 0 -82 -19 -100 -55zM413 202h-230c8 -69 48 -109 113 -109c63 0 108 40 117 109z" />
    <glyph glyph-name="uni025B" unicode="&#x25b;" horiz-adv-x="584" 
d="M408 28h162c-4 -148 -108 -233 -273 -233c-171 0 -276 88 -276 220c0 114 78 161 144 182v2c-69 24 -114 63 -114 150c0 115 96 194 242 194c152 0 246 -85 249 -213h-155c-1 58 -39 85 -88 85c-51 0 -85 -29 -85 -74c0 -63 47 -89 131 -89v-127h-13
c-91 0 -144 -28 -144 -100c0 -59 36 -100 109 -100c67 0 106 37 111 103z" />
    <glyph glyph-name="uni0272" unicode="&#x272;" horiz-adv-x="616" 
d="M-18 -79c59 0 80 26 80 83v441c0 27 0 53 -1 80h149v-72c22 43 75 85 162 85c71 0 126 -31 157 -84c26 -46 30 -95 30 -185v-269h-156v254c0 105 -18 162 -86 162s-99 -51 -99 -147v-268c0 -140 -44 -193 -183 -193c-22 0 -49 2 -70 6v108c8 -1 12 -1 17 -1z" />
    <glyph glyph-name="uni0275" unicode="&#x275;" horiz-adv-x="628" 
d="M313 543c170 0 284 -115 284 -281c0 -164 -112 -278 -283 -278c-173 0 -283 114 -283 279s113 280 282 280zM313 107c64 0 103 38 115 104h-231c13 -66 51 -104 116 -104zM312 420c-59 0 -98 -37 -113 -96h227c-15 59 -53 96 -114 96z" />
    <glyph glyph-name="apostrophemod" unicode="&#x2bc;" horiz-adv-x="276" 
d="M246 715l-93 -255h-134l72 255h155z" />
    <glyph glyph-name="circumflex" unicode="&#x2c6;" horiz-adv-x="503" 
d="M178 715h159l106 -119h-137l-47 51l-48 -51h-137z" />
    <glyph glyph-name="caron" unicode="&#x2c7;" horiz-adv-x="503" 
d="M337 596h-159l-104 119h137l48 -51l47 51h137z" />
    <glyph glyph-name="breve" unicode="&#x2d8;" horiz-adv-x="465" 
d="M233 584c-84 0 -138 49 -148 131h95c5 -24 22 -41 53 -41s46 19 53 41h94c-10 -82 -64 -131 -147 -131z" />
    <glyph glyph-name="dotaccent" unicode="&#x2d9;" horiz-adv-x="328" 
d="M102 596v119h124v-119h-124z" />
    <glyph glyph-name="ring" unicode="&#x2da;" horiz-adv-x="405" 
d="M239 568c-60 0 -107 49 -107 109c0 58 49 107 108 107c60 0 108 -49 108 -107c0 -60 -48 -109 -109 -109zM200 677c0 -23 17 -41 39 -41c23 0 40 17 40 41c0 21 -17 39 -40 39c-22 0 -39 -18 -39 -39z" />
    <glyph glyph-name="ogonek" unicode="&#x2db;" horiz-adv-x="331" 
d="M200 -49l93 -114h-163l-76 114h146z" />
    <glyph glyph-name="tilde" unicode="&#x2dc;" horiz-adv-x="470" 
d="M304 609c-24 12 -35 18 -47 18c-17 0 -26 -10 -28 -31h-84c-1 64 36 122 105 122c28 0 47 -9 69 -20c26 -13 38 -17 48 -17c18 0 24 10 28 34h81c0 -70 -35 -126 -99 -126c-27 0 -51 9 -73 20z" />
    <glyph glyph-name="hungarumlaut" unicode="&#x2dd;" horiz-adv-x="612" 
d="M217 596h-155l107 119h190zM466 596h-155l107 119h190z" />
    <glyph glyph-name="uni032C" unicode="&#x32c;" horiz-adv-x="503" 
d="M172 -49h159l106 -119h-137l-47 51l-48 -51h-137z" />
    <glyph glyph-name="uni0394" unicode="&#x394;" horiz-adv-x="671" 
d="M243 715h186l243 -715h-673zM336 565l-136 -439h272z" />
    <glyph glyph-name="uni03A9" unicode="&#x3a9;" horiz-adv-x="820" 
d="M410 589c-125 0 -193 -97 -193 -209c0 -115 58 -198 149 -246v-134h-319v135h123c-66 46 -123 124 -123 253c0 181 128 339 363 339s363 -158 363 -339c0 -129 -57 -207 -123 -253h123v-135h-319v134c91 48 149 131 149 246c0 112 -68 209 -193 209z" />
    <glyph glyph-name="uni03BC" unicode="&#x3bc;" horiz-adv-x="617" 
d="M218 -180h-156v705h156v-254c0 -105 16 -162 84 -162s97 51 97 147v269h156v-445c0 -27 0 -53 1 -80h-149v72c-28 -57 -82 -82 -141 -82c-16 0 -32 1 -48 5v-175z" />
    <glyph glyph-name="pi" unicode="&#x3c0;" horiz-adv-x="689" 
d="M650 397h-89v-164c0 -95 2 -127 62 -127c8 0 18 1 27 3v-115c-15 -3 -35 -6 -62 -6c-128 0 -183 40 -183 186v223h-148v-397h-156v397h-84v128h633v-128z" />
    <glyph glyph-name="Wgrave" unicode="&#x1e80;" horiz-adv-x="966" 
d="M950 715c-48 -239 -98 -476 -146 -715h-215l-75 406c-12 63 -16 95 -26 169h-3c-10 -74 -14 -95 -27 -164l-78 -411h-219c-49 239 -96 476 -145 715h166c20 -111 35 -222 55 -334l14 -79c11 -67 13 -86 23 -161h4c14 95 17 112 42 240l65 334h211l59 -318
c20 -106 35 -199 42 -258h4c7 69 13 96 25 163l72 413h152zM586 761h-162l-139 115h197z" />
    <glyph glyph-name="wgrave" unicode="&#x1e81;" horiz-adv-x="856" 
d="M160 0c-50 172 -98 352 -147 525h160l46 -193c18 -74 22 -114 38 -194h3c15 78 23 119 43 205l41 182h169l44 -185c15 -63 29 -135 43 -204h2c12 58 26 133 42 203l42 186h158c-49 -176 -99 -350 -148 -525h-189l-39 160c-15 62 -31 126 -39 177h-3
c-12 -63 -22 -107 -39 -176l-39 -161h-188zM534 596h-168l-141 119h205z" />
    <glyph glyph-name="Wacute" unicode="&#x1e82;" horiz-adv-x="966" 
d="M950 715c-48 -239 -98 -476 -146 -715h-215l-75 406c-12 63 -16 95 -26 169h-3c-10 -74 -14 -95 -27 -164l-78 -411h-219c-49 239 -96 476 -145 715h166c20 -111 35 -222 55 -334l14 -79c11 -67 13 -86 23 -161h4c14 95 17 112 42 240l65 334h211l59 -318
c20 -106 35 -199 42 -258h4c7 69 13 96 25 163l72 413h152zM551 761h-162l104 115h197z" />
    <glyph glyph-name="wacute" unicode="&#x1e83;" horiz-adv-x="856" 
d="M160 0c-50 172 -98 352 -147 525h160l46 -193c18 -74 22 -114 38 -194h3c15 78 23 119 43 205l41 182h169l44 -185c15 -63 29 -135 43 -204h2c12 58 26 133 42 203l42 186h158c-49 -176 -99 -350 -148 -525h-189l-39 160c-15 62 -31 126 -39 177h-3
c-12 -63 -22 -107 -39 -176l-39 -161h-188zM503 596h-168l104 119h205z" />
    <glyph glyph-name="Wdieresis" unicode="&#x1e84;" horiz-adv-x="966" 
d="M950 715c-48 -239 -98 -476 -146 -715h-215l-75 406c-12 63 -16 95 -26 169h-3c-10 -74 -14 -95 -27 -164l-78 -411h-219c-49 239 -96 476 -145 715h166c20 -111 35 -222 55 -334l14 -79c11 -67 13 -86 23 -161h4c14 95 17 112 42 240l65 334h211l59 -318
c20 -106 35 -199 42 -258h4c7 69 13 96 25 163l72 413h152zM330 754v119h124v-119h-124zM526 754v119h123v-119h-123z" />
    <glyph glyph-name="wdieresis" unicode="&#x1e85;" horiz-adv-x="856" 
d="M160 0c-50 172 -98 352 -147 525h160l46 -193c18 -74 22 -114 38 -194h3c15 78 23 119 43 205l41 182h169l44 -185c15 -63 29 -135 43 -204h2c12 58 26 133 42 203l42 186h158c-49 -176 -99 -350 -148 -525h-189l-39 160c-15 62 -31 126 -39 177h-3
c-12 -63 -22 -107 -39 -176l-39 -161h-188zM268 596v119h124v-119h-124zM464 596v119h123v-119h-123z" />
    <glyph glyph-name="uni1EA0" unicode="&#x1ea0;" horiz-adv-x="720" 
d="M-10 0c63 172 170 453 274 715h197l267 -715h-172c-21 57 -42 111 -63 169h-270l-64 -169h-169zM267 299h181c-37 117 -64 193 -90 280h-2c-25 -89 -58 -186 -89 -280zM295 -166v119h124v-119h-124z" />
    <glyph glyph-name="uni1EA1" unicode="&#x1ea1;" horiz-adv-x="575" 
d="M530 0h-141c-2 20 -4 39 -3 59c-33 -33 -74 -69 -169 -69c-112 0 -190 57 -190 156c0 128 150 167 299 180c17 1 36 3 46 3c0 72 -24 107 -84 107c-54 0 -82 -28 -87 -75h-150c8 109 92 180 237 180c152 0 231 -57 231 -236v-160c0 -39 1 -106 11 -145zM371 215
c0 6 0 11 1 18l-27 -3c-116 -13 -159 -31 -159 -79c0 -38 32 -61 79 -61c72 0 106 45 106 125zM226 -166v119h124v-119h-124z" />
    <glyph glyph-name="uni1EB8" unicode="&#x1eb8;" horiz-adv-x="591" 
d="M236 292v-152h312v-140h-474v715h470v-140h-308v-145h283v-138h-283zM242 -166v119h124v-119h-124z" />
    <glyph glyph-name="uni1EB9" unicode="&#x1eb9;" 
d="M411 156h159c-32 -102 -123 -172 -264 -172c-167 0 -274 109 -274 280c0 163 113 279 277 279c175 0 269 -119 269 -291c0 -10 -1 -26 -1 -26h-390c6 -78 55 -125 124 -125c47 0 82 19 100 55zM191 323h230c-8 69 -48 109 -113 109c-63 0 -108 -40 -117 -109zM226 -166
v119h124v-119h-124z" />
    <glyph glyph-name="uni1ECA" unicode="&#x1eca;" horiz-adv-x="312" 
d="M238 0h-164v715h164v-715zM95 -166v119h124v-119h-124z" />
    <glyph glyph-name="uni1ECB" unicode="&#x1ecb;" horiz-adv-x="280" 
d="M62 587v128h156v-128h-156zM218 0h-156v525h156v-525zM79 -166v119h124v-119h-124z" />
    <glyph glyph-name="uni1ECC" unicode="&#x1ecc;" horiz-adv-x="797" 
d="M398 728c217 0 364 -145 364 -371c0 -231 -145 -370 -365 -370c-217 0 -362 139 -362 370c0 226 147 371 363 371zM398 128c119 0 191 90 191 228c0 144 -72 235 -191 235c-120 0 -192 -91 -192 -235c0 -138 72 -228 192 -228zM341 -166v119h124v-119h-124z" />
    <glyph glyph-name="uni1ECD" unicode="&#x1ecd;" horiz-adv-x="628" 
d="M313 543c170 0 284 -115 284 -281c0 -164 -112 -278 -283 -278c-173 0 -283 114 -283 279s113 280 282 280zM312 420c-77 0 -120 -63 -120 -157c0 -97 41 -156 121 -156c79 0 120 59 120 155c0 94 -41 158 -121 158zM252 -166v119h124v-119h-124z" />
    <glyph glyph-name="uni1EE4" unicode="&#x1ee4;" horiz-adv-x="708" 
d="M354 128c79 0 123 55 123 166v421h164v-426c0 -90 -19 -154 -56 -203c-48 -64 -126 -98 -231 -98s-183 34 -231 98c-37 49 -56 113 -56 203v426h164v-421c0 -111 44 -166 123 -166zM291 -166v119h124v-119h-124z" />
    <glyph glyph-name="uni1EE5" unicode="&#x1ee5;" horiz-adv-x="612" 
d="M394 525h156v-445c0 -27 0 -53 1 -80h-149v72c-22 -43 -71 -85 -158 -85c-71 0 -126 31 -157 84c-26 46 -30 95 -30 185v269h156v-254c0 -105 16 -162 84 -162s97 51 97 147v269zM241 -166v119h124v-119h-124z" />
    <glyph glyph-name="Ygrave" unicode="&#x1ef2;" horiz-adv-x="622" 
d="M629 715l-236 -447v-268h-164v268s-149 287 -233 447h183l137 -295h2c30 71 70 158 135 295h176zM416 761h-162l-139 115h197z" />
    <glyph glyph-name="ygrave" unicode="&#x1ef3;" horiz-adv-x="550" 
d="M136 -180c0 0 49 150 61 187c-63 170 -135 348 -195 518h166c47 -156 80 -249 109 -354h5c20 86 66 241 99 354h161c-58 -161 -190 -545 -246 -705h-160zM380 596h-168l-141 119h205z" />
    <glyph glyph-name="enspace" unicode="&#x2002;" horiz-adv-x="500" 
 />
    <glyph glyph-name="emspace" unicode="&#x2003;" horiz-adv-x="1000" 
 />
    <glyph glyph-name="threeperemspace" unicode="&#x2004;" horiz-adv-x="0" 
 />
    <glyph glyph-name="fourperemspace" unicode="&#x2005;" horiz-adv-x="250" 
 />
    <glyph glyph-name="thinspace" unicode="&#x2009;" horiz-adv-x="133" 
 />
    <glyph glyph-name="hairspace" unicode="&#x200a;" horiz-adv-x="75" 
 />
    <glyph glyph-name="endash" unicode="&#x2013;" horiz-adv-x="592" 
d="M58 235v133h476v-133h-476z" />
    <glyph glyph-name="emdash" unicode="&#x2014;" horiz-adv-x="957" 
d="M58 235v133h841v-133h-841z" />
    <glyph glyph-name="quoteleft" unicode="&#x2018;" horiz-adv-x="291" 
d="M37 460l93 255h134l-72 -255h-155z" />
    <glyph glyph-name="quoteright" unicode="&#x2019;" horiz-adv-x="288" 
d="M267 715l-93 -255h-134l72 255h155z" />
    <glyph glyph-name="quotesinglbase" unicode="&#x201a;" horiz-adv-x="288" 
d="M243 166l-93 -255h-137l72 255h158z" />
    <glyph glyph-name="quotedblleft" unicode="&#x201c;" horiz-adv-x="507" 
d="M254 460l93 255h133l-72 -255h-154zM37 460l93 255h133l-72 -255h-154z" />
    <glyph glyph-name="quotedblright" unicode="&#x201d;" horiz-adv-x="503" 
d="M265 715l-93 -255h-132l72 255h153zM482 715l-93 -255h-132l72 255h153z" />
    <glyph glyph-name="quotedblbase" unicode="&#x201e;" horiz-adv-x="505" 
d="M243 166l-93 -255h-137l72 255h158zM460 166l-93 -255h-137l72 255h158z" />
    <glyph glyph-name="dagger" unicode="&#x2020;" horiz-adv-x="510" 
d="M332 715v-169h146v-130h-146v-484h-153v484h-147v130h147v169h153z" />
    <glyph glyph-name="daggerdbl" unicode="&#x2021;" horiz-adv-x="536" 
d="M345 416v-185h146v-130h-146v-169h-153v169h-147v130h147v185h-147v130h147v169h153v-169h146v-130h-146z" />
    <glyph glyph-name="bullet" unicode="&#x2022;" horiz-adv-x="525" 
d="M263 138c-110 0 -197 87 -197 196s87 195 197 195c108 0 196 -86 196 -195s-88 -196 -196 -196z" />
    <glyph glyph-name="ellipsis" unicode="&#x2026;" horiz-adv-x="939" 
d="M57 0v166h163v-166h-163zM388 0v166h163v-166h-163zM719 0v166h163v-166h-163z" />
    <glyph glyph-name="perthousand" unicode="&#x2030;" horiz-adv-x="1297" 
d="M202 323c-111 0 -171 78 -171 202c0 122 59 201 170 201s170 -80 170 -202c0 -124 -58 -201 -169 -201zM136 523c0 -67 14 -115 65 -115s64 47 64 115c0 72 -12 118 -64 118s-65 -48 -65 -118zM263 0l275 715h93l-275 -715h-93zM694 -15c-111 0 -171 78 -171 202
c0 122 59 201 170 201s170 -80 170 -202c0 -124 -58 -201 -169 -201zM628 185c0 -67 14 -115 65 -115s64 47 64 115c0 72 -12 118 -64 118s-65 -48 -65 -118zM1097 -15c-111 0 -171 78 -171 202c0 122 59 201 170 201s170 -80 170 -202c0 -124 -58 -201 -169 -201zM1031 185
c0 -67 14 -115 65 -115s64 47 64 115c0 72 -12 118 -64 118s-65 -48 -65 -118z" />
    <glyph glyph-name="guilsinglleft" unicode="&#x2039;" horiz-adv-x="327" 
d="M283 473l-96 -187l96 -188h-144l-102 188l102 187h144z" />
    <glyph glyph-name="guilsinglright" unicode="&#x203a;" horiz-adv-x="327" 
d="M140 286l-96 187h144l102 -187l-102 -188h-144z" />
    <glyph glyph-name="fraction" unicode="&#x2044;" horiz-adv-x="422" 
d="M-6 -105l290 820h144l-288 -820h-146z" />
    <glyph glyph-name="Euro" unicode="&#x20ac;" 
d="M-4 364l33 116h47c8 66 26 124 63 169c48 59 121 83 206 83c152 0 240 -79 256 -235l-158 -1c-10 68 -34 106 -98 106c-69 0 -97 -44 -107 -122h224l-33 -116h-196v-38h189l-33 -116h-149c12 -62 41 -95 105 -95c65 0 88 36 98 103l157 -1c-18 -151 -94 -232 -255 -232
c-84 0 -152 19 -201 75c-36 40 -55 91 -64 150h-84l33 116h41v38h-74z" />
    <glyph glyph-name="trademark" unicode="&#x2122;" horiz-adv-x="963" 
d="M694 297h-87c-34 108 -65 204 -104 319h-3c1 -59 1 -120 1 -189v-130h-92v418h161c36 -112 73 -236 86 -280c15 51 54 185 84 280h157v-418h-94v184c0 52 1 95 1 136h-3c-36 -111 -69 -208 -107 -320zM362 715v-81h-105v-337h-99v337h-105v81h309z" />
    <glyph glyph-name="Omega" unicode="&#x2126;" horiz-adv-x="820" 
d="M410 589c-125 0 -193 -97 -193 -209c0 -115 58 -198 149 -246v-134h-319v135h123c-66 46 -123 124 -123 253c0 181 128 339 363 339s363 -158 363 -339c0 -129 -57 -207 -123 -253h123v-135h-319v134c91 48 149 131 149 246c0 112 -68 209 -193 209z" />
    <glyph glyph-name="onethird" unicode="&#x2153;" horiz-adv-x="841" 
d="M468 142h105c3 -40 25 -62 62 -62c41 0 61 22 61 56c0 40 -30 59 -82 59h-13v85c51 0 79 15 79 51c0 25 -19 40 -46 40s-48 -15 -48 -51h-104c2 82 62 136 155 136c91 0 151 -49 151 -120c0 -49 -24 -77 -61 -94c39 -15 79 -46 79 -112c0 -81 -65 -136 -171 -136
c-102 0 -165 54 -167 148zM189 0l275 715h93l-275 -715h-93zM138 569h-108v69h10c58 0 96 29 109 77h88v-439h-99v293z" />
    <glyph glyph-name="twothirds" unicode="&#x2154;" horiz-adv-x="961" 
d="M759 -8c-105 0 -170 53 -170 135c0 52 26 90 81 112c-40 19 -64 53 -64 97c0 68 59 121 152 121c95 0 154 -53 154 -121c0 -45 -22 -78 -64 -98c53 -21 81 -58 81 -111c0 -82 -65 -135 -170 -135zM758 196c-38 0 -64 -25 -64 -60c0 -33 25 -58 64 -58s63 25 63 58
c0 35 -25 60 -63 60zM759 372c-33 0 -53 -21 -53 -48s20 -48 53 -48s53 21 53 48s-20 48 -53 48zM301 0l275 715h93l-275 -715h-93zM373 276h-330v84c54 42 81 60 149 115c54 43 71 77 71 110c0 32 -20 50 -51 50c-39 0 -56 -29 -56 -69h-112c1 100 68 163 171 163
s164 -54 164 -137c0 -70 -42 -120 -100 -165c-18 -14 -33 -23 -46 -32c-18 -13 -23 -17 -44 -31h184v-88z" />
    <glyph glyph-name="oneeighth" unicode="&#x215b;" horiz-adv-x="852" 
d="M647 -8c-105 0 -170 53 -170 135c0 52 26 90 81 112c-40 19 -64 53 -64 97c0 68 59 121 152 121c95 0 154 -53 154 -121c0 -45 -22 -78 -64 -98c53 -21 81 -58 81 -111c0 -82 -65 -135 -170 -135zM646 196c-38 0 -64 -25 -64 -60c0 -33 25 -58 64 -58s63 25 63 58
c0 35 -25 60 -63 60zM647 372c-33 0 -53 -21 -53 -48s20 -48 53 -48s53 21 53 48s-20 48 -53 48zM189 0l275 715h93l-275 -715h-93zM138 569h-108v69h10c58 0 96 29 109 77h88v-439h-99v293z" />
    <glyph glyph-name="threeeighths" unicode="&#x215c;" horiz-adv-x="955" 
d="M753 -8c-105 0 -170 53 -170 135c0 52 26 90 81 112c-40 19 -64 53 -64 97c0 68 59 121 152 121c95 0 154 -53 154 -121c0 -45 -22 -78 -64 -98c53 -21 81 -58 81 -111c0 -82 -65 -135 -170 -135zM752 196c-38 0 -64 -25 -64 -60c0 -33 25 -58 64 -58s63 25 63 58
c0 35 -25 60 -63 60zM753 372c-33 0 -53 -21 -53 -48s20 -48 53 -48s53 21 53 48s-20 48 -53 48zM295 0l275 715h93l-275 -715h-93zM33 418h105c3 -40 25 -62 62 -62c41 0 61 22 61 56c0 40 -30 56 -82 56h-13v84c51 0 79 13 79 49c0 25 -19 40 -46 40s-48 -15 -48 -51h-104
c2 82 62 136 155 136c91 0 151 -49 151 -120c0 -49 -24 -74 -61 -91c39 -15 79 -43 79 -109c0 -81 -65 -136 -171 -136c-102 0 -165 54 -167 148z" />
    <glyph glyph-name="fiveeighths" unicode="&#x215d;" horiz-adv-x="951" 
d="M32 412h111c5 -33 23 -56 59 -56c38 0 61 24 61 66c0 38 -22 64 -60 64c-31 0 -45 -16 -55 -37l-103 18l26 248h268v-88h-184c-3 -27 -6 -47 -9 -77c19 12 45 21 79 21c83 0 144 -55 144 -144c0 -98 -67 -159 -169 -159c-96 0 -162 60 -168 144zM747 -8
c-105 0 -170 53 -170 135c0 52 26 90 81 112c-40 19 -64 53 -64 97c0 68 59 121 152 121c95 0 154 -53 154 -121c0 -45 -22 -78 -64 -98c53 -21 81 -58 81 -111c0 -82 -65 -135 -170 -135zM746 196c-38 0 -64 -25 -64 -60c0 -33 25 -58 64 -58s63 25 63 58
c0 35 -25 60 -63 60zM747 372c-33 0 -53 -21 -53 -48s20 -48 53 -48s53 21 53 48s-20 48 -53 48zM289 0l275 715h93l-275 -715h-93z" />
    <glyph glyph-name="seveneighths" unicode="&#x215e;" horiz-adv-x="864" 
d="M660 -8c-105 0 -170 53 -170 135c0 52 26 90 81 112c-40 19 -64 53 -64 97c0 68 59 121 152 121c95 0 154 -53 154 -121c0 -45 -22 -78 -64 -98c53 -21 81 -58 81 -111c0 -82 -65 -135 -170 -135zM659 196c-38 0 -64 -25 -64 -60c0 -33 25 -58 64 -58s63 25 63 58
c0 35 -25 60 -63 60zM660 372c-33 0 -53 -21 -53 -48s20 -48 53 -48s53 21 53 48s-20 48 -53 48zM202 0l275 715h93l-275 -715h-93zM190 276h-111c40 126 97 247 160 354c-1 0 -1 1 -1 1c-26 -2 -45 -1 -73 -1h-133v84h311v-78c-51 -87 -103 -204 -153 -360z" />
    <glyph glyph-name="arrowleft" unicode="&#x2190;" horiz-adv-x="820" 
d="M780 252h-513c58 -56 255 -252 255 -252h-193c-73 75 -225 241 -309 326c84 84 236 249 309 324h193s-197 -196 -255 -252h513v-146z" />
    <glyph glyph-name="arrowup" unicode="&#x2191;" horiz-adv-x="720" 
d="M287 0v508c-56 -58 -252 -251 -252 -251v184c75 73 240 225 325 309c84 -84 250 -236 325 -309v-184s-197 193 -253 251v-508h-145z" />
    <glyph glyph-name="arrowright" unicode="&#x2192;" horiz-adv-x="820" 
d="M552 252h-513v146h513c-58 56 -255 252 -255 252h193c73 -75 225 -240 309 -324c-84 -85 -236 -251 -309 -326h-193s197 196 255 252z" />
    <glyph glyph-name="arrowdown" unicode="&#x2193;" horiz-adv-x="720" 
d="M287 207v508h145v-508c56 58 253 251 253 251v-184c-75 -73 -241 -225 -325 -309c-85 84 -250 236 -325 309v184s196 -193 252 -251z" />
    <glyph glyph-name="uni2196" unicode="&#x2196;" horiz-adv-x="750" 
d="M327 440l361 -361l-103 -102l-359 359c1 -80 0 -356 0 -356l-125 126c1 105 4 333 4 452c119 1 344 5 449 6l130 -124s-277 -2 -357 0z" />
    <glyph glyph-name="uni2197" unicode="&#x2197;" horiz-adv-x="750" 
d="M61 79l361 361c-80 -2 -357 0 -357 0l130 124c105 -1 330 -5 449 -6c0 -119 3 -347 4 -452l-125 -126s-1 276 0 356l-359 -359z" />
    <glyph glyph-name="uni2198" unicode="&#x2198;" horiz-adv-x="750" 
d="M423 121l-361 361l103 102l359 -359c-1 80 0 356 0 356l125 -126c-1 -105 -4 -333 -4 -452c-119 -1 -344 -5 -449 -6l-130 124s277 2 357 0z" />
    <glyph glyph-name="uni2199" unicode="&#x2199;" horiz-adv-x="750" 
d="M689 481l-361 -361c80 2 357 0 357 0l-130 -124c-105 1 -330 5 -449 6c0 119 -3 347 -4 452l125 126s1 -276 0 -356l359 359z" />
    <glyph glyph-name="partialdiff" unicode="&#x2202;" horiz-adv-x="634" 
d="M79 715h229c150 -80 291 -213 291 -441c0 -181 -112 -289 -287 -289c-166 0 -280 109 -280 275c0 182 125 280 258 280c21 0 47 -4 60 -10l3 3c-66 73 -183 138 -274 182zM313 420c-77 0 -120 -63 -120 -157c0 -97 41 -156 121 -156c79 0 120 59 120 155
c0 94 -41 158 -121 158z" />
    <glyph glyph-name="Delta" unicode="&#x2206;" horiz-adv-x="719" 
d="M267 715h186l243 -715h-673zM360 565l-136 -439h272z" />
    <glyph glyph-name="product" unicode="&#x220f;" horiz-adv-x="826" 
d="M701 575v-688h-164v688h-248v-688h-164v688h-87v140h750v-140h-87z" />
    <glyph glyph-name="summation" unicode="&#x2211;" horiz-adv-x="624" 
d="M38 15l250 282l-246 281v137h533v-140h-337l238 -270l-250 -278h360v-140h-548v128z" />
    <glyph glyph-name="minus" unicode="&#x2212;" 
d="M53 254v134h498v-134h-498z" />
    <glyph glyph-name="uni2219" unicode="&#x2219;" horiz-adv-x="277" 
d="M57 236v166h163v-166h-163z" />
    <glyph glyph-name="radical" unicode="&#x221a;" 
d="M7 396v129h197l62 -196c20 -61 27 -97 50 -173h2c18 72 26 105 47 185l100 374h156l-217 -715h-177c-48 136 -88 256 -136 396h-84z" />
    <glyph glyph-name="infinity" unicode="&#x221e;" horiz-adv-x="840" 
d="M229 517c79 0 128 -43 193 -97c64 56 111 97 192 97c108 0 177 -77 177 -187c0 -91 -58 -183 -174 -183c-88 0 -144 51 -197 102c-56 -53 -111 -102 -195 -102c-123 0 -176 92 -176 183c0 110 69 187 180 187zM607 276c34 0 56 22 56 57c0 32 -22 56 -54 56
c-33 0 -72 -27 -107 -58c35 -28 68 -55 105 -55zM234 276c37 0 70 27 104 55c-36 31 -73 58 -106 58s-54 -24 -54 -56c0 -35 21 -57 56 -57z" />
    <glyph glyph-name="integral" unicode="&#x222b;" 
d="M413 474l-54 -389c-26 -190 -76 -264 -219 -264c-24 0 -57 3 -83 12l14 122c20 -7 36 -8 48 -8c59 0 74 55 85 137l55 403c21 153 83 240 222 240c24 0 49 -2 66 -6l-16 -134c-9 3 -22 7 -38 7c-52 0 -69 -40 -80 -120z" />
    <glyph glyph-name="approxequal" unicode="&#x2248;" 
d="M478 542l89 -69c-39 -71 -92 -129 -162 -129c-39 0 -72 14 -115 34l-17 8c-28 13 -50 25 -72 25c-27 0 -46 -17 -73 -66l-89 69c39 71 92 129 162 129c39 0 72 -14 115 -34l17 -8c28 -13 50 -25 72 -25c27 0 46 17 73 66zM475 291l89 -69c-39 -71 -92 -129 -162 -129
c-39 0 -72 14 -115 34l-17 8c-28 13 -50 25 -72 25c-27 0 -46 -17 -73 -66l-89 69c39 71 92 129 162 129c39 0 72 -14 115 -34l17 -8c28 -13 50 -25 72 -25c27 0 46 17 73 66z" />
    <glyph glyph-name="notequal" unicode="&#x2260;" 
d="M53 367v130h239l36 73h139l-36 -73h120v-130h-183l-30 -62h213v-130h-276l-41 -85h-139l41 85h-83v130h146l30 62h-176z" />
    <glyph glyph-name="lessequal" unicode="&#x2264;" 
d="M72 0v134h435v-134h-435zM507 645v-150l-288 -87v-3l288 -88v-152l-435 180v118z" />
    <glyph glyph-name="greaterequal" unicode="&#x2265;" 
d="M531 134v-134h-435v134h435zM96 495v150l435 -182v-118l-435 -180v152l288 88v3z" />
    <glyph glyph-name="dotmath" unicode="&#x22c5;" horiz-adv-x="277" 
d="M57 236v166h163v-166h-163z" />
    <glyph glyph-name="lozenge" unicode="&#x25ca;" 
d="M374 0h-144l-220 356l220 359h144l219 -359zM302 142l124 214l-124 217l-125 -217z" />
    <glyph glyph-name="commaaccent" unicode="&#xf6c3;" horiz-adv-x="369" 
d="M84 -163l93 114h146l-76 -114h-163z" />
    <glyph glyph-name="uniF8FF" unicode="&#xf8ff;" horiz-adv-x="529" 
d="M265 104c-126 0 -226 100 -226 225s100 223 226 223c124 0 225 -98 225 -223s-101 -225 -225 -225z" />
    <glyph glyph-name="acute.caps" horiz-adv-x="427" 
d="M282 761h-162l104 115h197z" />
    <glyph glyph-name="grave.caps" horiz-adv-x="512" 
d="M401 761h-162l-139 115h197z" />
    <glyph glyph-name="circumflex.caps" horiz-adv-x="503" 
d="M174 876h160l106 -115h-137l-47 51l-48 -51h-137z" />
    <glyph glyph-name="caron.caps" horiz-adv-x="502" 
d="M334 761h-160l-103 115h137l48 -51l47 51h137z" />
    <glyph glyph-name="tilde.caps" horiz-adv-x="470" 
d="M242 777c-24 12 -35 18 -47 18c-17 0 -26 -10 -28 -31h-84c-1 64 36 122 105 122c28 0 47 -9 69 -20c26 -13 38 -17 48 -17c18 0 24 10 28 34h81c0 -70 -35 -126 -99 -126c-27 0 -51 9 -73 20z" />
    <glyph glyph-name="macron.caps" horiz-adv-x="428" 
d="M110 765v93h273v-93h-273z" />
    <glyph glyph-name="breve.caps" horiz-adv-x="465" 
d="M249 745c-84 0 -138 49 -148 131h95c5 -24 22 -41 53 -41s46 19 53 41h94c-10 -82 -64 -131 -147 -131z" />
    <glyph glyph-name="dotaccent.caps" horiz-adv-x="328" 
d="M103 761v115h122v-115h-122z" />
    <glyph glyph-name="ring.caps" horiz-adv-x="405" 
d="M247 738c-60 0 -107 49 -107 109c0 58 49 107 108 107c60 0 108 -49 108 -107c0 -60 -48 -109 -109 -109zM208 847c0 -23 17 -41 39 -41c23 0 40 17 40 41c0 21 -17 39 -40 39c-22 0 -39 -18 -39 -39z" />
    <glyph glyph-name="cedilla.caps" horiz-adv-x="369" 
d="M84 -163l93 114h146l-76 -114h-163z" />
    <glyph glyph-name="ogonek.caps" horiz-adv-x="331" 
d="M200 -49l93 -114h-163l-76 114h146z" />
    <glyph glyph-name="hungarumlaut.caps" horiz-adv-x="612" 
d="M224 761h-155l105 115h190zM473 761h-155l105 115h190z" />
    <glyph glyph-name="dieresis.caps" horiz-adv-x="491" 
d="M104 754v119h124v-119h-124zM300 754v119h123v-119h-123z" />
    <glyph glyph-name="horn" horiz-adv-x="264" 
d="M248 715l-85 -191h-130l55 191h160z" />
    <glyph glyph-name="zero.plf" horiz-adv-x="638" 
d="M319 115c84 0 109 73 109 236c0 168 -24 251 -109 251s-109 -83 -109 -251c0 -163 25 -236 109 -236zM319 732c223 0 276 -173 276 -377c0 -222 -56 -370 -276 -370s-276 148 -276 370c0 204 53 377 276 377z" />
    <glyph glyph-name="one.plf" horiz-adv-x="448" 
d="M197 478h-175v113h16c95 0 157 46 179 124h140v-715h-160v478z" />
    <glyph glyph-name="two.plf" horiz-adv-x="616" 
d="M571 0h-530v129c90 70 126 98 238 189c90 73 119 128 119 185s-35 89 -92 89c-69 0 -99 -48 -99 -114h-160c1 156 97 254 261 254c161 0 259 -85 259 -218c0 -107 -69 -193 -165 -266c-73 -56 -110 -79 -158 -119c22 1 36 1 59 1h268v-130z" />
    <glyph glyph-name="three.plf" horiz-adv-x="618" 
d="M30 217h162c5 -66 44 -103 111 -103c73 0 109 41 109 100c0 72 -53 100 -144 100h-13v127c84 0 131 26 131 89c0 45 -34 74 -85 74c-49 0 -87 -27 -88 -85h-155c3 128 97 213 249 213c146 0 242 -79 242 -194c0 -87 -45 -126 -114 -150v-2c66 -21 144 -68 144 -182
c0 -132 -105 -220 -276 -220c-165 0 -269 85 -273 233z" />
    <glyph glyph-name="four.plf" horiz-adv-x="646" 
d="M613 269v-130h-101v-139h-155v139h-334v124l304 452h185v-446h101zM169 268c27 1 49 1 88 1h100v169c0 42 2 83 3 124h-2c-26 -46 -47 -82 -75 -124l-54 -82c-22 -34 -60 -88 -60 -88z" />
    <glyph glyph-name="five.plf" horiz-adv-x="611" 
d="M33 207h171c8 -53 43 -91 104 -91c67 0 107 47 107 118c0 67 -40 115 -105 115c-49 0 -78 -26 -96 -58l-159 26l44 398h429v-132h-302c-6 -49 -12 -95 -20 -147h1c33 25 77 43 139 43c135 0 233 -92 233 -238c0 -157 -109 -254 -273 -254c-157 0 -263 90 -273 220z" />
    <glyph glyph-name="six.plf" horiz-adv-x="629" 
d="M578 546l-166 1c-12 36 -33 63 -87 63c-73 0 -114 -77 -114 -188c20 20 71 52 152 52c125 0 227 -81 227 -237c0 -144 -99 -250 -271 -250c-177 0 -277 124 -277 341c0 253 88 408 291 408c151 0 226 -91 245 -190zM320 347c-61 0 -107 -44 -107 -114s46 -115 108 -115
s107 44 107 113c0 72 -46 116 -108 116z" />
    <glyph glyph-name="seven.plf" horiz-adv-x="545" 
d="M281 0h-176c66 205 160 407 263 581c-1 0 -1 1 -1 1c-44 -2 -74 -1 -120 -1h-223v134h507v-128c-83 -140 -167 -333 -250 -587z" />
    <glyph glyph-name="eight.plf" horiz-adv-x="621" 
d="M311 -16c-166 0 -273 83 -273 214c0 89 47 149 146 183v2c-76 26 -118 80 -118 158c0 108 97 191 243 191c149 0 246 -83 246 -191c0 -78 -42 -132 -118 -158v-2c95 -34 146 -94 146 -183c0 -131 -107 -214 -272 -214zM310 315c-66 0 -111 -42 -111 -103
c0 -57 43 -100 111 -100c66 0 109 42 109 100c0 61 -44 103 -109 103zM311 606c-58 0 -94 -37 -94 -84s37 -84 94 -84s93 37 93 84s-36 84 -93 84z" />
    <glyph glyph-name="nine.plf" horiz-adv-x="629" 
d="M48 170l169 -1c12 -36 33 -63 87 -63c73 0 113 72 113 186c-20 -20 -72 -52 -151 -52c-125 0 -226 83 -226 239c0 141 100 249 270 249c177 0 277 -123 277 -346c0 -253 -87 -403 -292 -403c-151 0 -228 92 -247 191zM309 370c61 0 107 44 107 114s-46 115 -108 115
s-107 -44 -107 -113c0 -72 46 -116 108 -116z" />
    <glyph glyph-name="Gtilde" horiz-adv-x="791" 
d="M402 728c173 0 295 -92 340 -245l-179 -1c-30 69 -83 109 -164 109c-121 0 -193 -94 -193 -231c0 -142 73 -235 197 -235c110 0 160 62 177 137c-32 -1 -59 -1 -92 -1h-128v133h382v-394h-153v38c0 16 1 30 1 40h-1c-40 -50 -118 -91 -221 -91c-197 0 -333 150 -333 371
s144 370 367 370zM395 777c-24 12 -35 18 -47 18c-17 0 -26 -10 -28 -31h-84c-1 64 36 122 105 122c28 0 47 -9 69 -20c26 -13 38 -17 48 -17c18 0 24 10 28 34h81c0 -70 -35 -126 -99 -126c-27 0 -51 9 -73 20z" />
    <glyph glyph-name="gtilde" horiz-adv-x="643" 
d="M46 -19h164c18 -42 49 -64 100 -64c94 0 127 65 124 185h-2c-26 -44 -85 -80 -166 -80c-140 0 -232 104 -232 258s99 260 234 260c85 0 139 -38 164 -81c-2 21 -2 50 -2 66h151v-443c0 -181 -99 -278 -277 -278c-152 0 -237 70 -258 177zM317 421
c-73 0 -118 -59 -118 -142c0 -80 44 -138 118 -138c67 0 117 53 117 143c0 80 -46 137 -117 137zM331 609c-24 12 -35 18 -47 18c-17 0 -26 -10 -28 -31h-84c-1 64 36 122 105 122c28 0 47 -9 69 -20c26 -13 38 -17 48 -17c18 0 24 10 28 34h81c0 -70 -35 -126 -99 -126
c-27 0 -51 9 -73 20z" />
    <glyph glyph-name="Mcircumflex" horiz-adv-x="959" 
d="M74 0v715h263l88 -300c19 -66 39 -139 58 -214h1c15 53 35 117 65 222l83 292h253v-715h-154v334c0 86 2 162 4 237h-2c-12 -48 -33 -121 -56 -198l-110 -373h-171l-109 365c-30 101 -50 179 -56 206h-2c3 -75 3 -133 3 -231v-340h-158zM403 876h160l106 -115h-137
l-47 51l-48 -51h-137z" />
    <glyph glyph-name="mcircumflex" horiz-adv-x="935" 
d="M548 0h-156v254c0 111 -16 162 -80 162c-66 0 -94 -51 -94 -147v-269h-156v445c0 27 0 53 -1 80h149v-72c22 43 71 85 158 85c74 0 123 -34 152 -88h2c23 40 78 88 172 88c98 0 184 -57 184 -227v-311h-156v254c0 111 -16 162 -80 162c-66 0 -94 -51 -94 -147v-269z
M402 715h159l106 -119h-137l-47 51l-48 -51h-137z" />
    <glyph glyph-name="Mmacron" horiz-adv-x="959" 
d="M74 0v715h263l88 -300c19 -66 39 -139 58 -214h1c15 53 35 117 65 222l83 292h253v-715h-154v334c0 86 2 162 4 237h-2c-12 -48 -33 -121 -56 -198l-110 -373h-171l-109 365c-30 101 -50 179 -56 206h-2c3 -75 3 -133 3 -231v-340h-158zM347 765v93h273v-93h-273z" />
    <glyph glyph-name="mmacron" horiz-adv-x="935" 
d="M548 0h-156v254c0 111 -16 162 -80 162c-66 0 -94 -51 -94 -147v-269h-156v445c0 27 0 53 -1 80h149v-72c22 43 71 85 158 85c74 0 123 -34 152 -88h2c23 40 78 88 172 88c98 0 184 -57 184 -227v-311h-156v254c0 111 -16 162 -80 162c-66 0 -94 -51 -94 -147v-269z
M339 606v93h273v-93h-273z" />
    <glyph glyph-name="Ncircumflex" horiz-adv-x="767" 
d="M693 715v-715h-209l-155 300c-49 95 -89 177 -105 219h-1c2 -58 2 -153 2 -227v-292h-151v715h212l182 -358c36 -71 60 -130 76 -165h1c-2 59 -3 130 -3 207v316h151zM313 876h160l106 -115h-137l-47 51l-48 -51h-137z" />
    <glyph glyph-name="ncircumflex" horiz-adv-x="616" 
d="M218 0h-156v445c0 27 0 53 -1 80h149v-72c22 43 75 85 162 85c71 0 126 -31 157 -84c26 -46 30 -95 30 -185v-269h-156v254c0 105 -18 162 -86 162s-99 -51 -99 -147v-269zM247 715h159l106 -119h-137l-47 51l-48 -51h-137z" />
    <glyph glyph-name="Ndieresis" horiz-adv-x="767" 
d="M693 715v-715h-209l-155 300c-49 95 -89 177 -105 219h-1c2 -58 2 -153 2 -227v-292h-151v715h212l182 -358c36 -71 60 -130 76 -165h1c-2 59 -3 130 -3 207v316h151zM240 754v119h124v-119h-124zM436 754v119h123v-119h-123z" />
    <glyph glyph-name="ndieresis" horiz-adv-x="616" 
d="M218 0h-156v445c0 27 0 53 -1 80h149v-72c22 43 75 85 162 85c71 0 126 -31 157 -84c26 -46 30 -95 30 -185v-269h-156v254c0 105 -18 162 -86 162s-99 -51 -99 -147v-269zM173 596v119h124v-119h-124zM369 596v119h123v-119h-123z" />
    <glyph glyph-name="Nmacron" horiz-adv-x="767" 
d="M693 715v-715h-209l-155 300c-49 95 -89 177 -105 219h-1c2 -58 2 -153 2 -227v-292h-151v715h212l182 -358c36 -71 60 -130 76 -165h1c-2 59 -3 130 -3 207v316h151zM259 765v93h273v-93h-273z" />
    <glyph glyph-name="nmacron" horiz-adv-x="616" 
d="M218 0h-156v445c0 27 0 53 -1 80h149v-72c22 43 75 85 162 85c71 0 126 -31 157 -84c26 -46 30 -95 30 -185v-269h-156v254c0 105 -18 162 -86 162s-99 -51 -99 -147v-269zM194 606v93h273v-93h-273z" />
    <glyph glyph-name="Pmacron" horiz-adv-x="637" 
d="M74 0v715h214c28 0 52 0 76 -1c157 -5 247 -90 247 -228c0 -76 -28 -141 -81 -181c-56 -43 -130 -50 -232 -50h-60v-255h-164zM238 576v-187h83c79 0 125 29 125 94c0 63 -39 93 -128 93h-80zM171 765v93h273v-93h-273z" />
    <glyph glyph-name="pmacron" horiz-adv-x="641" 
d="M62 525h153c0 -23 -1 -40 -1 -55c24 30 79 70 164 70c136 0 230 -101 230 -273c0 -167 -94 -280 -237 -280c-79 0 -128 33 -154 67c1 -31 1 -67 1 -112v-122h-156v705zM325 421c-70 0 -117 -60 -117 -153c0 -95 43 -160 117 -160s118 67 118 157s-44 156 -118 156z
M191 606v93h273v-93h-273z" />
    <glyph glyph-name="registered.alt" horiz-adv-x="823" 
d="M361 297v-156h-105v433h172c51 0 87 -6 117 -27c31 -23 49 -59 49 -101c0 -75 -47 -114 -94 -132l107 -173h-118l-91 156h-37zM361 488v-109h56c46 0 74 16 74 54c0 42 -29 55 -81 55h-49zM788 360c0 -210 -167 -377 -378 -377c-208 0 -375 168 -375 377
c0 208 166 376 377 376c209 0 376 -168 376 -376zM719 360c0 171 -138 310 -307 310c-172 0 -307 -139 -307 -310c0 -172 135 -312 306 -312c170 0 308 139 308 312z" />
    <glyph glyph-name="uni00AD.case" horiz-adv-x="417" 
d="M57 290v135h303v-135h-303z" />
    <glyph glyph-name="endash.case" horiz-adv-x="592" 
d="M58 295v133h476v-133h-476z" />
    <glyph glyph-name="emdash.case" horiz-adv-x="957" 
d="M58 295v133h841v-133h-841z" />
    <glyph glyph-name="hyphen.case" horiz-adv-x="417" 
d="M57 290v135h303v-135h-303z" />
    <glyph glyph-name="guillemotleft.case" horiz-adv-x="547" 
d="M286 533l-96 -187l96 -188h-144l-102 188l102 187h144zM499 533l-91 -187l91 -188h-142l-102 188l102 187h142z" />
    <glyph glyph-name="guillemotright.case" horiz-adv-x="547" 
d="M357 346l-96 187h144l102 -187l-102 -188h-144zM139 346l-91 187h142l102 -187l-102 -188h-142z" />
    <glyph glyph-name="guilsinglleft.case" horiz-adv-x="332" 
d="M286 533l-96 -187l96 -188h-144l-102 188l102 187h144z" />
    <glyph glyph-name="guilsinglright.case" horiz-adv-x="332" 
d="M142 346l-96 187h144l102 -187l-102 -188h-144z" />
    <glyph glyph-name="parenleft.case" horiz-adv-x="343" 
d="M34 349c0 215 108 392 267 460v-139c-86 -83 -128 -188 -128 -319s42 -237 128 -319v-139c-160 68 -267 241 -267 456z" />
    <glyph glyph-name="parenright.case" horiz-adv-x="343" 
d="M309 349c0 -215 -107 -388 -267 -456v139c86 82 128 188 128 319s-42 236 -128 319v139c159 -68 267 -245 267 -460z" />
    <glyph glyph-name="bracketleft.case" horiz-adv-x="371" 
d="M335 35v-98h-246v828h246v-97h-113v-633h113z" />
    <glyph glyph-name="bracketright.case" horiz-adv-x="371" 
d="M36 -63v98h113v633h-113v97h246v-828h-246z" />
    <glyph glyph-name="braceleft.case" horiz-adv-x="349" 
d="M37 316v69c46 13 65 30 65 109v149c0 95 28 126 140 126c17 0 60 -1 60 -1v-92c-47 -2 -62 -16 -62 -81v-91c0 -108 -14 -127 -73 -152v-2c59 -25 73 -44 73 -152v-95c0 -65 15 -76 62 -78v-92s-43 -1 -60 -1c-112 0 -140 31 -140 126v149c0 79 -19 96 -65 109z" />
    <glyph glyph-name="braceright.case" horiz-adv-x="349" 
d="M312 385v-69c-46 -13 -65 -30 -65 -109v-149c0 -95 -28 -126 -140 -126c-17 0 -60 1 -60 1v92c47 2 62 13 62 78v95c0 108 14 127 73 152v2c-59 25 -73 44 -73 152v91c0 65 -15 79 -62 81v92s43 1 60 1c112 0 140 -31 140 -126v-149c0 -79 19 -96 65 -109z" />
    <glyph glyph-name="bar.case" horiz-adv-x="317" 
d="M90 -12v793h137v-793h-137z" />
    <glyph glyph-name="minus.case" 
d="M53 294v134h498v-134h-498z" />
    <glyph glyph-name="multiply.case" 
d="M445 596l93 -93l-143 -143l143 -143l-93 -93l-143 143l-143 -143l-93 93l143 143l-143 143l93 93l143 -143z" />
    <glyph glyph-name="plus.case" 
d="M47 309v130h188v190h134v-190h188v-130h-188v-190h-134v190h-188z" />
    <glyph glyph-name="less.case" 
d="M505 665v-150l-291 -137v-3l291 -138v-152l-435 230v118z" />
    <glyph glyph-name="equal.case" 
d="M53 403v134h498v-134h-498zM53 215v134h498v-134h-498z" />
    <glyph glyph-name="greater.case" 
d="M99 515v150l435 -232v-118l-435 -230v152l291 138v3z" />
    <glyph glyph-name="at.case" horiz-adv-x="815" 
d="M536 538h92l-44 -241c-5 -26 -7 -37 -7 -45c0 -14 8 -22 23 -22c52 0 100 81 100 176c0 143 -107 248 -270 248c-177 0 -302 -132 -302 -302c0 -175 126 -299 309 -299c88 0 154 23 216 62l48 -53c-72 -53 -160 -87 -267 -87c-238 0 -396 159 -396 377
c0 212 168 379 391 379c201 0 352 -134 352 -313c0 -151 -89 -267 -204 -267c-43 0 -71 24 -81 45c-23 -24 -64 -49 -119 -49c-95 0 -160 68 -160 175c0 119 80 227 198 227c54 0 93 -25 115 -59zM425 459c-69 0 -109 -66 -109 -136c0 -53 28 -90 80 -90
c70 0 109 67 109 139c0 54 -28 87 -80 87z" />
    <glyph glyph-name="notequal.case" 
d="M54 407v130h239l36 73h139l-36 -73h120v-130h-183l-30 -62h213v-130h-276l-41 -85h-139l41 85h-83v130h146l30 62h-176z" />
    <glyph glyph-name="plusminus.case" 
d="M51 40v134h498v-134h-498zM47 369v130h188v140h134v-140h188v-130h-188v-140h-134v140h-188z" />
    <glyph glyph-name="lessequal.case" 
d="M74 40v134h435v-134h-435zM509 685v-150l-288 -87v-3l288 -88v-152l-435 180v118z" />
    <glyph glyph-name="greaterequal.case" 
d="M530 174v-134h-435v134h435zM95 535v150l435 -182v-118l-435 -180v152l288 88v3z" />
    <glyph glyph-name="logicalnot.case" 
d="M40 373v134h505v-330h-145v196h-360z" />
    <glyph glyph-name="approxequal.case" 
d="M478 552l89 -69c-39 -71 -92 -129 -162 -129c-39 0 -72 14 -115 34l-17 8c-28 13 -50 25 -72 25c-27 0 -46 -17 -73 -66l-89 69c39 71 92 129 162 129c39 0 72 -14 115 -34l17 -8c28 -13 50 -25 72 -25c27 0 46 17 73 66zM475 301l89 -69c-39 -71 -92 -129 -162 -129
c-39 0 -72 14 -115 34l-17 8c-28 13 -50 25 -72 25c-27 0 -46 -17 -73 -66l-89 69c39 71 92 129 162 129c39 0 72 -14 115 -34l17 -8c28 -13 50 -25 72 -25c27 0 46 17 73 66z" />
    <glyph glyph-name="divide.case" 
d="M53 294v134h498v-134h-498zM226 96v146h152v-146h-152zM226 480v146h152v-146h-152z" />
    <glyph glyph-name="infinity.case" horiz-adv-x="817" 
d="M218 547c79 0 128 -43 193 -97c64 56 111 97 192 97c108 0 177 -77 177 -187c0 -91 -58 -183 -174 -183c-88 0 -144 51 -197 102c-56 -53 -111 -102 -195 -102c-123 0 -176 92 -176 183c0 110 69 187 180 187zM596 306c34 0 56 22 56 57c0 32 -22 56 -54 56
c-33 0 -72 -27 -107 -58c35 -28 68 -55 105 -55zM223 306c37 0 70 27 104 55c-36 31 -73 58 -106 58s-54 -24 -54 -56c0 -35 21 -57 56 -57z" />
    <glyph glyph-name="zero.posf" horiz-adv-x="640" 
d="M320 113c84 0 109 71 109 231c0 165 -24 246 -109 246s-109 -81 -109 -246c0 -160 25 -231 109 -231zM320 718c223 0 276 -170 276 -370c0 -217 -56 -363 -276 -363s-276 146 -276 363c0 200 53 370 276 370z" />
    <glyph glyph-name="one.posf" horiz-adv-x="449" 
d="M198 469h-175v110h16c95 0 157 45 179 122h140v-701h-160v469z" />
    <glyph glyph-name="two.posf" horiz-adv-x="617" 
d="M571 0h-530v127c90 68 126 96 238 185c90 71 119 125 119 181s-35 87 -92 87c-69 0 -99 -47 -99 -111h-160c1 153 97 249 261 249c161 0 259 -84 259 -214c0 -105 -69 -189 -165 -261c-73 -55 -110 -77 -158 -116c22 1 36 1 59 1h268v-128z" />
    <glyph glyph-name="three.posf" horiz-adv-x="619" 
d="M31 213h162c5 -65 44 -101 111 -101c73 0 109 40 109 98c0 70 -53 98 -144 98h-13v124c84 0 131 26 131 88c0 44 -34 72 -85 72c-49 0 -87 -26 -88 -83h-155c3 125 97 209 249 209c146 0 242 -78 242 -191c0 -85 -45 -123 -114 -147v-2c66 -20 144 -66 144 -178
c0 -129 -105 -216 -276 -216c-165 0 -269 84 -273 229z" />
    <glyph glyph-name="four.posf" horiz-adv-x="647" 
d="M614 264v-128h-101v-136h-155v136h-334v122l304 443h185v-437h101zM170 263c27 1 49 1 88 1h100v165c0 42 2 82 3 122h-2c-26 -45 -47 -80 -75 -122l-54 -80c-22 -33 -60 -86 -60 -86z" />
    <glyph glyph-name="five.posf" horiz-adv-x="611" 
d="M33 203h171c8 -52 43 -89 104 -89c67 0 107 46 107 115c0 66 -40 113 -105 113c-49 0 -78 -25 -96 -57l-159 26l44 390h429v-130h-302c-6 -48 -12 -93 -20 -144h1c33 25 77 42 139 42c135 0 233 -90 233 -233c0 -154 -109 -249 -273 -249c-157 0 -263 88 -273 216z" />
    <glyph glyph-name="six.posf" horiz-adv-x="629" 
d="M578 535l-166 1c-12 36 -33 62 -87 62c-73 0 -114 -75 -114 -184c20 19 71 51 152 51c125 0 227 -80 227 -233c0 -141 -99 -245 -271 -245c-177 0 -277 122 -277 335c0 248 88 400 291 400c151 0 226 -90 245 -187zM320 340c-61 0 -107 -43 -107 -111
c0 -69 46 -113 108 -113s107 43 107 111c0 70 -46 113 -108 113z" />
    <glyph glyph-name="seven.posf" horiz-adv-x="548" 
d="M282 0h-176c66 201 160 399 263 570c-1 0 -1 1 -1 1c-44 -2 -74 -1 -120 -1h-223v131h507v-126c-83 -137 -167 -326 -250 -575z" />
    <glyph glyph-name="eight.posf" horiz-adv-x="623" 
d="M312 -16c-166 0 -273 82 -273 210c0 87 47 146 146 180v1c-76 26 -118 79 -118 155c0 106 97 188 243 188c149 0 246 -82 246 -188c0 -76 -42 -129 -118 -155v-1c95 -34 146 -93 146 -180c0 -128 -107 -210 -272 -210zM311 309c-66 0 -111 -41 -111 -101
c0 -56 43 -98 111 -98c66 0 109 41 109 98c0 60 -44 101 -109 101zM312 594c-58 0 -94 -36 -94 -82s37 -83 94 -83s93 37 93 83s-36 82 -93 82z" />
    <glyph glyph-name="nine.posf" horiz-adv-x="629" 
d="M48 167l169 -1c12 -36 33 -62 87 -62c73 0 113 71 113 182c-20 -19 -72 -51 -151 -51c-125 0 -226 82 -226 234c0 139 100 245 270 245c177 0 277 -121 277 -340c0 -248 -87 -395 -292 -395c-151 0 -228 91 -247 188zM309 363c61 0 107 43 107 111c0 69 -46 113 -108 113
s-107 -43 -107 -111c0 -70 46 -113 108 -113z" />
    <glyph glyph-name="brokenbar.case" horiz-adv-x="317" 
d="M90 428v303h137v-303h-137zM90 -62v303h137v-303h-137z" />
    <glyph glyph-name="idotaccent" horiz-adv-x="280" 
d="M62 587v128h156v-128h-156zM218 0h-156v525h156v-525z" />
    <glyph glyph-name="zero.tosf" 
d="M302 113c82 0 107 71 107 231c0 165 -24 246 -107 246s-107 -81 -107 -246c0 -160 25 -231 107 -231zM302 718c219 0 270 -170 270 -370c0 -217 -54 -363 -270 -363s-270 146 -270 363c0 200 51 370 270 370z" />
    <glyph glyph-name="one.tosf" 
d="M275 469h-172v110h16c93 0 154 45 175 122h138v-701h-157v469z" />
    <glyph glyph-name="two.tosf" 
d="M560 0h-520v127c88 68 124 96 234 185c88 71 116 125 116 181s-34 87 -90 87c-68 0 -97 -47 -97 -111h-157c1 153 95 249 256 249c158 0 254 -84 254 -214c0 -105 -68 -189 -162 -261c-71 -55 -108 -77 -155 -116c22 1 36 1 58 1h263v-128z" />
    <glyph glyph-name="three.tosf" 
d="M28 213h159c5 -65 43 -101 109 -101c72 0 107 40 107 98c0 70 -52 98 -141 98h-13v124c82 0 128 26 128 88c0 44 -33 72 -83 72c-48 0 -85 -26 -86 -83h-152c3 125 95 209 244 209c143 0 237 -78 237 -191c0 -85 -44 -123 -112 -147v-2c65 -20 142 -66 142 -178
c0 -129 -103 -216 -271 -216c-162 0 -264 84 -268 229z" />
    <glyph glyph-name="four.tosf" 
d="M586 264v-128h-99v-136h-152v136h-327v122l298 443h181v-437h99zM151 263c26 1 48 1 86 1h98v165c0 42 2 82 3 122h-2c-25 -45 -46 -80 -73 -122l-53 -80c-22 -33 -59 -86 -59 -86z" />
    <glyph glyph-name="five.tosf" 
d="M34 203h168c8 -52 42 -89 102 -89c66 0 105 46 105 115c0 66 -39 113 -103 113c-48 0 -77 -25 -94 -57l-156 26l43 390h421v-130h-296c-6 -48 -12 -93 -20 -144h1c32 25 75 42 136 42c132 0 229 -90 229 -233c0 -154 -107 -249 -268 -249c-154 0 -258 88 -268 216z" />
    <glyph glyph-name="six.tosf" 
d="M560 536l-163 1c-12 36 -32 62 -85 62c-72 0 -112 -75 -112 -184c20 19 70 51 149 51c123 0 223 -80 223 -233c0 -141 -98 -245 -266 -245c-174 0 -272 122 -272 335c0 248 87 400 286 400c148 0 221 -90 240 -187zM307 341c-60 0 -105 -43 -105 -111
c0 -69 45 -113 106 -113s105 43 105 111c0 70 -45 113 -106 113z" />
    <glyph glyph-name="seven.tosf" 
d="M311 0h-173c65 201 157 399 258 570c-1 0 -1 1 -1 1c-43 -2 -72 -1 -117 -1h-219v131h497v-126c-81 -137 -164 -326 -245 -575z" />
    <glyph glyph-name="eight.tosf" 
d="M302 -16c-163 0 -268 82 -268 210c0 87 47 146 144 180v1c-75 26 -116 79 -116 155c0 106 95 188 238 188c146 0 241 -82 241 -188c0 -76 -41 -129 -116 -155v-1c94 -34 144 -93 144 -180c0 -128 -105 -210 -267 -210zM301 309c-65 0 -109 -41 -109 -101
c0 -56 42 -98 109 -98c65 0 107 41 107 98c0 60 -43 101 -107 101zM302 594c-57 0 -92 -36 -92 -82s36 -83 92 -83s91 37 91 83s-35 82 -91 82z" />
    <glyph glyph-name="nine.tosf" 
d="M41 171l166 -1c12 -36 32 -62 85 -62c72 0 111 71 111 182c-20 -19 -71 -51 -148 -51c-123 0 -222 82 -222 234c0 139 98 245 265 245c174 0 272 -121 272 -340c0 -248 -86 -395 -287 -395c-148 0 -223 91 -242 188zM297 367c60 0 105 43 105 111c0 69 -45 113 -106 113
s-105 -43 -105 -111c0 -70 45 -113 106 -113z" />
    <glyph glyph-name="a.sub" horiz-adv-x="430" 
d="M396 -123h-108c-1 17 -2 29 -2 40c-24 -25 -52 -48 -122 -48c-85 0 -144 43 -144 118c0 95 112 123 224 133l34 3c-2 52 -20 79 -63 79c-37 0 -58 -22 -62 -55h-115c6 80 66 135 177 135c116 0 177 -45 177 -178v-139c0 -30 1 -58 4 -88zM277 51l-16 -2
c-77 -10 -119 -27 -119 -58c0 -27 24 -44 58 -44c44 0 76 23 77 96v8z" />
    <glyph glyph-name="b.sub" horiz-adv-x="479" 
d="M154 -123h-112v536h119v-144c0 -15 -1 -27 -1 -37c19 22 57 50 119 50c103 0 174 -76 174 -205c0 -126 -71 -210 -179 -210c-64 0 -102 31 -120 57v-47zM239 190c-50 0 -85 -44 -85 -112c0 -71 32 -119 85 -119c55 0 88 50 88 116c0 67 -33 115 -88 115z" />
    <glyph glyph-name="c.sub" horiz-adv-x="449" 
d="M313 21h117c-18 -91 -88 -153 -197 -153c-127 0 -208 86 -208 208c0 124 84 211 209 211c105 0 176 -56 195 -153h-120c-10 38 -36 60 -74 60c-53 0 -87 -46 -87 -117c0 -75 34 -115 90 -115c33 0 65 18 75 59z" />
    <glyph glyph-name="d.sub" horiz-adv-x="479" 
d="M437 -123h-113c0 15 -1 35 0 47c-19 -26 -57 -57 -121 -57c-106 0 -177 79 -177 206c0 128 73 209 176 209c59 0 97 -28 116 -50v181h119v-536zM238 190c-53 0 -86 -48 -86 -115c0 -66 33 -116 86 -116c55 0 87 48 87 119c0 68 -35 112 -87 112z" />
    <glyph glyph-name="e.sub" horiz-adv-x="457" 
d="M308 -2h122c-24 -77 -94 -130 -199 -130c-126 0 -206 81 -206 210c0 123 85 209 208 209c132 0 203 -88 203 -218c0 -9 -1 -21 -1 -21h-292c6 -56 43 -91 91 -91c35 0 61 14 74 41zM146 123h170c-7 50 -37 80 -84 80c-44 0 -78 -31 -86 -80z" />
    <glyph glyph-name="f.sub" horiz-adv-x="270" 
d="M73 270v18c0 87 55 133 145 133c18 0 31 -2 40 -4v-88c-4 1 -12 2 -20 2c-31 0 -47 -17 -47 -50v-11h67v-86h-67v-307h-118v307h-53v86h53z" />
    <glyph glyph-name="g.sub" horiz-adv-x="481" 
d="M36 -137h125c14 -32 37 -48 73 -48c69 0 94 46 91 133c-21 -31 -64 -57 -123 -57c-106 0 -175 77 -175 194c0 116 75 195 177 195c62 0 100 -25 120 -55c-2 15 -1 33 -1 44h116v-332c0 -136 -75 -209 -209 -209c-113 0 -178 53 -194 135zM240 190c-53 0 -87 -45 -87 -106
c0 -59 33 -102 87 -102c49 0 86 39 86 106c0 59 -34 102 -86 102z" />
    <glyph glyph-name="h.sub" horiz-adv-x="454" 
d="M161 -123h-119v537h119v-85c0 -29 0 -66 -1 -99c20 28 56 51 115 51c53 0 94 -23 118 -64c20 -35 23 -70 23 -138v-202h-119v191c0 78 -14 119 -64 119c-49 0 -72 -37 -72 -108v-202z" />
    <glyph glyph-name="i.sub" horiz-adv-x="203" 
d="M42 316v98h119v-98h-119zM161 -123h-119v394h119v-394z" />
    <glyph glyph-name="j.sub" horiz-adv-x="202" 
d="M160 270v-392c0 -106 -32 -146 -137 -146c-17 0 -38 2 -53 5v83c6 -1 9 -1 13 -1c44 0 59 20 59 61v390h118zM42 315v98h118v-98h-118z" />
    <glyph glyph-name="k.sub" horiz-adv-x="428" 
d="M161 -123h-119v537h119v-315c27 38 103 151 117 172h145c-99 -118 -136 -164 -148 -181c24 -34 77 -102 163 -213h-151c-19 29 -43 63 -65 95c-24 35 -53 78 -61 94v-189z" />
    <glyph glyph-name="l.sub" horiz-adv-x="203" 
d="M161 -123h-119v537h119v-537z" />
    <glyph glyph-name="m.sub" horiz-adv-x="692" 
d="M407 -123h-119v191c0 82 -12 120 -58 120c-48 0 -69 -38 -69 -109v-202h-119v333c0 20 0 41 -1 61h114v-51c17 31 53 61 116 61c55 0 92 -26 116 -65c17 31 59 65 128 65c74 0 139 -43 139 -171v-233h-119v191c0 82 -12 120 -58 120c-49 0 -70 -38 -70 -109v-202z" />
    <glyph glyph-name="n.sub" horiz-adv-x="454" 
d="M161 -123h-119v333c0 20 0 41 -1 61h114v-51c17 31 55 61 119 61c54 0 95 -24 119 -64c20 -34 23 -71 23 -138v-202h-119v191c0 77 -14 120 -64 120c-49 0 -72 -38 -72 -109v-202z" />
    <glyph glyph-name="o.sub" horiz-adv-x="475" 
d="M236 286c129 0 214 -85 214 -211c0 -124 -84 -208 -213 -208c-130 0 -212 84 -212 209s84 210 211 210zM235 193c-55 0 -88 -47 -88 -117c0 -72 31 -116 89 -116s89 44 89 115c0 70 -31 118 -90 118z" />
    <glyph glyph-name="p.sub" horiz-adv-x="479" 
d="M42 270h117c0 -10 -1 -19 -1 -26v-13c19 22 59 50 121 50c103 0 174 -75 174 -205c0 -125 -71 -210 -179 -210c-59 0 -94 23 -114 47c1 -23 1 -47 1 -80v-92h-119v529zM239 191c-50 0 -85 -45 -85 -114c0 -70 32 -118 85 -118c55 0 88 49 88 116c0 66 -33 116 -88 116z
" />
    <glyph glyph-name="q.sub" horiz-adv-x="479" 
d="M319 269h118v-529h-119v104c0 24 0 38 1 70c-20 -24 -57 -49 -114 -49c-108 0 -179 80 -179 206c0 130 73 209 176 209c59 0 98 -27 117 -49v38zM238 190c-53 0 -86 -50 -86 -116c0 -67 33 -116 86 -116c55 0 87 48 87 118c0 69 -35 114 -87 114z" />
    <glyph glyph-name="r.sub" horiz-adv-x="295" 
d="M42 -123v323c0 23 0 46 -1 71h111c0 -25 -1 -38 -1 -48l1 -10c21 46 59 68 108 68c10 0 21 -1 25 -2v-107c-10 2 -21 3 -32 3c-84 0 -92 -56 -92 -174v-124h-119z" />
    <glyph glyph-name="s.sub" horiz-adv-x="423" 
d="M18 11h123c8 -38 34 -58 75 -58c35 0 62 14 62 36c0 23 -27 32 -65 42l-50 13c-86 22 -130 52 -130 121c0 74 64 123 177 123c101 0 172 -42 181 -128h-116c-9 28 -32 45 -68 45c-34 0 -54 -13 -54 -32c0 -24 29 -32 78 -45l27 -7c103 -27 142 -55 142 -125
c0 -78 -68 -127 -185 -127c-122 0 -185 46 -197 142z" />
    <glyph glyph-name="t.sub" horiz-adv-x="289" 
d="M72 185h-59v85h59v105h118v-105h72v-85h-72v-134c0 -70 2 -94 46 -94c7 0 14 1 21 2v-87c-11 -2 -26 -4 -47 -4c-96 0 -138 30 -138 139v178z" />
    <glyph glyph-name="u.sub" horiz-adv-x="450" 
d="M289 271h119v-333c0 -20 0 -41 1 -61h-114v51c-18 -32 -54 -61 -116 -61c-53 0 -95 23 -119 64c-19 34 -22 70 -22 138v202h119v-191c0 -78 12 -120 61 -120c50 0 71 38 71 109v202z" />
    <glyph glyph-name="v.sub" horiz-adv-x="413" 
d="M141 -123l-1 1c-23 64 -45 129 -136 392h125l80 -273c12 55 33 122 54 193l24 80h123c-30 -87 -61 -175 -92 -262l-46 -131h-131z" />
    <glyph glyph-name="w.sub" horiz-adv-x="640" 
d="M120 -123l-1 1c-17 64 -37 129 -110 392h122c41 -168 58 -253 64 -280c8 47 14 74 61 280h129l66 -280l61 280h120l-111 -393h-143l-30 120c-11 46 -21 88 -29 126c-9 -45 -15 -75 -28 -126l-30 -120h-141z" />
    <glyph glyph-name="x.sub" horiz-adv-x="404" 
d="M-2 -123l133 204l-122 189h132c20 -40 42 -77 63 -118c34 65 47 93 62 118h127l-120 -189c23 -36 52 -81 136 -204h-133c-35 62 -61 108 -74 133l-74 -133h-130z" />
    <glyph glyph-name="y.sub" horiz-adv-x="411" 
d="M102 -259l-1 1s37 113 46 140c-85 222 -119 310 -147 388h127c26 -86 54 -171 83 -262l74 262h122l-184 -529h-120z" />
    <glyph glyph-name="z.sub" horiz-adv-x="399" 
d="M27 -123v86c65 72 129 144 192 221c-28 -2 -54 -2 -88 -2h-97v88h328v-86c-122 -137 -161 -183 -193 -220c33 1 60 1 97 1h107v-88h-346z" />
    <glyph glyph-name="zero.sub" horiz-adv-x="483" 
d="M241 -33c62 0 81 55 81 176c0 124 -18 186 -81 186c-62 0 -80 -62 -80 -186c0 -121 19 -176 80 -176zM241 429c168 0 208 -130 208 -283c0 -168 -42 -278 -208 -278c-165 0 -207 110 -207 278c0 153 40 283 207 283z" />
    <glyph glyph-name="one.sub" horiz-adv-x="342" 
d="M149 234h-130v87h13c70 0 115 34 131 93h108v-537h-122v357z" />
    <glyph glyph-name="two.sub" horiz-adv-x="467" 
d="M431 -123h-399v98c68 53 96 73 179 142c63 52 88 96 88 137s-26 65 -68 65c-50 0 -72 -36 -72 -85h-122c0 113 72 192 195 192c122 0 196 -63 196 -164c0 -81 -52 -145 -124 -200c-38 -28 -75 -55 -117 -87c16 1 26 1 42 1h202v-99z" />
    <glyph glyph-name="three.sub" horiz-adv-x="466" 
d="M24 44h123c4 -49 33 -77 81 -77c54 0 81 31 81 74c0 53 -40 74 -106 74h-11v96c62 0 98 20 98 66c0 33 -26 54 -63 54c-35 0 -63 -20 -64 -63h-118c2 97 69 161 186 161c111 0 183 -59 183 -146c0 -64 -31 -95 -83 -113c48 -17 105 -55 105 -137
c0 -100 -78 -165 -208 -165c-123 0 -201 64 -204 176z" />
    <glyph glyph-name="four.sub" horiz-adv-x="489" 
d="M463 80v-99h-76v-104h-118v104h-249v95l227 338h140v-334h76zM176 143c-14 -22 -37 -55 -43 -64c19 1 35 1 63 1h73v125c0 15 1 28 2 86l-2 1c-17 -30 -26 -49 -52 -88z" />
    <glyph glyph-name="five.sub" horiz-adv-x="464" 
d="M27 33h130c6 -40 33 -68 76 -68c50 0 80 35 80 87c0 49 -30 85 -78 85c-36 0 -58 -19 -71 -43l-120 19l33 300h322v-101h-225c-6 -34 -10 -69 -14 -106c24 17 56 30 102 30c102 0 176 -68 176 -179c0 -118 -82 -190 -206 -190c-117 0 -197 67 -205 166z" />
    <glyph glyph-name="six.sub" horiz-adv-x="476" 
d="M436 284l-126 1c-9 27 -25 47 -64 47c-52 0 -83 -57 -84 -137c16 15 53 37 112 37c95 0 171 -60 171 -178c0 -109 -74 -187 -204 -187c-133 0 -208 92 -208 255c0 190 66 306 219 306c114 0 170 -69 184 -144zM242 136c-44 0 -78 -33 -78 -85c0 -51 34 -85 79 -85
s79 33 79 84c0 53 -35 86 -80 86z" />
    <glyph glyph-name="seven.sub" horiz-adv-x="416" 
d="M215 -123h-133c52 156 121 306 195 435c-24 -1 -41 -1 -63 -1h-193v103h382v-98c-63 -105 -126 -249 -188 -439z" />
    <glyph glyph-name="eight.sub" horiz-adv-x="470" 
d="M235 -132c-125 0 -205 62 -205 161c0 67 35 112 108 139c-57 18 -87 59 -87 117c0 82 73 144 182 144c113 0 186 -62 186 -144c0 -58 -30 -99 -87 -119c70 -26 108 -71 108 -137c0 -99 -80 -161 -205 -161zM234 116c-47 0 -81 -32 -81 -77c0 -41 32 -74 81 -74
s81 32 81 74c0 45 -33 77 -81 77zM235 333c-42 0 -69 -28 -69 -62s28 -62 69 -62c42 0 69 28 69 62s-27 62 -69 62z" />
    <glyph glyph-name="nine.sub" horiz-adv-x="476" 
d="M37 12l129 -1c9 -27 25 -47 63 -47c53 0 83 54 84 135c-16 -15 -54 -37 -111 -37c-95 0 -171 63 -171 180c0 106 75 187 203 187c134 0 209 -92 209 -259c0 -191 -66 -302 -220 -302c-114 0 -171 69 -186 144zM233 162c45 0 79 32 79 83c0 52 -34 86 -80 86
c-44 0 -78 -33 -78 -84c0 -53 35 -85 79 -85z" />
    <glyph glyph-name="zero.sup" horiz-adv-x="483" 
d="M241 392c62 0 81 55 81 176c0 124 -18 186 -81 186c-62 0 -80 -62 -80 -186c0 -121 19 -176 80 -176zM241 854c168 0 208 -130 208 -283c0 -168 -42 -278 -208 -278c-165 0 -207 110 -207 278c0 153 40 283 207 283z" />
    <glyph glyph-name="one.sup" horiz-adv-x="342" 
d="M149 659h-130v87h13c70 0 115 34 131 93h108v-537h-122v357z" />
    <glyph glyph-name="two.sup" horiz-adv-x="467" 
d="M431 302h-399v98c68 53 96 73 179 142c63 52 88 96 88 137s-26 65 -68 65c-50 0 -72 -36 -72 -85h-122c0 113 72 192 195 192c122 0 196 -63 196 -164c0 -81 -52 -145 -124 -200c-38 -28 -75 -55 -117 -87c16 1 26 1 42 1h202v-99z" />
    <glyph glyph-name="three.sup" horiz-adv-x="466" 
d="M24 469h123c4 -49 33 -77 81 -77c54 0 81 31 81 74c0 53 -40 74 -106 74h-11v96c62 0 98 20 98 66c0 33 -26 54 -63 54c-35 0 -63 -20 -64 -63h-118c2 97 69 161 186 161c111 0 183 -59 183 -146c0 -64 -31 -95 -83 -113c48 -17 105 -55 105 -137
c0 -100 -78 -165 -208 -165c-123 0 -201 64 -204 176z" />
    <glyph glyph-name="four.sup" horiz-adv-x="489" 
d="M463 505v-99h-76v-104h-118v104h-249v95l227 338h140v-334h76zM176 568c-14 -22 -37 -55 -43 -64c19 1 35 1 63 1h73v125c0 15 1 28 2 86l-2 1c-17 -30 -26 -49 -52 -88z" />
    <glyph glyph-name="five.sup" horiz-adv-x="462" 
d="M26 458h130c6 -40 33 -68 76 -68c50 0 80 35 80 87c0 49 -30 85 -78 85c-36 0 -58 -19 -71 -43l-120 19l33 300h322v-101h-225c-6 -34 -10 -69 -14 -106c24 17 56 30 102 30c102 0 176 -68 176 -179c0 -118 -82 -190 -206 -190c-117 0 -197 67 -205 166z" />
    <glyph glyph-name="six.sup" horiz-adv-x="475" 
d="M436 709l-126 1c-9 27 -25 47 -64 47c-52 0 -83 -57 -84 -137c16 15 53 37 112 37c95 0 171 -60 171 -178c0 -109 -74 -187 -204 -187c-133 0 -208 92 -208 255c0 190 66 306 219 306c114 0 170 -69 184 -144zM242 561c-44 0 -78 -33 -78 -85c0 -51 34 -85 79 -85
s79 33 79 84c0 53 -35 86 -80 86z" />
    <glyph glyph-name="seven.sup" horiz-adv-x="415" 
d="M215 302h-133c52 156 121 306 195 435c-24 -1 -41 -1 -63 -1h-193v103h382v-98c-63 -105 -126 -249 -188 -439z" />
    <glyph glyph-name="eight.sup" horiz-adv-x="470" 
d="M235 293c-125 0 -205 62 -205 161c0 67 35 112 108 139c-57 18 -87 59 -87 117c0 82 73 144 182 144c113 0 186 -62 186 -144c0 -58 -30 -99 -87 -119c70 -26 108 -71 108 -137c0 -99 -80 -161 -205 -161zM234 541c-47 0 -81 -32 -81 -77c0 -41 32 -74 81 -74
s81 32 81 74c0 45 -33 77 -81 77zM235 758c-42 0 -69 -28 -69 -62s28 -62 69 -62c42 0 69 28 69 62s-27 62 -69 62z" />
    <glyph glyph-name="nine.sup" horiz-adv-x="477" 
d="M38 437l129 -1c9 -27 25 -47 63 -47c53 0 83 54 84 135c-16 -15 -54 -37 -111 -37c-95 0 -171 63 -171 180c0 106 75 187 203 187c134 0 209 -92 209 -259c0 -191 -66 -302 -220 -302c-114 0 -171 69 -186 144zM234 587c45 0 79 32 79 83c0 52 -34 86 -80 86
c-44 0 -78 -33 -78 -84c0 -53 35 -85 79 -85z" />
    <glyph glyph-name="a.sup" horiz-adv-x="430" 
d="M396 302h-108c-1 17 -2 29 -2 40c-24 -25 -52 -48 -122 -48c-85 0 -144 43 -144 118c0 95 112 123 224 133l34 3c-2 52 -20 79 -63 79c-37 0 -58 -22 -62 -55h-115c6 80 66 135 177 135c116 0 177 -45 177 -178v-139c0 -30 1 -58 4 -88zM277 476l-16 -2
c-77 -10 -119 -27 -119 -58c0 -27 24 -44 58 -44c44 0 76 23 77 96v8z" />
    <glyph glyph-name="b.sup" horiz-adv-x="479" 
d="M154 302h-112v536h119v-144c0 -15 -1 -27 -1 -37c19 22 57 50 119 50c103 0 174 -76 174 -205c0 -126 -71 -210 -179 -210c-64 0 -102 31 -120 57v-47zM239 615c-50 0 -85 -44 -85 -112c0 -71 32 -119 85 -119c55 0 88 50 88 116c0 67 -33 115 -88 115z" />
    <glyph glyph-name="c.sup" horiz-adv-x="449" 
d="M313 446h117c-18 -91 -88 -153 -197 -153c-127 0 -208 86 -208 208c0 124 84 211 209 211c105 0 176 -56 195 -153h-120c-10 38 -36 60 -74 60c-53 0 -87 -46 -87 -117c0 -75 34 -115 90 -115c33 0 65 18 75 59z" />
    <glyph glyph-name="d.sup" horiz-adv-x="479" 
d="M437 302h-113c0 15 -1 35 0 47c-19 -26 -57 -57 -121 -57c-106 0 -177 79 -177 206c0 128 73 209 176 209c59 0 97 -28 116 -50v181h119v-536zM238 615c-53 0 -86 -48 -86 -115c0 -66 33 -116 86 -116c55 0 87 48 87 119c0 68 -35 112 -87 112z" />
    <glyph glyph-name="e.sup" horiz-adv-x="456" 
d="M308 423h122c-24 -77 -94 -130 -199 -130c-126 0 -206 81 -206 210c0 123 85 209 208 209c132 0 203 -88 203 -218c0 -9 -1 -21 -1 -21h-292c6 -56 43 -91 91 -91c35 0 61 14 74 41zM146 548h170c-7 50 -37 80 -84 80c-44 0 -78 -31 -86 -80z" />
    <glyph glyph-name="f.sup" horiz-adv-x="269" 
d="M72 695v18c0 87 55 133 145 133c18 0 31 -2 40 -4v-88c-4 1 -12 2 -20 2c-31 0 -47 -17 -47 -50v-11h67v-86h-67v-307h-118v307h-53v86h53z" />
    <glyph glyph-name="g.sup" horiz-adv-x="480" 
d="M35 288h125c14 -32 37 -48 73 -48c69 0 94 46 91 133c-21 -31 -64 -57 -123 -57c-106 0 -175 77 -175 194c0 116 75 195 177 195c62 0 100 -25 120 -55c-2 15 -1 33 -1 44h116v-332c0 -136 -75 -209 -209 -209c-113 0 -178 53 -194 135zM239 615c-53 0 -87 -45 -87 -106
c0 -59 33 -102 87 -102c49 0 86 39 86 106c0 59 -34 102 -86 102z" />
    <glyph glyph-name="h.sup" horiz-adv-x="454" 
d="M161 302h-119v537h119v-85c0 -29 0 -66 -1 -99c20 28 56 51 115 51c53 0 94 -23 118 -64c20 -35 23 -70 23 -138v-202h-119v191c0 78 -14 119 -64 119c-49 0 -72 -37 -72 -108v-202z" />
    <glyph glyph-name="i.sup" horiz-adv-x="203" 
d="M42 741v98h119v-98h-119zM161 302h-119v394h119v-394z" />
    <glyph glyph-name="j.sup" horiz-adv-x="202" 
d="M160 695v-392c0 -106 -32 -146 -137 -146c-17 0 -38 2 -53 5v83c6 -1 9 -1 13 -1c44 0 59 20 59 61v390h118zM42 740v98h118v-98h-118z" />
    <glyph glyph-name="k.sup" horiz-adv-x="428" 
d="M161 302h-119v537h119v-315c27 38 103 151 117 172h145c-99 -118 -136 -164 -148 -181c24 -34 77 -102 163 -213h-151c-19 29 -43 63 -65 95c-24 35 -53 78 -61 94v-189z" />
    <glyph glyph-name="l.sup" horiz-adv-x="203" 
d="M161 302h-119v537h119v-537z" />
    <glyph glyph-name="m.sup" horiz-adv-x="692" 
d="M407 302h-119v191c0 82 -12 120 -58 120c-48 0 -69 -38 -69 -109v-202h-119v333c0 20 0 41 -1 61h114v-51c17 31 53 61 116 61c55 0 92 -26 116 -65c17 31 59 65 128 65c74 0 139 -43 139 -171v-233h-119v191c0 82 -12 120 -58 120c-49 0 -70 -38 -70 -109v-202z" />
    <glyph glyph-name="n.sup" horiz-adv-x="454" 
d="M161 302h-119v333c0 20 0 41 -1 61h114v-51c17 31 55 61 119 61c54 0 95 -24 119 -64c20 -34 23 -71 23 -138v-202h-119v191c0 77 -14 120 -64 120c-49 0 -72 -38 -72 -109v-202z" />
    <glyph glyph-name="o.sup" horiz-adv-x="475" 
d="M236 711c129 0 214 -85 214 -211c0 -124 -84 -208 -213 -208c-130 0 -212 84 -212 209s84 210 211 210zM235 618c-55 0 -88 -47 -88 -117c0 -72 31 -116 89 -116s89 44 89 115c0 70 -31 118 -90 118z" />
    <glyph glyph-name="p.sup" horiz-adv-x="479" 
d="M42 695h117c0 -10 -1 -19 -1 -26v-13c19 22 59 50 121 50c103 0 174 -75 174 -205c0 -125 -71 -210 -179 -210c-59 0 -94 23 -114 47c1 -23 1 -47 1 -80v-92h-119v529zM239 616c-50 0 -85 -45 -85 -114c0 -70 32 -118 85 -118c55 0 88 49 88 116c0 66 -33 116 -88 116z
" />
    <glyph glyph-name="q.sup" horiz-adv-x="479" 
d="M319 694h118v-529h-119v104c0 24 0 38 1 70c-20 -24 -57 -49 -114 -49c-108 0 -179 80 -179 206c0 130 73 209 176 209c59 0 98 -27 117 -49v38zM238 615c-53 0 -86 -50 -86 -116c0 -67 33 -116 86 -116c55 0 87 48 87 118c0 69 -35 114 -87 114z" />
    <glyph glyph-name="r.sup" horiz-adv-x="295" 
d="M42 302v323c0 23 0 46 -1 71h111c0 -25 -1 -38 -1 -48l1 -10c21 46 59 68 108 68c10 0 21 -1 25 -2v-107c-10 2 -21 3 -32 3c-84 0 -92 -56 -92 -174v-124h-119z" />
    <glyph glyph-name="s.sup" horiz-adv-x="422" 
d="M18 436h123c8 -38 34 -58 75 -58c35 0 62 14 62 36c0 23 -27 32 -65 42l-50 13c-86 22 -130 52 -130 121c0 74 64 123 177 123c101 0 172 -42 181 -128h-116c-9 28 -32 45 -68 45c-34 0 -54 -13 -54 -32c0 -24 29 -32 78 -45l27 -7c103 -27 142 -55 142 -125
c0 -78 -68 -127 -185 -127c-122 0 -185 46 -197 142z" />
    <glyph glyph-name="t.sup" horiz-adv-x="288" 
d="M71 610h-59v85h59v105h118v-105h72v-85h-72v-134c0 -70 2 -94 46 -94c7 0 14 1 21 2v-87c-11 -2 -26 -4 -47 -4c-96 0 -138 30 -138 139v178z" />
    <glyph glyph-name="u.sup" horiz-adv-x="450" 
d="M289 696h119v-333c0 -20 0 -41 1 -61h-114v51c-18 -32 -54 -61 -116 -61c-53 0 -95 23 -119 64c-19 34 -22 70 -22 138v202h119v-191c0 -78 12 -120 61 -120c50 0 71 38 71 109v202z" />
    <glyph glyph-name="v.sup" horiz-adv-x="411" 
d="M140 302l-1 1c-23 64 -45 129 -136 392h125l80 -273c12 55 33 122 54 193l24 80h123c-30 -87 -61 -175 -92 -262l-46 -131h-131z" />
    <glyph glyph-name="w.sup" horiz-adv-x="639" 
d="M119 302l-1 1c-17 64 -37 129 -110 392h122c41 -168 58 -253 64 -280c8 47 14 74 61 280h129l66 -280l61 280h120l-111 -393h-143l-30 120c-11 46 -21 88 -29 126c-9 -45 -15 -75 -28 -126l-30 -120h-141z" />
    <glyph glyph-name="x.sup" horiz-adv-x="403" 
d="M-3 302l133 204l-122 189h132c20 -40 42 -77 63 -118c34 65 47 93 62 118h127l-120 -189c23 -36 52 -81 136 -204h-133c-35 62 -61 108 -74 133l-74 -133h-130z" />
    <glyph glyph-name="y.sup" horiz-adv-x="411" 
d="M102 166l-1 1s37 113 46 140c-85 222 -119 310 -147 388h127c26 -86 54 -171 83 -262l74 262h122l-184 -529h-120z" />
    <glyph glyph-name="z.sup" horiz-adv-x="399" 
d="M28 302v86c65 72 129 144 192 221c-28 -2 -54 -2 -88 -2h-97v88h328v-86c-122 -137 -161 -183 -193 -220c33 1 60 1 97 1h107v-88h-346z" />
    <glyph glyph-name="zero.slashplf" horiz-adv-x="638" 
d="M319 732c223 0 276 -173 276 -377c0 -222 -56 -370 -276 -370s-276 148 -276 370c0 204 53 377 276 377zM319 115c84 0 109 73 109 236c0 47 -2 88 -7 122l-126 -356c7 -2 15 -2 24 -2zM210 351c0 -31 1 -59 3 -84l119 334c-4 1 -9 1 -13 1c-85 0 -109 -83 -109 -251z
" />
    <glyph glyph-name="zero.slashtlf" 
d="M302 732c223 0 276 -173 276 -377c0 -222 -56 -370 -276 -370s-276 148 -276 370c0 204 53 377 276 377zM302 115c84 0 109 73 109 236c0 47 -2 88 -7 122l-126 -356c7 -2 15 -2 24 -2zM193 351c0 -31 1 -59 3 -84l119 334c-4 1 -9 1 -13 1c-85 0 -109 -83 -109 -251z
" />
    <glyph glyph-name="zero.tlf" 
d="M302 115c84 0 109 73 109 236c0 168 -24 251 -109 251s-109 -83 -109 -251c0 -163 25 -236 109 -236zM302 732c223 0 276 -173 276 -377c0 -222 -56 -370 -276 -370s-276 148 -276 370c0 204 53 377 276 377z" />
    <glyph glyph-name="one.tlf" 
d="M276 478h-178v113h19c95 0 157 46 179 124h140v-715h-160v478z" />
    <glyph glyph-name="two.tlf" 
d="M565 0h-530v129c90 70 126 98 238 189c90 73 119 128 119 185s-35 89 -92 89c-69 0 -99 -48 -99 -114h-160c1 156 97 254 261 254c161 0 259 -85 259 -218c0 -107 -69 -193 -165 -266c-73 -56 -110 -79 -158 -119c22 1 36 1 59 1h268v-130z" />
    <glyph glyph-name="three.tlf" 
d="M23 217h162c5 -66 44 -103 111 -103c73 0 109 41 109 100c0 72 -53 100 -144 100h-13v127c84 0 131 26 131 89c0 45 -34 74 -85 74c-49 0 -87 -27 -88 -85h-155c3 128 97 213 249 213c146 0 242 -79 242 -194c0 -87 -45 -126 -114 -150v-2c66 -21 144 -68 144 -182
c0 -132 -105 -220 -276 -220c-165 0 -269 85 -273 233z" />
    <glyph glyph-name="four.tlf" 
d="M592 269v-130h-101v-139h-155v139h-334v124l304 452h185v-446h101zM148 268c27 1 49 1 88 1h100v169c0 42 2 83 3 124h-2c-26 -46 -47 -82 -75 -124l-54 -82c-22 -34 -60 -88 -60 -88z" />
    <glyph glyph-name="five.tlf" 
d="M29 207h171c8 -53 43 -91 104 -91c67 0 107 47 107 118c0 67 -40 115 -105 115c-49 0 -78 -26 -96 -58l-159 26l44 398h429v-132h-302c-6 -49 -12 -95 -20 -147h1c33 25 77 43 139 43c135 0 233 -92 233 -238c0 -157 -109 -254 -273 -254c-157 0 -263 90 -273 220z" />
    <glyph glyph-name="six.tlf" 
d="M565 546l-166 1c-12 36 -33 63 -87 63c-73 0 -114 -77 -114 -188c20 20 71 52 152 52c125 0 227 -81 227 -237c0 -144 -99 -250 -271 -250c-177 0 -277 124 -277 341c0 253 88 408 291 408c151 0 226 -91 245 -190zM307 347c-61 0 -107 -44 -107 -114s46 -115 108 -115
s107 44 107 113c0 72 -46 116 -108 116z" />
    <glyph glyph-name="seven.tlf" 
d="M310 0h-176c66 205 160 407 263 581c-1 0 -1 1 -1 1c-44 -2 -74 -1 -120 -1h-223v134h507v-128c-83 -140 -167 -333 -250 -587z" />
    <glyph glyph-name="eight.tlf" 
d="M302 -16c-166 0 -273 83 -273 214c0 89 47 149 146 183v2c-76 26 -118 80 -118 158c0 108 97 191 243 191c149 0 246 -83 246 -191c0 -78 -42 -132 -118 -158v-2c95 -34 146 -94 146 -183c0 -131 -107 -214 -272 -214zM301 315c-66 0 -111 -42 -111 -103
c0 -57 43 -100 111 -100c66 0 109 42 109 100c0 61 -44 103 -109 103zM302 606c-58 0 -94 -37 -94 -84s37 -84 94 -84s93 37 93 84s-36 84 -93 84z" />
    <glyph glyph-name="nine.tlf" 
d="M35 170l169 -1c12 -36 33 -63 87 -63c73 0 113 72 113 186c-20 -20 -72 -52 -151 -52c-125 0 -226 83 -226 239c0 141 100 249 270 249c177 0 277 -123 277 -346c0 -253 -87 -403 -292 -403c-151 0 -228 92 -247 191zM296 370c61 0 107 44 107 114s-46 115 -108 115
s-107 -44 -107 -113c0 -72 46 -116 108 -116z" />
    <glyph glyph-name="zero.slash" horiz-adv-x="638" 
d="M319 732c223 0 276 -173 276 -377c0 -222 -56 -370 -276 -370s-276 148 -276 370c0 204 53 377 276 377zM319 115c84 0 109 73 109 236c0 47 -2 88 -7 122l-126 -356c7 -2 15 -2 24 -2zM210 351c0 -31 1 -59 3 -84l119 334c-4 1 -9 1 -13 1c-85 0 -109 -83 -109 -251z
" />
    </font>
</defs>
</svg>
