<?xml version="1.0" standalone="no"?>
<!DOCTYPE svg PUBLIC "-//W3C//DTD SVG 1.1//EN" "http://www.w3.org/Graphics/SVG/1.1/DTD/svg11.dtd" >
<svg xmlns="http://www.w3.org/2000/svg" xmlns:xlink="http://www.w3.org/1999/xlink" version="1.1">
<metadata>
Created by FontForge 20161003 at Tue Aug 15 14:02:59 2017
 By www-data
(c)2013 Optimo.
</metadata>
<defs>
<font id="Plain-Light" horiz-adv-x="560" >
  <font-face 
    font-family="Plain Light"
    font-weight="375"
    font-stretch="normal"
    units-per-em="1000"
    panose-1="2 11 0 4 2 2 2 2 2 4"
    ascent="803"
    descent="-197"
    x-height="525"
    cap-height="715"
    bbox="-45 -271 1272 1077"
    underline-thickness="50"
    underline-position="-100"
    stemh="71"
    stemv="83"
    unicode-range="U+000D-FB02"
  />
<missing-glyph horiz-adv-x="644" 
d="M50 240v49l309 309c11 -6 19 -13 26 -23zM50 142v49l347 347v-15c0 -45 -57 -74 -92 -108c-16 -15 -28 -34 -36 -54zM104 0h-49l261 261h49l-93 -93h-23v-23zM321 168l273 273v-49l-224 -224h-49zM398 0h-49l33 33h2v2l210 210v-49zM50 338v49l148 148l39 -2
c0 36 26 75 75 75h8zM384 133l210 210v-49l-210 -210v49zM50 44v49l206 206v-38h11zM50 583l196 196h49l-44 -44c-71 -19 -127 -75 -147 -147l-54 -54v49zM537 482l57 57v-49l-216 -216v7c0 42 28 52 70 85c21 17 74 46 89 116zM50 681l98 98h49l-147 -147v49zM496 0h-49
l147 147v-49zM459 698l81 81h49l-104 -104c-8 8 -17 16 -26 23zM50 436v49l56 56l46 -3zM506 647l88 88v-49l-70 -70c-5 11 -11 21 -18 31zM202 0h-49l96 96v-49zM536 579l58 58v-49l-52 -52c0 15 -3 29 -6 43zM395 732l47 47h49l-62 -62c-11 6 -22 11 -34 15zM307 742
l37 37h49l-38 -38c-9 1 -19 2 -28 2c-8 0 -20 -1 -20 -1zM300 0h-49l33 33h49zM594 49v-49h-49zM50 779h49l-49 -49v49z" />
    <glyph glyph-name="fi" unicode="fi" horiz-adv-x="504" 
d="M267 718v-67c-7 1 -17 2 -24 2c-38 0 -65 -19 -65 -65v-63h89v-62h-89v-463h-83v463h-69v62h69v44c0 95 39 152 136 152c13 0 24 -1 36 -3zM429 614h-85v101h85v-101zM346 525h81v-525h-81v525z" />
    <glyph glyph-name="fl" unicode="fl" horiz-adv-x="507" 
d="M267 718v-67c-7 1 -17 2 -24 2c-38 0 -65 -19 -65 -65v-63h89v-62h-89v-463h-83v463h-69v62h69v44c0 95 39 152 136 152c13 0 24 -1 36 -3zM343 0v715h83v-715h-83z" />
    <glyph glyph-name=".notdef" horiz-adv-x="644" 
d="M50 240v49l309 309c11 -6 19 -13 26 -23zM50 142v49l347 347v-15c0 -45 -57 -74 -92 -108c-16 -15 -28 -34 -36 -54zM104 0h-49l261 261h49l-93 -93h-23v-23zM321 168l273 273v-49l-224 -224h-49zM398 0h-49l33 33h2v2l210 210v-49zM50 338v49l148 148l39 -2
c0 36 26 75 75 75h8zM384 133l210 210v-49l-210 -210v49zM50 44v49l206 206v-38h11zM50 583l196 196h49l-44 -44c-71 -19 -127 -75 -147 -147l-54 -54v49zM537 482l57 57v-49l-216 -216v7c0 42 28 52 70 85c21 17 74 46 89 116zM50 681l98 98h49l-147 -147v49zM496 0h-49
l147 147v-49zM459 698l81 81h49l-104 -104c-8 8 -17 16 -26 23zM50 436v49l56 56l46 -3zM506 647l88 88v-49l-70 -70c-5 11 -11 21 -18 31zM202 0h-49l96 96v-49zM536 579l58 58v-49l-52 -52c0 15 -3 29 -6 43zM395 732l47 47h49l-62 -62c-11 6 -22 11 -34 15zM307 742
l37 37h49l-38 -38c-9 1 -19 2 -28 2c-8 0 -20 -1 -20 -1zM300 0h-49l33 33h49zM594 49v-49h-49zM50 779h49l-49 -49v49z" />
    <glyph glyph-name="NULL" horiz-adv-x="0" 
 />
    <glyph glyph-name="NULL" horiz-adv-x="0" 
 />
    <glyph glyph-name="CR" unicode="&#xd;" horiz-adv-x="0" 
 />
    <glyph glyph-name="space" unicode=" " horiz-adv-x="255" 
 />
    <glyph glyph-name="exclam" unicode="!" horiz-adv-x="271" 
d="M108 186c-5 125 -14 263 -14 421v108h83v-108c0 -158 -9 -296 -14 -421h-55zM92 0v111h88v-111h-88z" />
    <glyph glyph-name="quotedbl" unicode="&#x22;" horiz-adv-x="352" 
d="M78 451c-1 16 -13 221 -14 264h85c-1 -43 -13 -248 -14 -264h-57zM217 451c-1 16 -13 221 -14 264h85c-1 -43 -13 -248 -14 -264h-57z" />
    <glyph glyph-name="numbersign" unicode="#" 
d="M293 0l47 228h-168l-47 -228h-49l47 228h-107l10 46h106l37 178h-108l9 46h108l45 217h49l-45 -217h168l45 217h49l-45 -217h100l-9 -46h-100l-37 -178h102l-10 -46h-101l-47 -228h-49zM218 452l-37 -178h168l37 178h-168z" />
    <glyph glyph-name="dollar" unicode="$" 
d="M27 206h82c13 -92 73 -146 176 -146c99 0 160 50 160 128c0 84 -75 112 -160 140l-41 13c-120 39 -191 90 -191 197c0 99 69 169 188 182v108h79v-108c116 -11 184 -80 196 -193h-79c-16 87 -69 129 -157 129c-89 0 -143 -41 -143 -109c0 -74 56 -103 147 -134l47 -17
c113 -36 199 -81 199 -197c0 -118 -84 -192 -210 -204v-113h-79v114c-121 13 -201 86 -214 210z" />
    <glyph glyph-name="percent" unicode="%" horiz-adv-x="888" 
d="M199 330c-108 0 -164 77 -164 199c0 120 55 197 163 197c109 0 164 -79 164 -198c0 -122 -54 -198 -163 -198zM105 527c0 -80 24 -141 93 -141c70 0 94 60 94 141c0 85 -21 144 -94 144c-72 0 -93 -61 -93 -144zM278 0l275 715h61l-275 -715h-61zM690 -15
c-108 0 -164 77 -164 199c0 120 55 197 163 197c109 0 164 -79 164 -198c0 -122 -54 -198 -163 -198zM596 182c0 -80 24 -141 93 -141c70 0 94 60 94 141c0 85 -21 144 -94 144c-72 0 -93 -61 -93 -144z" />
    <glyph glyph-name="ampersand" unicode="&#x26;" horiz-adv-x="670" 
d="M562 382l77 -7c-22 -65 -55 -141 -99 -206l106 -116l-62 -55c-22 24 -42 46 -91 103c-56 -65 -122 -111 -220 -111c-135 0 -217 84 -217 201c0 97 71 163 171 215c-44 48 -84 103 -84 166c0 88 69 156 177 156c100 0 169 -58 169 -145c0 -82 -57 -143 -148 -189
c29 -35 63 -79 148 -174c28 44 57 112 73 162zM444 153c-22 24 -109 123 -173 202c-69 -36 -124 -89 -124 -161c0 -81 60 -133 139 -133c68 0 115 37 158 92zM299 441l25 14c43 23 84 59 84 118c0 55 -38 90 -92 90s-91 -34 -91 -87c0 -56 39 -99 74 -135z" />
    <glyph glyph-name="quotesingle" unicode="'" horiz-adv-x="213" 
d="M78 451c-1 16 -13 221 -14 264h85c-1 -43 -13 -248 -14 -264h-57z" />
    <glyph glyph-name="parenleft" unicode="(" horiz-adv-x="301" 
d="M42 298c0 195 92 379 224 460v-80c-91 -95 -145 -217 -145 -381c0 -162 56 -276 145 -371v-82c-131 79 -224 262 -224 454z" />
    <glyph glyph-name="parenright" unicode=")" horiz-adv-x="301" 
d="M259 298c0 -192 -93 -375 -224 -454v82c89 95 145 209 145 371c0 164 -54 286 -145 381v80c132 -81 224 -265 224 -460z" />
    <glyph glyph-name="asterisk" unicode="*" horiz-adv-x="442" 
d="M254 715l-10 -142l133 53l19 -63l-138 -33l92 -110l-54 -38l-74 120l-76 -120l-53 39l92 108l-139 35l21 62l132 -54l-10 143h65z" />
    <glyph glyph-name="plus" unicode="+" 
d="M59 289v65h188v196h65v-196h189v-65h-189v-197h-65v197h-188z" />
    <glyph glyph-name="comma" unicode="," horiz-adv-x="242" 
d="M176 111l-81 -232h-71l65 232h87z" />
    <glyph glyph-name="hyphen" unicode="-" horiz-adv-x="404" 
d="M66 257v73h272v-73h-272z" />
    <glyph glyph-name="period" unicode="." horiz-adv-x="220" 
d="M66 0v111h88v-111h-88z" />
    <glyph glyph-name="slash" unicode="/" horiz-adv-x="426" 
d="M29 -105l289 820h80l-288 -820h-81z" />
    <glyph glyph-name="zero" unicode="0" horiz-adv-x="609" 
d="M304 729c202 0 248 -183 248 -373c0 -210 -52 -371 -248 -371s-247 161 -247 371c0 190 45 373 247 373zM304 660c-130 0 -156 -141 -156 -303c0 -176 32 -304 156 -304c126 0 157 128 157 304c0 162 -27 303 -157 303z" />
    <glyph glyph-name="one" unicode="1" horiz-adv-x="388" 
d="M201 0v547h-172v55c123 3 178 34 190 113h66v-715h-84z" />
    <glyph glyph-name="two" unicode="2" horiz-adv-x="571" 
d="M518 0h-464v72s117 104 205 182c126 112 162 183 162 264c0 83 -51 141 -138 141c-90 0 -143 -58 -147 -169h-85c0 141 88 239 236 239s226 -84 226 -206c0 -151 -123 -255 -233 -348c-19 -16 -47 -38 -128 -101h366v-74z" />
    <glyph glyph-name="three" unicode="3" horiz-adv-x="578" 
d="M42 206h89c13 -111 71 -153 155 -153c93 0 151 66 151 154c0 108 -77 148 -174 148h-26v65h5c105 0 160 33 160 125c0 77 -55 115 -117 115c-69 0 -124 -37 -129 -122h-83c2 115 89 191 215 191s204 -71 204 -171c0 -90 -46 -137 -125 -163c90 -18 161 -79 161 -189
c0 -130 -92 -221 -243 -221c-148 0 -228 75 -243 221z" />
    <glyph glyph-name="four" unicode="4" horiz-adv-x="585" 
d="M547 230v-66h-99v-164h-81v164h-340v62l228 326c42 60 87 125 112 163h81v-485h99zM371 611h-2c-8 -13 -85 -134 -117 -181l-47 -69c-34 -49 -92 -131 -92 -131h254v124c0 113 3 223 4 257z" />
    <glyph glyph-name="five" unicode="5" horiz-adv-x="569" 
d="M70 338l43 377h371v-74h-307l-29 -241c31 30 82 61 158 61c131 0 220 -89 220 -231s-95 -245 -242 -245c-132 0 -226 67 -244 211h88c8 -76 55 -143 154 -143c100 0 157 72 157 173c0 93 -57 168 -153 168c-71 0 -112 -36 -134 -70z" />
    <glyph glyph-name="six" unicode="6" horiz-adv-x="601" 
d="M536 532h-88c-10 57 -45 129 -139 129c-121 0 -162 -101 -165 -297c31 50 86 95 185 95c132 0 221 -92 221 -232c0 -148 -100 -242 -243 -242c-169 0 -251 112 -251 362c0 278 92 382 257 382c137 0 204 -86 223 -197zM307 393c-99 0 -153 -62 -153 -165
c0 -104 51 -176 151 -176c99 0 156 70 156 170c0 103 -54 171 -154 171z" />
    <glyph glyph-name="seven" unicode="7" horiz-adv-x="487" 
d="M192 0h-97c47 120 103 234 156 351c38 84 104 213 146 292v1c-19 -1 -36 -1 -55 -1h-311v72h440v-66l-24 -53c-105 -228 -179 -392 -255 -596z" />
    <glyph glyph-name="eight" unicode="8" horiz-adv-x="591" 
d="M188 386c-57 24 -107 75 -107 163c0 100 79 180 215 180c135 0 215 -80 215 -180c0 -90 -52 -138 -108 -163c77 -32 138 -86 138 -192c0 -124 -84 -209 -245 -209c-163 0 -246 86 -246 209c0 102 62 163 138 192zM296 349c-102 0 -161 -59 -161 -149
c0 -86 54 -147 161 -147c103 0 159 61 159 147c0 90 -60 149 -159 149zM296 660c-83 0 -134 -50 -134 -120c0 -71 52 -123 134 -123s134 52 134 123c0 69 -52 120 -134 120z" />
    <glyph glyph-name="nine" unicode="9" horiz-adv-x="602" 
d="M64 184h88c8 -61 46 -130 140 -130c121 0 163 103 165 299c-31 -50 -86 -95 -185 -95c-132 0 -221 89 -221 233c0 143 101 238 244 238c166 0 250 -105 250 -354c0 -287 -92 -389 -257 -389c-137 0 -205 84 -224 198zM294 325c99 0 153 62 153 165
c0 101 -52 173 -151 173s-157 -67 -157 -167c0 -103 55 -171 155 -171z" />
    <glyph glyph-name="colon" unicode=":" horiz-adv-x="220" 
d="M66 0v111h88v-111h-88zM66 379v111h88v-111h-88z" />
    <glyph glyph-name="semicolon" unicode=";" horiz-adv-x="265" 
d="M100 379v111h88v-111h-88zM189 111l-81 -232h-71l65 232h87z" />
    <glyph glyph-name="less" unicode="&#x3c;" 
d="M68 287v65c133 69 263 138 396 208v-75c-94 -45 -293 -144 -325 -160v-3c32 -16 233 -117 325 -162v-78c-133 70 -264 136 -396 205z" />
    <glyph glyph-name="equal" unicode="=" 
d="M59 382v65h442v-65h-442zM59 201v65h442v-65h-442z" />
    <glyph glyph-name="greater" unicode="&#x3e;" 
d="M491 352v-65c-132 -69 -263 -135 -396 -205v78c92 45 293 146 325 162v3c-32 16 -231 115 -325 160v75c133 -70 263 -139 396 -208z" />
    <glyph glyph-name="question" unicode="?" horiz-adv-x="506" 
d="M285 199h-76c1 93 21 132 75 180c47 42 98 82 98 164c0 69 -44 116 -129 116c-86 0 -130 -51 -133 -148h-84c-1 133 89 218 221 218c135 0 214 -79 214 -184c0 -87 -56 -144 -107 -189c-48 -42 -78 -72 -79 -157zM203 0v107h88v-107h-88z" />
    <glyph glyph-name="at" unicode="@" horiz-adv-x="832" 
d="M564 534h69l-50 -286c-5 -30 8 -45 37 -45c61 0 115 95 115 204c0 156 -113 275 -297 275c-196 0 -328 -143 -328 -330c0 -198 145 -328 340 -328c110 0 173 36 233 83l45 -23c-70 -65 -161 -110 -285 -110c-233 0 -395 152 -395 378c0 211 160 379 390 379
c203 0 353 -130 353 -310c0 -161 -86 -267 -203 -267c-55 0 -76 28 -83 48c-14 -16 -46 -49 -119 -49c-94 0 -157 59 -157 165c0 115 75 226 198 226c68 0 105 -28 128 -64zM434 489c-88 0 -130 -88 -130 -173c0 -66 32 -115 101 -115c94 0 134 90 134 173
c0 72 -35 115 -105 115z" />
    <glyph glyph-name="A" unicode="A" horiz-adv-x="687" 
d="M-2 0l291 715h110l288 -715h-90l-90 225h-336l-89 -225h-84zM340 649c-38 -98 -85 -210 -115 -287l-28 -68h283l-30 77c-35 92 -74 183 -108 278h-2z" />
    <glyph glyph-name="B" unicode="B" horiz-adv-x="638" 
d="M92 0v715h204c74 0 130 -8 174 -28c58 -26 90 -73 90 -147c0 -101 -60 -145 -108 -163c65 -19 139 -63 139 -173c0 -85 -37 -137 -92 -167c-54 -29 -120 -37 -197 -37h-210zM176 332v-259h163c45 0 87 9 116 32c26 21 42 54 42 98c0 97 -74 129 -181 129h-140zM176 643
v-239h130c105 0 159 32 159 122c0 54 -22 83 -58 99c-34 15 -80 18 -134 18h-97z" />
    <glyph glyph-name="C" unicode="C" horiz-adv-x="764" 
d="M641 207h88c-50 -135 -165 -221 -329 -221c-209 0 -354 150 -354 371c0 219 147 372 359 372c165 0 279 -82 325 -229h-87c-34 90 -104 157 -239 157c-168 0 -266 -123 -266 -299c0 -175 98 -300 267 -300c133 0 199 70 236 149z" />
    <glyph glyph-name="D" unicode="D" horiz-adv-x="717" 
d="M92 0v715h182c99 0 158 -14 213 -39c117 -54 182 -163 182 -320c0 -116 -40 -217 -121 -281c-60 -47 -132 -75 -259 -75h-197zM177 642v-569h90c197 0 308 74 308 284c0 187 -108 286 -297 286c-34 0 -68 0 -101 -1z" />
    <glyph glyph-name="E" unicode="E" horiz-adv-x="589" 
d="M92 0v715h444v-74h-359v-237h335v-74h-335v-256h366v-74h-451z" />
    <glyph glyph-name="F" unicode="F" horiz-adv-x="572" 
d="M177 0h-85v715h432v-74h-347v-237h323v-74h-323v-330z" />
    <glyph glyph-name="G" unicode="G" horiz-adv-x="790" 
d="M371 368h358v-368h-79v56l1 60c-30 -52 -110 -130 -259 -130c-199 0 -346 144 -346 371c0 214 140 372 359 372c181 0 285 -98 324 -227h-85c-34 76 -92 155 -240 155c-159 0 -266 -110 -266 -298c0 -184 104 -301 264 -301c174 0 249 125 253 236h-284v74z" />
    <glyph glyph-name="H" unicode="H" horiz-adv-x="701" 
d="M92 0v715h85v-312h347v312h85v-715h-85v330h-347v-330h-85z" />
    <glyph glyph-name="I" unicode="I" horiz-adv-x="269" 
d="M92 0v715h85v-715h-85z" />
    <glyph glyph-name="J" unicode="J" horiz-adv-x="478" 
d="M28 173h83c1 -67 21 -119 95 -119c89 0 101 77 101 179v482h85v-515c0 -125 -51 -214 -188 -214c-119 0 -175 65 -176 187z" />
    <glyph glyph-name="K" unicode="K" horiz-adv-x="585" 
d="M92 0v715h86v-328c132 147 235 255 301 328h107l-316 -329c102 -125 219 -260 324 -386h-107c-63 73 -170 198 -309 368v-368h-86z" />
    <glyph glyph-name="L" unicode="L" horiz-adv-x="529" 
d="M92 715h85v-641h322v-74h-407v715z" />
    <glyph glyph-name="M" unicode="M" horiz-adv-x="863" 
d="M92 0v715h147l130 -427c16 -50 41 -146 60 -206h1c20 60 49 165 65 213l137 420h139v-715h-85v362c0 76 3 233 3 291h-1c-11 -36 -50 -170 -88 -283l-123 -370h-108l-142 471c-23 76 -37 134 -51 182h-1c1 -58 2 -153 2 -252v-401h-85z" />
    <glyph glyph-name="N" unicode="N" horiz-adv-x="736" 
d="M644 0h-123l-238 428c-41 75 -94 168 -105 195h-2c0 -39 1 -208 1 -271v-352h-85v715h129l243 -441l98 -181h2c0 41 -3 140 -3 209v413h83v-715z" />
    <glyph glyph-name="O" unicode="O" horiz-adv-x="809" 
d="M404 729c214 0 359 -151 359 -372c0 -220 -141 -371 -358 -371c-215 0 -359 151 -359 371s145 372 358 372zM403 658c-167 0 -266 -123 -266 -300c0 -176 100 -301 267 -301c164 0 265 124 265 301c0 179 -99 300 -266 300z" />
    <glyph glyph-name="P" unicode="P" horiz-adv-x="587" 
d="M92 0v715h205c59 0 114 -7 157 -29c58 -30 96 -85 96 -177c0 -73 -27 -127 -73 -161c-45 -34 -108 -49 -185 -49h-115v-299h-85zM177 643v-272h116c94 0 165 38 165 138c0 91 -56 134 -171 134h-110z" />
    <glyph glyph-name="Q" unicode="Q" horiz-adv-x="809" 
d="M404 729c214 0 359 -151 359 -372c0 -124 -45 -227 -123 -292l116 -115h-113l-73 71c-48 -22 -103 -35 -165 -35c-215 0 -359 151 -359 371s145 372 358 372zM366 220h117l99 -98c56 54 87 137 87 236c0 179 -99 300 -266 300s-266 -123 -266 -300
c0 -176 100 -301 267 -301c40 0 77 6 109 20z" />
    <glyph glyph-name="R" unicode="R" horiz-adv-x="608" 
d="M92 0v715h203c72 0 137 -6 186 -40c54 -35 82 -92 82 -163c0 -126 -87 -182 -182 -199c57 -95 132 -216 190 -313h-103l-176 301h-115v-301h-85zM177 643v-272h117c54 0 96 9 126 30c33 22 51 56 51 107c0 58 -24 95 -66 115c-29 14 -66 20 -111 20h-117z" />
    <glyph glyph-name="S" unicode="S" horiz-adv-x="603" 
d="M36 203h85c14 -94 76 -149 183 -149c103 0 166 51 166 131c0 85 -77 114 -166 142l-43 14c-124 39 -199 92 -199 201c0 112 90 187 240 187c145 0 230 -71 243 -199h-83c-16 89 -71 132 -163 132c-93 0 -149 -42 -149 -111c0 -76 58 -105 153 -137l49 -17
c117 -37 207 -83 207 -201c0 -132 -104 -210 -257 -210c-150 0 -251 77 -266 217z" />
    <glyph glyph-name="T" unicode="T" horiz-adv-x="539" 
d="M227 0v641h-200v74h485v-74h-200v-641h-85z" />
    <glyph glyph-name="U" unicode="U" horiz-adv-x="689" 
d="M344 -14c-89 0 -171 34 -213 92c-36 51 -46 111 -46 193v444h85v-437c0 -62 3 -105 23 -143c26 -50 82 -80 151 -80c70 0 127 30 152 80c20 38 23 81 23 143v437h85v-444c0 -82 -10 -142 -46 -193c-42 -58 -127 -92 -214 -92z" />
    <glyph glyph-name="V" unicode="V" horiz-adv-x="661" 
d="M332 72h2c21 68 49 140 74 210l153 433h89l-264 -715h-112c-72 185 -214 592 -259 715h93l153 -439c24 -70 47 -129 71 -204z" />
    <glyph glyph-name="W" unicode="W" horiz-adv-x="899" 
d="M870 715l-157 -715h-119l-84 391c-23 108 -40 180 -56 261h-2c-17 -82 -45 -202 -65 -290l-82 -362h-123l-151 715h92l84 -440c16 -83 26 -119 37 -203h3c14 83 25 120 44 202l102 441h127l95 -433c18 -82 28 -134 41 -207h2c13 73 26 124 42 208l84 432h86z" />
    <glyph glyph-name="X" unicode="X" horiz-adv-x="616" 
d="M95 0h-93c82 113 164 233 256 366c-78 112 -164 240 -239 349h97c111 -167 159 -240 192 -287c57 83 132 197 190 287h94c-75 -108 -150 -215 -236 -341l261 -374h-103l-209 311c-126 -189 -170 -250 -210 -311z" />
    <glyph glyph-name="Y" unicode="Y" horiz-adv-x="588" 
d="M251 0v275l-244 440h95c58 -113 140 -258 196 -362c84 155 143 258 197 362h89l-248 -440v-275h-85z" />
    <glyph glyph-name="Z" unicode="Z" horiz-adv-x="570" 
d="M37 0v71c17 26 59 87 91 133l247 356c26 37 39 54 57 81h-391v74h487v-71c-15 -23 -42 -65 -84 -126l-237 -341c-22 -32 -58 -85 -72 -103h397v-74h-495z" />
    <glyph glyph-name="bracketleft" unicode="[" horiz-adv-x="313" 
d="M277 -53v-60h-183v828h183v-60h-103v-708h103z" />
    <glyph glyph-name="backslash" unicode="\" horiz-adv-x="426" 
d="M108 715l289 -820h-81l-288 820h80z" />
    <glyph glyph-name="bracketright" unicode="]" horiz-adv-x="313" 
d="M36 -113v60h103v708h-103v60h183v-828h-183z" />
    <glyph glyph-name="asciicircum" unicode="^" 
d="M238 684h84c69 -132 134 -263 205 -396h-85c-45 95 -144 295 -160 327h-3c-16 -32 -117 -231 -162 -327h-84c71 133 136 263 205 396z" />
    <glyph glyph-name="underscore" unicode="_" horiz-adv-x="608" 
d="M66 -148v71h476v-71h-476z" />
    <glyph glyph-name="grave" unicode="`" horiz-adv-x="429" 
d="M222 596l-141 119h115l114 -119h-88z" />
    <glyph glyph-name="a" unicode="a" horiz-adv-x="548" 
d="M63 366c0 98 85 173 212 173c136 0 203 -64 203 -227c0 -21 -1 -55 -1 -79v-129c0 -44 3 -80 10 -104h-76c-4 22 -7 46 -7 81c-33 -53 -86 -91 -181 -91c-107 0 -184 55 -184 151c0 102 94 139 222 159c43 7 96 14 138 17c0 112 -39 157 -128 157
c-84 0 -122 -41 -129 -108h-79zM400 233c0 15 0 21 1 26l-44 -6c-150 -22 -231 -36 -231 -111c0 -59 46 -94 117 -94c101 0 157 64 157 185z" />
    <glyph glyph-name="b" unicode="b" horiz-adv-x="626" 
d="M77 0v715h83v-153c0 -34 0 -82 -1 -118c30 48 90 95 184 95c144 0 240 -111 240 -273c0 -169 -103 -279 -246 -279c-91 0 -152 46 -183 93v-80h-77zM325 54c108 0 168 82 168 209c0 122 -61 209 -168 209c-109 0 -167 -87 -167 -209c0 -127 58 -209 167 -209z" />
    <glyph glyph-name="c" unicode="c" horiz-adv-x="588" 
d="M469 166h81c-30 -100 -111 -179 -245 -179c-160 0 -262 108 -262 277c0 166 108 275 263 275c141 0 217 -82 245 -185h-82c-23 62 -70 118 -163 118c-112 0 -178 -88 -178 -209c0 -126 62 -209 178 -209c90 0 136 49 163 112z" />
    <glyph glyph-name="d" unicode="d" horiz-adv-x="626" 
d="M549 715v-715h-77v80c-31 -47 -92 -93 -183 -93c-143 0 -246 101 -246 276c0 162 102 276 240 276c97 0 154 -46 184 -95c-1 36 -1 82 -1 116v155h83zM301 54c109 0 167 82 167 209c0 122 -58 208 -167 208c-107 0 -168 -86 -168 -208c0 -127 60 -209 168 -209z" />
    <glyph glyph-name="e" unicode="e" horiz-adv-x="593" 
d="M555 249h-429c6 -124 75 -195 182 -195c79 0 127 45 152 95h84c-33 -92 -118 -162 -238 -162c-165 0 -263 115 -263 274c0 165 105 278 264 278c173 0 249 -132 249 -272c0 -10 -1 -15 -1 -18zM130 311h339c-10 95 -61 163 -164 163c-100 0 -162 -66 -175 -163z" />
    <glyph glyph-name="f" unicode="f" horiz-adv-x="284" 
d="M267 718v-67c-7 1 -17 2 -24 2c-38 0 -65 -19 -65 -65v-63h89v-62h-89v-463h-83v463h-69v62h69v44c0 95 39 152 136 152c13 0 24 -1 36 -3z" />
    <glyph glyph-name="g" unicode="g" horiz-adv-x="625" 
d="M299 -122c116 0 169 83 169 213v34c-29 -52 -89 -101 -183 -101c-148 0 -241 108 -241 256c0 156 103 259 242 259c94 0 150 -42 182 -90c0 0 -1 44 -1 76h82v-421c0 -175 -79 -293 -257 -293c-126 0 -207 84 -231 172h85c17 -48 56 -105 153 -105zM301 91
c93 0 167 71 167 193c0 111 -64 187 -167 187c-105 0 -167 -78 -167 -190c0 -108 60 -190 167 -190z" />
    <glyph glyph-name="h" unicode="h" horiz-adv-x="580" 
d="M77 715h83v-168c0 -47 -2 -97 -2 -97c27 44 81 89 171 89c120 0 180 -78 180 -211v-328h-83v302c0 105 -39 170 -129 170c-88 0 -137 -72 -137 -157v-315h-83v715z" />
    <glyph glyph-name="i" unicode="i" horiz-adv-x="235" 
d="M160 614h-85v101h85v-101zM77 525h81v-525h-81v525z" />
    <glyph glyph-name="j" unicode="j" horiz-adv-x="237" 
d="M65 -109c8 11 12 25 12 53v581h83v-566c0 -69 -12 -102 -33 -124c-26 -27 -67 -33 -107 -33c-16 0 -31 2 -39 4v65s7 -1 20 -1c29 0 52 5 64 21zM162 614h-85v101h85v-101z" />
    <glyph glyph-name="k" unicode="k" horiz-adv-x="501" 
d="M496 0h-111c-63 80 -225 268 -225 268v-268h-83v715h83v-429s150 168 211 239h102c-94 -102 -226 -239 -226 -239z" />
    <glyph glyph-name="l" unicode="l" horiz-adv-x="245" 
d="M81 0v715h83v-715h-83z" />
    <glyph glyph-name="m" unicode="m" horiz-adv-x="918" 
d="M77 0v446c0 24 0 55 -1 79h82v-75c27 44 80 89 168 89c79 0 131 -35 157 -97c24 37 74 97 186 97c120 0 177 -78 177 -211v-328h-83v302c0 105 -36 170 -126 170c-86 0 -134 -69 -134 -151v-321h-83v302c0 105 -36 170 -126 170c-88 0 -134 -72 -134 -157v-315h-83z" />
    <glyph glyph-name="n" unicode="n" horiz-adv-x="580" 
d="M77 0v446c0 24 0 55 -1 79h82v-75c27 44 81 89 171 89c120 0 180 -78 180 -211v-328h-83v302c0 105 -39 170 -129 170c-88 0 -137 -72 -137 -157v-315h-83z" />
    <glyph glyph-name="o" unicode="o" horiz-adv-x="618" 
d="M307 54c114 0 178 84 178 209c0 121 -65 209 -178 209c-114 0 -179 -88 -179 -209c0 -125 64 -209 179 -209zM307 -13c-168 0 -264 114 -264 275c0 160 102 277 266 277c163 0 266 -117 266 -277c0 -161 -100 -275 -268 -275z" />
    <glyph glyph-name="p" unicode="p" horiz-adv-x="626" 
d="M77 525l81 -1v-81c30 48 91 96 185 96c144 0 240 -111 240 -273c0 -169 -103 -279 -246 -279c-87 0 -147 42 -179 87c1 -28 2 -74 2 -134v-120h-83v705zM325 54c108 0 168 82 168 209c0 122 -61 209 -168 209c-109 0 -167 -87 -167 -209c0 -127 58 -209 167 -209z" />
    <glyph glyph-name="q" unicode="q" horiz-adv-x="626" 
d="M468 524h81v-704h-83v125c0 38 1 90 2 131c-32 -45 -91 -89 -179 -89c-143 0 -246 101 -246 276c0 162 102 276 240 276c97 0 156 -48 186 -97c-1 24 -1 55 -1 82zM301 54c109 0 167 82 167 209c0 122 -58 208 -167 208c-107 0 -168 -86 -168 -208
c0 -127 60 -209 168 -209z" />
    <glyph glyph-name="r" unicode="r" horiz-adv-x="320" 
d="M155 525v-85c18 55 73 97 133 97c5 0 11 0 16 -1v-79c-8 2 -23 3 -34 3c-81 0 -110 -68 -110 -173v-287h-83v446c0 24 0 55 -1 79h79z" />
    <glyph glyph-name="s" unicode="s" horiz-adv-x="498" 
d="M35 159h81c19 -67 60 -106 139 -106c72 0 121 35 121 87s-43 67 -111 86l-62 17c-84 23 -149 54 -149 144c0 94 81 152 195 152c106 0 182 -46 198 -152h-78c-15 52 -53 87 -122 87c-72 0 -110 -33 -110 -76c0 -47 38 -66 105 -85l66 -19c90 -26 149 -61 149 -144
c0 -103 -85 -162 -204 -162c-115 0 -196 50 -218 171z" />
    <glyph glyph-name="t" unicode="t" horiz-adv-x="303" 
d="M98 463h-81v62h81v142h82v-142h100v-62h-100v-335c0 -53 25 -75 74 -75c5 0 8 0 16 1v-62c-9 -1 -19 -2 -28 -2c-87 0 -144 30 -144 131v342z" />
    <glyph glyph-name="u" unicode="u" horiz-adv-x="572" 
d="M495 525v-445c0 -27 0 -53 1 -80h-82v72c-25 -42 -74 -86 -165 -86c-121 0 -178 78 -178 211v328h83v-303c0 -103 38 -169 127 -169c86 0 131 73 131 156v316h83z" />
    <glyph glyph-name="v" unicode="v" horiz-adv-x="525" 
d="M213 0c-63 170 -131 357 -195 525h93l96 -277c23 -69 34 -94 58 -170h2c23 73 39 108 64 182l93 265h85l-200 -525h-96z" />
    <glyph glyph-name="w" unicode="w" horiz-adv-x="815" 
d="M186 0c0 0 -109 355 -162 525h90l78 -272c17 -62 31 -109 51 -185h2c17 73 34 132 53 207l64 250h103l57 -238c16 -63 32 -137 52 -218h2c20 73 44 147 68 230l67 226h83c-55 -170 -166 -525 -166 -525h-111l-50 203c-20 82 -44 191 -54 239h-3
c-13 -55 -36 -157 -59 -243l-54 -199h-111z" />
    <glyph glyph-name="x" unicode="x" horiz-adv-x="501" 
d="M14 0c26 36 133 183 192 267l-183 258h97c18 -29 89 -131 133 -196c44 65 92 135 132 196h90c-50 -71 -128 -178 -179 -249c53 -77 139 -200 194 -276h-98l-143 215l-144 -215h-91z" />
    <glyph glyph-name="y" unicode="y" horiz-adv-x="519" 
d="M228 -180h-83l73 177c-60 159 -139 363 -202 528h93c58 -167 116 -327 153 -430c32 87 114 306 157 430h86c-92 -232 -179 -465 -277 -705z" />
    <glyph glyph-name="z" unicode="z" horiz-adv-x="493" 
d="M36 0v62l231 289c38 47 73 90 87 109c-36 -1 -115 -1 -155 -1h-153v66h403v-67l-222 -274l-97 -119c38 0 106 1 151 1h173v-66h-418z" />
    <glyph glyph-name="braceleft" unicode="{" horiz-adv-x="291" 
d="M39 283v35c46 13 63 30 63 109v166c0 95 17 126 114 126c17 0 28 -1 28 -1v-58c-47 -2 -62 -12 -62 -77v-129c0 -108 -8 -127 -67 -152v-2c59 -25 67 -44 67 -152v-130c0 -65 15 -75 62 -77v-58s-11 -1 -28 -1c-98 0 -114 31 -114 126v166c0 79 -17 96 -63 109z" />
    <glyph glyph-name="bar" unicode="|" horiz-adv-x="270" 
d="M95 -62v793h80v-793h-80z" />
    <glyph glyph-name="braceright" unicode="}" horiz-adv-x="291" 
d="M252 318v-35c-46 -13 -63 -30 -63 -109v-166c0 -95 -16 -126 -114 -126c-17 0 -28 1 -28 1v58c47 2 62 12 62 77v130c0 108 8 127 67 152v2c-59 25 -67 44 -67 152v129c0 65 -15 75 -62 77v58s11 1 28 1c97 0 114 -31 114 -126v-166c0 -79 17 -96 63 -109z" />
    <glyph glyph-name="asciitilde" unicode="~" 
d="M481 369l54 -36c-35 -60 -84 -105 -146 -105c-41 0 -75 16 -107 31l-42 20c-23 11 -54 24 -79 24c-41 0 -70 -32 -85 -68l-52 38c35 58 80 100 141 100c36 0 64 -10 100 -27l46 -22c27 -13 48 -25 77 -25c45 0 75 35 93 70z" />
    <glyph glyph-name="uni00A0" unicode="&#xa0;" horiz-adv-x="255" 
 />
    <glyph glyph-name="exclamdown" unicode="&#xa1;" horiz-adv-x="251" 
d="M98 337h55c5 -126 14 -265 14 -424v-109h-83v109c0 159 9 298 14 424zM82 413v112h88v-112h-88z" />
    <glyph glyph-name="cent" unicode="&#xa2;" 
d="M455 166h81c-27 -91 -97 -164 -209 -177v-71h-75v72c-138 16 -223 119 -223 274c0 151 90 255 223 272v86h75v-85c118 -13 184 -89 210 -183h-82c-20 53 -58 103 -128 115v-413c67 11 105 56 128 110zM114 263c0 -111 48 -188 138 -205v410c-88 -19 -138 -99 -138 -205z
" />
    <glyph glyph-name="sterling" unicode="&#xa3;" 
d="M501 71v-71h-444v64c93 15 126 72 126 144c0 36 -10 80 -32 127h-107v67h78c-15 45 -25 81 -25 127c0 111 79 200 216 200c135 0 202 -77 204 -197h-79c-9 79 -41 127 -126 127s-129 -60 -129 -133c0 -49 12 -81 28 -121h172v-70h-147c18 -46 28 -84 28 -126
c0 -57 -19 -101 -70 -140c46 2 97 2 146 2h161z" />
    <glyph glyph-name="currency" unicode="&#xa4;" 
d="M470 112l-48 48c-40 -29 -89 -46 -142 -46s-103 17 -143 46l-49 -49l-58 58l49 49c-28 40 -44 89 -44 141c0 53 17 102 46 142l-51 51l58 58l51 -51c40 28 88 45 141 45c52 0 100 -17 140 -45l50 50l58 -58l-49 -49c29 -40 46 -90 46 -143s-17 -101 -45 -141l48 -48z
M103 359c0 -97 80 -177 177 -177s177 80 177 177s-80 177 -177 177s-177 -80 -177 -177z" />
    <glyph glyph-name="yen" unicode="&#xa5;" 
d="M26 216v61h209l-71 127h-138v61h104l-138 250h95c58 -113 140 -258 196 -362c84 155 143 258 197 362h89l-141 -250h102v-61h-137l-71 -127h208v-61h-209v-216h-85v216h-210z" />
    <glyph glyph-name="brokenbar" unicode="&#xa6;" horiz-adv-x="224" 
d="M72 428v303h80v-303h-80zM72 -62v303h80v-303h-80z" />
    <glyph glyph-name="section" unicode="&#xa7;" 
d="M265 502l93 -39c75 -32 142 -73 142 -154c0 -74 -41 -109 -95 -136c43 -24 75 -62 75 -118c0 -103 -85 -162 -204 -162c-115 0 -196 50 -218 171h81c19 -67 60 -106 139 -106c72 0 121 35 121 87c0 26 -6 54 -94 93l-102 46c-70 31 -140 68 -140 157c0 75 62 107 97 121
c-38 22 -65 55 -65 112c0 94 81 152 195 152c104 0 182 -46 198 -152h-78c-15 52 -54 87 -123 87s-109 -29 -109 -75c0 -45 35 -62 87 -84zM232 260l110 -51c41 13 78 36 78 85c0 55 -47 77 -122 109l-71 29c-43 -3 -83 -31 -83 -75c0 -48 30 -70 88 -97z" />
    <glyph glyph-name="dieresis" unicode="&#xa8;" horiz-adv-x="491" 
d="M150 609v90h89v-90h-89zM310 609v90h88v-90h-88z" />
    <glyph glyph-name="copyright" unicode="&#xa9;" horiz-adv-x="849" 
d="M561 275h65c-32 -86 -102 -141 -203 -141c-127 0 -214 90 -214 224s88 224 217 224c100 0 170 -52 199 -146h-64c-19 53 -60 93 -135 93c-96 0 -153 -71 -153 -170c0 -100 57 -172 153 -172c75 0 114 42 135 88zM801 360c0 -210 -167 -377 -378 -377
c-208 0 -375 168 -375 377c0 208 166 376 377 376c209 0 376 -168 376 -376zM750 360c0 183 -147 328 -325 328c-183 0 -325 -145 -325 -328c0 -182 142 -330 324 -330c179 0 326 146 326 330z" />
    <glyph glyph-name="ordfeminine" unicode="&#xaa;" horiz-adv-x="449" 
d="M125 455h-57c0 72 64 128 158 128c102 0 152 -48 152 -170v-28c0 -11 -1 -22 -1 -128c0 -33 3 -60 8 -78h-55c-3 16 -5 36 -5 66c-26 -43 -67 -73 -137 -73c-80 0 -138 41 -138 113c0 76 72 104 168 119c22 4 50 6 103 13c0 85 -29 120 -97 120c-64 0 -93 -32 -99 -82z
M68 454l-1 1h1v-1zM322 354v20l-96 -15c-72 -11 -113 -24 -113 -73c0 -47 35 -73 89 -73c78 0 120 49 120 141z" />
    <glyph glyph-name="guillemotleft" unicode="&#xab;" horiz-adv-x="480" 
d="M236 473l-97 -187l97 -188h-79l-107 188l107 187h79zM423 473l-92 -187l92 -188h-77l-107 188l107 187h77z" />
    <glyph glyph-name="logicalnot" unicode="&#xac;" 
d="M22 395v65h503v-323h-67v258h-436z" />
    <glyph glyph-name="uni00AD" unicode="&#xad;" horiz-adv-x="404" 
d="M66 257v73h272v-73h-272z" />
    <glyph glyph-name="registered" unicode="&#xae;" horiz-adv-x="559" 
d="M198 367v263h76c31 0 54 -3 70 -14c21 -14 31 -36 31 -63c0 -46 -27 -68 -61 -74l68 -112h-48l-62 106h-35v-106h-39zM237 595v-87h38c19 0 33 3 44 11c9 7 15 18 15 33c0 18 -8 30 -20 36c-10 5 -23 7 -39 7h-38zM513 500c0 -130 -104 -234 -234 -234
c-129 0 -233 104 -233 234c0 129 103 233 234 233c129 0 233 -104 233 -233zM472 500c0 107 -87 194 -192 194c-108 0 -192 -87 -192 -194c0 -108 84 -195 191 -195c106 0 193 87 193 195z" />
    <glyph glyph-name="macron" unicode="&#xaf;" horiz-adv-x="428" 
d="M97 628v53h244v-53h-244z" />
    <glyph glyph-name="degree" unicode="&#xb0;" horiz-adv-x="425" 
d="M213 400c-94 0 -167 71 -167 164s73 165 167 165s166 -72 166 -165s-72 -164 -166 -164zM107 564c0 -58 48 -105 106 -105s105 44 105 105c0 59 -48 106 -105 106c-58 0 -106 -47 -106 -106z" />
    <glyph glyph-name="plusminus" unicode="&#xb1;" 
d="M58 310v65h188v176h65v-176h189v-65h-189v-177h-65v177h-188zM59 0v65h442v-65h-442z" />
    <glyph glyph-name="twosuperior" unicode="&#xb2;" horiz-adv-x="412" 
d="M66 284v56c60 51 100 89 156 146c25 26 53 65 53 107c0 44 -25 75 -72 75c-48 0 -77 -34 -78 -83h-62v5c0 77 61 134 142 134c88 0 140 -57 140 -128c0 -72 -57 -129 -110 -178c-20 -18 -47 -43 -90 -77h200v-57h-279z" />
    <glyph glyph-name="threesuperior" unicode="&#xb3;" horiz-adv-x="395" 
d="M164 496v51h2c58 2 91 20 91 69c0 39 -28 60 -63 60c-39 0 -62 -28 -63 -62h-62c0 67 50 112 128 112c76 0 125 -39 125 -104c0 -40 -22 -77 -67 -95c51 -17 91 -54 91 -116c0 -78 -59 -135 -152 -135c-95 0 -138 53 -148 127h67c7 -42 33 -74 84 -74c50 0 81 37 81 84
c0 61 -44 83 -98 83h-16z" />
    <glyph glyph-name="acute" unicode="&#xb4;" horiz-adv-x="427" 
d="M360 715l-141 -119h-88l114 119h115z" />
    <glyph glyph-name="mu" unicode="&#xb5;" horiz-adv-x="578" 
d="M160 -180h-83v705h83v-303c0 -103 38 -169 127 -169c86 0 131 73 131 156v316h83v-445c0 -27 0 -53 1 -80h-82v72c-33 -55 -96 -84 -160 -84c-49 0 -81 17 -100 28v-196z" />
    <glyph glyph-name="paragraph" unicode="&#xb6;" horiz-adv-x="609" 
d="M297 648v-761h-73v487c-104 0 -192 67 -192 172c0 59 23 104 67 135c43 30 89 34 149 34h290v-67h-43v-761h-73v761h-125z" />
    <glyph glyph-name="periodcentered" unicode="&#xb7;" horiz-adv-x="220" 
d="M66 261v111h88v-111h-88z" />
    <glyph glyph-name="cedilla" unicode="&#xb8;" horiz-adv-x="369" 
d="M107 -163l94 115h86l-75 -115h-105z" />
    <glyph glyph-name="onesuperior" unicode="&#xb9;" horiz-adv-x="276" 
d="M139 608h-107v37c81 1 113 22 124 70h47v-431h-64v324z" />
    <glyph glyph-name="ordmasculine" unicode="&#xba;" horiz-adv-x="490" 
d="M244 217c87 0 135 64 135 159c0 92 -49 159 -135 159c-87 0 -136 -67 -136 -159c0 -95 48 -159 136 -159zM244 169c-126 0 -198 86 -198 206c0 119 77 208 200 208c121 0 198 -89 198 -208c0 -120 -75 -206 -200 -206z" />
    <glyph glyph-name="guillemotright" unicode="&#xbb;" horiz-adv-x="480" 
d="M341 286l-97 187h79l107 -187l-107 -188h-79zM149 286l-92 187h77l107 -187l-107 -188h-77z" />
    <glyph glyph-name="onequarter" unicode="&#xbc;" horiz-adv-x="798" 
d="M190 0l275 715h61l-275 -715h-61zM141 608h-107v37c81 1 113 22 124 70h47v-431h-64v324zM641 89h-218v49c59 86 151 216 205 298h74v-294h59v-53h-59v-89h-61v89zM641 142v95c0 25 1 111 2 132h-1s-35 -52 -67 -99l-43 -64c-23 -34 -43 -64 -43 -64h152z" />
    <glyph glyph-name="onehalf" unicode="&#xbd;" horiz-adv-x="813" 
d="M483 0v56c60 52 101 90 157 148c25 26 54 65 54 108c0 44 -26 76 -73 76c-48 0 -78 -35 -79 -84h-62v5c0 78 61 135 143 135c89 0 141 -57 141 -129c0 -73 -57 -130 -111 -180c-20 -18 -47 -43 -91 -78h202v-57h-281zM190 0l275 715h61l-275 -715h-61zM141 608h-107v37
c81 1 113 22 124 70h47v-431h-64v324z" />
    <glyph glyph-name="threequarters" unicode="&#xbe;" horiz-adv-x="889" 
d="M156 496v51h2c58 2 91 20 91 69c0 39 -28 60 -63 60c-39 0 -62 -28 -63 -62h-62c0 67 50 112 128 112c76 0 125 -39 125 -104c0 -40 -22 -77 -67 -95c51 -17 91 -54 91 -116c0 -78 -59 -135 -152 -135c-95 0 -138 53 -148 127h67c7 -42 33 -74 84 -74c50 0 81 37 81 84
c0 61 -44 83 -98 83h-16zM283 0l275 715h61l-275 -715h-61zM734 89h-218v49c59 86 151 216 205 298h74v-294h59v-53h-59v-89h-61v89zM734 142v95c0 25 1 111 2 132h-1s-35 -52 -67 -99l-43 -64c-23 -34 -43 -64 -43 -64h152z" />
    <glyph glyph-name="questiondown" unicode="&#xbf;" horiz-adv-x="497" 
d="M216 326h76c-1 -93 -21 -132 -75 -180c-47 -42 -98 -82 -98 -164c0 -69 44 -116 129 -116c86 0 130 51 133 148h84c1 -133 -89 -218 -221 -218c-135 0 -214 79 -214 184c0 87 56 144 107 189c48 42 78 72 79 157zM298 525v-107h-88v107h88z" />
    <glyph glyph-name="Agrave" unicode="&#xc0;" horiz-adv-x="687" 
d="M-2 0l291 715h110l288 -715h-90l-90 225h-336l-89 -225h-84zM340 649c-38 -98 -85 -210 -115 -287l-28 -68h283l-30 77c-35 92 -74 183 -108 278h-2zM322 761l-138 114h115l111 -114h-88z" />
    <glyph glyph-name="Aacute" unicode="&#xc1;" horiz-adv-x="687" 
d="M-2 0l291 715h110l288 -715h-90l-90 225h-336l-89 -225h-84zM340 649c-38 -98 -85 -210 -115 -287l-28 -68h283l-30 77c-35 92 -74 183 -108 278h-2zM511 875l-138 -114h-88l111 114h115z" />
    <glyph glyph-name="Acircumflex" unicode="&#xc2;" horiz-adv-x="687" 
d="M-2 0l291 715h110l288 -715h-90l-90 225h-336l-89 -225h-84zM340 649c-38 -98 -85 -210 -115 -287l-28 -68h283l-30 77c-35 92 -74 183 -108 278h-2zM298 875h89l97 -114h-78l-64 66l-62 -66h-79z" />
    <glyph glyph-name="Atilde" unicode="&#xc3;" horiz-adv-x="687" 
d="M-2 0l291 715h110l288 -715h-90l-90 225h-336l-89 -225h-84zM340 649c-38 -98 -85 -210 -115 -287l-28 -68h283l-30 77c-35 92 -74 183 -108 278h-2zM254 765h-58c4 61 31 102 84 102c22 0 41 -7 72 -22c19 -9 37 -18 54 -18c20 0 28 14 33 40h56
c-4 -61 -32 -103 -81 -103c-26 0 -49 11 -67 19c-33 14 -45 21 -59 21c-20 0 -31 -13 -34 -39z" />
    <glyph glyph-name="Adieresis" unicode="&#xc4;" horiz-adv-x="687" 
d="M-2 0l291 715h110l288 -715h-90l-90 225h-336l-89 -225h-84zM340 649c-38 -98 -85 -210 -115 -287l-28 -68h283l-30 77c-35 92 -74 183 -108 278h-2zM218 766v90h89v-90h-89zM378 766v90h88v-90h-88z" />
    <glyph glyph-name="Aring" unicode="&#xc5;" horiz-adv-x="687" 
d="M-2 0l291 715h110l288 -715h-90l-90 225h-336l-89 -225h-84zM340 649c-38 -98 -85 -210 -115 -287l-28 -68h283l-30 77c-35 92 -74 183 -108 278h-2zM341 748c-49 0 -87 39 -87 89c0 48 39 87 88 87s88 -39 88 -87c0 -50 -39 -89 -89 -89zM295 837c0 -27 20 -49 46 -49
c27 0 47 21 47 49c0 25 -20 47 -47 47c-26 0 -46 -22 -46 -47z" />
    <glyph glyph-name="AE" unicode="&#xc6;" horiz-adv-x="905" 
d="M852 715v-74h-341l6 -237h311v-74h-310l7 -256h334v-74h-418l-5 201h-249l-114 -201h-85l402 715h462zM433 274l-3 172c-2 92 -1 129 -1 192h-5c-13 -27 -50 -100 -79 -153l-117 -211h205z" />
    <glyph glyph-name="Ccedilla" unicode="&#xc7;" horiz-adv-x="764" 
d="M641 207h88c-50 -135 -165 -221 -329 -221c-209 0 -354 150 -354 371c0 219 147 372 359 372c165 0 279 -82 325 -229h-87c-34 90 -104 157 -239 157c-168 0 -266 -123 -266 -299c0 -175 98 -300 267 -300c133 0 199 70 236 149zM267 -163l94 115h86l-75 -115h-105z" />
    <glyph glyph-name="Egrave" unicode="&#xc8;" horiz-adv-x="589" 
d="M92 0v715h444v-74h-359v-237h335v-74h-335v-256h366v-74h-451zM308 761l-138 114h115l111 -114h-88z" />
    <glyph glyph-name="Eacute" unicode="&#xc9;" horiz-adv-x="589" 
d="M92 0v715h444v-74h-359v-237h335v-74h-335v-256h366v-74h-451zM464 875l-138 -114h-88l111 114h115z" />
    <glyph glyph-name="Ecircumflex" unicode="&#xca;" horiz-adv-x="589" 
d="M92 0v715h444v-74h-359v-237h335v-74h-335v-256h366v-74h-451zM275 875h89l97 -114h-78l-64 66l-62 -66h-79z" />
    <glyph glyph-name="Edieresis" unicode="&#xcb;" horiz-adv-x="589" 
d="M92 0v715h444v-74h-359v-237h335v-74h-335v-256h366v-74h-451zM192 766v90h89v-90h-89zM352 766v90h88v-90h-88z" />
    <glyph glyph-name="Igrave" unicode="&#xcc;" horiz-adv-x="269" 
d="M92 0v715h85v-715h-85zM115 761l-138 114h115l111 -114h-88z" />
    <glyph glyph-name="Iacute" unicode="&#xcd;" horiz-adv-x="269" 
d="M92 0v715h85v-715h-85zM305 875l-138 -114h-88l111 114h115z" />
    <glyph glyph-name="Icircumflex" unicode="&#xce;" horiz-adv-x="269" 
d="M92 0v715h85v-715h-85zM92 875h89l97 -114h-78l-64 66l-62 -66h-79z" />
    <glyph glyph-name="Idieresis" unicode="&#xcf;" horiz-adv-x="269" 
d="M92 0v715h85v-715h-85zM11 766v90h89v-90h-89zM171 766v90h88v-90h-88z" />
    <glyph glyph-name="Eth" unicode="&#xd0;" horiz-adv-x="718" 
d="M11 327v71h82v317h182c99 0 158 -14 213 -39c117 -54 182 -163 182 -320c0 -116 -40 -217 -121 -281c-60 -47 -132 -75 -259 -75h-197v327h-82zM178 642v-244h147v-71h-147v-254h90c197 0 308 74 308 284c0 187 -108 286 -297 286c-34 0 -68 0 -101 -1z" />
    <glyph glyph-name="Ntilde" unicode="&#xd1;" horiz-adv-x="736" 
d="M644 0h-123l-238 428c-41 75 -94 168 -105 195h-2c0 -39 1 -208 1 -271v-352h-85v715h129l243 -441l98 -181h2c0 41 -3 140 -3 209v413h83v-715zM290 765h-58c4 61 31 102 84 102c22 0 41 -7 72 -22c19 -9 37 -18 54 -18c20 0 28 14 33 40h56c-4 -61 -32 -103 -81 -103
c-26 0 -49 11 -67 19c-33 14 -45 21 -59 21c-20 0 -31 -13 -34 -39z" />
    <glyph glyph-name="Ograve" unicode="&#xd2;" horiz-adv-x="809" 
d="M404 729c214 0 359 -151 359 -372c0 -220 -141 -371 -358 -371c-215 0 -359 151 -359 371s145 372 358 372zM403 658c-167 0 -266 -123 -266 -300c0 -176 100 -301 267 -301c164 0 265 124 265 301c0 179 -99 300 -266 300zM407 761l-138 114h115l111 -114h-88z" />
    <glyph glyph-name="Oacute" unicode="&#xd3;" horiz-adv-x="809" 
d="M404 729c214 0 359 -151 359 -372c0 -220 -141 -371 -358 -371c-215 0 -359 151 -359 371s145 372 358 372zM403 658c-167 0 -266 -123 -266 -300c0 -176 100 -301 267 -301c164 0 265 124 265 301c0 179 -99 300 -266 300zM569 875l-138 -114h-88l111 114h115z" />
    <glyph glyph-name="Ocircumflex" unicode="&#xd4;" horiz-adv-x="809" 
d="M404 729c214 0 359 -151 359 -372c0 -220 -141 -371 -358 -371c-215 0 -359 151 -359 371s145 372 358 372zM403 658c-167 0 -266 -123 -266 -300c0 -176 100 -301 267 -301c164 0 265 124 265 301c0 179 -99 300 -266 300zM364 875h89l97 -114h-78l-64 66l-62 -66h-79z
" />
    <glyph glyph-name="Otilde" unicode="&#xd5;" horiz-adv-x="809" 
d="M404 729c214 0 359 -151 359 -372c0 -220 -141 -371 -358 -371c-215 0 -359 151 -359 371s145 372 358 372zM403 658c-167 0 -266 -123 -266 -300c0 -176 100 -301 267 -301c164 0 265 124 265 301c0 179 -99 300 -266 300zM322 765h-58c4 61 31 102 84 102
c22 0 41 -7 72 -22c19 -9 37 -18 54 -18c20 0 28 14 33 40h56c-4 -61 -32 -103 -81 -103c-26 0 -49 11 -67 19c-33 14 -45 21 -59 21c-20 0 -31 -13 -34 -39z" />
    <glyph glyph-name="Odieresis" unicode="&#xd6;" horiz-adv-x="809" 
d="M404 729c214 0 359 -151 359 -372c0 -220 -141 -371 -358 -371c-215 0 -359 151 -359 371s145 372 358 372zM403 658c-167 0 -266 -123 -266 -300c0 -176 100 -301 267 -301c164 0 265 124 265 301c0 179 -99 300 -266 300zM284 766v90h89v-90h-89zM444 766v90h88v-90
h-88z" />
    <glyph glyph-name="multiply" unicode="&#xd7;" 
d="M115 110l-46 46l164 165l-164 165l46 46l164 -165l166 165l46 -46l-166 -165l166 -165l-46 -46l-166 165z" />
    <glyph glyph-name="Oslash" unicode="&#xd8;" horiz-adv-x="809" 
d="M404 729c56 0 108 -11 154 -30l49 86l66 -37l-50 -87c88 -65 140 -172 140 -304c0 -220 -141 -371 -358 -371c-55 0 -105 10 -150 28l-50 -89l-66 34l51 91c-90 64 -144 173 -144 307c0 220 145 372 358 372zM403 658c-167 0 -266 -123 -266 -300c0 -101 33 -186 92 -239
l292 514c-34 16 -74 25 -118 25zM669 358c0 99 -30 180 -86 233l-291 -512c33 -15 70 -22 112 -22c164 0 265 124 265 301z" />
    <glyph glyph-name="Ugrave" unicode="&#xd9;" horiz-adv-x="689" 
d="M344 -14c-89 0 -171 34 -213 92c-36 51 -46 111 -46 193v444h85v-437c0 -62 3 -105 23 -143c26 -50 82 -80 151 -80c70 0 127 30 152 80c20 38 23 81 23 143v437h85v-444c0 -82 -10 -142 -46 -193c-42 -58 -127 -92 -214 -92zM331 761l-138 114h115l111 -114h-88z" />
    <glyph glyph-name="Uacute" unicode="&#xda;" horiz-adv-x="689" 
d="M344 -14c-89 0 -171 34 -213 92c-36 51 -46 111 -46 193v444h85v-437c0 -62 3 -105 23 -143c26 -50 82 -80 151 -80c70 0 127 30 152 80c20 38 23 81 23 143v437h85v-444c0 -82 -10 -142 -46 -193c-42 -58 -127 -92 -214 -92zM491 875l-138 -114h-88l111 114h115z" />
    <glyph glyph-name="Ucircumflex" unicode="&#xdb;" horiz-adv-x="689" 
d="M344 -14c-89 0 -171 34 -213 92c-36 51 -46 111 -46 193v444h85v-437c0 -62 3 -105 23 -143c26 -50 82 -80 151 -80c70 0 127 30 152 80c20 38 23 81 23 143v437h85v-444c0 -82 -10 -142 -46 -193c-42 -58 -127 -92 -214 -92zM300 875h89l97 -114h-78l-64 66l-62 -66h-79
z" />
    <glyph glyph-name="Udieresis" unicode="&#xdc;" horiz-adv-x="689" 
d="M344 -14c-89 0 -171 34 -213 92c-36 51 -46 111 -46 193v444h85v-437c0 -62 3 -105 23 -143c26 -50 82 -80 151 -80c70 0 127 30 152 80c20 38 23 81 23 143v437h85v-444c0 -82 -10 -142 -46 -193c-42 -58 -127 -92 -214 -92zM224 766v90h89v-90h-89zM384 766v90h88v-90
h-88z" />
    <glyph glyph-name="Yacute" unicode="&#xdd;" horiz-adv-x="588" 
d="M251 0v275l-244 440h95c58 -113 140 -258 196 -362c84 155 143 258 197 362h89l-248 -440v-275h-85zM462 875l-138 -114h-88l111 114h115z" />
    <glyph glyph-name="Thorn" unicode="&#xde;" horiz-adv-x="577" 
d="M92 715h85v-121h120c59 0 114 -7 157 -29c58 -30 96 -85 96 -177c0 -73 -27 -127 -73 -161c-45 -34 -108 -49 -185 -49h-115v-178h-85v715zM177 522v-272h116c94 0 165 38 165 138c0 91 -56 134 -171 134h-110z" />
    <glyph glyph-name="germandbls" unicode="&#xdf;" horiz-adv-x="573" 
d="M77 0v485c0 89 12 145 54 185c35 33 84 53 158 53c127 0 200 -62 200 -159c0 -83 -46 -124 -109 -150c69 -23 151 -74 151 -195c0 -148 -102 -222 -232 -222c-22 0 -31 1 -43 2v61c9 -1 17 -1 25 -1c84 0 165 36 165 156c0 111 -77 160 -181 160h-9v57
c105 4 149 49 149 118c0 70 -45 110 -122 110c-93 0 -123 -60 -123 -148v-512h-83z" />
    <glyph glyph-name="agrave" unicode="&#xe0;" horiz-adv-x="548" 
d="M63 366c0 98 85 173 212 173c136 0 203 -64 203 -227c0 -21 -1 -55 -1 -79v-129c0 -44 3 -80 10 -104h-76c-4 22 -7 46 -7 81c-33 -53 -86 -91 -181 -91c-107 0 -184 55 -184 151c0 102 94 139 222 159c43 7 96 14 138 17c0 112 -39 157 -128 157
c-84 0 -122 -41 -129 -108h-79zM400 233c0 15 0 21 1 26l-44 -6c-150 -22 -231 -36 -231 -111c0 -59 46 -94 117 -94c101 0 157 64 157 185zM272 596l-141 119h115l114 -119h-88z" />
    <glyph glyph-name="aacute" unicode="&#xe1;" horiz-adv-x="548" 
d="M63 366c0 98 85 173 212 173c136 0 203 -64 203 -227c0 -21 -1 -55 -1 -79v-129c0 -44 3 -80 10 -104h-76c-4 22 -7 46 -7 81c-33 -53 -86 -91 -181 -91c-107 0 -184 55 -184 151c0 102 94 139 222 159c43 7 96 14 138 17c0 112 -39 157 -128 157
c-84 0 -122 -41 -129 -108h-79zM400 233c0 15 0 21 1 26l-44 -6c-150 -22 -231 -36 -231 -111c0 -59 46 -94 117 -94c101 0 157 64 157 185zM439 715l-141 -119h-88l114 119h115z" />
    <glyph glyph-name="acircumflex" unicode="&#xe2;" horiz-adv-x="548" 
d="M63 366c0 98 85 173 212 173c136 0 203 -64 203 -227c0 -21 -1 -55 -1 -79v-129c0 -44 3 -80 10 -104h-76c-4 22 -7 46 -7 81c-33 -53 -86 -91 -181 -91c-107 0 -184 55 -184 151c0 102 94 139 222 159c43 7 96 14 138 17c0 112 -39 157 -128 157
c-84 0 -122 -41 -129 -108h-79zM400 233c0 15 0 21 1 26l-44 -6c-150 -22 -231 -36 -231 -111c0 -59 46 -94 117 -94c101 0 157 64 157 185zM233 715h89c30 -35 66 -83 97 -119h-78l-64 68l-62 -68h-79c31 36 67 84 97 119z" />
    <glyph glyph-name="atilde" unicode="&#xe3;" horiz-adv-x="548" 
d="M63 366c0 98 85 173 212 173c136 0 203 -64 203 -227c0 -21 -1 -55 -1 -79v-129c0 -44 3 -80 10 -104h-76c-4 22 -7 46 -7 81c-33 -53 -86 -91 -181 -91c-107 0 -184 55 -184 151c0 102 94 139 222 159c43 7 96 14 138 17c0 112 -39 157 -128 157
c-84 0 -122 -41 -129 -108h-79zM400 233c0 15 0 21 1 26l-44 -6c-150 -22 -231 -36 -231 -111c0 -59 46 -94 117 -94c101 0 157 64 157 185zM178 614h-58c4 61 31 102 84 102c22 0 41 -7 72 -22c19 -9 37 -18 54 -18c20 0 28 14 33 40h56c-4 -61 -32 -103 -81 -103
c-26 0 -49 11 -67 19c-33 14 -45 21 -59 21c-20 0 -31 -13 -34 -39z" />
    <glyph glyph-name="adieresis" unicode="&#xe4;" horiz-adv-x="548" 
d="M63 366c0 98 85 173 212 173c136 0 203 -64 203 -227c0 -21 -1 -55 -1 -79v-129c0 -44 3 -80 10 -104h-76c-4 22 -7 46 -7 81c-33 -53 -86 -91 -181 -91c-107 0 -184 55 -184 151c0 102 94 139 222 159c43 7 96 14 138 17c0 112 -39 157 -128 157
c-84 0 -122 -41 -129 -108h-79zM400 233c0 15 0 21 1 26l-44 -6c-150 -22 -231 -36 -231 -111c0 -59 46 -94 117 -94c101 0 157 64 157 185zM143 609v90h89v-90h-89zM303 609v90h88v-90h-88z" />
    <glyph glyph-name="aring" unicode="&#xe5;" horiz-adv-x="548" 
d="M63 366c0 98 85 173 212 173c136 0 203 -64 203 -227c0 -21 -1 -55 -1 -79v-129c0 -44 3 -80 10 -104h-76c-4 22 -7 46 -7 81c-33 -53 -86 -91 -181 -91c-107 0 -184 55 -184 151c0 102 94 139 222 159c43 7 96 14 138 17c0 112 -39 157 -128 157
c-84 0 -122 -41 -129 -108h-79zM400 233c0 15 0 21 1 26l-44 -6c-150 -22 -231 -36 -231 -111c0 -59 46 -94 117 -94c101 0 157 64 157 185zM278 588c-49 0 -87 39 -87 89c0 48 39 87 88 87s88 -39 88 -87c0 -50 -39 -89 -89 -89zM232 677c0 -27 20 -49 46 -49
c27 0 47 21 47 49c0 25 -20 47 -47 47c-26 0 -46 -22 -46 -47z" />
    <glyph glyph-name="ae" unicode="&#xe6;" horiz-adv-x="940" 
d="M902 249h-429c6 -124 75 -195 182 -195c79 0 127 45 152 95h84c-33 -92 -118 -162 -238 -162c-103 0 -178 44 -222 115c-29 -53 -88 -112 -207 -112c-108 0 -185 55 -185 151c0 103 96 140 224 160c43 7 94 12 136 17c0 112 -39 156 -128 156c-84 0 -122 -41 -129 -108
h-79c0 98 86 173 211 173c88 0 147 -28 177 -90c47 56 117 90 203 90c173 0 249 -132 249 -272c0 -10 -1 -15 -1 -18zM477 311h339c-10 95 -61 163 -164 163c-100 0 -162 -66 -175 -163zM400 233c0 15 0 21 1 26l-30 -5c-36 -6 -68 -10 -97 -15c-94 -16 -148 -33 -148 -96
c0 -60 47 -95 117 -95c101 0 157 64 157 185z" />
    <glyph glyph-name="ccedilla" unicode="&#xe7;" horiz-adv-x="588" 
d="M469 166h81c-30 -100 -111 -179 -245 -179c-160 0 -262 108 -262 277c0 166 108 275 263 275c141 0 217 -82 245 -185h-82c-23 62 -70 118 -163 118c-112 0 -178 -88 -178 -209c0 -126 62 -209 178 -209c90 0 136 49 163 112zM173 -163l94 115h86l-75 -115h-105z" />
    <glyph glyph-name="egrave" unicode="&#xe8;" horiz-adv-x="593" 
d="M555 249h-429c6 -124 75 -195 182 -195c79 0 127 45 152 95h84c-33 -92 -118 -162 -238 -162c-165 0 -263 115 -263 274c0 165 105 278 264 278c173 0 249 -132 249 -272c0 -10 -1 -15 -1 -18zM130 311h339c-10 95 -61 163 -164 163c-100 0 -162 -66 -175 -163zM284 596
l-141 119h115l114 -119h-88z" />
    <glyph glyph-name="eacute" unicode="&#xe9;" horiz-adv-x="593" 
d="M555 249h-429c6 -124 75 -195 182 -195c79 0 127 45 152 95h84c-33 -92 -118 -162 -238 -162c-165 0 -263 115 -263 274c0 165 105 278 264 278c173 0 249 -132 249 -272c0 -10 -1 -15 -1 -18zM130 311h339c-10 95 -61 163 -164 163c-100 0 -162 -66 -175 -163zM463 715
l-141 -119h-88l114 119h115z" />
    <glyph glyph-name="ecircumflex" unicode="&#xea;" horiz-adv-x="593" 
d="M555 249h-429c6 -124 75 -195 182 -195c79 0 127 45 152 95h84c-33 -92 -118 -162 -238 -162c-165 0 -263 115 -263 274c0 165 105 278 264 278c173 0 249 -132 249 -272c0 -10 -1 -15 -1 -18zM130 311h339c-10 95 -61 163 -164 163c-100 0 -162 -66 -175 -163zM261 715
h89c30 -35 66 -83 97 -119h-78l-64 68l-62 -68h-79c31 36 67 84 97 119z" />
    <glyph glyph-name="edieresis" unicode="&#xeb;" horiz-adv-x="593" 
d="M555 249h-429c6 -124 75 -195 182 -195c79 0 127 45 152 95h84c-33 -92 -118 -162 -238 -162c-165 0 -263 115 -263 274c0 165 105 278 264 278c173 0 249 -132 249 -272c0 -10 -1 -15 -1 -18zM130 311h339c-10 95 -61 163 -164 163c-100 0 -162 -66 -175 -163zM175 609
v90h89v-90h-89zM335 609v90h88v-90h-88z" />
    <glyph glyph-name="igrave" unicode="&#xec;" horiz-adv-x="235" 
d="M77 525h81v-525h-81v525zM102 596l-141 119h115l114 -119h-88z" />
    <glyph glyph-name="iacute" unicode="&#xed;" horiz-adv-x="235" 
d="M77 525h81v-525h-81v525zM299 715l-141 -119h-88l114 119h115z" />
    <glyph glyph-name="icircumflex" unicode="&#xee;" horiz-adv-x="235" 
d="M77 525h81v-525h-81v525zM81 715h89c30 -35 66 -83 97 -119h-78l-64 68l-62 -68h-79c31 36 67 84 97 119z" />
    <glyph glyph-name="idieresis" unicode="&#xef;" horiz-adv-x="235" 
d="M77 525h81v-525h-81v525zM-1 609v90h89v-90h-89zM159 609v90h88v-90h-88z" />
    <glyph glyph-name="eth" unicode="&#xf0;" horiz-adv-x="618" 
d="M140 715h140l43 -26l93 41l41 -40l-82 -37c122 -95 197 -220 197 -378c0 -174 -90 -288 -265 -288c-166 0 -263 107 -263 273c0 173 111 275 246 275c67 0 111 -21 136 -39l3 3c-28 41 -73 83 -126 121l-117 -52l-46 41l108 47c-35 22 -72 42 -108 59zM307 54
c114 0 178 84 178 209c0 121 -65 209 -178 209c-114 0 -179 -88 -179 -209c0 -125 64 -209 179 -209z" />
    <glyph glyph-name="ntilde" unicode="&#xf1;" horiz-adv-x="580" 
d="M77 0v446c0 24 0 55 -1 79h82v-75c27 44 81 89 171 89c120 0 180 -78 180 -211v-328h-83v302c0 105 -39 170 -129 170c-88 0 -137 -72 -137 -157v-315h-83zM220 613h-58c4 61 31 102 84 102c22 0 41 -7 72 -22c19 -9 37 -18 54 -18c20 0 28 14 33 40h56
c-4 -61 -32 -103 -81 -103c-26 0 -49 11 -67 19c-33 14 -45 21 -59 21c-20 0 -31 -13 -34 -39z" />
    <glyph glyph-name="ograve" unicode="&#xf2;" horiz-adv-x="618" 
d="M307 54c114 0 178 84 178 209c0 121 -65 209 -178 209c-114 0 -179 -88 -179 -209c0 -125 64 -209 179 -209zM307 -13c-168 0 -264 114 -264 275c0 160 102 277 266 277c163 0 266 -117 266 -277c0 -161 -100 -275 -268 -275zM307 596l-141 119h115l114 -119h-88z" />
    <glyph glyph-name="oacute" unicode="&#xf3;" horiz-adv-x="618" 
d="M307 54c114 0 178 84 178 209c0 121 -65 209 -178 209c-114 0 -179 -88 -179 -209c0 -125 64 -209 179 -209zM307 -13c-168 0 -264 114 -264 275c0 160 102 277 266 277c163 0 266 -117 266 -277c0 -161 -100 -275 -268 -275zM468 715l-141 -119h-88l114 119h115z" />
    <glyph glyph-name="ocircumflex" unicode="&#xf4;" horiz-adv-x="618" 
d="M307 54c114 0 178 84 178 209c0 121 -65 209 -178 209c-114 0 -179 -88 -179 -209c0 -125 64 -209 179 -209zM307 -13c-168 0 -264 114 -264 275c0 160 102 277 266 277c163 0 266 -117 266 -277c0 -161 -100 -275 -268 -275zM267 715h89c30 -35 66 -83 97 -119h-78
l-64 68l-62 -68h-79c31 36 67 84 97 119z" />
    <glyph glyph-name="otilde" unicode="&#xf5;" horiz-adv-x="618" 
d="M307 54c114 0 178 84 178 209c0 121 -65 209 -178 209c-114 0 -179 -88 -179 -209c0 -125 64 -209 179 -209zM307 -13c-168 0 -264 114 -264 275c0 160 102 277 266 277c163 0 266 -117 266 -277c0 -161 -100 -275 -268 -275zM222 613h-58c4 61 31 102 84 102
c22 0 41 -7 72 -22c19 -9 37 -18 54 -18c20 0 28 14 33 40h56c-4 -61 -32 -103 -81 -103c-26 0 -49 11 -67 19c-33 14 -45 21 -59 21c-20 0 -31 -13 -34 -39z" />
    <glyph glyph-name="odieresis" unicode="&#xf6;" horiz-adv-x="618" 
d="M307 54c114 0 178 84 178 209c0 121 -65 209 -178 209c-114 0 -179 -88 -179 -209c0 -125 64 -209 179 -209zM307 -13c-168 0 -264 114 -264 275c0 160 102 277 266 277c163 0 266 -117 266 -277c0 -161 -100 -275 -268 -275zM185 609v90h89v-90h-89zM345 609v90h88v-90
h-88z" />
    <glyph glyph-name="divide" unicode="&#xf7;" 
d="M59 289v65h442v-65h-442zM233 95v111h88v-111h-88zM233 437v111h88v-111h-88z" />
    <glyph glyph-name="oslash" unicode="&#xf8;" horiz-adv-x="618" 
d="M307 -13c-39 0 -74 6 -105 17l-42 -74l-65 36l42 74c-61 49 -94 127 -94 222c0 160 102 277 266 277c37 0 71 -7 101 -18l39 68l66 -36l-39 -68c63 -50 99 -129 99 -223c0 -161 -100 -275 -268 -275zM128 263c0 -64 17 -118 48 -154l199 350c-20 8 -43 13 -68 13
c-114 0 -179 -88 -179 -209zM307 54c114 0 178 84 178 209c0 61 -17 115 -49 152l-199 -349c21 -8 44 -12 70 -12z" />
    <glyph glyph-name="ugrave" unicode="&#xf9;" horiz-adv-x="572" 
d="M495 525v-445c0 -27 0 -53 1 -80h-82v72c-25 -42 -74 -86 -165 -86c-121 0 -178 78 -178 211v328h83v-303c0 -103 38 -169 127 -169c86 0 131 73 131 156v316h83zM279 596l-141 119h115l114 -119h-88z" />
    <glyph glyph-name="uacute" unicode="&#xfa;" horiz-adv-x="572" 
d="M495 525v-445c0 -27 0 -53 1 -80h-82v72c-25 -42 -74 -86 -165 -86c-121 0 -178 78 -178 211v328h83v-303c0 -103 38 -169 127 -169c86 0 131 73 131 156v316h83zM435 715l-141 -119h-88l114 119h115z" />
    <glyph glyph-name="ucircumflex" unicode="&#xfb;" horiz-adv-x="572" 
d="M495 525v-445c0 -27 0 -53 1 -80h-82v72c-25 -42 -74 -86 -165 -86c-121 0 -178 78 -178 211v328h83v-303c0 -103 38 -169 127 -169c86 0 131 73 131 156v316h83zM248 715h89c30 -35 66 -83 97 -119h-78l-64 68l-62 -68h-79c31 36 67 84 97 119z" />
    <glyph glyph-name="udieresis" unicode="&#xfc;" horiz-adv-x="572" 
d="M495 525v-445c0 -27 0 -53 1 -80h-82v72c-25 -42 -74 -86 -165 -86c-121 0 -178 78 -178 211v328h83v-303c0 -103 38 -169 127 -169c86 0 131 73 131 156v316h83zM168 609v90h89v-90h-89zM328 609v90h88v-90h-88z" />
    <glyph glyph-name="yacute" unicode="&#xfd;" horiz-adv-x="519" 
d="M228 -180h-83l73 177c-60 159 -139 363 -202 528h93c58 -167 116 -327 153 -430c32 87 114 306 157 430h86c-92 -232 -179 -465 -277 -705zM421 715l-141 -119h-88l114 119h115z" />
    <glyph glyph-name="thorn" unicode="&#xfe;" horiz-adv-x="626" 
d="M77 715h83v-120c0 -60 0 -101 -2 -152c30 48 91 96 185 96c144 0 240 -111 240 -273c0 -169 -103 -279 -246 -279c-87 0 -147 42 -179 87c1 -28 2 -74 2 -134v-120h-83v895zM325 54c108 0 168 82 168 209c0 122 -61 209 -168 209c-109 0 -167 -87 -167 -209
c0 -127 58 -209 167 -209z" />
    <glyph glyph-name="ydieresis" unicode="&#xff;" horiz-adv-x="519" 
d="M228 -180h-83l73 177c-60 159 -139 363 -202 528h93c58 -167 116 -327 153 -430c32 87 114 306 157 430h86c-92 -232 -179 -465 -277 -705zM140 609v90h89v-90h-89zM300 609v90h88v-90h-88z" />
    <glyph glyph-name="Amacron" unicode="&#x100;" horiz-adv-x="687" 
d="M-2 0l291 715h110l288 -715h-90l-90 225h-336l-89 -225h-84zM340 649c-38 -98 -85 -210 -115 -287l-28 -68h283l-30 77c-35 92 -74 183 -108 278h-2zM220 785v53h244v-53h-244z" />
    <glyph glyph-name="amacron" unicode="&#x101;" horiz-adv-x="548" 
d="M63 366c0 98 85 173 212 173c136 0 203 -64 203 -227c0 -21 -1 -55 -1 -79v-129c0 -44 3 -80 10 -104h-76c-4 22 -7 46 -7 81c-33 -53 -86 -91 -181 -91c-107 0 -184 55 -184 151c0 102 94 139 222 159c43 7 96 14 138 17c0 112 -39 157 -128 157
c-84 0 -122 -41 -129 -108h-79zM400 233c0 15 0 21 1 26l-44 -6c-150 -22 -231 -36 -231 -111c0 -59 46 -94 117 -94c101 0 157 64 157 185zM156 628v53h244v-53h-244z" />
    <glyph glyph-name="Abreve" unicode="&#x102;" horiz-adv-x="687" 
d="M-2 0l291 715h110l288 -715h-90l-90 225h-336l-89 -225h-84zM340 649c-38 -98 -85 -210 -115 -287l-28 -68h283l-30 77c-35 92 -74 183 -108 278h-2zM342 823c48 0 66 29 73 56h63c-13 -73 -57 -110 -136 -110s-123 37 -136 110h63c7 -27 25 -56 73 -56z" />
    <glyph glyph-name="abreve" unicode="&#x103;" horiz-adv-x="548" 
d="M63 366c0 98 85 173 212 173c136 0 203 -64 203 -227c0 -21 -1 -55 -1 -79v-129c0 -44 3 -80 10 -104h-76c-4 22 -7 46 -7 81c-33 -53 -86 -91 -181 -91c-107 0 -184 55 -184 151c0 102 94 139 222 159c43 7 96 14 138 17c0 112 -39 157 -128 157
c-84 0 -122 -41 -129 -108h-79zM400 233c0 15 0 21 1 26l-44 -6c-150 -22 -231 -36 -231 -111c0 -59 46 -94 117 -94c101 0 157 64 157 185zM280 659c48 0 66 29 73 56h63c-13 -73 -57 -110 -136 -110s-123 37 -136 110h63c7 -27 25 -56 73 -56z" />
    <glyph glyph-name="Aogonek" unicode="&#x104;" horiz-adv-x="687" 
d="M-2 0l291 715h110l288 -715h-90l-90 225h-336l-89 -225h-84zM340 649c-38 -98 -85 -210 -115 -287l-28 -68h283l-30 77c-35 92 -74 183 -108 278h-2zM669 -48l94 -115h-102l-75 115h83z" />
    <glyph glyph-name="aogonek" unicode="&#x105;" horiz-adv-x="548" 
d="M63 366c0 98 85 173 212 173c136 0 203 -64 203 -227c0 -21 -1 -55 -1 -79v-129c0 -44 3 -80 10 -104h-76c-4 22 -7 46 -7 81c-33 -53 -86 -91 -181 -91c-107 0 -184 55 -184 151c0 102 94 139 222 159c43 7 96 14 138 17c0 112 -39 157 -128 157
c-84 0 -122 -41 -129 -108h-79zM400 233c0 15 0 21 1 26l-44 -6c-150 -22 -231 -36 -231 -111c0 -59 46 -94 117 -94c101 0 157 64 157 185zM462 -48l94 -115h-102l-75 115h83z" />
    <glyph glyph-name="Cacute" unicode="&#x106;" horiz-adv-x="764" 
d="M641 207h88c-50 -135 -165 -221 -329 -221c-209 0 -354 150 -354 371c0 219 147 372 359 372c165 0 279 -82 325 -229h-87c-34 90 -104 157 -239 157c-168 0 -266 -123 -266 -299c0 -175 98 -300 267 -300c133 0 199 70 236 149zM565 875l-138 -114h-88l111 114h115z" />
    <glyph glyph-name="cacute" unicode="&#x107;" horiz-adv-x="588" 
d="M469 166h81c-30 -100 -111 -179 -245 -179c-160 0 -262 108 -262 277c0 166 108 275 263 275c141 0 217 -82 245 -185h-82c-23 62 -70 118 -163 118c-112 0 -178 -88 -178 -209c0 -126 62 -209 178 -209c90 0 136 49 163 112zM471 715l-141 -119h-88l114 119h115z" />
    <glyph glyph-name="Ccircumflex" unicode="&#x108;" horiz-adv-x="764" 
d="M641 207h88c-50 -135 -165 -221 -329 -221c-209 0 -354 150 -354 371c0 219 147 372 359 372c165 0 279 -82 325 -229h-87c-34 90 -104 157 -239 157c-168 0 -266 -123 -266 -299c0 -175 98 -300 267 -300c133 0 199 70 236 149zM368 875h89l97 -114h-78l-64 66l-62 -66
h-79z" />
    <glyph glyph-name="ccircumflex" unicode="&#x109;" horiz-adv-x="588" 
d="M469 166h81c-30 -100 -111 -179 -245 -179c-160 0 -262 108 -262 277c0 166 108 275 263 275c141 0 217 -82 245 -185h-82c-23 62 -70 118 -163 118c-112 0 -178 -88 -178 -209c0 -126 62 -209 178 -209c90 0 136 49 163 112zM263 715h89c30 -35 66 -83 97 -119h-78
l-64 68l-62 -68h-79c31 36 67 84 97 119z" />
    <glyph glyph-name="Cdotaccent" unicode="&#x10a;" horiz-adv-x="764" 
d="M641 207h88c-50 -135 -165 -221 -329 -221c-209 0 -354 150 -354 371c0 219 147 372 359 372c165 0 279 -82 325 -229h-87c-34 90 -104 157 -239 157c-168 0 -266 -123 -266 -299c0 -175 98 -300 267 -300c133 0 199 70 236 149zM365 769v90h91v-90h-91z" />
    <glyph glyph-name="cdotaccent" unicode="&#x10b;" horiz-adv-x="588" 
d="M469 166h81c-30 -100 -111 -179 -245 -179c-160 0 -262 108 -262 277c0 166 108 275 263 275c141 0 217 -82 245 -185h-82c-23 62 -70 118 -163 118c-112 0 -178 -88 -178 -209c0 -126 62 -209 178 -209c90 0 136 49 163 112zM262 609v90h91v-90h-91z" />
    <glyph glyph-name="Ccaron" unicode="&#x10c;" horiz-adv-x="764" 
d="M641 207h88c-50 -135 -165 -221 -329 -221c-209 0 -354 150 -354 371c0 219 147 372 359 372c165 0 279 -82 325 -229h-87c-34 90 -104 157 -239 157c-168 0 -266 -123 -266 -299c0 -175 98 -300 267 -300c133 0 199 70 236 149zM453 761h-89l-97 114h79l62 -66l64 66h78
z" />
    <glyph glyph-name="ccaron" unicode="&#x10d;" horiz-adv-x="588" 
d="M469 166h81c-30 -100 -111 -179 -245 -179c-160 0 -262 108 -262 277c0 166 108 275 263 275c141 0 217 -82 245 -185h-82c-23 62 -70 118 -163 118c-112 0 -178 -88 -178 -209c0 -126 62 -209 178 -209c90 0 136 49 163 112zM352 596h-89c-30 35 -66 83 -97 119h79
l62 -68l64 68h78c-31 -36 -67 -84 -97 -119z" />
    <glyph glyph-name="Dcaron" unicode="&#x10e;" horiz-adv-x="717" 
d="M92 0v715h182c99 0 158 -14 213 -39c117 -54 182 -163 182 -320c0 -116 -40 -217 -121 -281c-60 -47 -132 -75 -259 -75h-197zM177 642v-569h90c197 0 308 74 308 284c0 187 -108 286 -297 286c-34 0 -68 0 -101 -1zM373 761h-89l-97 114h79l62 -66l64 66h78z" />
    <glyph glyph-name="dcaron" unicode="&#x10f;" horiz-adv-x="702" 
d="M549 715v-715h-77v80c-31 -47 -92 -93 -183 -93c-143 0 -246 101 -246 276c0 162 102 276 240 276c97 0 154 -46 184 -95c-1 36 -1 82 -1 116v155h83zM301 54c109 0 167 82 167 209c0 122 -58 208 -167 208c-107 0 -168 -86 -168 -208c0 -127 60 -209 168 -209zM774 715
l-81 -232h-71l65 232h87z" />
    <glyph glyph-name="Dcroat" unicode="&#x110;" horiz-adv-x="718" 
d="M11 327v71h82v317h182c99 0 158 -14 213 -39c117 -54 182 -163 182 -320c0 -116 -40 -217 -121 -281c-60 -47 -132 -75 -259 -75h-197v327h-82zM178 642v-244h147v-71h-147v-254h90c197 0 308 74 308 284c0 187 -108 286 -297 286c-34 0 -68 0 -101 -1z" />
    <glyph glyph-name="dcroat" unicode="&#x111;" horiz-adv-x="626" 
d="M549 715v-68h67v-60h-67v-587h-77v80c-31 -47 -92 -93 -183 -93c-143 0 -246 101 -246 276c0 162 102 276 240 276c97 0 154 -46 184 -95c-1 36 -1 82 -1 116v27h-80v60h80v68h83zM301 54c109 0 167 82 167 209c0 122 -58 208 -167 208c-107 0 -168 -86 -168 -208
c0 -127 60 -209 168 -209z" />
    <glyph glyph-name="Emacron" unicode="&#x112;" horiz-adv-x="589" 
d="M92 0v715h444v-74h-359v-237h335v-74h-335v-256h366v-74h-451zM196 785v53h244v-53h-244z" />
    <glyph glyph-name="emacron" unicode="&#x113;" horiz-adv-x="593" 
d="M555 249h-429c6 -124 75 -195 182 -195c79 0 127 45 152 95h84c-33 -92 -118 -162 -238 -162c-165 0 -263 115 -263 274c0 165 105 278 264 278c173 0 249 -132 249 -272c0 -10 -1 -15 -1 -18zM130 311h339c-10 95 -61 163 -164 163c-100 0 -162 -66 -175 -163zM183 628
v53h244v-53h-244z" />
    <glyph glyph-name="Ebreve" unicode="&#x114;" horiz-adv-x="589" 
d="M92 0v715h444v-74h-359v-237h335v-74h-335v-256h366v-74h-451zM326 823c48 0 66 29 73 56h63c-13 -73 -57 -110 -136 -110s-123 37 -136 110h63c7 -27 25 -56 73 -56z" />
    <glyph glyph-name="ebreve" unicode="&#x115;" horiz-adv-x="593" 
d="M555 249h-429c6 -124 75 -195 182 -195c79 0 127 45 152 95h84c-33 -92 -118 -162 -238 -162c-165 0 -263 115 -263 274c0 165 105 278 264 278c173 0 249 -132 249 -272c0 -10 -1 -15 -1 -18zM130 311h339c-10 95 -61 163 -164 163c-100 0 -162 -66 -175 -163zM305 659
c48 0 66 29 73 56h63c-13 -73 -57 -110 -136 -110s-123 37 -136 110h63c7 -27 25 -56 73 -56z" />
    <glyph glyph-name="Edotaccent" unicode="&#x116;" horiz-adv-x="589" 
d="M92 0v715h444v-74h-359v-237h335v-74h-335v-256h366v-74h-451zM270 769v90h91v-90h-91z" />
    <glyph glyph-name="edotaccent" unicode="&#x117;" horiz-adv-x="593" 
d="M555 249h-429c6 -124 75 -195 182 -195c79 0 127 45 152 95h84c-33 -92 -118 -162 -238 -162c-165 0 -263 115 -263 274c0 165 105 278 264 278c173 0 249 -132 249 -272c0 -10 -1 -15 -1 -18zM130 311h339c-10 95 -61 163 -164 163c-100 0 -162 -66 -175 -163zM261 609
v90h91v-90h-91z" />
    <glyph glyph-name="Eogonek" unicode="&#x118;" horiz-adv-x="589" 
d="M92 0v715h444v-74h-359v-237h335v-74h-335v-256h366v-74h-451zM356 -48l94 -115h-102l-75 115h83z" />
    <glyph glyph-name="eogonek" unicode="&#x119;" horiz-adv-x="593" 
d="M555 249h-429c6 -124 75 -195 182 -195c79 0 127 45 152 95h84c-33 -92 -118 -162 -238 -162c-165 0 -263 115 -263 274c0 165 105 278 264 278c173 0 249 -132 249 -272c0 -10 -1 -15 -1 -18zM130 311h339c-10 95 -61 163 -164 163c-100 0 -162 -66 -175 -163zM327 -48
l94 -115h-102l-75 115h83z" />
    <glyph glyph-name="Ecaron" unicode="&#x11a;" horiz-adv-x="589" 
d="M92 0v715h444v-74h-359v-237h335v-74h-335v-256h366v-74h-451zM361 761h-89l-97 114h79l62 -66l64 66h78z" />
    <glyph glyph-name="ecaron" unicode="&#x11b;" horiz-adv-x="593" 
d="M555 249h-429c6 -124 75 -195 182 -195c79 0 127 45 152 95h84c-33 -92 -118 -162 -238 -162c-165 0 -263 115 -263 274c0 165 105 278 264 278c173 0 249 -132 249 -272c0 -10 -1 -15 -1 -18zM130 311h339c-10 95 -61 163 -164 163c-100 0 -162 -66 -175 -163zM350 596
h-89c-30 35 -66 83 -97 119h79l62 -68l64 68h78c-31 -36 -67 -84 -97 -119z" />
    <glyph glyph-name="Gcircumflex" unicode="&#x11c;" horiz-adv-x="790" 
d="M371 368h358v-368h-79v56l1 60c-30 -52 -110 -130 -259 -130c-199 0 -346 144 -346 371c0 214 140 372 359 372c181 0 285 -98 324 -227h-85c-34 76 -92 155 -240 155c-159 0 -266 -110 -266 -298c0 -184 104 -301 264 -301c174 0 249 125 253 236h-284v74zM369 875h89
l97 -114h-78l-64 66l-62 -66h-79z" />
    <glyph glyph-name="gcircumflex" unicode="&#x11d;" horiz-adv-x="625" 
d="M299 -122c116 0 169 83 169 213v34c-29 -52 -89 -101 -183 -101c-148 0 -241 108 -241 256c0 156 103 259 242 259c94 0 150 -42 182 -90c0 0 -1 44 -1 76h82v-421c0 -175 -79 -293 -257 -293c-126 0 -207 84 -231 172h85c17 -48 56 -105 153 -105zM301 91
c93 0 167 71 167 193c0 111 -64 187 -167 187c-105 0 -167 -78 -167 -190c0 -108 60 -190 167 -190zM269 715h89c30 -35 66 -83 97 -119h-78l-64 68l-62 -68h-79c31 36 67 84 97 119z" />
    <glyph glyph-name="Gbreve" unicode="&#x11e;" horiz-adv-x="790" 
d="M371 368h358v-368h-79v56l1 60c-30 -52 -110 -130 -259 -130c-199 0 -346 144 -346 371c0 214 140 372 359 372c181 0 285 -98 324 -227h-85c-34 76 -92 155 -240 155c-159 0 -266 -110 -266 -298c0 -184 104 -301 264 -301c174 0 249 125 253 236h-284v74zM410 823
c48 0 66 29 73 56h63c-13 -73 -57 -110 -136 -110s-123 37 -136 110h63c7 -27 25 -56 73 -56z" />
    <glyph glyph-name="gbreve" unicode="&#x11f;" horiz-adv-x="625" 
d="M299 -122c116 0 169 83 169 213v34c-29 -52 -89 -101 -183 -101c-148 0 -241 108 -241 256c0 156 103 259 242 259c94 0 150 -42 182 -90c0 0 -1 44 -1 76h82v-421c0 -175 -79 -293 -257 -293c-126 0 -207 84 -231 172h85c17 -48 56 -105 153 -105zM301 91
c93 0 167 71 167 193c0 111 -64 187 -167 187c-105 0 -167 -78 -167 -190c0 -108 60 -190 167 -190zM317 659c48 0 66 29 73 56h63c-13 -73 -57 -110 -136 -110s-123 37 -136 110h63c7 -27 25 -56 73 -56z" />
    <glyph glyph-name="Gdotaccent" unicode="&#x120;" horiz-adv-x="790" 
d="M371 368h358v-368h-79v56l1 60c-30 -52 -110 -130 -259 -130c-199 0 -346 144 -346 371c0 214 140 372 359 372c181 0 285 -98 324 -227h-85c-34 76 -92 155 -240 155c-159 0 -266 -110 -266 -298c0 -184 104 -301 264 -301c174 0 249 125 253 236h-284v74zM366 769v90
h91v-90h-91z" />
    <glyph glyph-name="gdotaccent" unicode="&#x121;" horiz-adv-x="625" 
d="M299 -122c116 0 169 83 169 213v34c-29 -52 -89 -101 -183 -101c-148 0 -241 108 -241 256c0 156 103 259 242 259c94 0 150 -42 182 -90c0 0 -1 44 -1 76h82v-421c0 -175 -79 -293 -257 -293c-126 0 -207 84 -231 172h85c17 -48 56 -105 153 -105zM301 91
c93 0 167 71 167 193c0 111 -64 187 -167 187c-105 0 -167 -78 -167 -190c0 -108 60 -190 167 -190zM258 609v90h91v-90h-91z" />
    <glyph glyph-name="Gcommaaccent" unicode="&#x122;" horiz-adv-x="790" 
d="M371 368h358v-368h-79v56l1 60c-30 -52 -110 -130 -259 -130c-199 0 -346 144 -346 371c0 214 140 372 359 372c181 0 285 -98 324 -227h-85c-34 76 -92 155 -240 155c-159 0 -266 -110 -266 -298c0 -184 104 -301 264 -301c174 0 249 125 253 236h-284v74zM275 -163
l94 115h83l-75 -115h-102z" />
    <glyph glyph-name="gcommaaccent" unicode="&#x123;" horiz-adv-x="625" 
d="M299 -122c116 0 169 83 169 213v34c-29 -52 -89 -101 -183 -101c-148 0 -241 108 -241 256c0 156 103 259 242 259c94 0 150 -42 182 -90c0 0 -1 44 -1 76h82v-421c0 -175 -79 -293 -257 -293c-126 0 -207 84 -231 172h85c17 -48 56 -105 153 -105zM301 91
c93 0 167 71 167 193c0 111 -64 187 -167 187c-105 0 -167 -78 -167 -190c0 -108 60 -190 167 -190zM430 715l-94 -115h-83l75 115h102z" />
    <glyph glyph-name="Hcircumflex" unicode="&#x124;" horiz-adv-x="701" 
d="M92 0v715h85v-312h347v312h85v-715h-85v330h-347v-330h-85zM307 875h89l97 -114h-78l-64 66l-62 -66h-79z" />
    <glyph glyph-name="hcircumflex" unicode="&#x125;" horiz-adv-x="580" 
d="M77 715h83v-168c0 -47 -2 -97 -2 -97c27 44 81 89 171 89c120 0 180 -78 180 -211v-328h-83v302c0 105 -39 170 -129 170c-88 0 -137 -72 -137 -157v-315h-83v715zM78 875h89l97 -114h-78l-64 66l-62 -66h-79z" />
    <glyph glyph-name="Hbar" unicode="&#x126;" horiz-adv-x="701" 
d="M92 0v715h85v-98h347v98h85v-715h-85v330h-347v-330h-85zM177 403h347v140h-347v-140z" />
    <glyph glyph-name="hbar" unicode="&#x127;" horiz-adv-x="580" 
d="M240 647v-60h-80v-40c0 -47 -2 -97 -2 -97c27 44 81 89 171 89c120 0 180 -78 180 -211v-328h-83v302c0 105 -39 170 -129 170c-88 0 -137 -72 -137 -157v-315h-83v587h-67v60h67v68h83v-68h80z" />
    <glyph glyph-name="Itilde" unicode="&#x128;" horiz-adv-x="269" 
d="M92 0v715h85v-715h-85zM48 765h-58c4 61 31 102 84 102c22 0 41 -7 72 -22c19 -9 37 -18 54 -18c20 0 28 14 33 40h56c-4 -61 -32 -103 -81 -103c-26 0 -49 11 -67 19c-33 14 -45 21 -59 21c-20 0 -31 -13 -34 -39z" />
    <glyph glyph-name="itilde" unicode="&#x129;" horiz-adv-x="235" 
d="M77 525h81v-525h-81v525zM32 613h-58c4 61 31 102 84 102c22 0 41 -7 72 -22c19 -9 37 -18 54 -18c20 0 28 14 33 40h56c-4 -61 -32 -103 -81 -103c-26 0 -49 11 -67 19c-33 14 -45 21 -59 21c-20 0 -31 -13 -34 -39z" />
    <glyph glyph-name="Imacron" unicode="&#x12a;" horiz-adv-x="269" 
d="M92 0v715h85v-715h-85zM14 785v53h244v-53h-244z" />
    <glyph glyph-name="imacron" unicode="&#x12b;" horiz-adv-x="235" 
d="M77 525h81v-525h-81v525zM-5 628v53h244v-53h-244z" />
    <glyph glyph-name="Ibreve" unicode="&#x12c;" horiz-adv-x="269" 
d="M92 0v715h85v-715h-85zM135 823c48 0 66 29 73 56h63c-13 -73 -57 -110 -136 -110s-123 37 -136 110h63c7 -27 25 -56 73 -56z" />
    <glyph glyph-name="ibreve" unicode="&#x12d;" horiz-adv-x="235" 
d="M77 525h81v-525h-81v525zM119 659c48 0 66 29 73 56h63c-13 -73 -57 -110 -136 -110s-123 37 -136 110h63c7 -27 25 -56 73 -56z" />
    <glyph glyph-name="Iogonek" unicode="&#x12e;" horiz-adv-x="269" 
d="M92 0v715h85v-715h-85zM171 -48l94 -115h-105l-75 115h86z" />
    <glyph glyph-name="iogonek" unicode="&#x12f;" horiz-adv-x="235" 
d="M160 614h-85v101h85v-101zM77 525h81v-525h-81v525zM153 -48l94 -115h-102l-75 115h83z" />
    <glyph glyph-name="Idotaccent" unicode="&#x130;" horiz-adv-x="269" 
d="M92 0v715h85v-715h-85zM89 769v90h91v-90h-91z" />
    <glyph glyph-name="dotlessi" unicode="&#x131;" horiz-adv-x="235" 
d="M77 525h81v-525h-81v525z" />
    <glyph glyph-name="IJ" unicode="&#x132;" horiz-adv-x="747" 
d="M92 0v715h85v-715h-85zM297 173h83c1 -67 21 -119 95 -119c89 0 101 77 101 179v482h85v-515c0 -125 -51 -214 -188 -214c-119 0 -175 65 -176 187z" />
    <glyph glyph-name="ij" unicode="&#x133;" horiz-adv-x="472" 
d="M160 614h-85v101h85v-101zM77 525h81v-525h-81v525zM300 -109c8 11 12 25 12 53v581h83v-566c0 -69 -12 -102 -33 -124c-26 -27 -67 -33 -107 -33c-16 0 -31 2 -39 4v65s7 -1 20 -1c29 0 52 5 64 21zM397 614h-85v101h85v-101z" />
    <glyph glyph-name="Jcircumflex" unicode="&#x134;" horiz-adv-x="478" 
d="M28 173h83c1 -67 21 -119 95 -119c89 0 101 77 101 179v482h85v-515c0 -125 -51 -214 -188 -214c-119 0 -175 65 -176 187zM304 875h89l97 -114h-78l-64 66l-62 -66h-79z" />
    <glyph glyph-name="jcircumflex" unicode="&#x135;" horiz-adv-x="237" 
d="M65 -109c8 11 12 25 12 53v581h83v-566c0 -69 -12 -102 -33 -124c-26 -27 -67 -33 -107 -33c-16 0 -31 2 -39 4v65s7 -1 20 -1c29 0 52 5 64 21zM78 715h89c30 -35 66 -83 97 -119h-78l-64 68l-62 -68h-79c31 36 67 84 97 119z" />
    <glyph glyph-name="Kcommaaccent" unicode="&#x136;" horiz-adv-x="585" 
d="M92 0v715h86v-328c132 147 235 255 301 328h107l-316 -329c102 -125 219 -260 324 -386h-107c-63 73 -170 198 -309 368v-368h-86zM182 -163l94 115h83l-75 -115h-102z" />
    <glyph glyph-name="kcommaaccent" unicode="&#x137;" horiz-adv-x="501" 
d="M496 0h-111c-63 80 -225 268 -225 268v-268h-83v715h83v-429s150 168 211 239h102c-94 -102 -226 -239 -226 -239zM133 -163l94 115h83l-75 -115h-102z" />
    <glyph glyph-name="kgreenlandic" unicode="&#x138;" horiz-adv-x="501" 
d="M496 0h-111c-63 80 -225 268 -225 268v-268h-83v525h83v-239s150 168 211 239h102c-94 -102 -226 -239 -226 -239z" />
    <glyph glyph-name="Lacute" unicode="&#x139;" horiz-adv-x="529" 
d="M92 715h85v-641h322v-74h-407v715zM330 875l-138 -114h-88l111 114h115z" />
    <glyph glyph-name="lacute" unicode="&#x13a;" horiz-adv-x="245" 
d="M81 0v715h83v-715h-83zM299 875l-138 -114h-88l111 114h115z" />
    <glyph glyph-name="Lcommaaccent" unicode="&#x13b;" horiz-adv-x="529" 
d="M92 715h85v-641h322v-74h-407v715zM180 -163l94 115h83l-75 -115h-102z" />
    <glyph glyph-name="lcommaaccent" unicode="&#x13c;" horiz-adv-x="245" 
d="M81 0v715h83v-715h-83zM-4 -163l94 115h83l-75 -115h-102z" />
    <glyph glyph-name="Lcaron" unicode="&#x13d;" horiz-adv-x="529" 
d="M92 715h85v-641h322v-74h-407v715zM432 715l-81 -232h-71l65 232h87z" />
    <glyph glyph-name="lcaron" unicode="&#x13e;" horiz-adv-x="313" 
d="M81 0v715h83v-715h-83zM385 715l-81 -232h-71l65 232h87z" />
    <glyph glyph-name="Ldot" unicode="&#x13f;" horiz-adv-x="529" 
d="M92 715h85v-641h322v-74h-407v715zM283 261v111h88v-111h-88z" />
    <glyph glyph-name="ldot" unicode="&#x140;" horiz-adv-x="355" 
d="M81 0v715h83v-715h-83zM256 261v111h88v-111h-88z" />
    <glyph glyph-name="Lslash" unicode="&#x141;" horiz-adv-x="536" 
d="M99 715h85v-290l136 89v-82l-136 -88v-270h322v-74h-407v288l-78 -52v82l78 52v345z" />
    <glyph glyph-name="lslash" unicode="&#x142;" horiz-adv-x="262" 
d="M90 0v313l-72 -47v81l72 47v321h83v-267l81 54v-81l-81 -54v-367h-83z" />
    <glyph glyph-name="Nacute" unicode="&#x143;" horiz-adv-x="736" 
d="M644 0h-123l-238 428c-41 75 -94 168 -105 195h-2c0 -39 1 -208 1 -271v-352h-85v715h129l243 -441l98 -181h2c0 41 -3 140 -3 209v413h83v-715zM535 875l-138 -114h-88l111 114h115z" />
    <glyph glyph-name="nacute" unicode="&#x144;" horiz-adv-x="580" 
d="M77 0v446c0 24 0 55 -1 79h82v-75c27 44 81 89 171 89c120 0 180 -78 180 -211v-328h-83v302c0 105 -39 170 -129 170c-88 0 -137 -72 -137 -157v-315h-83zM473 715l-141 -119h-88l114 119h115z" />
    <glyph glyph-name="Ncommaaccent" unicode="&#x145;" horiz-adv-x="736" 
d="M644 0h-123l-238 428c-41 75 -94 168 -105 195h-2c0 -39 1 -208 1 -271v-352h-85v715h129l243 -441l98 -181h2c0 41 -3 140 -3 209v413h83v-715zM413 -48l-94 -115h-83l75 115h102z" />
    <glyph glyph-name="ncommaaccent" unicode="&#x146;" horiz-adv-x="580" 
d="M77 0v446c0 24 0 55 -1 79h82v-75c27 44 81 89 171 89c120 0 180 -78 180 -211v-328h-83v302c0 105 -39 170 -129 170c-88 0 -137 -72 -137 -157v-315h-83zM356 -48l-94 -115h-83l75 115h102z" />
    <glyph glyph-name="Ncaron" unicode="&#x147;" horiz-adv-x="736" 
d="M644 0h-123l-238 428c-41 75 -94 168 -105 195h-2c0 -39 1 -208 1 -271v-352h-85v715h129l243 -441l98 -181h2c0 41 -3 140 -3 209v413h83v-715zM430 761h-89l-97 114h79l62 -66l64 66h78z" />
    <glyph glyph-name="ncaron" unicode="&#x148;" horiz-adv-x="580" 
d="M77 0v446c0 24 0 55 -1 79h82v-75c27 44 81 89 171 89c120 0 180 -78 180 -211v-328h-83v302c0 105 -39 170 -129 170c-88 0 -137 -72 -137 -157v-315h-83zM361 596h-89c-30 35 -66 83 -97 119h79l62 -68l64 68h78c-31 -36 -67 -84 -97 -119z" />
    <glyph glyph-name="napostrophe" unicode="&#x149;" horiz-adv-x="649" 
d="M146 0v446c0 24 0 55 -1 79h82v-75c27 44 81 89 171 89c120 0 180 -78 180 -211v-328h-83v302c0 105 -39 170 -129 170c-88 0 -137 -72 -137 -157v-315h-83zM148 715l-81 -232h-71l65 232h87z" />
    <glyph glyph-name="Eng" unicode="&#x14a;" horiz-adv-x="736" 
d="M644 715v-693c0 -127 -51 -214 -188 -214c-119 0 -175 65 -176 187h83c1 -67 23 -119 97 -119c72 0 95 51 99 124h-38l-238 428c-41 75 -94 168 -105 195h-2c0 -39 1 -208 1 -271v-352h-85v715h129l243 -441c38 -69 98 -182 98 -182h2c0 41 -3 141 -3 210v413h83z" />
    <glyph glyph-name="eng" unicode="&#x14b;" horiz-adv-x="580" 
d="M414 -109c8 11 12 25 12 53v358c0 105 -39 170 -129 170c-88 0 -137 -72 -137 -157v-315h-83v446c0 24 0 55 -1 79h82v-75c27 44 81 89 171 89c120 0 180 -78 180 -211v-369c0 -69 -12 -102 -33 -124c-26 -27 -67 -33 -107 -33c-16 0 -31 2 -39 4v65s7 -1 20 -1
c29 0 52 5 64 21z" />
    <glyph glyph-name="Omacron" unicode="&#x14c;" horiz-adv-x="809" 
d="M404 729c214 0 359 -151 359 -372c0 -220 -141 -371 -358 -371c-215 0 -359 151 -359 371s145 372 358 372zM403 658c-167 0 -266 -123 -266 -300c0 -176 100 -301 267 -301c164 0 265 124 265 301c0 179 -99 300 -266 300zM276 785v53h244v-53h-244z" />
    <glyph glyph-name="omacron" unicode="&#x14d;" horiz-adv-x="618" 
d="M307 54c114 0 178 84 178 209c0 121 -65 209 -178 209c-114 0 -179 -88 -179 -209c0 -125 64 -209 179 -209zM307 -13c-168 0 -264 114 -264 275c0 160 102 277 266 277c163 0 266 -117 266 -277c0 -161 -100 -275 -268 -275zM186 628v53h244v-53h-244z" />
    <glyph glyph-name="Obreve" unicode="&#x14e;" horiz-adv-x="809" 
d="M404 729c214 0 359 -151 359 -372c0 -220 -141 -371 -358 -371c-215 0 -359 151 -359 371s145 372 358 372zM403 658c-167 0 -266 -123 -266 -300c0 -176 100 -301 267 -301c164 0 265 124 265 301c0 179 -99 300 -266 300zM396 823c48 0 66 29 73 56h63
c-13 -73 -57 -110 -136 -110s-123 37 -136 110h63c7 -27 25 -56 73 -56z" />
    <glyph glyph-name="obreve" unicode="&#x14f;" horiz-adv-x="618" 
d="M307 54c114 0 178 84 178 209c0 121 -65 209 -178 209c-114 0 -179 -88 -179 -209c0 -125 64 -209 179 -209zM307 -13c-168 0 -264 114 -264 275c0 160 102 277 266 277c163 0 266 -117 266 -277c0 -161 -100 -275 -268 -275zM307 659c48 0 66 29 73 56h63
c-13 -73 -57 -110 -136 -110s-123 37 -136 110h63c7 -27 25 -56 73 -56z" />
    <glyph glyph-name="Ohungarumlaut" unicode="&#x150;" horiz-adv-x="809" 
d="M404 729c214 0 359 -151 359 -372c0 -220 -141 -371 -358 -371c-215 0 -359 151 -359 371s145 372 358 372zM403 658c-167 0 -266 -123 -266 -300c0 -176 100 -301 267 -301c164 0 265 124 265 301c0 179 -99 300 -266 300zM475 875l-138 -114h-86l111 114h113zM661 875
l-138 -114h-86l111 114h113z" />
    <glyph glyph-name="ohungarumlaut" unicode="&#x151;" horiz-adv-x="618" 
d="M307 54c114 0 178 84 178 209c0 121 -65 209 -178 209c-114 0 -179 -88 -179 -209c0 -125 64 -209 179 -209zM307 -13c-168 0 -264 114 -264 275c0 160 102 277 266 277c163 0 266 -117 266 -277c0 -161 -100 -275 -268 -275zM383 715l-141 -119h-86l114 119h113z
M569 715l-141 -119h-86l114 119h113z" />
    <glyph glyph-name="OE" unicode="&#x152;" horiz-adv-x="1160" 
d="M663 0v97c-36 -39 -112 -111 -270 -111c-205 0 -347 156 -347 370c0 215 141 371 356 371c146 0 220 -61 261 -100v88h444v-74h-359v-237h335v-74h-335v-256h366v-74h-451zM403 658c-167 0 -266 -123 -266 -300c0 -176 100 -301 267 -301c164 0 265 124 265 301
c0 179 -99 300 -266 300z" />
    <glyph glyph-name="oe" unicode="&#x153;" horiz-adv-x="1028" 
d="M990 249h-429c6 -124 75 -195 182 -195c79 0 127 45 152 95h84c-33 -92 -118 -162 -238 -162c-98 0 -173 42 -217 109c-44 -67 -120 -109 -219 -109c-168 0 -262 114 -262 275c0 160 100 277 264 277c97 0 173 -44 218 -113c45 69 121 113 217 113
c173 0 249 -132 249 -272c0 -10 -1 -15 -1 -18zM305 54c114 0 176 84 176 209c0 121 -63 209 -176 209c-114 0 -177 -88 -177 -209c0 -125 62 -209 177 -209zM565 311h339c-10 95 -61 163 -164 163c-100 0 -162 -66 -175 -163z" />
    <glyph glyph-name="Racute" unicode="&#x154;" horiz-adv-x="608" 
d="M92 0v715h203c72 0 137 -6 186 -40c54 -35 82 -92 82 -163c0 -126 -87 -182 -182 -199c57 -95 132 -216 190 -313h-103l-176 301h-115v-301h-85zM177 643v-272h117c54 0 96 9 126 30c33 22 51 56 51 107c0 58 -24 95 -66 115c-29 14 -66 20 -111 20h-117zM452 875
l-138 -114h-88l111 114h115z" />
    <glyph glyph-name="racute" unicode="&#x155;" horiz-adv-x="320" 
d="M155 525v-85c18 55 73 97 133 97c5 0 11 0 16 -1v-79c-8 2 -23 3 -34 3c-81 0 -110 -68 -110 -173v-287h-83v446c0 24 0 55 -1 79h79zM308 715l-141 -119h-88l114 119h115z" />
    <glyph glyph-name="Rcommaaccent" unicode="&#x156;" horiz-adv-x="608" 
d="M92 0v715h203c72 0 137 -6 186 -40c54 -35 82 -92 82 -163c0 -126 -87 -182 -182 -199c57 -95 132 -216 190 -313h-103l-176 301h-115v-301h-85zM177 643v-272h117c54 0 96 9 126 30c33 22 51 56 51 107c0 58 -24 95 -66 115c-29 14 -66 20 -111 20h-117zM193 -163
l94 115h83l-75 -115h-102z" />
    <glyph glyph-name="rcommaaccent" unicode="&#x157;" horiz-adv-x="320" 
d="M155 525v-85c18 55 73 97 133 97c5 0 11 0 16 -1v-79c-8 2 -23 3 -34 3c-81 0 -110 -68 -110 -173v-287h-83v446c0 24 0 55 -1 79h79zM7 -163l94 115h83l-75 -115h-102z" />
    <glyph glyph-name="Rcaron" unicode="&#x158;" horiz-adv-x="608" 
d="M92 0v715h203c72 0 137 -6 186 -40c54 -35 82 -92 82 -163c0 -126 -87 -182 -182 -199c57 -95 132 -216 190 -313h-103l-176 301h-115v-301h-85zM177 643v-272h117c54 0 96 9 126 30c33 22 51 56 51 107c0 58 -24 95 -66 115c-29 14 -66 20 -111 20h-117zM349 761h-89
l-97 114h79l62 -66l64 66h78z" />
    <glyph glyph-name="rcaron" unicode="&#x159;" horiz-adv-x="320" 
d="M155 525v-85c18 55 73 97 133 97c5 0 11 0 16 -1v-79c-8 2 -23 3 -34 3c-81 0 -110 -68 -110 -173v-287h-83v446c0 24 0 55 -1 79h79zM189 596h-89c-30 35 -66 83 -97 119h79l62 -68l64 68h78c-31 -36 -67 -84 -97 -119z" />
    <glyph glyph-name="Sacute" unicode="&#x15a;" horiz-adv-x="603" 
d="M36 203h85c14 -94 76 -149 183 -149c103 0 166 51 166 131c0 85 -77 114 -166 142l-43 14c-124 39 -199 92 -199 201c0 112 90 187 240 187c145 0 230 -71 243 -199h-83c-16 89 -71 132 -163 132c-93 0 -149 -42 -149 -111c0 -76 58 -105 153 -137l49 -17
c117 -37 207 -83 207 -201c0 -132 -104 -210 -257 -210c-150 0 -251 77 -266 217zM463 875l-138 -114h-88l111 114h115z" />
    <glyph glyph-name="sacute" unicode="&#x15b;" horiz-adv-x="498" 
d="M35 159h81c19 -67 60 -106 139 -106c72 0 121 35 121 87s-43 67 -111 86l-62 17c-84 23 -149 54 -149 144c0 94 81 152 195 152c106 0 182 -46 198 -152h-78c-15 52 -53 87 -122 87c-72 0 -110 -33 -110 -76c0 -47 38 -66 105 -85l66 -19c90 -26 149 -61 149 -144
c0 -103 -85 -162 -204 -162c-115 0 -196 50 -218 171zM417 715l-141 -119h-88l114 119h115z" />
    <glyph glyph-name="Scircumflex" unicode="&#x15c;" horiz-adv-x="603" 
d="M36 203h85c14 -94 76 -149 183 -149c103 0 166 51 166 131c0 85 -77 114 -166 142l-43 14c-124 39 -199 92 -199 201c0 112 90 187 240 187c145 0 230 -71 243 -199h-83c-16 89 -71 132 -163 132c-93 0 -149 -42 -149 -111c0 -76 58 -105 153 -137l49 -17
c117 -37 207 -83 207 -201c0 -132 -104 -210 -257 -210c-150 0 -251 77 -266 217zM255 875h89l97 -114h-78l-64 66l-62 -66h-79z" />
    <glyph glyph-name="scircumflex" unicode="&#x15d;" horiz-adv-x="498" 
d="M35 159h81c19 -67 60 -106 139 -106c72 0 121 35 121 87s-43 67 -111 86l-62 17c-84 23 -149 54 -149 144c0 94 81 152 195 152c106 0 182 -46 198 -152h-78c-15 52 -53 87 -122 87c-72 0 -110 -33 -110 -76c0 -47 38 -66 105 -85l66 -19c90 -26 149 -61 149 -144
c0 -103 -85 -162 -204 -162c-115 0 -196 50 -218 171zM203 715h89c30 -35 66 -83 97 -119h-78l-64 68l-62 -68h-79c31 36 67 84 97 119z" />
    <glyph glyph-name="Scedilla" unicode="&#x15e;" horiz-adv-x="603" 
d="M36 203h85c14 -94 76 -149 183 -149c103 0 166 51 166 131c0 85 -77 114 -166 142l-43 14c-124 39 -199 92 -199 201c0 112 90 187 240 187c145 0 230 -71 243 -199h-83c-16 89 -71 132 -163 132c-93 0 -149 -42 -149 -111c0 -76 58 -105 153 -137l49 -17
c117 -37 207 -83 207 -201c0 -132 -104 -210 -257 -210c-150 0 -251 77 -266 217zM157 -163l94 115h86l-75 -115h-105z" />
    <glyph glyph-name="scedilla" unicode="&#x15f;" horiz-adv-x="498" 
d="M35 159h81c19 -67 60 -106 139 -106c72 0 121 35 121 87s-43 67 -111 86l-62 17c-84 23 -149 54 -149 144c0 94 81 152 195 152c106 0 182 -46 198 -152h-78c-15 52 -53 87 -122 87c-72 0 -110 -33 -110 -76c0 -47 38 -66 105 -85l66 -19c90 -26 149 -61 149 -144
c0 -103 -85 -162 -204 -162c-115 0 -196 50 -218 171zM116 -163l94 115h86l-75 -115h-105z" />
    <glyph glyph-name="Scaron" unicode="&#x160;" horiz-adv-x="603" 
d="M36 203h85c14 -94 76 -149 183 -149c103 0 166 51 166 131c0 85 -77 114 -166 142l-43 14c-124 39 -199 92 -199 201c0 112 90 187 240 187c145 0 230 -71 243 -199h-83c-16 89 -71 132 -163 132c-93 0 -149 -42 -149 -111c0 -76 58 -105 153 -137l49 -17
c117 -37 207 -83 207 -201c0 -132 -104 -210 -257 -210c-150 0 -251 77 -266 217zM356 761h-89l-97 114h79l62 -66l64 66h78z" />
    <glyph glyph-name="scaron" unicode="&#x161;" horiz-adv-x="498" 
d="M35 159h81c19 -67 60 -106 139 -106c72 0 121 35 121 87s-43 67 -111 86l-62 17c-84 23 -149 54 -149 144c0 94 81 152 195 152c106 0 182 -46 198 -152h-78c-15 52 -53 87 -122 87c-72 0 -110 -33 -110 -76c0 -47 38 -66 105 -85l66 -19c90 -26 149 -61 149 -144
c0 -103 -85 -162 -204 -162c-115 0 -196 50 -218 171zM302 596h-89c-30 35 -66 83 -97 119h79l62 -68l64 68h78c-31 -36 -67 -84 -97 -119z" />
    <glyph glyph-name="uni0162" unicode="&#x162;" horiz-adv-x="539" 
d="M140 -163l94 115h83l-75 -115h-102zM227 0v641h-200v74h485v-74h-200v-641h-85z" />
    <glyph glyph-name="uni0163" unicode="&#x163;" horiz-adv-x="303" 
d="M64 -163l94 115h83l-75 -115h-102zM98 463h-81v62h81v142h82v-142h100v-62h-100v-335c0 -53 25 -75 74 -75c5 0 8 0 16 1v-62c-9 -1 -19 -2 -28 -2c-87 0 -144 30 -144 131v342z" />
    <glyph glyph-name="Tcaron" unicode="&#x164;" horiz-adv-x="539" 
d="M227 0v641h-200v74h485v-74h-200v-641h-85zM317 761h-89l-97 114h79l62 -66l64 66h78z" />
    <glyph glyph-name="tcaron" unicode="&#x165;" horiz-adv-x="363" 
d="M98 463h-81v62h81v142h82v-142h100v-62h-100v-335c0 -53 25 -75 74 -75c5 0 8 0 16 1v-62c-9 -1 -19 -2 -28 -2c-87 0 -144 30 -144 131v342zM455 715l-81 -232h-71l65 232h87z" />
    <glyph glyph-name="Tbar" unicode="&#x166;" horiz-adv-x="562" 
d="M87 327v72h150v242h-200v74h485v-74h-200v-242h163v-72h-163v-327h-85v327h-150z" />
    <glyph glyph-name="tbar" unicode="&#x167;" horiz-adv-x="306" 
d="M28 290v60h72v113h-81v62h81v142h82v-142h100v-62h-100v-113h76v-60h-76v-162c0 -53 25 -75 74 -75c5 0 8 0 16 1v-62c-9 -1 -19 -2 -28 -2c-87 0 -144 30 -144 131v169h-72z" />
    <glyph glyph-name="Utilde" unicode="&#x168;" horiz-adv-x="689" 
d="M344 -14c-89 0 -171 34 -213 92c-36 51 -46 111 -46 193v444h85v-437c0 -62 3 -105 23 -143c26 -50 82 -80 151 -80c70 0 127 30 152 80c20 38 23 81 23 143v437h85v-444c0 -82 -10 -142 -46 -193c-42 -58 -127 -92 -214 -92zM262 765h-58c4 61 31 102 84 102
c22 0 41 -7 72 -22c19 -9 37 -18 54 -18c20 0 28 14 33 40h56c-4 -61 -32 -103 -81 -103c-26 0 -49 11 -67 19c-33 14 -45 21 -59 21c-20 0 -31 -13 -34 -39z" />
    <glyph glyph-name="utilde" unicode="&#x169;" horiz-adv-x="572" 
d="M495 525v-445c0 -27 0 -53 1 -80h-82v72c-25 -42 -74 -86 -165 -86c-121 0 -178 78 -178 211v328h83v-303c0 -103 38 -169 127 -169c86 0 131 73 131 156v316h83zM209 613h-58c4 61 31 102 84 102c22 0 41 -7 72 -22c19 -9 37 -18 54 -18c20 0 28 14 33 40h56
c-4 -61 -32 -103 -81 -103c-26 0 -49 11 -67 19c-33 14 -45 21 -59 21c-20 0 -31 -13 -34 -39z" />
    <glyph glyph-name="Umacron" unicode="&#x16a;" horiz-adv-x="689" 
d="M344 -14c-89 0 -171 34 -213 92c-36 51 -46 111 -46 193v444h85v-437c0 -62 3 -105 23 -143c26 -50 82 -80 151 -80c70 0 127 30 152 80c20 38 23 81 23 143v437h85v-444c0 -82 -10 -142 -46 -193c-42 -58 -127 -92 -214 -92zM222 785v53h244v-53h-244z" />
    <glyph glyph-name="umacron" unicode="&#x16b;" horiz-adv-x="572" 
d="M495 525v-445c0 -27 0 -53 1 -80h-82v72c-25 -42 -74 -86 -165 -86c-121 0 -178 78 -178 211v328h83v-303c0 -103 38 -169 127 -169c86 0 131 73 131 156v316h83zM171 628v53h244v-53h-244z" />
    <glyph glyph-name="Ubreve" unicode="&#x16c;" horiz-adv-x="689" 
d="M344 -14c-89 0 -171 34 -213 92c-36 51 -46 111 -46 193v444h85v-437c0 -62 3 -105 23 -143c26 -50 82 -80 151 -80c70 0 127 30 152 80c20 38 23 81 23 143v437h85v-444c0 -82 -10 -142 -46 -193c-42 -58 -127 -92 -214 -92zM343 823c48 0 66 29 73 56h63
c-13 -73 -57 -110 -136 -110s-123 37 -136 110h63c7 -27 25 -56 73 -56z" />
    <glyph glyph-name="ubreve" unicode="&#x16d;" horiz-adv-x="572" 
d="M495 525v-445c0 -27 0 -53 1 -80h-82v72c-25 -42 -74 -86 -165 -86c-121 0 -178 78 -178 211v328h83v-303c0 -103 38 -169 127 -169c86 0 131 73 131 156v316h83zM291 659c48 0 66 29 73 56h63c-13 -73 -57 -110 -136 -110s-123 37 -136 110h63c7 -27 25 -56 73 -56z" />
    <glyph glyph-name="Uring" unicode="&#x16e;" horiz-adv-x="689" 
d="M344 -14c-89 0 -171 34 -213 92c-36 51 -46 111 -46 193v444h85v-437c0 -62 3 -105 23 -143c26 -50 82 -80 151 -80c70 0 127 30 152 80c20 38 23 81 23 143v437h85v-444c0 -82 -10 -142 -46 -193c-42 -58 -127 -92 -214 -92zM343 748c-49 0 -87 39 -87 89
c0 48 39 87 88 87s88 -39 88 -87c0 -50 -39 -89 -89 -89zM297 837c0 -27 20 -49 46 -49c27 0 47 21 47 49c0 25 -20 47 -47 47c-26 0 -46 -22 -46 -47z" />
    <glyph glyph-name="uring" unicode="&#x16f;" horiz-adv-x="572" 
d="M495 525v-445c0 -27 0 -53 1 -80h-82v72c-25 -42 -74 -86 -165 -86c-121 0 -178 78 -178 211v328h83v-303c0 -103 38 -169 127 -169c86 0 131 73 131 156v316h83zM286 588c-49 0 -87 39 -87 89c0 48 39 87 88 87s88 -39 88 -87c0 -50 -39 -89 -89 -89zM240 677
c0 -27 20 -49 46 -49c27 0 47 21 47 49c0 25 -20 47 -47 47c-26 0 -46 -22 -46 -47z" />
    <glyph glyph-name="Uhungarumlaut" unicode="&#x170;" horiz-adv-x="689" 
d="M344 -14c-89 0 -171 34 -213 92c-36 51 -46 111 -46 193v444h85v-437c0 -62 3 -105 23 -143c26 -50 82 -80 151 -80c70 0 127 30 152 80c20 38 23 81 23 143v437h85v-444c0 -82 -10 -142 -46 -193c-42 -58 -127 -92 -214 -92zM415 875l-138 -114h-86l111 114h113z
M601 875l-138 -114h-86l111 114h113z" />
    <glyph glyph-name="uhungarumlaut" unicode="&#x171;" horiz-adv-x="572" 
d="M495 525v-445c0 -27 0 -53 1 -80h-82v72c-25 -42 -74 -86 -165 -86c-121 0 -178 78 -178 211v328h83v-303c0 -103 38 -169 127 -169c86 0 131 73 131 156v316h83zM356 715l-141 -119h-86l114 119h113zM542 715l-141 -119h-86l114 119h113z" />
    <glyph glyph-name="Uogonek" unicode="&#x172;" horiz-adv-x="689" 
d="M344 -14c-89 0 -171 34 -213 92c-36 51 -46 111 -46 193v444h85v-437c0 -62 3 -105 23 -143c26 -50 82 -80 151 -80c70 0 127 30 152 80c20 38 23 81 23 143v437h85v-444c0 -82 -10 -142 -46 -193c-42 -58 -127 -92 -214 -92zM368 -48l94 -115h-102l-75 115h83z" />
    <glyph glyph-name="uogonek" unicode="&#x173;" horiz-adv-x="572" 
d="M495 525v-445c0 -27 0 -53 1 -80h-82v72c-25 -42 -74 -86 -165 -86c-121 0 -178 78 -178 211v328h83v-303c0 -103 38 -169 127 -169c86 0 131 73 131 156v316h83zM311 -48l94 -115h-102l-75 115h83z" />
    <glyph glyph-name="Wcircumflex" unicode="&#x174;" horiz-adv-x="899" 
d="M870 715l-157 -715h-119l-84 391c-23 108 -40 180 -56 261h-2c-17 -82 -45 -202 -65 -290l-82 -362h-123l-151 715h92l84 -440c16 -83 26 -119 37 -203h3c14 83 25 120 44 202l102 441h127l95 -433c18 -82 28 -134 41 -207h2c13 73 26 124 42 208l84 432h86zM386 875h89
l97 -114h-78l-64 66l-62 -66h-79z" />
    <glyph glyph-name="wcircumflex" unicode="&#x175;" horiz-adv-x="815" 
d="M186 0c0 0 -109 355 -162 525h90l78 -272c17 -62 31 -109 51 -185h2c17 73 34 132 53 207l64 250h103l57 -238c16 -63 32 -137 52 -218h2c20 73 44 147 68 230l67 226h83c-55 -170 -166 -525 -166 -525h-111l-50 203c-20 82 -44 191 -54 239h-3
c-13 -55 -36 -157 -59 -243l-54 -199h-111zM370 715h89c30 -35 66 -83 97 -119h-78l-64 68l-62 -68h-79c31 36 67 84 97 119z" />
    <glyph glyph-name="Ycircumflex" unicode="&#x176;" horiz-adv-x="588" 
d="M251 0v275l-244 440h95c58 -113 140 -258 196 -362c84 155 143 258 197 362h89l-248 -440v-275h-85zM254 875h89l97 -114h-78l-64 66l-62 -66h-79z" />
    <glyph glyph-name="ycircumflex" unicode="&#x177;" horiz-adv-x="519" 
d="M228 -180h-83l73 177c-60 159 -139 363 -202 528h93c58 -167 116 -327 153 -430c32 87 114 306 157 430h86c-92 -232 -179 -465 -277 -705zM218 715h89c30 -35 66 -83 97 -119h-78l-64 68l-62 -68h-79c31 36 67 84 97 119z" />
    <glyph glyph-name="Ydieresis" unicode="&#x178;" horiz-adv-x="588" 
d="M251 0v275l-244 440h95c58 -113 140 -258 196 -362c84 155 143 258 197 362h89l-248 -440v-275h-85zM174 766v90h89v-90h-89zM334 766v90h88v-90h-88z" />
    <glyph glyph-name="Zacute" unicode="&#x179;" horiz-adv-x="570" 
d="M37 0v71c17 26 59 87 91 133l247 356c26 37 39 54 57 81h-391v74h487v-71c-15 -23 -42 -65 -84 -126l-237 -341c-22 -32 -58 -85 -72 -103h397v-74h-495zM437 875l-138 -114h-88l111 114h115z" />
    <glyph glyph-name="zacute" unicode="&#x17a;" horiz-adv-x="493" 
d="M36 0v62l231 289c38 47 73 90 87 109c-36 -1 -115 -1 -155 -1h-153v66h403v-67l-222 -274l-97 -119c38 0 106 1 151 1h173v-66h-418zM409 715l-141 -119h-88l114 119h115z" />
    <glyph glyph-name="Zdotaccent" unicode="&#x17b;" horiz-adv-x="570" 
d="M37 0v71c17 26 59 87 91 133l247 356c26 37 39 54 57 81h-391v74h487v-71c-15 -23 -42 -65 -84 -126l-237 -341c-22 -32 -58 -85 -72 -103h397v-74h-495zM240 769v90h91v-90h-91z" />
    <glyph glyph-name="zdotaccent" unicode="&#x17c;" horiz-adv-x="493" 
d="M36 0v62l231 289c38 47 73 90 87 109c-36 -1 -115 -1 -155 -1h-153v66h403v-67l-222 -274l-97 -119c38 0 106 1 151 1h173v-66h-418zM204 609v90h91v-90h-91z" />
    <glyph glyph-name="Zcaron" unicode="&#x17d;" horiz-adv-x="570" 
d="M37 0v71c17 26 59 87 91 133l247 356c26 37 39 54 57 81h-391v74h487v-71c-15 -23 -42 -65 -84 -126l-237 -341c-22 -32 -58 -85 -72 -103h397v-74h-495zM334 761h-89l-97 114h79l62 -66l64 66h78z" />
    <glyph glyph-name="zcaron" unicode="&#x17e;" horiz-adv-x="493" 
d="M36 0v62l231 289c38 47 73 90 87 109c-36 -1 -115 -1 -155 -1h-153v66h403v-67l-222 -274l-97 -119c38 0 106 1 151 1h173v-66h-418zM293 596h-89c-30 35 -66 83 -97 119h79l62 -68l64 68h78c-31 -36 -67 -84 -97 -119z" />
    <glyph glyph-name="uni0186" unicode="&#x186;" horiz-adv-x="764" 
d="M35 207h88c37 -79 103 -149 236 -149c169 0 267 125 267 300c0 176 -98 299 -266 299c-135 0 -205 -67 -239 -157h-87c46 147 160 229 325 229c212 0 359 -153 359 -372c0 -221 -145 -371 -354 -371c-164 0 -279 86 -329 221z" />
    <glyph glyph-name="uni018F" unicode="&#x18f;" horiz-adv-x="781" 
d="M38 379l607 3c-8 168 -113 277 -267 277c-151 0 -211 -91 -235 -151h-89c30 91 126 221 327 221c223 0 354 -158 354 -368c0 -213 -137 -375 -352 -375c-236 0 -345 169 -345 376v17zM645 317h-522c7 -166 106 -266 260 -266c169 0 254 136 262 266z" />
    <glyph glyph-name="uni0190" unicode="&#x190;" 
d="M443 206h89c-15 -146 -95 -221 -243 -221c-151 0 -243 91 -243 221c0 110 71 171 161 189c-79 26 -125 73 -125 163c0 100 78 171 204 171s213 -76 215 -191h-83c-5 85 -60 122 -129 122c-62 0 -117 -38 -117 -115c0 -92 55 -125 160 -125h5v-65h-26
c-97 0 -174 -40 -174 -148c0 -88 58 -154 151 -154c84 0 142 42 155 153z" />
    <glyph glyph-name="florin" unicode="&#x192;" horiz-adv-x="437" 
d="M52 421l9 60h117l2 10c23 157 67 231 200 231c12 0 26 -1 38 -3l-9 -67c-5 1 -14 2 -32 2c-80 0 -102 -60 -116 -158l-2 -15h121l-9 -60h-121l-50 -351c-28 -192 -73 -253 -203 -253c-14 0 -31 2 -42 4l9 65c7 -1 17 -2 28 -2c91 0 107 57 124 175l53 362h-117z" />
    <glyph glyph-name="uni019D" unicode="&#x19d;" horiz-adv-x="736" 
d="M80 -109c8 11 12 25 12 53v771h129l243 -441l98 -181h2c0 41 -3 140 -3 209v413h83v-715h-123l-238 428c-41 75 -94 168 -105 195h-2c0 -39 1 -208 1 -271v-393c0 -69 -12 -102 -33 -124c-26 -27 -67 -33 -107 -33c-16 0 -32 2 -40 4v65s6 -1 19 -1c29 0 52 5 64 21z" />
    <glyph glyph-name="uni019F" unicode="&#x19f;" horiz-adv-x="809" 
d="M404 729c214 0 359 -151 359 -372c0 -220 -141 -371 -358 -371c-215 0 -359 151 -359 371s145 372 358 372zM404 57c154 0 253 109 264 270h-530c11 -160 109 -270 266 -270zM403 658c-154 0 -251 -105 -265 -260h529c-13 157 -110 260 -264 260z" />
    <glyph glyph-name="Ohorn" unicode="&#x1a0;" horiz-adv-x="809" 
d="M404 729c214 0 359 -151 359 -372c0 -220 -141 -371 -358 -371c-215 0 -359 151 -359 371s145 372 358 372zM403 658c-167 0 -266 -123 -266 -300c0 -176 100 -301 267 -301c164 0 265 124 265 301c0 179 -99 300 -266 300zM717 906l-75 -191h-69l55 191h89z" />
    <glyph glyph-name="ohorn" unicode="&#x1a1;" horiz-adv-x="618" 
d="M307 54c114 0 178 84 178 209c0 121 -65 209 -178 209c-114 0 -179 -88 -179 -209c0 -125 64 -209 179 -209zM307 -13c-168 0 -264 114 -264 275c0 160 102 277 266 277c163 0 266 -117 266 -277c0 -161 -100 -275 -268 -275zM576 715l-75 -191h-69l55 191h89z" />
    <glyph glyph-name="Uhorn" unicode="&#x1af;" horiz-adv-x="689" 
d="M631 906l-75 -191h48v-444c0 -82 -10 -142 -46 -193c-42 -58 -127 -92 -214 -92c-89 0 -171 34 -213 92c-36 51 -46 111 -46 193v444h85v-437c0 -62 3 -105 23 -143c26 -50 82 -80 151 -80c70 0 127 30 152 80c20 38 23 81 23 143v437h-32l55 191h89z" />
    <glyph glyph-name="uhorn" unicode="&#x1b0;" horiz-adv-x="572" 
d="M527 715l-75 -190h43v-445c0 -27 0 -53 1 -80h-82v72c-25 -42 -74 -86 -165 -86c-121 0 -178 78 -178 211v328h83v-303c0 -103 38 -169 127 -169c86 0 131 73 131 156v315h-29l55 191h89z" />
    <glyph glyph-name="uni01C4" unicode="&#x1c4;" horiz-adv-x="1287" 
d="M92 0v715h182c99 0 158 -14 213 -39c117 -54 182 -163 182 -320c0 -116 -40 -217 -121 -281c-60 -47 -132 -75 -259 -75h-197zM177 642v-569h90c197 0 308 74 308 284c0 187 -108 286 -297 286c-34 0 -68 0 -101 -1zM754 0v71c17 26 59 87 91 133l247 356
c26 37 39 54 57 81h-391v74h487v-71c-15 -23 -42 -65 -84 -126l-237 -341c-22 -32 -58 -85 -72 -103h397v-74h-495zM1051 761h-89l-97 114h79l62 -66l64 66h78z" />
    <glyph glyph-name="uni01C5" unicode="&#x1c5;" horiz-adv-x="1210" 
d="M92 0v715h182c99 0 158 -14 213 -39c117 -54 182 -163 182 -320c0 -116 -40 -217 -121 -281c-60 -47 -132 -75 -259 -75h-197zM177 642v-569h90c197 0 308 74 308 284c0 187 -108 286 -297 286c-34 0 -68 0 -101 -1zM753 0v62l231 289c38 47 73 90 87 109
c-36 -1 -115 -1 -155 -1h-153v66h403v-67l-222 -274l-97 -119c38 0 106 1 151 1h173v-66h-418zM1010 596h-89c-30 35 -66 83 -97 119h79l62 -68l64 68h78c-31 -36 -67 -84 -97 -119z" />
    <glyph glyph-name="uni01C6" unicode="&#x1c6;" horiz-adv-x="1119" 
d="M549 715v-715h-77v80c-31 -47 -92 -93 -183 -93c-143 0 -246 101 -246 276c0 162 102 276 240 276c97 0 154 -46 184 -95c-1 36 -1 82 -1 116v155h83zM301 54c109 0 167 82 167 209c0 122 -58 208 -167 208c-107 0 -168 -86 -168 -208c0 -127 60 -209 168 -209zM662 0v62
l231 289c38 47 73 90 87 109c-36 -1 -115 -1 -155 -1h-153v66h403v-67l-222 -274l-97 -119c38 0 106 1 151 1h173v-66h-418zM919 596h-89c-30 35 -66 83 -97 119h79l62 -68l64 68h78c-31 -36 -67 -84 -97 -119z" />
    <glyph glyph-name="uni01C7" unicode="&#x1c7;" horiz-adv-x="1007" 
d="M92 715h85v-641h322v-74h-407v715zM557 173h83c1 -67 21 -119 95 -119c89 0 101 77 101 179v482h85v-515c0 -125 -51 -214 -188 -214c-119 0 -175 65 -176 187z" />
    <glyph glyph-name="uni01C8" unicode="&#x1c8;" horiz-adv-x="766" 
d="M92 715h85v-641h322v-74h-407v715zM594 -109c8 11 12 25 12 53v581h83v-566c0 -69 -12 -102 -33 -124c-26 -27 -67 -33 -107 -33c-16 0 -31 2 -39 4v65s7 -1 20 -1c29 0 52 5 64 21zM691 614h-85v101h85v-101z" />
    <glyph glyph-name="uni01C9" unicode="&#x1c9;" horiz-adv-x="482" 
d="M81 0v715h83v-715h-83zM310 -109c8 11 12 25 12 53v581h83v-566c0 -69 -12 -102 -33 -124c-26 -27 -67 -33 -107 -33c-16 0 -31 2 -39 4v65s7 -1 20 -1c29 0 52 5 64 21zM407 614h-85v101h85v-101z" />
    <glyph glyph-name="uni01CA" unicode="&#x1ca;" horiz-adv-x="1214" 
d="M644 0h-123l-238 428c-41 75 -94 168 -105 195h-2c0 -39 1 -208 1 -271v-352h-85v715h129l243 -441l98 -181h2c0 41 -3 140 -3 209v413h83v-715zM764 173h83c1 -67 21 -119 95 -119c89 0 101 77 101 179v482h85v-515c0 -125 -51 -214 -188 -214c-119 0 -175 65 -176 187z
" />
    <glyph glyph-name="uni01CB" unicode="&#x1cb;" horiz-adv-x="973" 
d="M644 0h-123l-238 428c-41 75 -94 168 -105 195h-2c0 -39 1 -208 1 -271v-352h-85v715h129l243 -441l98 -181h2c0 41 -3 140 -3 209v413h83v-715zM801 -109c8 11 12 25 12 53v581h83v-566c0 -69 -12 -102 -33 -124c-26 -27 -67 -33 -107 -33c-16 0 -31 2 -39 4v65
s7 -1 20 -1c29 0 52 5 64 21zM898 614h-85v101h85v-101z" />
    <glyph glyph-name="uni01CC" unicode="&#x1cc;" horiz-adv-x="817" 
d="M77 0v446c0 24 0 55 -1 79h82v-75c27 44 81 89 171 89c120 0 180 -78 180 -211v-328h-83v302c0 105 -39 170 -129 170c-88 0 -137 -72 -137 -157v-315h-83zM645 -109c8 11 12 25 12 53v581h83v-566c0 -69 -12 -102 -33 -124c-26 -27 -67 -33 -107 -33c-16 0 -31 2 -39 4
v65s7 -1 20 -1c29 0 52 5 64 21zM742 614h-85v101h85v-101z" />
    <glyph glyph-name="uni01F1" unicode="&#x1f1;" horiz-adv-x="1272" 
d="M92 0v715h182c99 0 158 -14 213 -39c117 -54 182 -163 182 -320c0 -116 -40 -217 -121 -281c-60 -47 -132 -75 -259 -75h-197zM177 642v-569h90c197 0 308 74 308 284c0 187 -108 286 -297 286c-34 0 -68 0 -101 -1zM739 0v71c17 26 59 87 91 133l247 356
c26 37 39 54 57 81h-391v74h487v-71c-15 -23 -42 -65 -84 -126l-237 -341c-22 -32 -58 -85 -72 -103h397v-74h-495z" />
    <glyph glyph-name="uni01F2" unicode="&#x1f2;" horiz-adv-x="1210" 
d="M92 0v715h182c99 0 158 -14 213 -39c117 -54 182 -163 182 -320c0 -116 -40 -217 -121 -281c-60 -47 -132 -75 -259 -75h-197zM177 642v-569h90c197 0 308 74 308 284c0 187 -108 286 -297 286c-34 0 -68 0 -101 -1zM753 0v62l231 289c38 47 73 90 87 109
c-36 -1 -115 -1 -155 -1h-153v66h403v-67l-222 -274l-97 -119c38 0 106 1 151 1h173v-66h-418z" />
    <glyph glyph-name="uni01F3" unicode="&#x1f3;" horiz-adv-x="1119" 
d="M549 715v-715h-77v80c-31 -47 -92 -93 -183 -93c-143 0 -246 101 -246 276c0 162 102 276 240 276c97 0 154 -46 184 -95c-1 36 -1 82 -1 116v155h83zM301 54c109 0 167 82 167 209c0 122 -58 208 -167 208c-107 0 -168 -86 -168 -208c0 -127 60 -209 168 -209zM662 0v62
l231 289c38 47 73 90 87 109c-36 -1 -115 -1 -155 -1h-153v66h403v-67l-222 -274l-97 -119c38 0 106 1 151 1h173v-66h-418z" />
    <glyph glyph-name="Aringacute" unicode="&#x1fa;" horiz-adv-x="687" 
d="M-2 0l291 715h110l288 -715h-90l-90 225h-336l-89 -225h-84zM340 649c-38 -98 -85 -210 -115 -287l-28 -68h283l-30 77c-35 92 -74 183 -108 278h-2zM346 748c-49 0 -87 39 -87 89c0 48 39 87 88 87s88 -39 88 -87c0 -50 -39 -89 -89 -89zM300 837c0 -27 20 -49 46 -49
c27 0 47 21 47 49c0 25 -20 47 -47 47c-26 0 -46 -22 -46 -47zM502 1077l-141 -119h-88l114 119h115z" />
    <glyph glyph-name="aringacute" unicode="&#x1fb;" horiz-adv-x="548" 
d="M63 366c0 98 85 173 212 173c136 0 203 -64 203 -227c0 -21 -1 -55 -1 -79v-129c0 -44 3 -80 10 -104h-76c-4 22 -7 46 -7 81c-33 -53 -86 -91 -181 -91c-107 0 -184 55 -184 151c0 102 94 139 222 159c43 7 96 14 138 17c0 112 -39 157 -128 157
c-84 0 -122 -41 -129 -108h-79zM400 233c0 15 0 21 1 26l-44 -6c-150 -22 -231 -36 -231 -111c0 -59 46 -94 117 -94c101 0 157 64 157 185zM282 573c-49 0 -87 39 -87 89c0 48 39 87 88 87s88 -39 88 -87c0 -50 -39 -89 -89 -89zM236 662c0 -27 20 -49 46 -49
c27 0 47 21 47 49c0 25 -20 47 -47 47c-26 0 -46 -22 -46 -47zM430 902l-141 -119h-88l114 119h115z" />
    <glyph glyph-name="AEacute" unicode="&#x1fc;" horiz-adv-x="905" 
d="M852 715v-74h-341l6 -237h311v-74h-310l7 -256h334v-74h-418l-5 201h-249l-114 -201h-85l402 715h462zM433 274l-3 172c-2 92 -1 129 -1 192h-5c-13 -27 -50 -100 -79 -153l-117 -211h205zM762 875l-138 -114h-88l111 114h115z" />
    <glyph glyph-name="aeacute" unicode="&#x1fd;" horiz-adv-x="940" 
d="M902 249h-429c6 -124 75 -195 182 -195c79 0 127 45 152 95h84c-33 -92 -118 -162 -238 -162c-103 0 -178 44 -222 115c-29 -53 -88 -112 -207 -112c-108 0 -185 55 -185 151c0 103 96 140 224 160c43 7 94 12 136 17c0 112 -39 156 -128 156c-84 0 -122 -41 -129 -108
h-79c0 98 86 173 211 173c88 0 147 -28 177 -90c47 56 117 90 203 90c173 0 249 -132 249 -272c0 -10 -1 -15 -1 -18zM477 311h339c-10 95 -61 163 -164 163c-100 0 -162 -66 -175 -163zM400 233c0 15 0 21 1 26l-30 -5c-36 -6 -68 -10 -97 -15c-94 -16 -148 -33 -148 -96
c0 -60 47 -95 117 -95c101 0 157 64 157 185zM631 715l-141 -119h-88l114 119h115z" />
    <glyph glyph-name="Oslashacute" unicode="&#x1fe;" horiz-adv-x="809" 
d="M404 729c56 0 108 -11 154 -30l49 86l66 -37l-50 -87c88 -65 140 -172 140 -304c0 -220 -141 -371 -358 -371c-55 0 -105 10 -150 28l-50 -89l-66 34l51 91c-90 64 -144 173 -144 307c0 220 145 372 358 372zM403 658c-167 0 -266 -123 -266 -300c0 -101 33 -186 92 -239
l292 514c-34 16 -74 25 -118 25zM669 358c0 99 -30 180 -86 233l-291 -512c33 -15 70 -22 112 -22c164 0 265 124 265 301zM573 875l-138 -114h-88l111 114h115z" />
    <glyph glyph-name="oslashacute" unicode="&#x1ff;" horiz-adv-x="618" 
d="M479 715l-141 -119h-88l114 119h115zM307 -13c-39 0 -74 6 -105 17l-42 -74l-65 36l42 74c-61 49 -94 127 -94 222c0 160 102 277 266 277c37 0 71 -7 101 -18l39 68l66 -36l-39 -68c63 -50 99 -129 99 -223c0 -161 -100 -275 -268 -275zM128 263c0 -64 17 -118 48 -154
l199 350c-20 8 -43 13 -68 13c-114 0 -179 -88 -179 -209zM307 54c114 0 178 84 178 209c0 61 -17 115 -49 152l-199 -349c21 -8 44 -12 70 -12z" />
    <glyph glyph-name="uni0218" unicode="&#x218;" horiz-adv-x="603" 
d="M173 -163l94 115h83l-75 -115h-102zM36 203h85c14 -94 76 -149 183 -149c103 0 166 51 166 131c0 85 -77 114 -166 142l-43 14c-124 39 -199 92 -199 201c0 112 90 187 240 187c145 0 230 -71 243 -199h-83c-16 89 -71 132 -163 132c-93 0 -149 -42 -149 -111
c0 -76 58 -105 153 -137l49 -17c117 -37 207 -83 207 -201c0 -132 -104 -210 -257 -210c-150 0 -251 77 -266 217z" />
    <glyph glyph-name="uni0219" unicode="&#x219;" horiz-adv-x="498" 
d="M139 -163l94 115h83l-75 -115h-102zM35 159h81c19 -67 60 -106 139 -106c72 0 121 35 121 87s-43 67 -111 86l-62 17c-84 23 -149 54 -149 144c0 94 81 152 195 152c106 0 182 -46 198 -152h-78c-15 52 -53 87 -122 87c-72 0 -110 -33 -110 -76c0 -47 38 -66 105 -85
l66 -19c90 -26 149 -61 149 -144c0 -103 -85 -162 -204 -162c-115 0 -196 50 -218 171z" />
    <glyph glyph-name="uni021A" unicode="&#x21a;" horiz-adv-x="539" 
d="M140 -163l94 115h83l-75 -115h-102zM227 0v641h-200v74h485v-74h-200v-641h-85z" />
    <glyph glyph-name="uni021B" unicode="&#x21b;" horiz-adv-x="303" 
d="M64 -163l94 115h83l-75 -115h-102zM98 463h-81v62h81v142h82v-142h100v-62h-100v-335c0 -53 25 -75 74 -75c5 0 8 0 16 1v-62c-9 -1 -19 -2 -28 -2c-87 0 -144 30 -144 131v342z" />
    <glyph glyph-name="uni021D" unicode="&#x21d;" horiz-adv-x="541" 
d="M25 17h89c13 -111 71 -153 155 -153c93 0 151 66 151 154c0 108 -77 148 -174 148h-26v65h5c105 0 160 33 160 125c0 77 -55 115 -117 115c-69 0 -124 -37 -129 -122h-83c2 115 89 191 215 191s204 -71 204 -171c0 -90 -46 -137 -125 -163c90 -18 161 -79 161 -189
c0 -130 -92 -221 -243 -221c-148 0 -228 75 -243 221z" />
    <glyph glyph-name="uni0226" unicode="&#x226;" horiz-adv-x="687" 
d="M-2 0l291 715h110l288 -715h-90l-90 225h-336l-89 -225h-84zM340 649c-38 -98 -85 -210 -115 -287l-28 -68h283l-30 77c-35 92 -74 183 -108 278h-2zM300 769v90h91v-90h-91z" />
    <glyph glyph-name="uni0227" unicode="&#x227;" horiz-adv-x="548" 
d="M63 366c0 98 85 173 212 173c136 0 203 -64 203 -227c0 -21 -1 -55 -1 -79v-129c0 -44 3 -80 10 -104h-76c-4 22 -7 46 -7 81c-33 -53 -86 -91 -181 -91c-107 0 -184 55 -184 151c0 102 94 139 222 159c43 7 96 14 138 17c0 112 -39 157 -128 157
c-84 0 -122 -41 -129 -108h-79zM400 233c0 15 0 21 1 26l-44 -6c-150 -22 -231 -36 -231 -111c0 -59 46 -94 117 -94c101 0 157 64 157 185zM232 609v90h91v-90h-91z" />
    <glyph glyph-name="uni0232" unicode="&#x232;" horiz-adv-x="588" 
d="M251 0v275l-244 440h95c58 -113 140 -258 196 -362c84 155 143 258 197 362h89l-248 -440v-275h-85zM178 785v53h244v-53h-244z" />
    <glyph glyph-name="uni0233" unicode="&#x233;" horiz-adv-x="519" 
d="M228 -180h-83l73 177c-60 159 -139 363 -202 528h93c58 -167 116 -327 153 -430c32 87 114 306 157 430h86c-92 -232 -179 -465 -277 -705zM143 628v53h244v-53h-244z" />
    <glyph glyph-name="dotlessj" unicode="&#x237;" horiz-adv-x="237" 
d="M65 -109c8 11 12 25 12 53v581h83v-566c0 -69 -12 -102 -33 -124c-26 -27 -67 -33 -107 -33c-16 0 -31 2 -39 4v65s7 -1 20 -1c29 0 52 5 64 21z" />
    <glyph glyph-name="uni0254" unicode="&#x254;" horiz-adv-x="588" 
d="M119 360h-81c30 100 111 179 245 179c160 0 262 -108 262 -277c0 -166 -108 -275 -263 -275c-141 0 -217 82 -245 185h82c23 -62 70 -118 163 -118c112 0 178 88 178 209c0 126 -62 209 -178 209c-90 0 -136 -49 -163 -112z" />
    <glyph glyph-name="uni0259" unicode="&#x259;" horiz-adv-x="593" 
d="M38 276h429c-6 124 -75 195 -182 195c-79 0 -127 -45 -152 -95h-84c33 92 118 162 238 162c165 0 263 -115 263 -274c0 -165 -105 -278 -264 -278c-173 0 -249 132 -249 272c0 10 1 15 1 18zM463 214h-339c10 -95 61 -163 164 -163c100 0 162 66 175 163z" />
    <glyph glyph-name="uni025B" unicode="&#x25b;" horiz-adv-x="541" 
d="M427 17h89c-15 -146 -95 -221 -243 -221c-151 0 -243 91 -243 221c0 110 71 171 161 189c-79 26 -125 73 -125 163c0 100 78 171 204 171s213 -76 215 -191h-83c-5 85 -60 122 -129 122c-62 0 -117 -38 -117 -115c0 -92 55 -125 160 -125h5v-65h-26
c-97 0 -174 -40 -174 -148c0 -88 58 -154 151 -154c84 0 142 42 155 153z" />
    <glyph glyph-name="uni0272" unicode="&#x272;" horiz-adv-x="580" 
d="M77 446c0 24 0 55 -1 79h82v-75c27 44 81 89 171 89c120 0 180 -78 180 -211v-328h-83v302c0 105 -39 170 -129 170c-88 0 -137 -72 -137 -157v-356c0 -69 -12 -102 -33 -124c-26 -27 -67 -33 -107 -33c-16 0 -32 2 -40 4v65s8 -1 21 -1c29 0 52 5 64 21
c8 11 12 25 12 53v502z" />
    <glyph glyph-name="uni0275" unicode="&#x275;" horiz-adv-x="618" 
d="M307 -13c-168 0 -264 114 -264 275c0 160 102 277 266 277c163 0 266 -117 266 -277c0 -161 -100 -275 -268 -275zM307 54c104 0 166 70 176 178h-354c10 -108 73 -178 178 -178zM307 472c-102 0 -164 -70 -177 -170h352c-12 100 -75 170 -175 170z" />
    <glyph glyph-name="apostrophemod" unicode="&#x2bc;" horiz-adv-x="176" 
d="M160 715l-81 -232h-71l65 232h87z" />
    <glyph glyph-name="circumflex" unicode="&#x2c6;" horiz-adv-x="503" 
d="M211 715h89c30 -35 66 -83 97 -119h-78l-64 68l-62 -68h-79c31 36 67 84 97 119z" />
    <glyph glyph-name="caron" unicode="&#x2c7;" horiz-adv-x="502" 
d="M300 596h-89c-30 35 -66 83 -97 119h79l62 -68l64 68h78c-31 -36 -67 -84 -97 -119z" />
    <glyph glyph-name="breve" unicode="&#x2d8;" horiz-adv-x="465" 
d="M237 659c48 0 66 29 73 56h63c-13 -73 -57 -110 -136 -110s-123 37 -136 110h63c7 -27 25 -56 73 -56z" />
    <glyph glyph-name="dotaccent" unicode="&#x2d9;" horiz-adv-x="328" 
d="M120 609v90h91v-90h-91z" />
    <glyph glyph-name="ring" unicode="&#x2da;" horiz-adv-x="405" 
d="M240 588c-49 0 -87 39 -87 89c0 48 39 87 88 87s88 -39 88 -87c0 -50 -39 -89 -89 -89zM194 677c0 -27 20 -49 46 -49c27 0 47 21 47 49c0 25 -20 47 -47 47c-26 0 -46 -22 -46 -47z" />
    <glyph glyph-name="ogonek" unicode="&#x2db;" horiz-adv-x="331" 
d="M170 -48l94 -115h-102l-75 115h83z" />
    <glyph glyph-name="tilde" unicode="&#x2dc;" horiz-adv-x="470" 
d="M219 613h-58c4 61 31 102 84 102c22 0 41 -7 72 -22c19 -9 37 -18 54 -18c20 0 28 14 33 40h56c-4 -61 -32 -103 -81 -103c-26 0 -49 11 -67 19c-33 14 -45 21 -59 21c-20 0 -31 -13 -34 -39z" />
    <glyph glyph-name="hungarumlaut" unicode="&#x2dd;" horiz-adv-x="612" 
d="M355 715l-141 -119h-86l114 119h113zM541 715l-141 -119h-86l114 119h113z" />
    <glyph glyph-name="uni032C" unicode="&#x32c;" horiz-adv-x="503" 
d="M205 -49h89c30 -35 66 -83 97 -119h-78l-64 68l-62 -68h-79c31 36 67 84 97 119z" />
    <glyph glyph-name="uni0394" unicode="&#x394;" horiz-adv-x="689" 
d="M288 715h113l280 -715h-673zM345 651l-230 -585h460z" />
    <glyph glyph-name="uni03A9" unicode="&#x3a9;" horiz-adv-x="803" 
d="M401 729c228 0 347 -162 347 -336c0 -155 -71 -256 -169 -319v-2s37 1 82 1h89v-73h-276v72c110 69 184 167 184 313c0 151 -86 272 -257 273c-170 0 -256 -121 -256 -273c0 -146 74 -244 184 -313v-72h-276v73h89c45 0 82 -1 82 -1v2c-98 63 -169 164 -169 319
c0 174 119 336 346 336z" />
    <glyph glyph-name="uni03BC" unicode="&#x3bc;" horiz-adv-x="578" 
d="M160 -180h-83v705h83v-303c0 -103 38 -169 127 -169c86 0 131 73 131 156v316h83v-445c0 -27 0 -53 1 -80h-82v72c-33 -55 -96 -84 -160 -84c-49 0 -81 17 -100 28v-196z" />
    <glyph glyph-name="pi" unicode="&#x3c0;" horiz-adv-x="638" 
d="M423 463h-218v-463h-81v463h-112v62h593v-62h-100v-335c0 -53 25 -75 74 -75c5 0 8 0 16 1v-62c-9 -1 -19 -2 -28 -2c-87 0 -144 30 -144 131v342z" />
    <glyph glyph-name="Wgrave" unicode="&#x1e80;" horiz-adv-x="899" 
d="M870 715l-157 -715h-119l-84 391c-23 108 -40 180 -56 261h-2c-17 -82 -45 -202 -65 -290l-82 -362h-123l-151 715h92l84 -440c16 -83 26 -119 37 -203h3c14 83 25 120 44 202l102 441h127l95 -433c18 -82 28 -134 41 -207h2c13 73 26 124 42 208l84 432h86zM411 761
l-138 114h115l111 -114h-88z" />
    <glyph glyph-name="wgrave" unicode="&#x1e81;" horiz-adv-x="815" 
d="M186 0c0 0 -109 355 -162 525h90l78 -272c17 -62 31 -109 51 -185h2c17 73 34 132 53 207l64 250h103l57 -238c16 -63 32 -137 52 -218h2c20 73 44 147 68 230l67 226h83c-55 -170 -166 -525 -166 -525h-111l-50 203c-20 82 -44 191 -54 239h-3
c-13 -55 -36 -157 -59 -243l-54 -199h-111zM398 596l-141 119h115l114 -119h-88z" />
    <glyph glyph-name="Wacute" unicode="&#x1e82;" horiz-adv-x="899" 
d="M870 715l-157 -715h-119l-84 391c-23 108 -40 180 -56 261h-2c-17 -82 -45 -202 -65 -290l-82 -362h-123l-151 715h92l84 -440c16 -83 26 -119 37 -203h3c14 83 25 120 44 202l102 441h127l95 -433c18 -82 28 -134 41 -207h2c13 73 26 124 42 208l84 432h86zM581 875
l-138 -114h-88l111 114h115z" />
    <glyph glyph-name="wacute" unicode="&#x1e83;" horiz-adv-x="815" 
d="M186 0c0 0 -109 355 -162 525h90l78 -272c17 -62 31 -109 51 -185h2c17 73 34 132 53 207l64 250h103l57 -238c16 -63 32 -137 52 -218h2c20 73 44 147 68 230l67 226h83c-55 -170 -166 -525 -166 -525h-111l-50 203c-20 82 -44 191 -54 239h-3
c-13 -55 -36 -157 -59 -243l-54 -199h-111zM581 715l-141 -119h-88l114 119h115z" />
    <glyph glyph-name="Wdieresis" unicode="&#x1e84;" horiz-adv-x="899" 
d="M870 715l-157 -715h-119l-84 391c-23 108 -40 180 -56 261h-2c-17 -82 -45 -202 -65 -290l-82 -362h-123l-151 715h92l84 -440c16 -83 26 -119 37 -203h3c14 83 25 120 44 202l102 441h127l95 -433c18 -82 28 -134 41 -207h2c13 73 26 124 42 208l84 432h86zM305 766v90
h89v-90h-89zM465 766v90h88v-90h-88z" />
    <glyph glyph-name="wdieresis" unicode="&#x1e85;" horiz-adv-x="815" 
d="M186 0c0 0 -109 355 -162 525h90l78 -272c17 -62 31 -109 51 -185h2c17 73 34 132 53 207l64 250h103l57 -238c16 -63 32 -137 52 -218h2c20 73 44 147 68 230l67 226h83c-55 -170 -166 -525 -166 -525h-111l-50 203c-20 82 -44 191 -54 239h-3
c-13 -55 -36 -157 -59 -243l-54 -199h-111zM288 609v90h89v-90h-89zM448 609v90h88v-90h-88z" />
    <glyph glyph-name="uni1EA0" unicode="&#x1ea0;" horiz-adv-x="687" 
d="M-2 0l291 715h110l288 -715h-90l-90 225h-336l-89 -225h-84zM340 649c-38 -98 -85 -210 -115 -287l-28 -68h283l-30 77c-35 92 -74 183 -108 278h-2zM296 -153v90h91v-90h-91z" />
    <glyph glyph-name="uni1EA1" unicode="&#x1ea1;" horiz-adv-x="548" 
d="M63 366c0 98 85 173 212 173c136 0 203 -64 203 -227c0 -21 -1 -55 -1 -79v-129c0 -44 3 -80 10 -104h-76c-4 22 -7 46 -7 81c-33 -53 -86 -91 -181 -91c-107 0 -184 55 -184 151c0 102 94 139 222 159c43 7 96 14 138 17c0 112 -39 157 -128 157
c-84 0 -122 -41 -129 -108h-79zM400 233c0 15 0 21 1 26l-44 -6c-150 -22 -231 -36 -231 -111c0 -59 46 -94 117 -94c101 0 157 64 157 185zM226 -153v90h91v-90h-91z" />
    <glyph glyph-name="uni1EB8" unicode="&#x1eb8;" horiz-adv-x="589" 
d="M92 0v715h444v-74h-359v-237h335v-74h-335v-256h366v-74h-451zM276 -153v90h91v-90h-91z" />
    <glyph glyph-name="uni1EB9" unicode="&#x1eb9;" horiz-adv-x="593" 
d="M555 249h-429c6 -124 75 -195 182 -195c79 0 127 45 152 95h84c-33 -92 -118 -162 -238 -162c-165 0 -263 115 -263 274c0 165 105 278 264 278c173 0 249 -132 249 -272c0 -10 -1 -15 -1 -18zM130 311h339c-10 95 -61 163 -164 163c-100 0 -162 -66 -175 -163zM260 -153
v90h91v-90h-91z" />
    <glyph glyph-name="uni1ECA" unicode="&#x1eca;" horiz-adv-x="269" 
d="M92 0v715h85v-715h-85zM90 -153v90h91v-90h-91z" />
    <glyph glyph-name="uni1ECB" unicode="&#x1ecb;" horiz-adv-x="235" 
d="M160 614h-85v101h85v-101zM77 525h81v-525h-81v525zM72 -153v90h91v-90h-91z" />
    <glyph glyph-name="uni1ECC" unicode="&#x1ecc;" horiz-adv-x="809" 
d="M404 729c214 0 359 -151 359 -372c0 -220 -141 -371 -358 -371c-215 0 -359 151 -359 371s145 372 358 372zM403 658c-167 0 -266 -123 -266 -300c0 -176 100 -301 267 -301c164 0 265 124 265 301c0 179 -99 300 -266 300zM352 -153v90h91v-90h-91z" />
    <glyph glyph-name="uni1ECD" unicode="&#x1ecd;" horiz-adv-x="618" 
d="M307 54c114 0 178 84 178 209c0 121 -65 209 -178 209c-114 0 -179 -88 -179 -209c0 -125 64 -209 179 -209zM307 -13c-168 0 -264 114 -264 275c0 160 102 277 266 277c163 0 266 -117 266 -277c0 -161 -100 -275 -268 -275zM261 -153v90h91v-90h-91z" />
    <glyph glyph-name="uni1EE4" unicode="&#x1ee4;" horiz-adv-x="689" 
d="M344 -14c-89 0 -171 34 -213 92c-36 51 -46 111 -46 193v444h85v-437c0 -62 3 -105 23 -143c26 -50 82 -80 151 -80c70 0 127 30 152 80c20 38 23 81 23 143v437h85v-444c0 -82 -10 -142 -46 -193c-42 -58 -127 -92 -214 -92zM299 -153v90h91v-90h-91z" />
    <glyph glyph-name="uni1EE5" unicode="&#x1ee5;" horiz-adv-x="572" 
d="M495 525v-445c0 -27 0 -53 1 -80h-82v72c-25 -42 -74 -86 -165 -86c-121 0 -178 78 -178 211v328h83v-303c0 -103 38 -169 127 -169c86 0 131 73 131 156v316h83zM247 -153v90h91v-90h-91z" />
    <glyph glyph-name="Ygrave" unicode="&#x1ef2;" horiz-adv-x="588" 
d="M251 0v275l-244 440h95c58 -113 140 -258 196 -362c84 155 143 258 197 362h89l-248 -440v-275h-85zM298 761l-138 114h115l111 -114h-88z" />
    <glyph glyph-name="ygrave" unicode="&#x1ef3;" horiz-adv-x="519" 
d="M228 -180h-83l73 177c-60 159 -139 363 -202 528h93c58 -167 116 -327 153 -430c32 87 114 306 157 430h86c-92 -232 -179 -465 -277 -705zM259 596l-141 119h115l114 -119h-88z" />
    <glyph glyph-name="enspace" unicode="&#x2002;" horiz-adv-x="500" 
 />
    <glyph glyph-name="emspace" unicode="&#x2003;" horiz-adv-x="1000" 
 />
    <glyph glyph-name="threeperemspace" unicode="&#x2004;" horiz-adv-x="0" 
 />
    <glyph glyph-name="fourperemspace" unicode="&#x2005;" horiz-adv-x="250" 
 />
    <glyph glyph-name="thinspace" unicode="&#x2009;" horiz-adv-x="133" 
 />
    <glyph glyph-name="hairspace" unicode="&#x200a;" horiz-adv-x="75" 
 />
    <glyph glyph-name="endash" unicode="&#x2013;" horiz-adv-x="612" 
d="M68 267v71h476v-71h-476z" />
    <glyph glyph-name="emdash" unicode="&#x2014;" horiz-adv-x="977" 
d="M68 267v71h841v-71h-841z" />
    <glyph glyph-name="quoteleft" unicode="&#x2018;" horiz-adv-x="243" 
d="M51 483l81 232h71l-65 -232h-87z" />
    <glyph glyph-name="quoteright" unicode="&#x2019;" horiz-adv-x="240" 
d="M206 715l-81 -232h-71l65 232h87z" />
    <glyph glyph-name="quotesinglbase" unicode="&#x201a;" horiz-adv-x="242" 
d="M176 111l-81 -232h-71l65 232h87z" />
    <glyph glyph-name="quotedblleft" unicode="&#x201c;" horiz-adv-x="407" 
d="M215 483l81 232h71l-65 -232h-87zM51 483l81 232h71l-65 -232h-87z" />
    <glyph glyph-name="quotedblright" unicode="&#x201d;" horiz-adv-x="404" 
d="M206 715l-81 -232h-71l65 232h87zM370 715l-81 -232h-71l65 232h87z" />
    <glyph glyph-name="quotedblbase" unicode="&#x201e;" horiz-adv-x="406" 
d="M176 111l-81 -232h-71l65 232h87zM340 111l-81 -232h-71l65 232h87z" />
    <glyph glyph-name="dagger" unicode="&#x2020;" horiz-adv-x="513" 
d="M215 -68v517h-180v81h180v185h83v-185h180v-81h-180v-517h-83z" />
    <glyph glyph-name="daggerdbl" unicode="&#x2021;" horiz-adv-x="547" 
d="M232 -68v267h-180v81h180v169h-180v81h180v185h83v-185h180v-81h-180v-169h180v-81h-180v-267h-83z" />
    <glyph glyph-name="bullet" unicode="&#x2022;" horiz-adv-x="413" 
d="M207 206c-72 0 -129 57 -129 128s57 127 129 127c70 0 128 -56 128 -127s-58 -128 -128 -128z" />
    <glyph glyph-name="ellipsis" unicode="&#x2026;" horiz-adv-x="889" 
d="M398 0v111h88v-111h-88zM66 0v111h88v-111h-88zM735 0v111h88v-111h-88z" />
    <glyph glyph-name="perthousand" unicode="&#x2030;" horiz-adv-x="1307" 
d="M199 330c-108 0 -164 77 -164 199c0 120 55 197 163 197c109 0 164 -79 164 -198c0 -122 -54 -198 -163 -198zM105 527c0 -80 24 -141 93 -141c70 0 94 60 94 141c0 85 -21 144 -94 144c-72 0 -93 -61 -93 -144zM278 0l275 715h61l-275 -715h-61zM690 -15
c-108 0 -164 77 -164 199c0 120 55 197 163 197c109 0 164 -79 164 -198c0 -122 -54 -198 -163 -198zM596 182c0 -80 24 -141 93 -141c70 0 94 60 94 141c0 85 -21 144 -94 144c-72 0 -93 -61 -93 -144zM1109 -15c-108 0 -164 77 -164 199c0 120 55 197 163 197
c109 0 164 -79 164 -198c0 -122 -54 -198 -163 -198zM1015 182c0 -80 24 -141 93 -141c70 0 94 60 94 141c0 85 -21 144 -94 144c-72 0 -93 -61 -93 -144z" />
    <glyph glyph-name="guilsinglleft" unicode="&#x2039;" horiz-adv-x="291" 
d="M234 473l-92 -187l92 -188h-77l-107 188l107 187h77z" />
    <glyph glyph-name="guilsinglright" unicode="&#x203a;" horiz-adv-x="291" 
d="M149 286l-92 187h77l107 -187l-107 -188h-77z" />
    <glyph glyph-name="fraction" unicode="&#x2044;" horiz-adv-x="372" 
d="M2 -105l289 820h80l-288 -820h-81z" />
    <glyph glyph-name="Euro" unicode="&#x20ac;" 
d="M6 396l19 66h50c17 146 78 267 242 267c150 0 213 -100 231 -230h-87c-17 95 -54 161 -144 161c-101 0 -139 -85 -151 -198h256l-19 -66h-242v-80h225l-19 -66h-201c13 -119 54 -197 151 -197c88 0 130 63 144 160l86 1c-21 -137 -81 -229 -230 -229
c-162 0 -225 109 -242 265h-74l19 66h51c-1 13 -1 26 -1 40c0 13 0 26 1 40h-65z" />
    <glyph glyph-name="trademark" unicode="&#x2122;" horiz-adv-x="889" 
d="M642 300h-65c-35 108 -70 249 -105 364h-3c1 -59 1 -157 1 -226v-138h-59v415h103c35 -112 85 -308 98 -352c15 51 70 257 98 352h101v-415h-60v190c0 52 1 135 1 176h-3c-31 -111 -71 -254 -107 -366zM327 715v-53h-103v-362h-62v362h-105v53h270z" />
    <glyph glyph-name="Omega" unicode="&#x2126;" horiz-adv-x="803" 
d="M401 729c228 0 347 -162 347 -336c0 -155 -71 -256 -169 -319v-2s37 1 82 1h89v-73h-276v72c110 69 184 167 184 313c0 151 -86 272 -257 273c-170 0 -256 -121 -256 -273c0 -146 74 -244 184 -313v-72h-276v73h89c45 0 82 -1 82 -1v2c-98 63 -169 164 -169 319
c0 174 119 336 346 336z" />
    <glyph glyph-name="onethird" unicode="&#x2153;" horiz-adv-x="786" 
d="M190 0l275 715h61l-275 -715h-61zM141 608h-107v37c81 1 113 22 124 70h47v-431h-64v324zM565 211v51h2c58 2 91 20 91 69c0 39 -28 60 -63 60c-39 0 -62 -28 -63 -62h-62c0 67 50 112 128 112c76 0 125 -39 125 -104c0 -40 -22 -77 -67 -95c51 -17 91 -54 91 -116
c0 -78 -59 -135 -152 -135c-95 0 -138 53 -148 127h67c7 -42 33 -74 84 -74c50 0 81 37 81 84c0 61 -44 83 -98 83h-16z" />
    <glyph glyph-name="twothirds" unicode="&#x2154;" horiz-adv-x="863" 
d="M271 0l275 715h61l-275 -715h-61zM646 211v51h2c58 2 91 20 91 69c0 39 -28 60 -63 60c-39 0 -62 -28 -63 -62h-62c0 67 50 112 128 112c76 0 125 -39 125 -104c0 -40 -22 -77 -67 -95c51 -17 91 -54 91 -116c0 -78 -59 -135 -152 -135c-95 0 -138 53 -148 127h67
c7 -42 33 -74 84 -74c50 0 81 37 81 84c0 61 -44 83 -98 83h-16zM53 284v56c60 51 100 89 156 146c25 26 53 65 53 107c0 44 -25 75 -72 75c-48 0 -77 -34 -78 -83h-62v5c0 77 61 134 142 134c88 0 140 -57 140 -128c0 -72 -57 -129 -110 -178c-20 -18 -47 -43 -90 -77h200
v-57h-279z" />
    <glyph glyph-name="oneeighth" unicode="&#x215b;" horiz-adv-x="815" 
d="M463 121c0 49 25 92 76 115c-36 21 -58 49 -58 96c0 62 49 115 137 115c89 0 138 -53 138 -115c0 -47 -22 -75 -57 -96c48 -24 76 -67 76 -115c0 -79 -63 -132 -157 -132c-93 0 -155 53 -155 132zM618 211c-54 0 -84 -36 -84 -85c0 -46 29 -84 84 -84s85 37 85 84
c0 49 -30 85 -85 85zM618 392c-45 0 -71 -29 -71 -65c0 -39 26 -69 71 -69s72 30 72 69c0 36 -27 65 -72 65zM190 0l275 715h61l-275 -715h-61zM141 608h-107v37c81 1 113 22 124 70h47v-431h-64v324z" />
    <glyph glyph-name="threeeighths" unicode="&#x215c;" horiz-adv-x="893" 
d="M544 121c0 49 25 92 76 115c-36 21 -58 49 -58 96c0 62 49 115 137 115c89 0 138 -53 138 -115c0 -47 -22 -75 -57 -96c48 -24 76 -67 76 -115c0 -79 -63 -132 -157 -132c-93 0 -155 53 -155 132zM699 211c-54 0 -84 -36 -84 -85c0 -46 29 -84 84 -84s85 37 85 84
c0 49 -30 85 -85 85zM699 392c-45 0 -71 -29 -71 -65c0 -39 26 -69 71 -69s72 30 72 69c0 36 -27 65 -72 65zM154 496v51h2c58 2 91 20 91 69c0 39 -28 60 -63 60c-39 0 -62 -28 -63 -62h-62c0 67 50 112 128 112c76 0 125 -39 125 -104c0 -40 -22 -77 -67 -95
c51 -17 91 -54 91 -116c0 -78 -59 -135 -152 -135c-95 0 -138 53 -148 127h67c7 -42 33 -74 84 -74c50 0 81 37 81 84c0 61 -44 83 -98 83h-16zM271 0l275 715h61l-275 -715h-61z" />
    <glyph glyph-name="fiveeighths" unicode="&#x215d;" horiz-adv-x="903" 
d="M55 488l26 227h226v-56h-176l-13 -120c13 11 41 28 83 28c82 0 138 -54 138 -138c0 -86 -61 -151 -152 -151c-85 0 -138 54 -151 128h66c9 -43 38 -73 83 -73c54 0 86 36 86 93c0 53 -32 89 -84 89c-32 0 -57 -13 -70 -36zM553 121c0 49 25 92 76 115
c-36 21 -58 49 -58 96c0 62 49 115 137 115c89 0 138 -53 138 -115c0 -47 -22 -75 -57 -96c48 -24 76 -67 76 -115c0 -79 -63 -132 -157 -132c-93 0 -155 53 -155 132zM708 211c-54 0 -84 -36 -84 -85c0 -46 29 -84 84 -84s85 37 85 84c0 49 -30 85 -85 85zM708 392
c-45 0 -71 -29 -71 -65c0 -39 26 -69 71 -69s72 30 72 69c0 36 -27 65 -72 65zM280 0l275 715h61l-275 -715h-61z" />
    <glyph glyph-name="seveneighths" unicode="&#x215e;" horiz-adv-x="807" 
d="M150 283h-76c48 120 109 248 177 374h-215v58h280v-54c-72 -147 -123 -265 -166 -378zM457 121c0 49 25 92 76 115c-36 21 -58 49 -58 96c0 62 49 115 137 115c89 0 138 -53 138 -115c0 -47 -22 -75 -57 -96c48 -24 76 -67 76 -115c0 -79 -63 -132 -157 -132
c-93 0 -155 53 -155 132zM612 211c-54 0 -84 -36 -84 -85c0 -46 29 -84 84 -84s85 37 85 84c0 49 -30 85 -85 85zM612 392c-45 0 -71 -29 -71 -65c0 -39 26 -69 71 -69s72 30 72 69c0 36 -27 65 -72 65zM184 0l275 715h61l-275 -715h-61z" />
    <glyph glyph-name="arrowleft" unicode="&#x2190;" horiz-adv-x="820" 
d="M780 287h-621c58 -56 282 -287 282 -287h-112c-72 75 -225 240 -309 325c84 84 237 250 309 325h112s-224 -231 -282 -287h621v-76z" />
    <glyph glyph-name="arrowup" unicode="&#x2191;" horiz-adv-x="720" 
d="M320 0v615c-56 -58 -285 -282 -285 -282v107c75 72 240 225 325 309c84 -84 250 -237 325 -309v-107s-229 224 -285 282v-615h-80z" />
    <glyph glyph-name="arrowright" unicode="&#x2192;" horiz-adv-x="820" 
d="M660 287h-621v76h621c-58 56 -282 287 -282 287h112c72 -75 225 -241 309 -325c-84 -85 -237 -250 -309 -325h-112s224 231 282 287z" />
    <glyph glyph-name="arrowdown" unicode="&#x2193;" horiz-adv-x="720" 
d="M320 100v615h80v-615c56 58 285 282 285 282v-107c-75 -72 -241 -225 -325 -309c-85 84 -250 237 -325 309v107s229 -224 285 -282z" />
    <glyph glyph-name="uni2196" unicode="&#x2196;" horiz-adv-x="750" 
d="M631 -5l-440 441c1 -80 -2 -402 -2 -402l-73 71c2 104 6 335 7 454c119 0 348 4 451 6l72 -70s-320 -3 -401 -1l442 -442z" />
    <glyph glyph-name="uni2197" unicode="&#x2197;" horiz-adv-x="750" 
d="M558 436l-440 -441l-56 57l442 442c-81 -2 -401 1 -401 1l72 70c103 -2 332 -6 451 -6c1 -119 5 -350 7 -454l-73 -71s-3 322 -2 402z" />
    <glyph glyph-name="uni2198" unicode="&#x2198;" horiz-adv-x="750" 
d="M118 564l440 -441c-1 80 2 402 2 402l73 -71c-2 -104 -6 -335 -7 -454c-119 0 -348 -1 -451 -3l-72 70s320 0 401 -2l-442 442z" />
    <glyph glyph-name="uni2199" unicode="&#x2199;" horiz-adv-x="750" 
d="M191 123l440 441l56 -57l-442 -442c81 2 401 2 401 2l-72 -70c-103 2 -332 3 -451 3c-1 119 -5 350 -7 454l73 71s3 -322 2 -402z" />
    <glyph glyph-name="partialdiff" unicode="&#x2202;" horiz-adv-x="618" 
d="M140 715h140c177 -99 292 -244 292 -440c0 -174 -90 -288 -265 -288c-166 0 -263 107 -263 273c0 173 111 275 246 275c67 0 110 -21 135 -39l3 3c-53 80 -173 162 -288 216zM307 54c114 0 178 84 178 209c0 121 -65 209 -178 209c-114 0 -179 -88 -179 -209
c0 -125 64 -209 179 -209z" />
    <glyph glyph-name="Delta" unicode="&#x2206;" horiz-adv-x="725" 
d="M306 715h113l280 -715h-673zM363 651l-230 -585h460z" />
    <glyph glyph-name="product" unicode="&#x220f;" horiz-adv-x="816" 
d="M667 642v-755h-85v755h-348v-755h-85v755h-116v73h750v-73h-116z" />
    <glyph glyph-name="summation" unicode="&#x2211;" horiz-adv-x="632" 
d="M39 -49l276 352l-272 343v69h533v-72h-427l265 -336l-275 -345h448v-75h-548v64z" />
    <glyph glyph-name="minus" unicode="&#x2212;" 
d="M59 289v65h442v-65h-442z" />
    <glyph glyph-name="uni2219" unicode="&#x2219;" horiz-adv-x="220" 
d="M66 261v111h88v-111h-88z" />
    <glyph glyph-name="radical" unicode="&#x221a;" 
d="M9 460v65h149l79 -243c23 -72 43 -128 68 -204h2c19 72 38 136 61 216l123 421h81l-220 -715h-97c-48 136 -115 320 -160 460h-86z" />
    <glyph glyph-name="infinity" unicode="&#x221e;" horiz-adv-x="850" 
d="M216 502c82 0 146 -59 209 -122c63 63 127 122 210 122c98 0 161 -66 161 -167c0 -90 -50 -168 -160 -168c-77 0 -135 45 -211 121c-76 -76 -134 -121 -211 -121c-110 0 -160 78 -160 168c0 101 64 167 162 167zM219 232c59 0 103 37 169 101c-50 47 -103 106 -171 106
c-60 0 -94 -44 -94 -103c0 -65 34 -104 96 -104zM631 232c62 0 96 39 96 104c0 59 -34 103 -94 103c-68 0 -121 -59 -171 -106c66 -64 110 -101 169 -101z" />
    <glyph glyph-name="integral" unicode="&#x222b;" 
d="M354 496l-61 -426c-28 -192 -73 -253 -203 -253c-14 0 -31 2 -42 4l9 65c7 -1 17 -2 28 -2c91 0 107 57 124 175l64 432c23 157 67 231 200 231c12 0 26 -1 38 -3l-9 -67c-5 1 -14 2 -32 2c-80 0 -102 -60 -116 -158z" />
    <glyph glyph-name="approxequal" unicode="&#x2248;" 
d="M483 491l54 -36c-35 -60 -84 -105 -146 -105c-41 0 -75 16 -107 31l-42 20c-23 11 -54 24 -79 24c-41 0 -70 -32 -85 -68l-52 38c35 58 80 100 141 100c36 0 64 -10 100 -27l46 -22c27 -13 48 -25 77 -25c45 0 75 35 93 70zM480 240l54 -36c-35 -60 -84 -105 -146 -105
c-41 0 -75 16 -107 31l-42 20c-23 11 -54 24 -79 24c-41 0 -70 -32 -85 -68l-52 38c35 58 80 100 141 100c36 0 64 -10 100 -27l46 -22c27 -13 48 -25 77 -25c45 0 75 35 93 70z" />
    <glyph glyph-name="notequal" unicode="&#x2260;" 
d="M59 382v65h242l55 113h75l-55 -113h125v-65h-156l-56 -116h212v-65h-244l-58 -121h-75l58 121h-123v65h155l56 116h-211z" />
    <glyph glyph-name="lessequal" unicode="&#x2264;" 
d="M78 317v65c133 69 263 128 396 198v-76c-96 -45 -287 -133 -319 -149v-3c32 -16 224 -107 319 -152v-78c-133 70 -264 126 -396 195zM78 0v65h396v-65h-396z" />
    <glyph glyph-name="greaterequal" unicode="&#x2265;" 
d="M481 382v-65c-132 -69 -263 -125 -396 -195v78c95 45 287 136 319 152v3c-32 16 -223 104 -319 149v76c133 -70 263 -129 396 -198zM481 65v-65h-396v65h396z" />
    <glyph glyph-name="dotmath" unicode="&#x22c5;" horiz-adv-x="220" 
d="M66 261v111h88v-111h-88z" />
    <glyph glyph-name="lozenge" unicode="&#x25ca;" 
d="M322 0h-84l-230 356l230 359h84l229 -359zM280 65l184 291l-184 295l-185 -295z" />
    <glyph glyph-name="commaaccent" unicode="&#xf6c3;" horiz-adv-x="369" 
d="M107 -163l94 115h83l-75 -115h-102z" />
    <glyph glyph-name="uniF8FF" unicode="&#xf8ff;" horiz-adv-x="357" 
d="M179 206c-72 0 -129 57 -129 128s57 127 129 127c70 0 128 -56 128 -127s-58 -128 -128 -128z" />
    <glyph glyph-name="acute.caps" horiz-adv-x="427" 
d="M373 875l-138 -114h-88l111 114h115z" />
    <glyph glyph-name="grave.caps" horiz-adv-x="512" 
d="M295 761l-138 114h115l111 -114h-88z" />
    <glyph glyph-name="circumflex.caps" horiz-adv-x="503" 
d="M210 875h89l97 -114h-78l-64 66l-62 -66h-79z" />
    <glyph glyph-name="caron.caps" horiz-adv-x="502" 
d="M299 761h-89l-97 114h79l62 -66l64 66h78z" />
    <glyph glyph-name="tilde.caps" horiz-adv-x="470" 
d="M155 765h-58c4 61 31 102 84 102c22 0 41 -7 72 -22c19 -9 37 -18 54 -18c20 0 28 14 33 40h56c-4 -61 -32 -103 -81 -103c-26 0 -49 11 -67 19c-33 14 -45 21 -59 21c-20 0 -31 -13 -34 -39z" />
    <glyph glyph-name="macron.caps" horiz-adv-x="428" 
d="M123 785v53h244v-53h-244z" />
    <glyph glyph-name="breve.caps" horiz-adv-x="465" 
d="M249 823c48 0 66 29 73 56h63c-13 -73 -57 -110 -136 -110s-123 37 -136 110h63c7 -27 25 -56 73 -56z" />
    <glyph glyph-name="dotaccent.caps" horiz-adv-x="328" 
d="M119 769v90h91v-90h-91z" />
    <glyph glyph-name="ring.caps" horiz-adv-x="405" 
d="M246 748c-49 0 -87 39 -87 89c0 48 39 87 88 87s88 -39 88 -87c0 -50 -39 -89 -89 -89zM200 837c0 -27 20 -49 46 -49c27 0 47 21 47 49c0 25 -20 47 -47 47c-26 0 -46 -22 -46 -47z" />
    <glyph glyph-name="cedilla.caps" horiz-adv-x="369" 
d="M104 -163l94 115h86l-75 -115h-105z" />
    <glyph glyph-name="ogonek.caps" horiz-adv-x="331" 
d="M173 -48l94 -115h-105l-75 115h86z" />
    <glyph glyph-name="hungarumlaut.caps" horiz-adv-x="612" 
d="M378 875l-138 -114h-86l111 114h113zM564 875l-138 -114h-86l111 114h113z" />
    <glyph glyph-name="dieresis.caps" horiz-adv-x="491" 
d="M137 766v90h89v-90h-89zM297 766v90h88v-90h-88z" />
    <glyph glyph-name="horn" horiz-adv-x="264" 
d="M200 715l-75 -191h-69l55 191h89z" />
    <glyph glyph-name="zero.plf" horiz-adv-x="609" 
d="M304 729c202 0 248 -183 248 -373c0 -210 -52 -371 -248 -371s-247 161 -247 371c0 190 45 373 247 373zM304 660c-130 0 -156 -141 -156 -303c0 -176 32 -304 156 -304c126 0 157 128 157 304c0 162 -27 303 -157 303z" />
    <glyph glyph-name="one.plf" horiz-adv-x="388" 
d="M201 0v547h-172v55c123 3 178 34 190 113h66v-715h-84z" />
    <glyph glyph-name="two.plf" horiz-adv-x="571" 
d="M518 0h-464v72s117 104 205 182c126 112 162 183 162 264c0 83 -51 141 -138 141c-90 0 -143 -58 -147 -169h-85c0 141 88 239 236 239s226 -84 226 -206c0 -151 -123 -255 -233 -348c-19 -16 -47 -38 -128 -101h366v-74z" />
    <glyph glyph-name="three.plf" horiz-adv-x="578" 
d="M42 206h89c13 -111 71 -153 155 -153c93 0 151 66 151 154c0 108 -77 148 -174 148h-26v65h5c105 0 160 33 160 125c0 77 -55 115 -117 115c-69 0 -124 -37 -129 -122h-83c2 115 89 191 215 191s204 -71 204 -171c0 -90 -46 -137 -125 -163c90 -18 161 -79 161 -189
c0 -130 -92 -221 -243 -221c-148 0 -228 75 -243 221z" />
    <glyph glyph-name="four.plf" horiz-adv-x="585" 
d="M547 230v-66h-99v-164h-81v164h-340v62l228 326c42 60 87 125 112 163h81v-485h99zM371 611h-2c-8 -13 -85 -134 -117 -181l-47 -69c-34 -49 -92 -131 -92 -131h254v124c0 113 3 223 4 257z" />
    <glyph glyph-name="five.plf" horiz-adv-x="569" 
d="M70 338l43 377h371v-74h-307l-29 -241c31 30 82 61 158 61c131 0 220 -89 220 -231s-95 -245 -242 -245c-132 0 -226 67 -244 211h88c8 -76 55 -143 154 -143c100 0 157 72 157 173c0 93 -57 168 -153 168c-71 0 -112 -36 -134 -70z" />
    <glyph glyph-name="six.plf" horiz-adv-x="601" 
d="M536 532h-88c-10 57 -45 129 -139 129c-121 0 -162 -101 -165 -297c31 50 86 95 185 95c132 0 221 -92 221 -232c0 -148 -100 -242 -243 -242c-169 0 -251 112 -251 362c0 278 92 382 257 382c137 0 204 -86 223 -197zM307 393c-99 0 -153 -62 -153 -165
c0 -104 51 -176 151 -176c99 0 156 70 156 170c0 103 -54 171 -154 171z" />
    <glyph glyph-name="seven.plf" horiz-adv-x="487" 
d="M192 0h-97c47 120 103 234 156 351c38 84 104 213 146 292v1c-19 -1 -36 -1 -55 -1h-311v72h440v-66l-24 -53c-105 -228 -179 -392 -255 -596z" />
    <glyph glyph-name="eight.plf" horiz-adv-x="591" 
d="M188 386c-57 24 -107 75 -107 163c0 100 79 180 215 180c135 0 215 -80 215 -180c0 -90 -52 -138 -108 -163c77 -32 138 -86 138 -192c0 -124 -84 -209 -245 -209c-163 0 -246 86 -246 209c0 102 62 163 138 192zM296 349c-102 0 -161 -59 -161 -149
c0 -86 54 -147 161 -147c103 0 159 61 159 147c0 90 -60 149 -159 149zM296 660c-83 0 -134 -50 -134 -120c0 -71 52 -123 134 -123s134 52 134 123c0 69 -52 120 -134 120z" />
    <glyph glyph-name="nine.plf" horiz-adv-x="602" 
d="M64 184h88c8 -61 46 -130 140 -130c121 0 163 103 165 299c-31 -50 -86 -95 -185 -95c-132 0 -221 89 -221 233c0 143 101 238 244 238c166 0 250 -105 250 -354c0 -287 -92 -389 -257 -389c-137 0 -205 84 -224 198zM294 325c99 0 153 62 153 165
c0 101 -52 173 -151 173s-157 -67 -157 -167c0 -103 55 -171 155 -171z" />
    <glyph glyph-name="Gtilde" horiz-adv-x="790" 
d="M371 368h358v-368h-79v56l1 60c-30 -52 -110 -130 -259 -130c-199 0 -346 144 -346 371c0 214 140 372 359 372c181 0 285 -98 324 -227h-85c-34 76 -92 155 -240 155c-159 0 -266 -110 -266 -298c0 -184 104 -301 264 -301c174 0 249 125 253 236h-284v74zM323 765h-58
c4 61 31 102 84 102c22 0 41 -7 72 -22c19 -9 37 -18 54 -18c20 0 28 14 33 40h56c-4 -61 -32 -103 -81 -103c-26 0 -49 11 -67 19c-33 14 -45 21 -59 21c-20 0 -31 -13 -34 -39z" />
    <glyph glyph-name="gtilde" horiz-adv-x="625" 
d="M299 -122c116 0 169 83 169 213v34c-29 -52 -89 -101 -183 -101c-148 0 -241 108 -241 256c0 156 103 259 242 259c94 0 150 -42 182 -90c0 0 -1 44 -1 76h82v-421c0 -175 -79 -293 -257 -293c-126 0 -207 84 -231 172h85c17 -48 56 -105 153 -105zM301 91
c93 0 167 71 167 193c0 111 -64 187 -167 187c-105 0 -167 -78 -167 -190c0 -108 60 -190 167 -190zM224 613h-58c4 61 31 102 84 102c22 0 41 -7 72 -22c19 -9 37 -18 54 -18c20 0 28 14 33 40h56c-4 -61 -32 -103 -81 -103c-26 0 -49 11 -67 19c-33 14 -45 21 -59 21
c-20 0 -31 -13 -34 -39z" />
    <glyph glyph-name="Mcircumflex" horiz-adv-x="863" 
d="M92 0v715h147l130 -427c16 -50 41 -146 60 -206h1c20 60 49 165 65 213l137 420h139v-715h-85v362c0 76 3 233 3 291h-1c-11 -36 -50 -170 -88 -283l-123 -370h-108l-142 471c-23 76 -37 134 -51 182h-1c1 -58 2 -153 2 -252v-401h-85zM385 875h89l97 -114h-78l-64 66
l-62 -66h-79z" />
    <glyph glyph-name="mcircumflex" horiz-adv-x="918" 
d="M77 0v446c0 24 0 55 -1 79h82v-75c27 44 80 89 168 89c79 0 131 -35 157 -97c24 37 74 97 186 97c120 0 177 -78 177 -211v-328h-83v302c0 105 -36 170 -126 170c-86 0 -134 -69 -134 -151v-321h-83v302c0 105 -36 170 -126 170c-88 0 -134 -72 -134 -157v-315h-83z
M427 715h89c30 -35 66 -83 97 -119h-78l-64 68l-62 -68h-79c31 36 67 84 97 119z" />
    <glyph glyph-name="Mmacron" horiz-adv-x="863" 
d="M92 0v715h147l130 -427c16 -50 41 -146 60 -206h1c20 60 49 165 65 213l137 420h139v-715h-85v362c0 76 3 233 3 291h-1c-11 -36 -50 -170 -88 -283l-123 -370h-108l-142 471c-23 76 -37 134 -51 182h-1c1 -58 2 -153 2 -252v-401h-85zM309 785v53h244v-53h-244z" />
    <glyph glyph-name="mmacron" horiz-adv-x="918" 
d="M77 0v446c0 24 0 55 -1 79h82v-75c27 44 80 89 168 89c79 0 131 -35 157 -97c24 37 74 97 186 97c120 0 177 -78 177 -211v-328h-83v302c0 105 -36 170 -126 170c-86 0 -134 -69 -134 -151v-321h-83v302c0 105 -36 170 -126 170c-88 0 -134 -72 -134 -157v-315h-83z
M348 628v53h244v-53h-244z" />
    <glyph glyph-name="Ncircumflex" horiz-adv-x="736" 
d="M644 0h-123l-238 428c-41 75 -94 168 -105 195h-2c0 -39 1 -208 1 -271v-352h-85v715h129l243 -441l98 -181h2c0 41 -3 140 -3 209v413h83v-715zM339 875h89l97 -114h-78l-64 66l-62 -66h-79z" />
    <glyph glyph-name="ncircumflex" horiz-adv-x="580" 
d="M77 0v446c0 24 0 55 -1 79h82v-75c27 44 81 89 171 89c120 0 180 -78 180 -211v-328h-83v302c0 105 -39 170 -129 170c-88 0 -137 -72 -137 -157v-315h-83zM275 715h89c30 -35 66 -83 97 -119h-78l-64 68l-62 -68h-79c31 36 67 84 97 119z" />
    <glyph glyph-name="Ndieresis" horiz-adv-x="736" 
d="M644 0h-123l-238 428c-41 75 -94 168 -105 195h-2c0 -39 1 -208 1 -271v-352h-85v715h129l243 -441l98 -181h2c0 41 -3 140 -3 209v413h83v-715zM251 766v90h89v-90h-89zM411 766v90h88v-90h-88z" />
    <glyph glyph-name="ndieresis" horiz-adv-x="580" 
d="M77 0v446c0 24 0 55 -1 79h82v-75c27 44 81 89 171 89c120 0 180 -78 180 -211v-328h-83v302c0 105 -39 170 -129 170c-88 0 -137 -72 -137 -157v-315h-83zM193 609v90h89v-90h-89zM353 609v90h88v-90h-88z" />
    <glyph glyph-name="Nmacron" horiz-adv-x="736" 
d="M644 0h-123l-238 428c-41 75 -94 168 -105 195h-2c0 -39 1 -208 1 -271v-352h-85v715h129l243 -441l98 -181h2c0 41 -3 140 -3 209v413h83v-715zM251 785v53h244v-53h-244z" />
    <glyph glyph-name="nmacron" horiz-adv-x="580" 
d="M77 0v446c0 24 0 55 -1 79h82v-75c27 44 81 89 171 89c120 0 180 -78 180 -211v-328h-83v302c0 105 -39 170 -129 170c-88 0 -137 -72 -137 -157v-315h-83zM194 628v53h244v-53h-244z" />
    <glyph glyph-name="Pmacron" horiz-adv-x="587" 
d="M92 0v715h205c59 0 114 -7 157 -29c58 -30 96 -85 96 -177c0 -73 -27 -127 -73 -161c-45 -34 -108 -49 -185 -49h-115v-299h-85zM177 643v-272h116c94 0 165 38 165 138c0 91 -56 134 -171 134h-110zM171 785v53h244v-53h-244z" />
    <glyph glyph-name="pmacron" horiz-adv-x="626" 
d="M77 525l81 -1v-81c30 48 91 96 185 96c144 0 240 -111 240 -273c0 -169 -103 -279 -246 -279c-87 0 -147 42 -179 87c1 -28 2 -74 2 -134v-120h-83v705zM325 54c108 0 168 82 168 209c0 122 -61 209 -168 209c-109 0 -167 -87 -167 -209c0 -127 58 -209 167 -209z
M208 628v53h244v-53h-244z" />
    <glyph glyph-name="at.case" horiz-adv-x="832" 
d="M564 534h69l-50 -286c-5 -30 8 -45 37 -45c61 0 115 95 115 204c0 156 -113 275 -297 275c-196 0 -328 -143 -328 -330c0 -198 145 -328 340 -328c110 0 173 36 233 83l45 -23c-70 -65 -161 -110 -285 -110c-233 0 -395 152 -395 378c0 211 160 379 390 379
c203 0 353 -130 353 -310c0 -161 -86 -267 -203 -267c-55 0 -76 28 -83 48c-14 -16 -46 -49 -119 -49c-94 0 -157 59 -157 165c0 115 75 226 198 226c68 0 105 -28 128 -64zM434 489c-88 0 -130 -88 -130 -173c0 -66 32 -115 101 -115c94 0 134 90 134 173
c0 72 -35 115 -105 115z" />
    <glyph glyph-name="bar.case" horiz-adv-x="282" 
d="M101 -42v793h80v-793h-80z" />
    <glyph glyph-name="plus.case" 
d="M59 339v65h188v196h65v-196h189v-65h-189v-197h-65v197h-188z" />
    <glyph glyph-name="minus.case" 
d="M59 339v65h442v-65h-442z" />
    <glyph glyph-name="plusminus.case" 
d="M58 360v65h188v176h65v-176h189v-65h-189v-177h-65v177h-188zM59 50v65h442v-65h-442z" />
    <glyph glyph-name="multiply.case" 
d="M115 160l-46 46l164 165l-164 165l46 46l164 -165l166 165l46 -46l-166 -165l166 -165l-46 -46l-166 165z" />
    <glyph glyph-name="divide.case" 
d="M59 339v65h442v-65h-442zM233 145v111h88v-111h-88zM233 487v111h88v-111h-88z" />
    <glyph glyph-name="equal.case" 
d="M59 432v65h442v-65h-442zM59 251v65h442v-65h-442z" />
    <glyph glyph-name="notequal.case" 
d="M59 432v65h242l55 113h75l-55 -113h125v-65h-156l-56 -116h212v-65h-244l-58 -121h-75l58 121h-123v65h155l56 116h-211z" />
    <glyph glyph-name="approxequal.case" 
d="M483 501l54 -36c-35 -60 -84 -105 -146 -105c-41 0 -75 16 -107 31l-42 20c-23 11 -54 24 -79 24c-41 0 -70 -32 -85 -68l-52 38c35 58 80 100 141 100c36 0 64 -10 100 -27l46 -22c27 -13 48 -25 77 -25c45 0 75 35 93 70zM480 250l54 -36c-35 -60 -84 -105 -146 -105
c-41 0 -75 16 -107 31l-42 20c-23 11 -54 24 -79 24c-41 0 -70 -32 -85 -68l-52 38c35 58 80 100 141 100c36 0 64 -10 100 -27l46 -22c27 -13 48 -25 77 -25c45 0 75 35 93 70z" />
    <glyph glyph-name="logicalnot.case" 
d="M18 445v65h503v-323h-67v258h-436z" />
    <glyph glyph-name="parenleft.case" horiz-adv-x="313" 
d="M45 348c0 195 92 379 224 460v-80c-91 -95 -145 -217 -145 -381c0 -162 56 -276 145 -371v-82c-131 79 -224 262 -224 454z" />
    <glyph glyph-name="parenright.case" horiz-adv-x="313" 
d="M268 348c0 -192 -93 -375 -224 -454v82c89 95 145 209 145 371c0 164 -54 286 -145 381v80c132 -81 224 -265 224 -460z" />
    <glyph glyph-name="hyphen.case" horiz-adv-x="410" 
d="M69 327v73h272v-73h-272z" />
    <glyph glyph-name="bracketleft.case" horiz-adv-x="327" 
d="M284 -3v-60h-183v828h183v-60h-103v-708h103z" />
    <glyph glyph-name="bracketright.case" horiz-adv-x="327" 
d="M43 -63v60h103v708h-103v60h183v-828h-183z" />
    <glyph glyph-name="braceleft.case" horiz-adv-x="302" 
d="M42 333v35c46 13 63 30 63 109v166c0 95 17 126 114 126c17 0 28 -1 28 -1v-58c-47 -2 -62 -12 -62 -77v-129c0 -108 -8 -127 -67 -152v-2c59 -25 67 -44 67 -152v-130c0 -65 15 -75 62 -77v-58s-11 -1 -28 -1c-98 0 -114 31 -114 126v166c0 79 -17 96 -63 109z" />
    <glyph glyph-name="braceright.case" horiz-adv-x="302" 
d="M260 368v-35c-46 -13 -63 -30 -63 -109v-166c0 -95 -16 -126 -114 -126c-17 0 -28 1 -28 1v58c47 2 62 12 62 77v130c0 108 8 127 67 152v2c-59 25 -67 44 -67 152v129c0 65 -15 75 -62 77v58s11 1 28 1c97 0 114 -31 114 -126v-166c0 -79 17 -96 63 -109z" />
    <glyph glyph-name="guillemotleft.case" horiz-adv-x="493" 
d="M243 533l-97 -187l97 -188h-79l-107 188l107 187h79zM430 533l-92 -187l92 -188h-77l-107 188l107 187h77z" />
    <glyph glyph-name="guillemotright.case" horiz-adv-x="493" 
d="M347 346l-97 187h79l107 -187l-107 -188h-79zM155 346l-92 187h77l107 -187l-107 -188h-77z" />
    <glyph glyph-name="endash.case" horiz-adv-x="614" 
d="M69 327v71h476v-71h-476z" />
    <glyph glyph-name="emdash.case" horiz-adv-x="979" 
d="M69 327v71h841v-71h-841z" />
    <glyph glyph-name="guilsinglleft.case" horiz-adv-x="304" 
d="M241 533l-92 -187l92 -188h-77l-107 188l107 187h77z" />
    <glyph glyph-name="guilsinglright.case" horiz-adv-x="304" 
d="M155 346l-92 187h77l107 -187l-107 -188h-77z" />
    <glyph glyph-name="brokenbar.case" horiz-adv-x="228" 
d="M74 448v303h80v-303h-80zM74 -42v303h80v-303h-80z" />
    <glyph glyph-name="registered.alt" horiz-adv-x="842" 
d="M290 143v429h125c42 0 82 -4 111 -24c32 -22 51 -58 51 -101c0 -75 -47 -110 -104 -120l113 -184h-73l-103 175h-59v-175h-61zM351 518v-147h63c29 0 54 4 70 16c18 12 28 30 28 58c0 32 -14 52 -35 62c-17 8 -37 11 -63 11h-63zM798 360c0 -210 -167 -377 -378 -377
c-208 0 -375 168 -375 377c0 208 166 376 377 376c209 0 376 -168 376 -376zM747 360c0 183 -147 328 -325 328c-183 0 -325 -145 -325 -328c0 -182 142 -330 324 -330c179 0 326 146 326 330z" />
    <glyph glyph-name="less.case" 
d="M63 327v65c133 69 263 138 396 208v-75c-94 -45 -293 -144 -325 -160v-3c32 -16 233 -117 325 -162v-78c-133 70 -264 136 -396 205z" />
    <glyph glyph-name="greater.case" 
d="M496 392v-65c-132 -69 -263 -135 -396 -205v78c92 45 293 146 325 162v3c-32 16 -231 115 -325 160v75c133 -70 263 -139 396 -208z" />
    <glyph glyph-name="lessequal.case" 
d="M78 310v91c133 60 263 120 396 179v-95c-94 -37 -263 -110 -295 -124v-3c32 -14 200 -87 295 -127v-97c-133 59 -264 116 -396 176zM474 0h-396v87h396v-87z" />
    <glyph glyph-name="greaterequal.case" 
d="M481 401v-91c-132 -60 -263 -117 -396 -176v97c95 40 263 113 295 127v3c-32 14 -201 87 -295 124v95c133 -59 263 -119 396 -179zM481 0h-396v87h396v-87z" />
    <glyph glyph-name="infinity.case" horiz-adv-x="848" 
d="M215 532c82 0 146 -59 209 -122c63 63 127 122 210 122c98 0 161 -66 161 -167c0 -90 -50 -168 -160 -168c-77 0 -135 45 -211 121c-76 -76 -134 -121 -211 -121c-110 0 -160 78 -160 168c0 101 64 167 162 167zM218 262c59 0 103 37 169 101c-50 47 -103 106 -171 106
c-60 0 -94 -44 -94 -103c0 -65 34 -104 96 -104zM630 262c62 0 96 39 96 104c0 59 -34 103 -94 103c-68 0 -121 -59 -171 -106c66 -64 110 -101 169 -101z" />
    <glyph glyph-name="uni00AD.case" horiz-adv-x="410" 
d="M69 327v73h272v-73h-272z" />
    <glyph glyph-name="zero.posf" horiz-adv-x="611" 
d="M305 715c202 0 248 -180 248 -366c0 -206 -52 -364 -248 -364s-247 158 -247 364c0 186 45 366 247 366zM305 647c-130 0 -156 -138 -156 -297c0 -172 32 -298 156 -298c126 0 157 126 157 298c0 159 -27 297 -157 297z" />
    <glyph glyph-name="one.posf" horiz-adv-x="389" 
d="M202 0v536h-172v54c123 3 178 33 190 111h66v-701h-84z" />
    <glyph glyph-name="two.posf" horiz-adv-x="573" 
d="M519 0h-464v71s117 102 205 178c126 110 162 180 162 259c0 81 -51 138 -138 138c-90 0 -143 -57 -147 -166h-85c0 139 88 235 236 235s226 -83 226 -202c0 -148 -123 -250 -233 -341c-19 -16 -47 -37 -128 -99h366v-73z" />
    <glyph glyph-name="three.posf" horiz-adv-x="577" 
d="M41 203h89c13 -109 71 -150 155 -150c93 0 151 65 151 151c0 106 -77 145 -174 145h-26v64h5c105 0 160 32 160 122c0 76 -55 113 -117 113c-69 0 -124 -36 -129 -120h-83c2 113 89 188 215 188s204 -70 204 -168c0 -88 -46 -134 -125 -160c90 -17 161 -77 161 -185
c0 -127 -92 -217 -243 -217c-148 0 -228 74 -243 217z" />
    <glyph glyph-name="four.posf" horiz-adv-x="585" 
d="M547 226v-65h-99v-161h-81v161h-340v61l228 319c42 59 87 123 112 160h81v-475h99zM371 599h-2c-8 -13 -85 -131 -117 -177l-47 -68c-34 -48 -92 -128 -92 -128h254v121c0 111 3 219 4 252z" />
    <glyph glyph-name="five.posf" horiz-adv-x="570" 
d="M70 331l43 370h371v-73h-307l-29 -236c31 29 82 60 158 60c131 0 220 -87 220 -227c0 -139 -95 -240 -242 -240c-132 0 -226 66 -244 207h88c8 -74 55 -140 154 -140c100 0 157 70 157 169c0 92 -57 165 -153 165c-71 0 -112 -35 -134 -68z" />
    <glyph glyph-name="six.posf" horiz-adv-x="601" 
d="M536 522h-88c-10 56 -45 127 -139 127c-121 0 -162 -99 -165 -291c31 49 86 93 185 93c132 0 221 -90 221 -227c0 -145 -100 -238 -243 -238c-169 0 -251 110 -251 355c0 273 92 375 257 375c137 0 204 -85 223 -194zM307 386c-99 0 -153 -60 -153 -161
c0 -102 51 -173 151 -173c99 0 156 69 156 167c0 101 -54 167 -154 167z" />
    <glyph glyph-name="seven.posf" horiz-adv-x="491" 
d="M195 0h-97c47 118 103 229 156 344c38 82 104 209 146 286v1c-19 -1 -36 -1 -55 -1h-311v71h440v-65l-24 -52c-105 -223 -179 -384 -255 -584z" />
    <glyph glyph-name="eight.posf" horiz-adv-x="592" 
d="M188 378c-57 24 -107 74 -107 160c0 98 79 177 215 177c135 0 215 -79 215 -177c0 -88 -52 -135 -108 -160c77 -31 138 -84 138 -188c0 -121 -84 -205 -245 -205c-163 0 -246 85 -246 205c0 100 62 160 138 188zM296 342c-102 0 -161 -58 -161 -146
c0 -84 54 -144 161 -144c103 0 159 60 159 144c0 88 -60 146 -159 146zM296 647c-83 0 -134 -49 -134 -118s52 -120 134 -120s134 51 134 120c0 68 -52 118 -134 118z" />
    <glyph glyph-name="nine.posf" horiz-adv-x="602" 
d="M64 180h88c8 -59 46 -127 140 -127c121 0 163 101 165 293c-31 -49 -86 -93 -185 -93c-132 0 -221 87 -221 228c0 140 101 234 244 234c166 0 250 -103 250 -347c0 -282 -92 -382 -257 -382c-137 0 -205 83 -224 194zM294 319c99 0 153 60 153 161c0 99 -52 170 -151 170
s-157 -66 -157 -164c0 -101 55 -167 155 -167z" />
    <glyph glyph-name="zero.slashplf" horiz-adv-x="609" 
d="M304 729c202 0 248 -183 248 -373c0 -210 -52 -371 -248 -371s-247 161 -247 371c0 190 45 373 247 373zM304 660c-130 0 -156 -141 -156 -303c0 -95 9 -175 37 -230l185 517c-19 10 -40 16 -66 16zM461 357c0 89 -8 172 -37 228l-184 -518c18 -9 39 -14 64 -14
c126 0 157 128 157 304z" />
    <glyph glyph-name="zero.tosf" 
d="M279 715c202 0 248 -180 248 -366c0 -206 -52 -364 -248 -364s-247 158 -247 364c0 186 45 366 247 366zM279 647c-130 0 -156 -138 -156 -297c0 -172 32 -298 156 -298c126 0 157 126 157 298c0 159 -27 297 -157 297z" />
    <glyph glyph-name="one.tosf" 
d="M287 0v536h-172v54c123 3 178 33 190 111h66v-701h-84z" />
    <glyph glyph-name="two.tosf" 
d="M512 0h-464v71s117 102 205 178c126 110 162 180 162 259c0 81 -51 138 -138 138c-90 0 -143 -57 -147 -166h-85c0 139 88 235 236 235s226 -83 226 -202c0 -148 -123 -250 -233 -341c-19 -16 -47 -37 -128 -99h366v-73z" />
    <glyph glyph-name="three.tosf" 
d="M33 202h89c13 -109 71 -150 155 -150c93 0 151 65 151 151c0 106 -77 145 -174 145h-26v64h5c105 0 160 32 160 122c0 76 -55 113 -117 113c-69 0 -124 -36 -129 -120h-83c2 113 89 188 215 188s204 -70 204 -168c0 -88 -46 -134 -125 -160c90 -17 161 -77 161 -185
c0 -127 -92 -217 -243 -217c-148 0 -228 74 -243 217z" />
    <glyph glyph-name="four.tosf" 
d="M534 226v-65h-99v-161h-81v161h-340v61l228 319c42 59 87 123 112 160h81v-475h99zM358 599h-2c-8 -13 -85 -131 -117 -177l-47 -68c-34 -48 -92 -128 -92 -128h254v121c0 111 3 219 4 252z" />
    <glyph glyph-name="five.tosf" 
d="M65 331l43 370h371v-73h-307l-29 -236c31 29 82 60 158 60c131 0 220 -87 220 -227c0 -139 -95 -240 -242 -240c-132 0 -226 66 -244 207h88c8 -74 55 -140 154 -140c100 0 157 70 157 169c0 92 -57 165 -153 165c-71 0 -112 -35 -134 -68z" />
    <glyph glyph-name="six.tosf" 
d="M515 522h-88c-10 56 -45 127 -139 127c-121 0 -162 -99 -165 -291c31 49 86 93 185 93c132 0 221 -90 221 -227c0 -145 -100 -238 -243 -238c-169 0 -251 110 -251 355c0 273 92 375 257 375c137 0 204 -85 223 -194zM286 386c-99 0 -153 -60 -153 -161
c0 -102 51 -173 151 -173c99 0 156 69 156 167c0 101 -54 167 -154 167z" />
    <glyph glyph-name="seven.tosf" 
d="M229 0h-97c47 118 103 229 156 344c38 82 104 209 146 286v1c-19 -1 -36 -1 -55 -1h-311v71h440v-65l-24 -52c-105 -223 -179 -384 -255 -584z" />
    <glyph glyph-name="eight.tosf" 
d="M172 378c-57 24 -107 74 -107 160c0 98 79 177 215 177c135 0 215 -79 215 -177c0 -88 -52 -135 -108 -160c77 -31 138 -84 138 -188c0 -121 -84 -205 -245 -205c-163 0 -246 85 -246 205c0 100 62 160 138 188zM280 342c-102 0 -161 -58 -161 -146
c0 -84 54 -144 161 -144c103 0 159 60 159 144c0 88 -60 146 -159 146zM280 647c-83 0 -134 -49 -134 -118s52 -120 134 -120s134 51 134 120c0 68 -52 118 -134 118z" />
    <glyph glyph-name="nine.tosf" 
d="M43 180h88c8 -59 46 -127 140 -127c121 0 163 101 165 293c-31 -49 -86 -93 -185 -93c-132 0 -221 87 -221 228c0 140 101 234 244 234c166 0 250 -103 250 -347c0 -282 -92 -382 -257 -382c-137 0 -205 83 -224 194zM273 319c99 0 153 60 153 161c0 99 -52 170 -151 170
s-157 -66 -157 -164c0 -101 55 -167 155 -167z" />
    <glyph glyph-name="zero.sub" horiz-adv-x="458" 
d="M229 424c152 0 186 -137 186 -280c0 -157 -39 -278 -186 -278s-185 121 -185 278c0 143 34 280 185 280zM229 372c-97 0 -117 -106 -117 -227c0 -132 24 -228 117 -228c95 0 118 96 118 228c0 121 -20 227 -118 227z" />
    <glyph glyph-name="one.sub" horiz-adv-x="296" 
d="M154 -123v411h-129v41c92 2 133 25 142 85h50v-537h-63z" />
    <glyph glyph-name="two.sub" horiz-adv-x="430" 
d="M389 -123h-348v54s88 78 154 137c95 84 122 137 122 198c0 62 -39 105 -104 105c-67 0 -105 -42 -110 -117h-65c4 96 67 170 177 170c112 0 171 -63 171 -155c0 -113 -93 -191 -175 -261c-14 -12 -35 -28 -96 -75h274v-56z" />
    <glyph glyph-name="three.sub" horiz-adv-x="435" 
d="M32 32h66c10 -84 54 -115 117 -115c69 0 113 49 113 115c0 81 -58 111 -131 111h-19v49h4c78 0 120 25 120 94c0 58 -42 86 -88 86c-52 0 -93 -28 -97 -91h-62c1 86 67 143 161 143c95 0 153 -53 153 -128c0 -68 -34 -103 -94 -123c68 -13 121 -59 121 -141
c0 -98 -69 -166 -182 -166c-111 0 -171 56 -182 166z" />
    <glyph glyph-name="four.sub" horiz-adv-x="443" 
d="M413 50v-50h-74v-123h-61v123h-255v47l171 244c31 45 65 94 84 123h61v-364h74zM281 336h-2c-6 -10 -63 -101 -87 -136l-36 -52c-25 -37 -69 -98 -69 -98h191v93c0 85 2 167 3 193z" />
    <glyph glyph-name="five.sub" horiz-adv-x="428" 
d="M53 131l32 283h279v-56h-231l-21 -181c23 23 61 46 118 46c98 0 165 -67 165 -173c0 -107 -71 -184 -181 -184c-99 0 -170 50 -183 158h66c6 -57 41 -107 115 -107c75 0 118 54 118 130c0 70 -43 126 -115 126c-53 0 -84 -27 -100 -53z" />
    <glyph glyph-name="six.sub" horiz-adv-x="451" 
d="M403 275h-66c-8 43 -34 97 -105 97c-90 0 -121 -76 -123 -223c23 38 64 71 138 71c99 0 166 -69 166 -174c0 -111 -75 -181 -182 -181c-127 0 -188 84 -188 271c0 209 69 287 192 287c103 0 153 -65 168 -148zM231 171c-74 0 -115 -47 -115 -124c0 -78 38 -132 113 -132
s117 53 117 128c0 77 -40 128 -115 128z" />
    <glyph glyph-name="seven.sub" horiz-adv-x="373" 
d="M148 -123h-73c35 90 77 176 117 264c28 63 78 159 109 219h-274v54h330v-50l-18 -40c-79 -171 -134 -294 -191 -447z" />
    <glyph glyph-name="eight.sub" horiz-adv-x="447" 
d="M143 167c-43 18 -80 56 -80 122c0 75 59 135 161 135c101 0 161 -60 161 -135c0 -68 -39 -104 -81 -122c58 -24 104 -65 104 -144c0 -93 -63 -157 -184 -157c-122 0 -185 64 -185 157c0 76 47 122 104 144zM224 139c-77 0 -121 -44 -121 -112c0 -64 41 -110 121 -110
c77 0 119 46 119 110c0 68 -45 112 -119 112zM224 372c-62 0 -101 -37 -101 -90s39 -92 101 -92c61 0 100 39 100 92c0 52 -39 90 -100 90z" />
    <glyph glyph-name="nine.sub" horiz-adv-x="453" 
d="M48 14h66c6 -45 35 -97 105 -97c91 0 123 77 124 224c-23 -37 -64 -71 -139 -71c-99 0 -165 67 -165 175c0 107 75 178 183 178c124 0 187 -79 187 -265c0 -216 -69 -292 -193 -292c-102 0 -153 63 -168 148zM221 120c74 0 115 47 115 124c0 76 -39 130 -114 130
c-74 0 -117 -51 -117 -126c0 -77 41 -128 116 -128z" />
    <glyph glyph-name="a.sub" horiz-adv-x="403" 
d="M103 153h-57c0 72 64 128 158 128c102 0 152 -48 152 -170v-28c0 -11 -1 -22 -1 -128c0 -33 3 -60 8 -78h-55c-3 16 -5 36 -5 66c-26 -43 -67 -73 -137 -73c-80 0 -138 41 -138 113c0 76 72 104 168 119c22 4 50 6 103 13c0 85 -29 120 -97 120c-64 0 -93 -32 -99 -82z
M46 152l-1 1h1v-1zM300 52v20l-96 -15c-72 -11 -113 -24 -113 -73c0 -47 35 -73 89 -73c78 0 120 49 120 141z" />
    <glyph glyph-name="b.sub" horiz-adv-x="464" 
d="M51 -123v536h60v-206c23 38 69 74 140 74c107 0 179 -83 179 -205c0 -126 -78 -209 -184 -209c-68 0 -115 36 -139 74v-64h-56zM237 -85c82 0 127 63 127 159c0 92 -46 159 -127 159c-84 0 -127 -67 -127 -159c0 -96 43 -159 127 -159z" />
    <glyph glyph-name="c.sub" horiz-adv-x="440" 
d="M355 0h59c-24 -74 -85 -133 -183 -133c-120 0 -197 82 -197 208c0 123 81 206 198 206c101 0 160 -64 182 -138h-59c-17 47 -55 90 -123 90c-86 0 -136 -67 -136 -159c0 -96 47 -159 136 -159c66 0 103 39 123 85z" />
    <glyph glyph-name="d.sub" horiz-adv-x="464" 
d="M413 413v-536h-56v64c-24 -38 -71 -74 -138 -74c-108 0 -185 77 -185 207c0 121 77 207 180 207c72 0 115 -35 137 -71l2 1c-1 27 -1 61 -1 87v115h61zM228 -85c82 0 126 63 126 159c0 92 -44 158 -126 158c-83 0 -128 -66 -128 -158c0 -96 45 -159 128 -159z" />
    <glyph glyph-name="e.sub" horiz-adv-x="445" 
d="M417 64h-323c5 -94 57 -149 139 -149c58 0 96 35 115 72h61c-27 -65 -91 -120 -178 -120c-123 0 -197 87 -197 205c0 123 79 209 198 209c129 0 186 -100 186 -204c0 -5 -1 -8 -1 -10v-3zM97 109h258c-8 72 -46 125 -124 125c-77 0 -124 -51 -134 -125z" />
    <glyph glyph-name="f.sub" horiz-adv-x="216" 
d="M201 416l2 -49c-5 1 -13 2 -17 2c-31 0 -51 -14 -51 -50v-48h68v-45h-68v-349h-60v349h-52v45h52v34c0 70 29 113 101 113c9 0 18 -1 25 -2z" />
    <glyph glyph-name="g.sub" horiz-adv-x="463" 
d="M226 -219c88 0 128 62 128 160v30h-2c-22 -39 -66 -76 -136 -76c-111 0 -181 82 -181 192c0 116 77 194 182 194c69 0 112 -32 137 -71c0 0 -1 40 -1 61h60v-320c0 -130 -59 -219 -192 -219c-93 0 -154 62 -173 127h62c12 -36 43 -78 116 -78zM228 -57
c71 0 126 55 126 147c0 84 -48 142 -126 142c-81 0 -127 -59 -127 -144c0 -82 45 -145 127 -145z" />
    <glyph glyph-name="h.sub" horiz-adv-x="421" 
d="M51 414h60v-125c0 -36 -1 -73 -1 -73l2 -1c20 33 60 67 128 67c89 0 134 -59 134 -159v-246h-60v227c0 81 -30 129 -98 129s-105 -55 -105 -119v-237h-60v537z" />
    <glyph glyph-name="i.sub" horiz-adv-x="161" 
d="M111 340h-61v74h61v-74zM51 271h59v-394h-59v394z" />
    <glyph glyph-name="j.sub" horiz-adv-x="161" 
d="M42 -206c6 8 9 19 9 41v436h59v-425c0 -51 -9 -76 -25 -92c-19 -20 -50 -25 -79 -25c-10 0 -21 2 -27 3c0 12 -1 35 -1 47c0 0 5 -1 15 -1c23 0 40 4 49 16zM111 340h-61v74h61v-74z" />
    <glyph glyph-name="k.sub" horiz-adv-x="359" 
d="M363 -123h-80c-47 61 -170 201 -170 201c0 -51 -1 -149 -1 -201h-61v537h61v-325s113 127 161 182h72c-70 -76 -168 -179 -168 -179z" />
    <glyph glyph-name="l.sub" horiz-adv-x="163" 
d="M51 -123v537h61v-537h-61z" />
    <glyph glyph-name="m.sub" horiz-adv-x="675" 
d="M51 -123v336c0 16 0 41 -1 58h60v-59c21 34 61 70 127 70c59 0 98 -28 118 -75c18 29 57 75 140 75c90 0 133 -59 133 -159v-246h-61v227c0 80 -27 129 -96 129c-66 0 -102 -52 -102 -115v-241h-60v227c0 80 -27 129 -96 129c-67 0 -102 -55 -102 -119v-237h-60z" />
    <glyph glyph-name="n.sub" horiz-adv-x="421" 
d="M51 -123v336c0 16 0 41 -1 58h60v-59c21 34 61 70 130 70c89 0 134 -59 134 -159v-246h-60v227c0 80 -30 129 -98 129s-105 -55 -105 -119v-237h-60z" />
    <glyph glyph-name="o.sub" horiz-adv-x="466" 
d="M232 -85c87 0 135 64 135 159c0 92 -49 159 -135 159c-87 0 -136 -67 -136 -159c0 -95 48 -159 136 -159zM232 -133c-126 0 -198 86 -198 206c0 119 77 208 200 208c121 0 198 -89 198 -208c0 -120 -75 -206 -200 -206z" />
    <glyph glyph-name="p.sub" horiz-adv-x="464" 
d="M51 271h59v-65c23 38 70 76 141 76c107 0 179 -84 179 -205c0 -126 -78 -209 -184 -209c-65 0 -111 33 -136 68c1 -21 1 -59 1 -104v-89h-60v528zM237 -84c82 0 127 63 127 159c0 93 -46 159 -127 159c-84 0 -127 -66 -127 -159c0 -96 43 -159 127 -159z" />
    <glyph glyph-name="q.sub" horiz-adv-x="464" 
d="M354 271h59v-528h-61v93c0 28 1 71 2 102c-25 -36 -70 -70 -135 -70c-108 0 -185 76 -185 207c0 121 77 207 180 207c72 0 116 -36 139 -74l2 1c-1 11 -1 49 -1 62zM228 -84c82 0 126 63 126 159c0 93 -44 158 -126 158c-83 0 -128 -65 -128 -158c0 -96 45 -159 128 -159
z" />
    <glyph glyph-name="r.sub" horiz-adv-x="228" 
d="M108 271v-63h2c13 40 54 72 99 72c3 0 8 0 11 -1v-57c-6 1 -17 2 -24 2c-63 0 -85 -52 -85 -132v-215h-60v336c0 16 0 41 -1 58h58z" />
    <glyph glyph-name="s.sub" horiz-adv-x="372" 
d="M26 -6h58c15 -50 46 -80 106 -80c56 0 92 26 92 67c0 40 -32 51 -84 65l-47 13c-61 17 -111 42 -111 107c0 71 61 114 145 114c78 0 135 -37 149 -113h-57c-12 38 -44 66 -93 66c-55 0 -84 -24 -84 -59c0 -36 30 -50 80 -64l50 -15c67 -19 111 -45 111 -107
c0 -77 -64 -121 -153 -121c-85 0 -145 38 -162 127z" />
    <glyph glyph-name="t.sub" horiz-adv-x="232" 
d="M73 226h-61v45h61v106h59v-106h76v-45h-76v-253c0 -41 19 -58 58 -58c2 0 7 0 11 1v-45c-6 -1 -15 -1 -20 -1c-66 0 -108 22 -108 98v258z" />
    <glyph glyph-name="u.sub" horiz-adv-x="415" 
d="M364 271v-335c0 -18 0 -41 1 -59h-60v53h-2c-18 -31 -54 -64 -123 -64c-90 0 -133 59 -133 159v246h60v-228c0 -78 29 -128 98 -128c65 0 99 55 99 119v237h60z" />
    <glyph glyph-name="v.sub" horiz-adv-x="388" 
d="M157 -123l-66 178c-25 69 -55 145 -80 215h68l72 -207l20 -57l25 -75l30 82l21 59c22 64 48 134 70 198h62l-150 -393h-72l1 -1s-1 0 -1 1z" />
    <glyph glyph-name="w.sub" horiz-adv-x="606" 
d="M136 -123l-121 393h66l58 -204l3 -11c12 -41 22 -79 36 -132l43 160l49 187h75l43 -178l20 -82l19 -83h2l30 102c7 23 15 47 22 72l51 169h61c-42 -128 -126 -394 -126 -394c-20 0 -60 1 -81 1l-38 152c-15 61 -33 143 -40 180h-2l-11 -40c-10 -42 -23 -96 -36 -143
l-41 -149h-82z" />
    <glyph glyph-name="x.sub" horiz-adv-x="360" 
d="M70 -123h-66c22 30 101 138 144 200l-137 193h70c17 -26 36 -52 53 -79l48 -70l36 51l65 98h64c-23 -34 -55 -77 -85 -118l-49 -68c40 -57 103 -150 144 -207h-69l-52 79l-57 85l-48 -73zM3 -125l-1 2h2c0 -1 -1 -2 -1 -2z" />
    <glyph glyph-name="y.sub" horiz-adv-x="383" 
d="M166 -258h-60l55 132l-77 201l-75 196h68c33 -97 67 -190 94 -264l22 -63l26 70c28 76 69 187 93 257h63l-78 -201c-41 -106 -85 -220 -131 -328z" />
    <glyph glyph-name="z.sub" horiz-adv-x="367" 
d="M26 -123v44l174 218c29 35 57 70 68 85c-27 -1 -91 -1 -121 -1h-113v47h301v-48l-168 -206c-10 -13 -27 -35 -43 -54l-31 -39h54c21 0 44 1 63 1h129v-47h-313z" />
    <glyph glyph-name="zero.sup" horiz-adv-x="456" 
d="M228 849c152 0 186 -137 186 -280c0 -157 -39 -278 -186 -278s-185 121 -185 278c0 143 34 280 185 280zM228 797c-97 0 -117 -106 -117 -227c0 -132 24 -228 117 -228c95 0 118 96 118 228c0 121 -20 227 -118 227z" />
    <glyph glyph-name="one.sup" horiz-adv-x="296" 
d="M154 302v411h-129v41c92 2 133 25 142 85h50v-537h-63z" />
    <glyph glyph-name="two.sup" horiz-adv-x="430" 
d="M389 302h-348v54s88 78 154 137c95 84 122 137 122 198c0 62 -39 105 -104 105c-67 0 -105 -42 -110 -117h-65c4 96 67 170 177 170c112 0 171 -63 171 -155c0 -113 -93 -191 -175 -261c-14 -12 -35 -28 -96 -75h274v-56z" />
    <glyph glyph-name="three.sup" horiz-adv-x="433" 
d="M31 457h66c10 -84 54 -115 117 -115c69 0 113 49 113 115c0 81 -58 111 -131 111h-19v49h4c78 0 120 25 120 94c0 58 -42 86 -88 86c-52 0 -93 -28 -97 -91h-62c1 86 67 143 161 143c95 0 153 -53 153 -128c0 -68 -34 -103 -94 -123c68 -13 121 -59 121 -141
c0 -98 -69 -166 -182 -166c-111 0 -171 56 -182 166z" />
    <glyph glyph-name="four.sup" horiz-adv-x="443" 
d="M413 475v-50h-74v-123h-61v123h-255v47l171 244c31 45 65 94 84 123h61v-364h74zM281 761h-2c-6 -10 -63 -101 -87 -136l-36 -52c-25 -37 -69 -98 -69 -98h191v93c0 85 2 167 3 193z" />
    <glyph glyph-name="five.sup" horiz-adv-x="427" 
d="M52 556l32 283h279v-56h-231l-21 -181c23 23 61 46 118 46c98 0 165 -67 165 -173c0 -107 -71 -184 -181 -184c-99 0 -170 50 -183 158h66c6 -57 41 -107 115 -107c75 0 118 54 118 130c0 70 -43 126 -115 126c-53 0 -84 -27 -100 -53z" />
    <glyph glyph-name="six.sup" horiz-adv-x="452" 
d="M403 700h-66c-8 43 -34 97 -105 97c-90 0 -121 -76 -123 -223c23 38 64 71 138 71c99 0 166 -69 166 -174c0 -111 -75 -181 -182 -181c-127 0 -188 84 -188 271c0 209 69 287 192 287c103 0 153 -65 168 -148zM231 596c-74 0 -115 -47 -115 -124c0 -78 38 -132 113 -132
s117 53 117 128c0 77 -40 128 -115 128z" />
    <glyph glyph-name="seven.sup" horiz-adv-x="371" 
d="M147 302h-73c35 90 77 176 117 264c28 63 78 159 109 219h-274v54h330v-50l-18 -40c-79 -171 -134 -294 -191 -447z" />
    <glyph glyph-name="eight.sup" horiz-adv-x="447" 
d="M143 592c-43 18 -80 56 -80 122c0 75 59 135 161 135c101 0 161 -60 161 -135c0 -68 -39 -104 -81 -122c58 -24 104 -65 104 -144c0 -93 -63 -157 -184 -157c-122 0 -185 64 -185 157c0 76 47 122 104 144zM224 564c-77 0 -121 -44 -121 -112c0 -64 41 -110 121 -110
c77 0 119 46 119 110c0 68 -45 112 -119 112zM224 797c-62 0 -101 -37 -101 -90s39 -92 101 -92c61 0 100 39 100 92c0 52 -39 90 -100 90z" />
    <glyph glyph-name="nine.sup" horiz-adv-x="451" 
d="M47 439h66c6 -45 35 -97 105 -97c91 0 123 77 124 224c-23 -37 -64 -71 -139 -71c-99 0 -165 67 -165 175c0 107 75 178 183 178c124 0 187 -79 187 -265c0 -216 -69 -292 -193 -292c-102 0 -153 63 -168 148zM220 545c74 0 115 47 115 124c0 76 -39 130 -114 130
c-74 0 -117 -51 -117 -126c0 -77 41 -128 116 -128z" />
    <glyph glyph-name="a.sup" horiz-adv-x="403" 
d="M103 578h-57c0 72 64 128 158 128c102 0 152 -48 152 -170v-28c0 -11 -1 -22 -1 -128c0 -33 3 -60 8 -78h-55c-3 16 -5 36 -5 66c-26 -43 -67 -73 -137 -73c-80 0 -138 41 -138 113c0 76 72 104 168 119c22 4 50 6 103 13c0 85 -29 120 -97 120c-64 0 -93 -32 -99 -82z
M46 577l-1 1h1v-1zM300 477v20l-96 -15c-72 -11 -113 -24 -113 -73c0 -47 35 -73 89 -73c78 0 120 49 120 141z" />
    <glyph glyph-name="b.sup" horiz-adv-x="464" 
d="M51 302v536h60v-206c23 38 69 74 140 74c107 0 179 -83 179 -205c0 -126 -78 -209 -184 -209c-68 0 -115 36 -139 74v-64h-56zM237 340c82 0 127 63 127 159c0 92 -46 159 -127 159c-84 0 -127 -67 -127 -159c0 -96 43 -159 127 -159z" />
    <glyph glyph-name="c.sup" horiz-adv-x="440" 
d="M355 425h59c-24 -74 -85 -133 -183 -133c-120 0 -197 82 -197 208c0 123 81 206 198 206c101 0 160 -64 182 -138h-59c-17 47 -55 90 -123 90c-86 0 -136 -67 -136 -159c0 -96 47 -159 136 -159c66 0 103 39 123 85z" />
    <glyph glyph-name="d.sup" horiz-adv-x="464" 
d="M413 838v-536h-56v64c-24 -38 -71 -74 -138 -74c-108 0 -185 77 -185 207c0 121 77 207 180 207c72 0 115 -35 137 -71l2 1c-1 27 -1 61 -1 87v115h61zM228 340c82 0 126 63 126 159c0 92 -44 158 -126 158c-83 0 -128 -66 -128 -158c0 -96 45 -159 128 -159z" />
    <glyph glyph-name="e.sup" horiz-adv-x="446" 
d="M417 489h-323c5 -94 57 -149 139 -149c58 0 96 35 115 72h61c-27 -65 -91 -120 -178 -120c-123 0 -197 87 -197 205c0 123 79 209 198 209c129 0 186 -100 186 -204c0 -5 -1 -8 -1 -10v-3zM97 534h258c-8 72 -46 125 -124 125c-77 0 -124 -51 -134 -125z" />
    <glyph glyph-name="f.sup" horiz-adv-x="217" 
d="M202 841l2 -49c-5 1 -13 2 -17 2c-31 0 -51 -14 -51 -50v-48h68v-45h-68v-349h-60v349h-52v45h52v34c0 70 29 113 101 113c9 0 18 -1 25 -2z" />
    <glyph glyph-name="g.sup" horiz-adv-x="464" 
d="M226 206c88 0 128 62 128 160v30h-2c-22 -39 -66 -76 -136 -76c-111 0 -181 82 -181 192c0 116 77 194 182 194c69 0 112 -32 137 -71c0 0 -1 40 -1 61h60v-320c0 -130 -59 -219 -192 -219c-93 0 -154 62 -173 127h62c12 -36 43 -78 116 -78zM228 368
c71 0 126 55 126 147c0 84 -48 142 -126 142c-81 0 -127 -59 -127 -144c0 -82 45 -145 127 -145z" />
    <glyph glyph-name="h.sup" horiz-adv-x="421" 
d="M51 839h60v-125c0 -36 -1 -73 -1 -73l2 -1c20 33 60 67 128 67c89 0 134 -59 134 -159v-246h-60v227c0 81 -30 129 -98 129s-105 -55 -105 -119v-237h-60v537z" />
    <glyph glyph-name="i.sup" horiz-adv-x="161" 
d="M111 765h-61v74h61v-74zM51 696h59v-394h-59v394z" />
    <glyph glyph-name="j.sup" horiz-adv-x="161" 
d="M42 219c6 8 9 19 9 41v436h59v-425c0 -51 -9 -76 -25 -92c-19 -20 -50 -25 -79 -25c-10 0 -21 2 -27 3c0 12 -1 35 -1 47c0 0 5 -1 15 -1c23 0 40 4 49 16zM111 765h-61v74h61v-74z" />
    <glyph glyph-name="k.sup" horiz-adv-x="359" 
d="M363 302h-80c-47 61 -170 201 -170 201c0 -51 -1 -149 -1 -201h-61v537h61v-325s113 127 161 182h72c-70 -76 -168 -179 -168 -179z" />
    <glyph glyph-name="l.sup" horiz-adv-x="163" 
d="M51 302v537h61v-537h-61z" />
    <glyph glyph-name="m.sup" horiz-adv-x="675" 
d="M51 302v336c0 16 0 41 -1 58h60v-59c21 34 61 70 127 70c59 0 98 -28 118 -75c18 29 57 75 140 75c90 0 133 -59 133 -159v-246h-61v227c0 80 -27 129 -96 129c-66 0 -102 -52 -102 -115v-241h-60v227c0 80 -27 129 -96 129c-67 0 -102 -55 -102 -119v-237h-60z" />
    <glyph glyph-name="n.sup" horiz-adv-x="421" 
d="M51 302v336c0 16 0 41 -1 58h60v-59c21 34 61 70 130 70c89 0 134 -59 134 -159v-246h-60v227c0 80 -30 129 -98 129s-105 -55 -105 -119v-237h-60z" />
    <glyph glyph-name="o.sup" horiz-adv-x="466" 
d="M232 340c87 0 135 64 135 159c0 92 -49 159 -135 159c-87 0 -136 -67 -136 -159c0 -95 48 -159 136 -159zM232 292c-126 0 -198 86 -198 206c0 119 77 208 200 208c121 0 198 -89 198 -208c0 -120 -75 -206 -200 -206z" />
    <glyph glyph-name="p.sup" horiz-adv-x="464" 
d="M51 696h59v-65c23 38 70 76 141 76c107 0 179 -84 179 -205c0 -126 -78 -209 -184 -209c-65 0 -111 33 -136 68c1 -21 1 -59 1 -104v-89h-60v528zM237 341c82 0 127 63 127 159c0 93 -46 159 -127 159c-84 0 -127 -66 -127 -159c0 -96 43 -159 127 -159z" />
    <glyph glyph-name="q.sup" horiz-adv-x="465" 
d="M355 696h59v-528h-61v93c0 28 1 71 2 102c-25 -36 -70 -70 -135 -70c-108 0 -185 76 -185 207c0 121 77 207 180 207c72 0 116 -36 139 -74l2 1c-1 11 -1 49 -1 62zM229 341c82 0 126 63 126 159c0 93 -44 158 -126 158c-83 0 -128 -65 -128 -158c0 -96 45 -159 128 -159
z" />
    <glyph glyph-name="r.sup" horiz-adv-x="230" 
d="M108 696v-63h2c13 40 54 72 99 72c3 0 8 0 11 -1v-57c-6 1 -17 2 -24 2c-63 0 -85 -52 -85 -132v-215h-60v336c0 16 0 41 -1 58h58z" />
    <glyph glyph-name="s.sup" horiz-adv-x="372" 
d="M26 419h58c15 -50 46 -80 106 -80c56 0 92 26 92 67c0 40 -32 51 -84 65l-47 13c-61 17 -111 42 -111 107c0 71 61 114 145 114c78 0 135 -37 149 -113h-57c-12 38 -44 66 -93 66c-55 0 -84 -24 -84 -59c0 -36 30 -50 80 -64l50 -15c67 -19 111 -45 111 -107
c0 -77 -64 -121 -153 -121c-85 0 -145 38 -162 127z" />
    <glyph glyph-name="t.sup" horiz-adv-x="235" 
d="M75 651h-61v45h61v106h59v-106h76v-45h-76v-253c0 -41 19 -58 58 -58c2 0 7 0 11 1v-45c-6 -1 -15 -1 -20 -1c-66 0 -108 22 -108 98v258z" />
    <glyph glyph-name="u.sup" horiz-adv-x="415" 
d="M364 696v-335c0 -18 0 -41 1 -59h-60v53h-2c-18 -31 -54 -64 -123 -64c-90 0 -133 59 -133 159v246h60v-228c0 -78 29 -128 98 -128c65 0 99 55 99 119v237h60z" />
    <glyph glyph-name="v.sup" horiz-adv-x="386" 
d="M156 302l-66 178c-25 69 -55 145 -80 215h68l72 -207l20 -57l25 -75l30 82l21 59c22 64 48 134 70 198h62l-150 -393h-72l1 -1s-1 0 -1 1z" />
    <glyph glyph-name="w.sup" horiz-adv-x="605" 
d="M136 302l-121 393h66l58 -204l3 -11c12 -41 22 -79 36 -132l43 160l49 187h75l43 -178l20 -82l19 -83h2l30 102c7 23 15 47 22 72l51 169h61c-42 -128 -126 -394 -126 -394c-20 0 -60 1 -81 1l-38 152c-15 61 -33 143 -40 180h-2l-11 -40c-10 -42 -23 -96 -36 -143
l-41 -149h-82z" />
    <glyph glyph-name="x.sup" horiz-adv-x="359" 
d="M70 302h-66c22 30 101 138 144 200l-137 193h70c17 -26 36 -52 53 -79l48 -70l36 51l65 98h64c-23 -34 -55 -77 -85 -118l-49 -68c40 -57 103 -150 144 -207h-69l-52 79l-57 85l-48 -73zM3 300l-1 2h2c0 -1 -1 -2 -1 -2z" />
    <glyph glyph-name="y.sup" horiz-adv-x="385" 
d="M167 167h-60l55 132l-77 201l-75 196h68c33 -97 67 -190 94 -264l22 -63l26 70c28 76 69 187 93 257h63l-78 -201c-41 -106 -85 -220 -131 -328z" />
    <glyph glyph-name="z.sup" horiz-adv-x="368" 
d="M27 302v44l174 218c29 35 57 70 68 85c-27 -1 -91 -1 -121 -1h-113v47h301v-48l-168 -206c-10 -13 -27 -35 -43 -54l-31 -39h54c21 0 44 1 63 1h129v-47h-313z" />
    <glyph glyph-name="idotaccent" horiz-adv-x="235" 
d="M160 614h-85v101h85v-101zM77 525h81v-525h-81v525z" />
    <glyph glyph-name="zero.slashtlf" 
d="M279 729c202 0 248 -183 248 -373c0 -210 -52 -371 -248 -371s-247 161 -247 371c0 190 45 373 247 373zM279 660c-130 0 -156 -141 -156 -303c0 -95 9 -175 37 -230l185 517c-19 10 -40 16 -66 16zM436 357c0 89 -8 172 -37 228l-184 -518c18 -9 39 -14 64 -14
c126 0 157 128 157 304z" />
    <glyph glyph-name="zero.tlf" 
d="M279 729c202 0 248 -183 248 -373c0 -210 -52 -371 -248 -371s-247 161 -247 371c0 190 45 373 247 373zM279 660c-130 0 -156 -141 -156 -303c0 -176 32 -304 156 -304c126 0 157 128 157 304c0 162 -27 303 -157 303z" />
    <glyph glyph-name="one.tlf" 
d="M287 0v547h-172v55c123 3 178 34 190 113h66v-715h-84z" />
    <glyph glyph-name="two.tlf" 
d="M512 0h-464v72s117 104 205 182c126 112 162 183 162 264c0 83 -51 141 -138 141c-90 0 -143 -58 -147 -169h-85c0 141 88 239 236 239s226 -84 226 -206c0 -151 -123 -255 -233 -348c-19 -16 -47 -38 -128 -101h366v-74z" />
    <glyph glyph-name="three.tlf" 
d="M33 206h89c13 -111 71 -153 155 -153c93 0 151 66 151 154c0 108 -77 148 -174 148h-26v65h5c105 0 160 33 160 125c0 77 -55 115 -117 115c-69 0 -124 -37 -129 -122h-83c2 115 89 191 215 191s204 -71 204 -171c0 -90 -46 -137 -125 -163c90 -18 161 -79 161 -189
c0 -130 -92 -221 -243 -221c-148 0 -228 75 -243 221z" />
    <glyph glyph-name="four.tlf" 
d="M534 230v-66h-99v-164h-81v164h-340v62l228 326c42 60 87 125 112 163h81v-485h99zM358 611h-2c-8 -13 -85 -134 -117 -181l-47 -69c-34 -49 -92 -131 -92 -131h254v124c0 113 3 223 4 257z" />
    <glyph glyph-name="five.tlf" 
d="M65 338l43 377h371v-74h-307l-29 -241c31 30 82 61 158 61c131 0 220 -89 220 -231s-95 -245 -242 -245c-132 0 -226 67 -244 211h88c8 -76 55 -143 154 -143c100 0 157 72 157 173c0 93 -57 168 -153 168c-71 0 -112 -36 -134 -70z" />
    <glyph glyph-name="six.tlf" 
d="M516 532h-88c-10 57 -45 129 -139 129c-121 0 -162 -101 -165 -297c31 50 86 95 185 95c132 0 221 -92 221 -232c0 -148 -100 -242 -243 -242c-169 0 -251 112 -251 362c0 278 92 382 257 382c137 0 204 -86 223 -197zM287 393c-99 0 -153 -62 -153 -165
c0 -104 51 -176 151 -176c99 0 156 70 156 170c0 103 -54 171 -154 171z" />
    <glyph glyph-name="seven.tlf" 
d="M228 0h-97c47 120 103 234 156 351c38 84 104 213 146 292v1c-19 -1 -36 -1 -55 -1h-311v72h440v-66l-24 -53c-105 -228 -179 -392 -255 -596z" />
    <glyph glyph-name="eight.tlf" 
d="M172 386c-57 24 -107 75 -107 163c0 100 79 180 215 180c135 0 215 -80 215 -180c0 -90 -52 -138 -108 -163c77 -32 138 -86 138 -192c0 -124 -84 -209 -245 -209c-163 0 -246 86 -246 209c0 102 62 163 138 192zM280 349c-102 0 -161 -59 -161 -149
c0 -86 54 -147 161 -147c103 0 159 61 159 147c0 90 -60 149 -159 149zM280 660c-83 0 -134 -50 -134 -120c0 -71 52 -123 134 -123s134 52 134 123c0 69 -52 120 -134 120z" />
    <glyph glyph-name="nine.tlf" 
d="M43 184h88c8 -61 46 -130 140 -130c121 0 163 103 165 299c-31 -50 -86 -95 -185 -95c-132 0 -221 89 -221 233c0 143 101 238 244 238c166 0 250 -105 250 -354c0 -287 -92 -389 -257 -389c-137 0 -205 84 -224 198zM273 325c99 0 153 62 153 165
c0 101 -52 173 -151 173s-157 -67 -157 -167c0 -103 55 -171 155 -171z" />
    <glyph glyph-name="zero.slash" horiz-adv-x="609" 
d="M304 729c202 0 248 -183 248 -373c0 -210 -52 -371 -248 -371s-247 161 -247 371c0 190 45 373 247 373zM304 660c-130 0 -156 -141 -156 -303c0 -95 9 -175 37 -230l185 517c-19 10 -40 16 -66 16zM461 357c0 89 -8 172 -37 228l-184 -518c18 -9 39 -14 64 -14
c126 0 157 128 157 304z" />
    </font>
</defs>
</svg>
